<svg xmlns="http://www.w3.org/2000/svg" width="258.97" height="349.89"><defs><style>.g{fill:none;stroke-miterlimit:10}.e{fill:#c96}.g{stroke:#000;stroke-width:1.5px}</style><clipPath id="a" transform="translate(-179.92 -170.52)"><path fill="none" d="M175.51 167.2h263.37v353.21H175.51z"/></clipPath></defs><g clip-path="url(#a)"><path fill="#f2e5d9" d="M15.407 298.586L118.013 16.678l140.954 51.303L156.361 349.89z"/><path stroke-miterlimit="10" stroke="#c96" stroke-width="2" fill="none" d="M15.4 298.58L118.01 16.67"/><path class="e" d="M10.74 307.48c0 3.69-3.23 8.11-7 8.11-2.52 0-3.76-1.84-3.76-4.59 0-3.69 3.23-8.11 7-8.11 2.52.02 3.76 1.86 3.76 4.59zm-1.78-1c0-2.06-.56-2.92-2-2.92-2.29 0-5.15 3.91-5.15 8.47 0 2 .78 2.86 2.09 2.86 2.27.04 5.06-3.87 5.06-8.36zM112.39 12.16c-.12.19-.41.2-.58.2s-.42-.05-.42-.27V1.57c0-.68-.14-.92-1.21-.92-.08 0-.12-.17-.12-.29s.07-.36.17-.36c.66 0 1.24.07 2.07.07h2.12c.12 0 .15.12.15.29s0 .32-.15.32c-1 0-1.39.2-1.39.87v2.58c0 1.58 0 4.74-.15 6.05.6-1.16 1.46-2.43 2.53-4.2a49.79 49.79 0 0 0 3-5.64c.05-.14.25-.17.46-.17.41 0 .48.1.48.27v1.22c0 4 0 7.21-.15 8.52.59-1.16 2.18-3.6 3-4.84s2-3.38 2-4c0-.49-.32-.63-1.05-.63-.12 0-.14-.17-.14-.32s.05-.31.15-.31 1.31.05 2 .05 1.5-.07 1.72-.07.15.07.15.31 0 .34-.12.34c-.66 0-1 .27-1.63 1.21-.36.54-6.36 9.84-6.6 10.28a.7.7 0 0 1-.58.22c-.19 0-.43-.05-.43-.27l.07-8.74c-.97 1.95-4.09 6.57-5.35 8.75z"/><path stroke-dasharray="1 1" stroke="#000" stroke-miterlimit="10" fill="none" d="M46.19 214.01l102.5 37.91 44.72-122.91L49.93 75.95"/><path d="M140.71 268.24c-.1 0-.12-.1-.12-.31s0-.32.12-.32c1.21 0 1.56-.39 1.85-1.34l2.45-8.19c.25-.85 0-1.33-1.46-1.33-.08 0-.12-.1-.12-.29s.05-.34.15-.34c.42 0 1.14.08 2.5.08.66 0 1.55-.08 2.43-.08 2.19 0 3.25.93 3.25 2.38s-1.22 2.75-3.42 3.33a2.93 2.93 0 0 1 2.62 2.86c0 1.8-1.51 3.59-5.24 3.59-1 0-1.61-.08-2.69-.08s-1.95.04-2.32.04zm5.81-6.07a7.53 7.53 0 0 0-1 .07 41.42 41.42 0 0 0-1.31 4.5c0 .53.37.85 1.67.85a3 3 0 0 0 3.16-3.18c-.02-1.18-.43-2.24-2.52-2.24zm-.82-.66h.75c2.29 0 3.48-1.31 3.48-3.13 0-1-.48-1.67-1.75-1.67a3.86 3.86 0 0 0-1.07.15zM154.7 259.59a.32.32 0 0 1-.29.17c-.12 0-.24-.05-.22-.22l.39-2.84c.08-.68.46-1 1-1 .34 0 .65.14.65.51a1.28 1.28 0 0 1-.17.58z"/><path class="g" d="M46.19 214.01l3.56-131.5"/><path d="M49.92 75.95a26.39 26.39 0 0 1-2.93 7.21l5.47.15a26.39 26.39 0 0 1-2.54-7.36M54.9 63.3c0 .12-.12.17-.25.17s-.39-.07-.39-.19v-.75c0-1.78-.8-2.55-2.21-2.55-2.89 0-5.25 4.49-5.25 8 0 1.77.6 3.16 2.4 3.16 2.07 0 3.37-1.43 4-3.35.05-.14.15-.15.27-.15s.43.08.36.27a19.72 19.72 0 0 0-.8 3.48c0 .1-.12.17-.34.17s-.29 0-.29-.15-.1-.49-.29-.49a.71.71 0 0 0-.42.15 5 5 0 0 1-2.6.85c-2.89 0-4.2-2-4.2-4.47 0-3.65 3-8.23 7.19-8.23a2.76 2.76 0 0 1 2.19.92.52.52 0 0 0 .29.17c.15 0 .32-.15.37-.41s.14-.14.27-.14.36.08.36.24a18.34 18.34 0 0 0-.66 3.3z"/><path class="g" d="M46.19 214.01l141.52-81.71"/><path d="M193.41 129.02a26.46 26.46 0 0 1-7.7 1.28l2.74 4.75a26.46 26.46 0 0 1 5-6M39.87 218.63c0 .68.14.92 1.21.92.08 0 .12.17.12.29s-.07.36-.17.36c-.66 0-1.24-.07-2.07-.07h-2.12c-.12 0-.15-.12-.15-.29s0-.32.15-.32c1 0 1.39-.2 1.39-.87v-3.06h-1.44c-.44 0-1.29 0-1.77-.07a10.57 10.57 0 0 0-1.65 3.33c0 .49.32.63 1.05.63.12 0 .14.17.14.32s-.05.31-.15.31-1.31-.05-2-.05-1.5.07-1.72.07-.15-.07-.15-.31 0-.34.12-.34c.66 0 1-.27 1.63-1.21.36-.54 6.36-9.84 6.6-10.28a.7.7 0 0 1 .58-.22c.19 0 .42.05.42.27zm-4.45-3.74h2.81c0-1.75.07-3.45.15-4.76-.6 1.07-2.23 3.52-2.97 4.76zM197.36 124.91c-.1 0-.12-.1-.12-.31s0-.32.12-.32c1.21 0 1.56-.39 1.85-1.34l2.45-8.19c.25-.85 0-1.33-1.46-1.33-.08 0-.12-.1-.12-.29s.05-.34.15-.34c.42 0 1.14.08 2.5.08.66 0 1.55-.08 2.43-.08 2.19 0 3.25.93 3.25 2.38s-1.22 2.75-3.42 3.33a2.93 2.93 0 0 1 2.62 2.86c0 1.8-1.51 3.59-5.24 3.59-1 0-1.61-.08-2.69-.08s-1.91.04-2.32.04zm5.81-6.07a7.53 7.53 0 0 0-1 .07 41.42 41.42 0 0 0-1.31 4.5c0 .53.37.85 1.67.85a3 3 0 0 0 3.16-3.18c-.02-1.18-.43-2.23-2.52-2.23zm-.82-.66h.75c2.29 0 3.48-1.31 3.48-3.13 0-1-.48-1.67-1.75-1.67a3.86 3.86 0 0 0-1.07.15z"/><path class="g" d="M76.93 225.38l-24.57-9.09"/><path d="M46.18 214.02a26.47 26.47 0 0 1 5.91 5.11l1.9-5.14a26.47 26.47 0 0 1-7.81 0M78.56 229.48c1.51 0 2.33.88 2.33 2.5v4.2c0 .82.22 1 1.09 1 .07 0 .1.12.1.34s0 .29-.17.29c-.63 0-1.21-.08-2.14-.08-.77 0-1.68.07-2.23.07-.12 0-.14-.05-.14-.29s0-.34.19-.34c.82 0 1-.2 1-.83v-4c0-.92-.42-1.41-1.24-1.41a1.89 1.89 0 0 0-1.77 2v3.3c0 .82.14 1 1 1 .07 0 .1.12.1.34s0 .29-.17.29c-.63 0-1.12-.08-2.06-.08-.77 0-1.79.07-2.33.07-.12 0-.14-.05-.14-.29s0-.34.19-.34c.66 0 1.07-.24 1.07-.83v-5.21c0-.26-.07-.54-.56-.54h-.41c-.08 0-.12-.07-.12-.31s0-.32.17-.32a6.38 6.38 0 0 0 2.53-.37 1.73 1.73 0 0 1 .37-.15c.17 0 .34.08.34.22v1.7a3.2 3.2 0 0 1 3-1.93zM107.77 81.71c0 .12-.12.17-.25.17s-.39-.07-.39-.19v-.75c0-1.78-.8-2.55-2.21-2.55-2.89 0-5.25 4.49-5.25 8 0 1.77.6 3.16 2.4 3.16 2.07 0 3.37-1.43 4-3.35.05-.14.15-.15.27-.15s.43.08.36.27a19.76 19.76 0 0 0-.8 3.48c0 .1-.12.17-.34.17s-.29 0-.29-.15-.1-.49-.29-.49a.71.71 0 0 0-.42.15 5 5 0 0 1-2.6.85c-2.89 0-4.2-2-4.2-4.47 0-3.65 3-8.23 7.19-8.23a2.76 2.76 0 0 1 2.19.92.52.52 0 0 0 .29.17c.15 0 .32-.15.37-.41s.14-.14.27-.14.36.08.36.24a18.34 18.34 0 0 0-.66 3.3zM110.41 81.39a.32.32 0 0 1-.29.17c-.12 0-.24-.05-.22-.22l.39-2.84a.93.93 0 0 1 1-1c.34 0 .65.14.65.51a1.28 1.28 0 0 1-.17.58z"/></g></svg>