<svg xmlns="http://www.w3.org/2000/svg" width="329.36" height="306.52"><defs><style>.g,.j,.m{fill:none;stroke-miterlimit:10}.g{stroke:#000}.j,.m{stroke:gray}.j{stroke-dasharray:1 1}.k,.l{fill:gray}.l{opacity:.2}</style><clipPath id="a" transform="translate(-141.62 -193.41)"><path fill="none" d="M139.07 190.08h335.58v310.08H139.07z"/></clipPath></defs><g clip-path="url(#a)"><path fill="#cfc" d="M255.55 290.75L25.74 97.92v15l229.81 192.83v-15z"/><path stroke-miterlimit="10" stroke="#80ff80" fill="none" d="M255.55 290.75L25.74 97.92"/><path fill="#f2e5d9" d="M255.55 305.75L25.74 112.92v192.83h229.81z"/><path stroke="#c96" stroke-width="2" stroke-miterlimit="10" fill="none" d="M255.55 305.76L25.74 112.92"/><path class="g" d="M25.74 107.71v-4.58"/><path d="M25.74 112.91a21 21 0 0 1 2.17-5.79h-4.34a21 21 0 0 1 2.17 5.79M25.74 97.91a21 21 0 0 1-2.17 5.79h4.34a21 21 0 0 1-2.17-5.79M20.09 109.08c0-.12.1-.17.29-.17s.27 0 .27.14c0 .39-.26 1.75-.26 2.24 0 .22-.07.31-.27.31h-7c-.22 0-.24-.12-.24-.27a.34.34 0 0 1 .19-.27 22.78 22.78 0 0 0 4.57-4.71 6.71 6.71 0 0 0 1.07-3.74c0-1.51-.44-2.53-2-2.53a2 2 0 0 0-1.92 2.11 1.45 1.45 0 0 0 .82 1.41.15.15 0 0 1 .08.12c0 .15-.27.54-.9.54-.92 0-1.44-.82-1.44-1.78a3.32 3.32 0 0 1 3.54-3.23c2.16 0 3.55 1.19 3.55 3.28a6.64 6.64 0 0 1-1.67 4.08 26.25 26.25 0 0 1-3.76 3.54l4-.05a1 1 0 0 0 1.08-1.02z"/><path d="M221.66 284.15c-2.66 3.17-6 12.24-6 21.61" stroke="#030" stroke-miterlimit="10" fill="none"/><path d="M225.03 280.14a21 21 0 0 1-5.41 3.05l3.34 2.8a21 21 0 0 1 2.07-5.86" fill="#030"/><path d="M209.38 292.27a10.27 10.27 0 0 1-2 2.45 3.53 3.53 0 0 1-2.19.9 1.71 1.71 0 0 1-1.58-.92 4.63 4.63 0 0 1-.42-2.8 18.59 18.59 0 0 1 2.45-8.09 8.94 8.94 0 0 1 2-2.45 3.39 3.39 0 0 1 2.18-.9 1.73 1.73 0 0 1 1.58.93 5 5 0 0 1 .44 2.79 19.05 19.05 0 0 1-2.46 8.09zm-4.27-4.11a21 21 0 0 0-.7 3.89 4.07 4.07 0 0 0 .29 2.07 1.07 1.07 0 0 0 1 .73 2.1 2.1 0 0 0 1.43-.87 16 16 0 0 0 2.7-5.83zm5.13-6.2a1.07 1.07 0 0 0-1-.73 2 2 0 0 0-1.41.87 16 16 0 0 0-2.6 5.46h4.67a20.75 20.75 0 0 0 .59-3.54 4 4 0 0 0-.29-2.07z"/><path class="j" d="M13.63 228.62h300"/><path class="k" d="M2.03 226.08c0-1.84 1.41-3.91 3.43-3.91a1.68 1.68 0 0 1 1.53.8 2 2 0 0 1 1.55-.78.86.86 0 0 1 .94.87c0 .42-.2.71-.61.71-.61 0-.41-.7-1-.7a.82.82 0 0 0-.66.37 2.66 2.66 0 0 1 .1.83 3.7 3.7 0 0 1-3.47 3.94c-.92 0-1.36.37-1.36.93s.66.71 2.11 1c1.8.37 2.75.92 2.75 2.31 0 1.68-1.53 2.58-3.37 2.58-2.52 0-3.94-1.05-3.94-2.38 0-.9.53-1.28 1.05-1.28a.72.72 0 0 1 .61.31 1.3 1.3 0 0 0-.42 1c0 .87 1 1.68 2.69 1.68 1.44 0 2.13-.66 2.13-1.53 0-.65-.25-1-1.92-1.39-2.26-.56-2.89-.88-2.89-1.89a2 2 0 0 1 1.87-1.68 1.71 1.71 0 0 1-1.12-1.79zm3.4-3.35c-1 0-2.14 2.11-2.14 4 0 .77.25 1 .65 1 1.1 0 2.16-2.24 2.16-4.06-.01-.63-.18-.94-.72-.94zM318.71 228.27c0-1.84 1.41-3.91 3.43-3.91a1.68 1.68 0 0 1 1.53.8 2 2 0 0 1 1.55-.78.86.86 0 0 1 .94.87c0 .42-.2.71-.61.71-.61 0-.41-.7-1-.7a.82.82 0 0 0-.66.37 2.66 2.66 0 0 1 .1.83 3.7 3.7 0 0 1-3.47 3.94c-.92 0-1.36.37-1.36.93s.66.71 2.11 1c1.8.37 2.75.92 2.75 2.31 0 1.68-1.53 2.58-3.37 2.58-2.52 0-3.94-1.05-3.94-2.38 0-.9.53-1.28 1.05-1.28a.72.72 0 0 1 .61.31 1.3 1.3 0 0 0-.42 1c0 .87 1 1.68 2.69 1.68 1.44 0 2.13-.66 2.13-1.53 0-.65-.26-1-1.92-1.39-2.26-.56-2.89-.88-2.89-1.89a2 2 0 0 1 1.87-1.68 1.71 1.71 0 0 1-1.12-1.79zm3.4-3.35c-1 0-2.14 2.11-2.14 4 0 .77.25 1 .65 1 1.1 0 2.16-2.24 2.16-4.06-.01-.63-.18-.94-.67-.94zM327.85 223.82a.32.32 0 0 1-.29.17c-.12 0-.24-.05-.22-.22l.39-2.84a.93.93 0 0 1 1-1c.34 0 .65.14.65.51a1.28 1.28 0 0 1-.17.58z"/><path class="l" d="M131.63 84.62h64v144h-64z"/><path class="m" d="M131.63 84.62h64v144h-64z"/><circle cx="163.63" cy="156.62" r="2"/><path d="M167.38 152.76c-.1 0-.12-.1-.12-.31s0-.32.12-.32c1.21 0 1.56-.39 1.85-1.34l2.45-8.19c.25-.85 0-1.33-1.46-1.33-.08 0-.12-.1-.12-.29s.05-.34.15-.34c.42 0 1.14.08 2.5.08.66 0 1.55-.08 2.43-.08 2.19 0 3.25.93 3.25 2.38s-1.22 2.75-3.42 3.33a2.93 2.93 0 0 1 2.62 2.86c0 1.8-1.51 3.59-5.24 3.59-1 0-1.61-.08-2.69-.08s-1.96.04-2.32.04zm5.81-6.07a7.55 7.55 0 0 0-1 .07 41.36 41.36 0 0 0-1.31 4.5c0 .53.37.85 1.67.85a3 3 0 0 0 3.16-3.18c-.06-1.18-.47-2.23-2.56-2.23zm-.82-.66h.75c2.29 0 3.48-1.31 3.48-3.13 0-1-.48-1.67-1.75-1.67a3.86 3.86 0 0 0-1.07.15z"/><circle cx="163.63" cy="228.62" r="2"/><path d="M150.67 244.93c-.1 0-.12-.1-.12-.31s0-.32.12-.32c1.21 0 1.56-.39 1.85-1.34l2.45-8.19c.25-.85 0-1.33-1.46-1.33-.08 0-.12-.1-.12-.29s.05-.34.15-.34c.42 0 1.14.08 2.5.08.66 0 1.55-.08 2.43-.08 2.19 0 3.25.93 3.25 2.38s-1.22 2.75-3.42 3.33a2.93 2.93 0 0 1 2.62 2.86c0 1.8-1.51 3.59-5.24 3.59-1 0-1.61-.08-2.69-.08s-1.91.04-2.32.04zm5.81-6.07a7.55 7.55 0 0 0-1 .07 41.36 41.36 0 0 0-1.31 4.5c0 .53.37.85 1.67.85a3 3 0 0 0 3.16-3.18c-.02-1.18-.43-2.23-2.52-2.23zm-.82-.66h.75c2.29 0 3.48-1.31 3.48-3.13 0-1-.48-1.67-1.75-1.67a3.86 3.86 0 0 0-1.07.15zM164.66 236.28a.32.32 0 0 1-.29.17c-.12 0-.24-.05-.22-.22l.39-2.84a.93.93 0 0 1 1-1c.34 0 .65.14.65.51a1.28 1.28 0 0 1-.17.58z"/><path class="l" d="M51.63 20.62h64v72h-64z"/><path class="m" d="M51.63 20.62h64v72h-64z"/><circle cx="83.63" cy="56.62" r="2"/><path d="M86.67 51.24c0 .68.14.92 1.21.92.08 0 .12.17.12.29s-.07.36-.17.36c-.66 0-1.24-.07-2.07-.07h-2.12c-.12 0-.15-.12-.15-.29s0-.32.15-.32c1 0 1.39-.2 1.39-.87V48.2h-1.45c-.45 0-1.29 0-1.77-.07a10.56 10.56 0 0 0-1.65 3.33c0 .49.32.63 1.05.63.12 0 .14.17.14.32s-.05.31-.15.31-1.31-.05-2-.05-1.5.07-1.72.07-.15-.07-.15-.31 0-.34.12-.34c.66 0 1-.27 1.63-1.21.36-.54 6.36-9.84 6.6-10.28a.7.7 0 0 1 .58-.22c.19 0 .42.05.42.27zm-4.45-3.74h2.81c0-1.75.07-3.45.15-4.76-.61 1.07-2.24 3.52-2.97 4.76z"/><circle cx="83.63" cy="228.62" r="2"/><path d="M84.38 243.39c0 .68.14.92 1.21.92.08 0 .12.17.12.29s-.07.36-.17.36c-.66 0-1.24-.07-2.07-.07h-2.12c-.12 0-.15-.12-.15-.29s0-.32.15-.32c1 0 1.39-.2 1.39-.87v-3.06h-1.45c-.45 0-1.29 0-1.77-.07a10.57 10.57 0 0 0-1.65 3.33c0 .49.32.63 1.05.63.12 0 .14.17.14.32s-.05.31-.15.31-1.31-.05-2-.05-1.5.07-1.72.07-.15-.07-.15-.31 0-.34.12-.34c.66 0 1-.27 1.63-1.21.36-.54 6.36-9.84 6.6-10.28a.7.7 0 0 1 .58-.22c.19 0 .42.05.42.27zm-4.45-3.74h2.81c0-1.75.07-3.45.15-4.76-.58 1.07-2.22 3.52-2.95 4.76zM89.33 236.28a.32.32 0 0 1-.29.17c-.12 0-.24-.05-.22-.22l.39-2.84a.93.93 0 0 1 1-1c.34 0 .65.14.65.51a1.28 1.28 0 0 1-.17.58z"/><path class="l" d="M211.63 84.62h64v144h-64z"/><path class="m" d="M211.63 84.62h64v144h-64z"/><circle cx="243.63" cy="156.62" r="2"/><path d="M248.61 144.22c0 .12-.12.17-.25.17s-.39-.07-.39-.19v-.75c0-1.78-.8-2.55-2.21-2.55-2.89 0-5.25 4.49-5.25 8 0 1.77.6 3.16 2.4 3.16 2.07 0 3.37-1.43 4-3.35.05-.14.15-.15.27-.15s.43.08.36.27a19.7 19.7 0 0 0-.8 3.48c0 .1-.12.17-.34.17s-.29 0-.29-.15-.1-.49-.29-.49a.71.71 0 0 0-.42.15 5 5 0 0 1-2.6.85c-2.89 0-4.2-2-4.2-4.47 0-3.65 3-8.23 7.19-8.23a2.76 2.76 0 0 1 2.19.92.52.52 0 0 0 .29.17c.15 0 .32-.15.37-.41s.14-.14.27-.14.36.08.36.24a18.33 18.33 0 0 0-.66 3.3z"/><circle cx="243.63" cy="228.62" r="2"/><path d="M246.9 236.59c0 .12-.12.17-.25.17s-.39-.07-.39-.19v-.75c0-1.79-.8-2.55-2.21-2.55-2.89 0-5.25 4.49-5.25 8 0 1.77.6 3.16 2.4 3.16 2.07 0 3.37-1.43 4-3.35.05-.14.15-.15.27-.15s.43.08.36.27a19.73 19.73 0 0 0-.8 3.49c0 .1-.12.17-.34.17s-.29 0-.29-.15-.1-.49-.29-.49a.71.71 0 0 0-.42.15 5 5 0 0 1-2.6.85c-2.89 0-4.2-2-4.2-4.47 0-3.65 3-8.23 7.19-8.23a2.76 2.76 0 0 1 2.19.92.52.52 0 0 0 .29.17c.15 0 .32-.15.37-.41s.14-.14.27-.14.36.08.36.24a18.35 18.35 0 0 0-.66 3.29zM249.54 236.28a.32.32 0 0 1-.29.17c-.12 0-.24-.05-.22-.22l.39-2.84a.93.93 0 0 1 1-1c.34 0 .65.14.65.51a1.28 1.28 0 0 1-.17.58zM55.96 12.66c-.1 0-.12-.1-.12-.31s0-.32.12-.32c1.21 0 1.56-.39 1.85-1.34l2.45-8.19c.25-.85 0-1.33-1.46-1.33-.08 0-.12-.1-.12-.29s.05-.34.15-.34c.42 0 1.24.09 2.6.09.58 0 1.48-.07 2.48-.07 2.89 0 5.12 1.68 5.12 5s-2.06 7.16-7.8 7.16c-1.46 0-2-.08-2.77-.08-1.33-.05-2.08.02-2.5.02zM63.8 1.29a9.71 9.71 0 0 0-1.5.1c-1.14 4-2.79 8.91-2.79 9.64s.1 1 1.7 1c3.62 0 5.92-3 5.92-6.8-.01-2.38-.94-3.94-3.34-3.94zM72 12.9a1.35 1.35 0 0 1-1.51-1.43 7.65 7.65 0 0 1 .78-3 9 9 0 0 0 .85-2.7.27.27 0 0 0-.29-.31c-.51 0-1.19.73-1.6 1.84a.15.15 0 0 1-.14.09c-.12 0-.36-.1-.31-.27.34-1.19 1.44-2.52 2.65-2.52.68 0 1 .27 1 1a10.08 10.08 0 0 1-.88 3.18 7.87 7.87 0 0 0-.75 2.77c0 .44.19.63.61.63.9 0 2.36-1.43 3-3 .32-.83 1.31-3.86 1.41-4.44 0-.1.2-.2.48-.2s.82.12.82.29a2.88 2.88 0 0 1-.15.75l-.9 2.92a21 21 0 0 0-.85 3.13c0 .36.12.46.29.46.51 0 1.19-.73 1.6-1.84a.15.15 0 0 1 .14-.08c.12 0 .36.1.31.27a3.14 3.14 0 0 1-2.67 2.45c-.61 0-.83-.48-.83-1.09a5.44 5.44 0 0 1 .22-1.27A4.15 4.15 0 0 1 72 12.9zM85.45 6.66c-.41 0-.66-.24-.75-.71s-.2-.65-.58-.65c-1 0-3.16 3-3.16 5.66 0 1 .51 1.21 1 1.21.92 0 1.68-.66 2.4-2 .05-.08.1-.15.2-.15s.37.15.31.34c-.68 1.8-1.89 2.63-3.2 2.63a2 2 0 0 1-2.18-2.16c0-3.38 2.77-6.24 4.86-6.24 1.36 0 1.78.56 1.78 1.27a.74.74 0 0 1-.68.8zM92.91 4.59a.9.9 0 0 1 1 1 .87.87 0 0 1-.85 1 .55.55 0 0 1-.54-.58c0-.22-.1-.32-.34-.32a7.82 7.82 0 0 0-2.8 2.46c1.39.07 1.82 1.19 2 3.23.05.53.1.71.34.71s1-.58 1.36-1.85c0-.05 0-.08.12-.08s.36.12.31.31c-.49 1.82-1.6 2.53-2.4 2.53s-1.1-.51-1.1-1.89c0-1.94-.2-2.48-.68-2.48-.22 0-.42.08-.59.53-.29.78-.92 3-1 3.45 0 .1-.2.2-.48.2s-.82-.12-.82-.29a2.29 2.29 0 0 1 .15-.75l3.33-10.71a3.3 3.3 0 0 0-1-.12c-.08 0-.12-.1-.12-.32s0-.31.14-.31a11.78 11.78 0 0 0 2.4-.27c.22 0 .36.05.36.26a.83.83 0 0 1-.05.25c-.59 1.61-1.78 4.79-2.6 7.33 1.25-1.81 2.93-3.29 3.86-3.29zM96.23 9.18a6.92 6.92 0 0 0-.29 1.73c0 .88.37 1.27 1.09 1.27a3 3 0 0 0 2.41-1.92c.05-.14.07-.17.19-.17s.37.1.32.27a3.57 3.57 0 0 1-3.4 2.58 2.06 2.06 0 0 1-2.06-2.16c0-3.13 2.69-6.24 5.25-6.24 1.05 0 1.46.56 1.46 1.33.01 1.25-1.67 2.49-4.97 3.31zm3.3-3.91c-1 0-2.33 1.19-3.09 3.3 2.23-.63 3.62-1.67 3.62-2.77a.48.48 0 0 0-.53-.53zM106.87 12.9c-.61 0-.8-.44-.8-1.16a4.56 4.56 0 0 1 .05-.68 3.34 3.34 0 0 1-2.63 1.89 1.93 1.93 0 0 1-2.06-2.14c0-2.86 2.63-6.26 5-6.26a1.35 1.35 0 0 1 1.36.73l1.34-4.27a3.29 3.29 0 0 0-1-.12c-.08 0-.12-.1-.12-.32s0-.31.14-.31a11.78 11.78 0 0 0 2.4-.27c.22 0 .36.05.36.26a.84.84 0 0 1-.05.25c-.93 2.53-2.91 8.6-3.59 10.91a1.16 1.16 0 0 0 0 .31.27.27 0 0 0 .29.31c.51 0 1.19-.73 1.6-1.84a.15.15 0 0 1 .14-.08c.12 0 .36.1.31.27-.48 1.21-1.43 2.52-2.74 2.52zm-.46-7.67c-1.51 0-3.52 3.48-3.52 5.95 0 .58.2 1 .83 1 1.1 0 2-1.21 2.74-2.91a10.64 10.64 0 0 0 .83-3.18c.01-.5-.18-.86-.91-.86zM137.67 72.29v-1.55h8.65v1.55zM154.67 75.38a3.06 3.06 0 0 1-1.11 1.25 2.93 2.93 0 0 1-1.59.45 2.76 2.76 0 0 1-2.23-.93 3.89 3.89 0 0 1-.79-2.6v-2.52a3.3 3.3 0 0 1 1.05-2.61 4.29 4.29 0 0 1 2.94-.93 5.61 5.61 0 0 1 1.11.12 6.48 6.48 0 0 1 1.08.32v-3.34h1.55v12.36h-1.55V75.4zm-2.29.21a2.78 2.78 0 0 0 1.44-.4 5.18 5.18 0 0 0 1.34-1.22v-4.54a3.9 3.9 0 0 0-1-.44 4.42 4.42 0 0 0-1.16-.15 2.69 2.69 0 0 0-1.85.55 2.14 2.14 0 0 0-.6 1.66v2.54a2.23 2.23 0 0 0 .46 1.55 1.78 1.78 0 0 0 1.37.45zM162.77 77.08a2.85 2.85 0 0 1-2.17-.87 3.2 3.2 0 0 1-.83-2.29v-6.26h1.55v6a2.2 2.2 0 0 0 .45 1.51 1.77 1.77 0 0 0 1.38.49 2.81 2.81 0 0 0 1.41-.39 5.48 5.48 0 0 0 1.4-1.23V67.7h1.55v9.27h-1.55v-1.55h-.46a2.68 2.68 0 0 1-1.12 1.17 3 3 0 0 1-1.61.49zM174.67 77.08a4.55 4.55 0 0 1-3.05-.89 3.27 3.27 0 0 1-1-2.62v-2.5a3.36 3.36 0 0 1 1-2.67 4.47 4.47 0 0 1 3-.9 4.18 4.18 0 0 1 2.76.81 3.24 3.24 0 0 1 1.07 2.37l-1.51.09a1.89 1.89 0 0 0-.63-1.42 2.65 2.65 0 0 0-1.7-.46 2.83 2.83 0 0 0-1.89.53 2.06 2.06 0 0 0-.62 1.65v2.52a2 2 0 0 0 .63 1.59 2.92 2.92 0 0 0 1.91.53 3 3 0 0 0 1.68-.39 1.45 1.45 0 0 0 .62-1.18l1.51.09a2.81 2.81 0 0 1-1.07 2.15 4.49 4.49 0 0 1-2.71.7zM183.72 72.72v4.2h-1.54V64.59h1.55v6.85h.79l3-3.76h1.86L185.75 72l3.59 5h-1.76l-3-4.2z"/><path class="g" d="M83.63 56.62l76.74 95.93"/><path d="M163.63 156.59a21 21 0 0 1-1.92-5.88l-3.39 2.71a21 21 0 0 1 5.31 3.16"/><path class="g" d="M163.63 156.62h74.79"/><path d="M243.63 156.59a21 21 0 0 1-5.79-2.17v4.34a21 21 0 0 1 5.79-2.17"/><path class="j" d="M83.63 56.62v172M163.63 156.62v72M243.63 156.62v72"/></g></svg>