<svg xmlns="http://www.w3.org/2000/svg" width="370" height="180.58"><defs><style>.d{fill:none;stroke:#000;stroke-miterlimit:10}.e{fill:navy}</style><clipPath id="a" transform="translate(-238.37 -256.12)"><path fill="none" d="M237.37 252.8h372v187.23h-372z"/></clipPath></defs><g clip-path="url(#a)"><path stroke-width="2" stroke-miterlimit="10" stroke="#000" fill="none" d="M0 130.62h362.09"/><path d="M370 130.61a31.81 31.81 0 0 1-8.79-3.3v6.57a31.81 31.81 0 0 1 8.79-3.3"/><path class="d" d="M0 20.62h114.79"/><path d="M120 20.61a21 21 0 0 1-5.79-2.17v4.34a21 21 0 0 1 5.79-2.17M35.84 3.81c0 .14-.19.2-.34.2s-.34-.07-.34-.22c0-1.68-.65-2.82-2.12-2.82a1.88 1.88 0 0 0-2 2c0 1.27.76 1.89 1.77 2.67 1.56 1.21 2.11 2.06 2.11 3.52a4 4 0 0 1-6.43 2.87.55.55 0 0 0-.34-.12c-.2 0-.31.22-.34.46a.16.16 0 0 1-.17.15c-.19 0-.51 0-.51-.17a22.67 22.67 0 0 0 .49-3.42c0-.14.17-.2.39-.2s.29.07.29.15c0 2.29 1.26 3.23 2.7 3.23a2.12 2.12 0 0 0 2.33-2.26c0-.88-.36-1.65-1.87-2.82a4.18 4.18 0 0 1-2-3.43A3.33 3.33 0 0 1 32.93.18a2.92 2.92 0 0 1 2 .78.3.3 0 0 0 .25.14c.15 0 .25-.15.27-.34s.12-.12.2-.12.42.07.41.15a19.25 19.25 0 0 0-.22 3.02zM38 11.25a1.15 1.15 0 0 0 0 .31.27.27 0 0 0 .29.31c.51 0 1.19-.73 1.6-1.84a.15.15 0 0 1 .14-.08c.1 0 .31.08.31.27-.34 1.19-1.36 2.69-2.67 2.69-.61 0-1-.39-1-1.1a4.21 4.21 0 0 1 .2-1.22l1.55-5h-.92c-.14 0-.12-.05-.12-.19 0-.34.05-.44.17-.44l1 .05.7-2.21c.05-.17.51-.27.9-.27s.56.07.56.24c-.25.7-.51 1.46-.76 2.24.49 0 1.16-.05 1.46-.05s.19.05.19.26-.08.37-.19.37h-1.65c-.7 2.21-1.4 4.44-1.76 5.66zM47.46 11.42a1.15 1.15 0 0 0 0 .31.27.27 0 0 0 .29.31c.51 0 1.19-.73 1.6-1.84a.15.15 0 0 1 .14-.08c.1 0 .31.08.31.27-.37 1.17-1.36 2.52-2.67 2.52-.61 0-.78-.44-.78-1.16a4.62 4.62 0 0 1 .05-.68 3.29 3.29 0 0 1-2.62 1.89 1.93 1.93 0 0 1-2.06-2.14c0-2.92 2.69-6.26 5.1-6.26a1.25 1.25 0 0 1 1.27.73l.17-.53c.05-.15.25-.2.49-.2s.82.17.82.49c-.94 2.33-1.74 5.05-2.11 6.37zm-.7-6.19c-1.51 0-3.62 3.48-3.62 5.95 0 .58.2 1 .83 1 1.1 0 2-1.16 2.7-2.86a10.9 10.9 0 0 0 .92-3.23c.04-.5-.13-.86-.83-.86zM57.28 4.55a1.35 1.35 0 0 1 1.51 1.43 7.66 7.66 0 0 1-.78 3 9 9 0 0 0-.85 2.7.27.27 0 0 0 .29.31c.51 0 1.19-.73 1.6-1.84a.15.15 0 0 1 .14-.08c.12 0 .36.1.31.27-.34 1.19-1.44 2.52-2.65 2.52-.68 0-1-.27-1-1a10.07 10.07 0 0 1 .88-3.18 7.88 7.88 0 0 0 .75-2.77c0-.44-.19-.63-.61-.63-.9 0-2.36 1.43-3 3-.32.83-1.26 3.72-1.36 4.3 0 .1-.2.2-.48.2s-.82-.12-.82-.29a2.88 2.88 0 0 1 .15-.75l.85-2.79a21 21 0 0 0 .85-3.13c0-.36-.12-.46-.29-.46-.51 0-1.19.73-1.6 1.84a.15.15 0 0 1-.14.08c-.12 0-.36-.1-.31-.27a3.14 3.14 0 0 1 2.67-2.45c.61 0 .83.48.83 1.09A5.44 5.44 0 0 1 54 6.92a4.15 4.15 0 0 1 3.28-2.37zM65.92 12.88c-.61 0-.8-.44-.8-1.16a4.56 4.56 0 0 1 .05-.68 3.34 3.34 0 0 1-2.63 1.89 1.93 1.93 0 0 1-2.06-2.14c0-2.86 2.63-6.26 5-6.26a1.35 1.35 0 0 1 1.36.73L68.18.99a3.29 3.29 0 0 0-1-.12c-.08 0-.12-.1-.12-.32s0-.31.14-.31a11.83 11.83 0 0 0 2.4-.27c.22 0 .36.05.36.25a.84.84 0 0 1-.05.25C68.98 3 67 9.07 66.32 11.38a1.15 1.15 0 0 0 0 .31.27.27 0 0 0 .29.31c.51 0 1.19-.73 1.6-1.84a.15.15 0 0 1 .14-.08c.12 0 .36.1.31.27-.48 1.21-1.43 2.53-2.74 2.53zm-.46-7.67c-1.51 0-3.52 3.48-3.52 5.95 0 .58.2 1 .83 1 1.1 0 2-1.21 2.74-2.91a10.64 10.64 0 0 0 .83-3.18c0-.48-.19-.84-.88-.84zM72.26 9.03a10 10 0 0 0-.92 2.7.27.27 0 0 0 .29.31c.51 0 1.19-.73 1.6-1.84a.15.15 0 0 1 .14-.08c.12 0 .36.1.31.27-.34 1.19-1.44 2.52-2.65 2.52-.68 0-1-.27-1-1a10.72 10.72 0 0 1 1-3.18 10.6 10.6 0 0 0 .94-2.89c0-.36-.12-.46-.29-.46-.51 0-1.19.73-1.6 1.84a.15.15 0 0 1-.14.08c-.12 0-.36-.1-.31-.27a3.14 3.14 0 0 1 2.67-2.45c.71 0 1 .43 1 1.09a9.25 9.25 0 0 1-1.04 3.36zm-.2-7.77a.94.94 0 1 1 1 1 1 1 0 0 1-1.01-1zM81.18 4.55a1.35 1.35 0 0 1 1.51 1.43 7.66 7.66 0 0 1-.78 3 9 9 0 0 0-.85 2.7.27.27 0 0 0 .29.31c.51 0 1.19-.73 1.6-1.84a.15.15 0 0 1 .14-.08c.12 0 .36.1.31.27-.34 1.19-1.44 2.52-2.65 2.52-.68 0-1-.27-1-1a10.07 10.07 0 0 1 .88-3.18 7.88 7.88 0 0 0 .75-2.77c0-.44-.19-.63-.61-.63-.9 0-2.36 1.43-3 3-.32.83-1.26 3.72-1.36 4.3 0 .1-.2.2-.48.2s-.82-.12-.82-.29a2.88 2.88 0 0 1 .15-.75l.85-2.79a21 21 0 0 0 .85-3.13c0-.36-.12-.46-.29-.46-.51 0-1.19.73-1.6 1.84a.15.15 0 0 1-.14.08c-.12 0-.36-.1-.31-.27a3.14 3.14 0 0 1 2.67-2.45c.61 0 .83.48.83 1.09a5.44 5.44 0 0 1-.22 1.27 4.15 4.15 0 0 1 3.28-2.37zM85.16 8.46c0-1.84 1.41-3.91 3.43-3.91a1.68 1.68 0 0 1 1.53.8 2 2 0 0 1 1.55-.78.86.86 0 0 1 .94.87c0 .42-.2.71-.61.71-.61 0-.41-.7-1-.7a.82.82 0 0 0-.66.37 2.66 2.66 0 0 1 .1.83 3.7 3.7 0 0 1-3.47 3.94c-.92 0-1.36.37-1.36.94s.66.71 2.11 1c1.8.37 2.75.92 2.75 2.31 0 1.68-1.53 2.58-3.37 2.58-2.52 0-3.94-1.05-3.94-2.38 0-.9.53-1.27 1.05-1.27a.72.72 0 0 1 .61.31 1.3 1.3 0 0 0-.42 1c0 .87 1 1.68 2.69 1.68 1.44 0 2.13-.66 2.13-1.53 0-.65-.26-1-1.92-1.39-2.26-.56-2.89-.88-2.89-1.89a2 2 0 0 1 1.87-1.68 1.71 1.71 0 0 1-1.12-1.81zm3.4-3.35c-1 0-2.14 2.11-2.14 4 0 .77.25 1 .65 1 1.1 0 2.16-2.24 2.16-4.06-.01-.63-.18-.93-.67-.93z"/><path class="d" d="M125.21 20.62h109.58"/><path d="M120 20.61a21 21 0 0 1 5.79 2.17v-4.34a21 21 0 0 1-5.79 2.17M240 20.61a21 21 0 0 1-5.79-2.17v4.34a21 21 0 0 1 5.79-2.17M156.97 12.03c.1 0 .14.15.14.31s-.05.32-.17.32c-.42 0-1.12-.05-2.48-.05s-2.09.05-2.5.05c-.1 0-.12-.1-.12-.31s0-.32.12-.32c1.21 0 1.56-.39 1.85-1.34l2.45-8.19c.25-.85 0-1.33-1.46-1.33-.08 0-.12-.1-.12-.29s.05-.34.15-.34c.42 0 1.24.08 2.6.08s2-.08 2.48-.08c.12 0 .14.14.14.32s-.05.31-.14.31a1.74 1.74 0 0 0-1.94 1.39l-2.43 8.07c-.25.86-.1 1.4 1.43 1.4zM165.98 4.55a1.35 1.35 0 0 1 1.51 1.43 7.66 7.66 0 0 1-.78 3 9 9 0 0 0-.85 2.7.27.27 0 0 0 .29.31c.51 0 1.19-.73 1.6-1.84a.15.15 0 0 1 .14-.08c.12 0 .36.1.31.27-.34 1.19-1.44 2.52-2.65 2.52-.68 0-1-.27-1-1a10.07 10.07 0 0 1 .88-3.18 7.88 7.88 0 0 0 .75-2.77c0-.44-.19-.63-.61-.63-.9 0-2.36 1.43-3 3-.32.83-1.26 3.72-1.36 4.3 0 .1-.2.2-.48.2s-.82-.12-.82-.29a2.88 2.88 0 0 1 .15-.75l.85-2.79a21 21 0 0 0 .85-3.13c0-.36-.12-.46-.29-.46-.51 0-1.19.73-1.6 1.84a.15.15 0 0 1-.14.08c-.12 0-.36-.1-.31-.27a3.14 3.14 0 0 1 2.67-2.45c.61 0 .83.48.83 1.09a5.44 5.44 0 0 1-.22 1.27 4.15 4.15 0 0 1 3.28-2.37zM169.55 8.74s-.05-.08-.05-.22c0-.41.15-1.21.36-1.21h3.16c.08 0 .12.08.12.24 0 .39-.29 1.19-.42 1.19zM179.8 12.88c-.61 0-.8-.44-.8-1.16a4.56 4.56 0 0 1 .05-.68 3.34 3.34 0 0 1-2.63 1.89 1.93 1.93 0 0 1-2.06-2.14c0-2.86 2.63-6.26 5-6.26a1.35 1.35 0 0 1 1.36.73l1.34-4.27a3.29 3.29 0 0 0-1-.12c-.08 0-.12-.1-.12-.32s0-.31.14-.31a11.83 11.83 0 0 0 2.4-.27c.22 0 .36.05.36.25a.84.84 0 0 1-.05.25c-.93 2.53-2.91 8.6-3.59 10.91a1.15 1.15 0 0 0 0 .31.27.27 0 0 0 .29.31c.51 0 1.19-.73 1.6-1.84a.15.15 0 0 1 .14-.08c.12 0 .36.1.31.27-.47 1.21-1.43 2.53-2.74 2.53zm-.46-7.67c-1.51 0-3.52 3.48-3.52 5.95 0 .58.2 1 .83 1 1.1 0 2-1.21 2.74-2.91a10.64 10.64 0 0 0 .83-3.18c.01-.48-.18-.84-.87-.84zM185.63 12.88a1.35 1.35 0 0 1-1.51-1.43 7.65 7.65 0 0 1 .78-3 9 9 0 0 0 .85-2.7.27.27 0 0 0-.29-.31c-.51 0-1.19.73-1.6 1.84a.15.15 0 0 1-.14.08c-.12 0-.36-.1-.31-.27.34-1.19 1.44-2.52 2.65-2.52.68 0 1 .27 1 1a10.08 10.08 0 0 1-.88 3.18 7.87 7.87 0 0 0-.75 2.77c0 .44.19.63.61.63.9 0 2.36-1.43 3-3 .32-.83 1.31-3.86 1.41-4.44 0-.1.2-.2.48-.2s.82.12.82.29a2.88 2.88 0 0 1-.15.75l-.9 2.92a21 21 0 0 0-.85 3.13c0 .36.12.46.29.46.51 0 1.19-.73 1.6-1.84a.15.15 0 0 1 .14-.08c.12 0 .36.1.31.27a3.14 3.14 0 0 1-2.67 2.45c-.61 0-.83-.48-.83-1.09a5.44 5.44 0 0 1 .22-1.27 4.15 4.15 0 0 1-3.28 2.38zM199.12 6.66c-.41 0-.66-.24-.75-.71s-.2-.65-.58-.65c-1 0-3.16 3-3.16 5.66 0 1 .51 1.21 1 1.21.92 0 1.68-.66 2.4-2 .05-.08.1-.15.2-.15s.37.15.31.34c-.68 1.8-1.89 2.63-3.2 2.63a2 2 0 0 1-2.18-2.16c0-3.38 2.77-6.24 4.86-6.24 1.36 0 1.78.56 1.78 1.27a.74.74 0 0 1-.68.8zM206.58 4.55a.9.9 0 0 1 1 1 .87.87 0 0 1-.85 1 .55.55 0 0 1-.54-.58c0-.22-.1-.32-.34-.32a7.82 7.82 0 0 0-2.8 2.46c1.39.07 1.82 1.19 2 3.23.05.53.1.71.34.71s1-.58 1.36-1.85c0-.05 0-.08.12-.08s.36.12.31.31c-.49 1.82-1.6 2.53-2.4 2.53s-1.1-.51-1.1-1.89c0-1.94-.2-2.48-.68-2.48-.22 0-.42.08-.59.53-.29.78-.92 3-1 3.45 0 .1-.2.2-.48.2s-.82-.12-.82-.29a2.3 2.3 0 0 1 .15-.75l3.33-10.71a3.3 3.3 0 0 0-1-.12c-.08 0-.12-.1-.12-.32s0-.31.14-.31a11.82 11.82 0 0 0 2.4-.27c.22 0 .36.05.36.25a.83.83 0 0 1-.05.25c-.59 1.61-1.78 4.79-2.6 7.33 1.24-1.76 2.91-3.28 3.86-3.28z"/><path class="d" d="M245.21 20.62H370"/><path d="M240 20.61a21 21 0 0 1 5.79 2.17v-4.34a21 21 0 0 1-5.79 2.17M280.84 3.81c0 .14-.19.2-.34.2s-.34-.07-.34-.22c0-1.68-.65-2.82-2.12-2.82a1.88 1.88 0 0 0-2 2c0 1.27.76 1.89 1.77 2.67 1.56 1.21 2.11 2.06 2.11 3.52a4 4 0 0 1-6.43 2.87.55.55 0 0 0-.34-.12c-.2 0-.31.22-.34.46a.16.16 0 0 1-.17.15c-.19 0-.51 0-.51-.17a22.73 22.73 0 0 0 .49-3.42c0-.14.17-.2.39-.2s.29.07.29.15c0 2.29 1.26 3.23 2.7 3.23a2.12 2.12 0 0 0 2.33-2.26c0-.88-.36-1.65-1.87-2.82a4.18 4.18 0 0 1-2-3.43 3.33 3.33 0 0 1 3.47-3.42 2.92 2.92 0 0 1 2 .78.3.3 0 0 0 .25.14c.15 0 .25-.15.27-.34s.12-.12.2-.12.42.07.41.15a19.32 19.32 0 0 0-.22 3.02zM283 11.25a1.18 1.18 0 0 0 0 .31.27.27 0 0 0 .29.31c.51 0 1.19-.73 1.6-1.84a.15.15 0 0 1 .14-.08c.1 0 .31.08.31.27-.34 1.19-1.36 2.69-2.67 2.69-.61 0-1-.39-1-1.1a4.19 4.19 0 0 1 .2-1.22l1.55-5h-.92c-.14 0-.12-.05-.12-.19 0-.34.05-.44.17-.44l1 .05.7-2.21c.05-.17.51-.27.9-.27s.56.07.56.24c-.25.7-.51 1.46-.76 2.24.49 0 1.16-.05 1.46-.05s.19.05.19.26-.08.37-.19.37h-1.65c-.71 2.21-1.4 4.44-1.76 5.66zM292.45 11.42a1.17 1.17 0 0 0 0 .31.27.27 0 0 0 .29.31c.51 0 1.19-.73 1.6-1.84a.15.15 0 0 1 .14-.08c.1 0 .31.08.31.27-.37 1.17-1.36 2.52-2.67 2.52-.61 0-.78-.44-.78-1.16a4.56 4.56 0 0 1 .05-.68 3.29 3.29 0 0 1-2.62 1.89 1.93 1.93 0 0 1-2.06-2.14c0-2.92 2.69-6.26 5.1-6.26a1.25 1.25 0 0 1 1.27.73l.17-.53c.05-.15.25-.2.49-.2s.82.17.82.49c-.93 2.33-1.73 5.05-2.11 6.37zm-.7-6.19c-1.51 0-3.62 3.48-3.62 5.95 0 .58.2 1 .83 1 1.1 0 2-1.16 2.7-2.86a10.91 10.91 0 0 0 .92-3.23c.05-.5-.13-.86-.82-.86zM302.28 4.55a1.35 1.35 0 0 1 1.51 1.43 7.66 7.66 0 0 1-.78 3 9 9 0 0 0-.85 2.7.27.27 0 0 0 .29.31c.51 0 1.19-.73 1.6-1.84a.15.15 0 0 1 .14-.08c.12 0 .36.1.31.27-.34 1.19-1.45 2.52-2.65 2.52-.68 0-1-.27-1-1a10.06 10.06 0 0 1 .88-3.18 7.9 7.9 0 0 0 .75-2.77c0-.44-.19-.63-.61-.63-.9 0-2.36 1.43-3 3-.32.83-1.26 3.72-1.36 4.3 0 .1-.2.2-.48.2s-.82-.12-.82-.29a2.87 2.87 0 0 1 .15-.75l.85-2.79a21.06 21.06 0 0 0 .85-3.13c0-.36-.12-.46-.29-.46-.51 0-1.19.73-1.6 1.84a.15.15 0 0 1-.14.08c-.12 0-.36-.1-.31-.27a3.14 3.14 0 0 1 2.67-2.45c.61 0 .83.48.83 1.09a5.47 5.47 0 0 1-.22 1.27 4.15 4.15 0 0 1 3.28-2.37zM310.91 12.88c-.61 0-.8-.44-.8-1.16a4.56 4.56 0 0 1 .05-.68 3.34 3.34 0 0 1-2.63 1.89 1.93 1.93 0 0 1-2.06-2.14c0-2.86 2.63-6.26 5-6.26a1.35 1.35 0 0 1 1.36.73l1.34-4.27a3.29 3.29 0 0 0-1-.12c-.08 0-.12-.1-.12-.32s0-.31.14-.31a11.83 11.83 0 0 0 2.4-.27c.22 0 .36.05.36.25a.83.83 0 0 1-.05.25c-.93 2.53-2.91 8.6-3.59 10.91a1.17 1.17 0 0 0 0 .31.27.27 0 0 0 .29.31c.51 0 1.19-.73 1.6-1.84a.15.15 0 0 1 .14-.08c.12 0 .36.1.31.27-.48 1.21-1.43 2.53-2.74 2.53zm-.46-7.67c-1.51 0-3.52 3.48-3.52 5.95 0 .58.2 1 .83 1 1.1 0 2-1.21 2.74-2.91a10.64 10.64 0 0 0 .83-3.18c.01-.48-.18-.84-.88-.84zM317.26 9.03a10 10 0 0 0-.92 2.7.27.27 0 0 0 .29.31c.51 0 1.19-.73 1.6-1.84a.15.15 0 0 1 .14-.08c.12 0 .36.1.31.27-.34 1.19-1.44 2.52-2.65 2.52-.68 0-1-.27-1-1a10.73 10.73 0 0 1 1-3.18 10.59 10.59 0 0 0 .93-2.89c0-.36-.12-.46-.29-.46-.51 0-1.19.73-1.6 1.84a.15.15 0 0 1-.14.08c-.12 0-.36-.1-.31-.27a3.14 3.14 0 0 1 2.67-2.45c.71 0 1 .43 1 1.09a9.26 9.26 0 0 1-1.03 3.36zm-.2-7.77a.94.94 0 1 1 1 1 1 1 0 0 1-1.01-1zM326.18 4.55a1.35 1.35 0 0 1 1.51 1.43 7.66 7.66 0 0 1-.78 3 9 9 0 0 0-.85 2.7.27.27 0 0 0 .29.31c.51 0 1.19-.73 1.6-1.84a.15.15 0 0 1 .14-.08c.12 0 .36.1.31.27-.34 1.19-1.45 2.52-2.65 2.52-.68 0-1-.27-1-1a10.06 10.06 0 0 1 .88-3.18 7.9 7.9 0 0 0 .75-2.77c0-.44-.19-.63-.61-.63-.9 0-2.36 1.43-3 3-.32.83-1.26 3.72-1.36 4.3 0 .1-.2.2-.48.2s-.82-.12-.82-.29a2.87 2.87 0 0 1 .15-.75l.85-2.79a21.06 21.06 0 0 0 .85-3.13c0-.36-.12-.46-.29-.46-.51 0-1.19.73-1.6 1.84a.15.15 0 0 1-.14.08c-.12 0-.36-.1-.31-.27a3.14 3.14 0 0 1 2.67-2.45c.61 0 .83.48.83 1.09a5.47 5.47 0 0 1-.22 1.27 4.15 4.15 0 0 1 3.28-2.37zM330.16 8.46c0-1.84 1.41-3.91 3.43-3.91a1.68 1.68 0 0 1 1.53.8 2 2 0 0 1 1.55-.78.86.86 0 0 1 .93.87c0 .42-.2.71-.61.71-.61 0-.41-.7-1-.7a.82.82 0 0 0-.66.37 2.64 2.64 0 0 1 .1.83 3.7 3.7 0 0 1-3.47 3.94c-.92 0-1.36.37-1.36.94s.66.71 2.11 1c1.8.37 2.75.92 2.75 2.31 0 1.68-1.53 2.58-3.37 2.58-2.52 0-3.94-1.05-3.94-2.38 0-.9.53-1.27 1.05-1.27a.72.72 0 0 1 .61.31 1.3 1.3 0 0 0-.42 1c0 .87 1 1.68 2.69 1.68 1.44 0 2.13-.66 2.13-1.53 0-.65-.25-1-1.92-1.39-2.26-.56-2.89-.88-2.89-1.89a2 2 0 0 1 1.87-1.68 1.71 1.71 0 0 1-1.11-1.81zm3.4-3.35c-1 0-2.14 2.11-2.14 4 0 .77.25 1 .65 1 1.1 0 2.16-2.24 2.16-4.06-.01-.63-.18-.93-.67-.93z"/><path class="d" d="M120 30.62v-20M240 30.62v-20M260 112.62h25M280 125.4v-7.57"/><path d="M280 130.61a21 21 0 0 1 2.17-5.79h-4.34a21 21 0 0 1 2.17 5.79M280 112.61a21 21 0 0 1-2.17 5.79h4.34a21 21 0 0 1-2.17-5.79M294.24 126.13c0 .8.24 1 1.77 1 0 0 .07.14.07.34s0 .31-.1.31c-.63 0-1.82-.07-2.58-.07s-2.4.07-2.65.07c0 0-.07-.1-.07-.29s0-.36.07-.36c1.6 0 1.87-.12 1.87-1v-8c0-.61 0-.75-.34-.75a1.14 1.14 0 0 0-.48.14 14 14 0 0 1-1.56.61c-.08 0-.17-.15-.17-.41 0-.1 0-.19.1-.2a16.85 16.85 0 0 0 3.54-2 .43.43 0 0 1 .29-.12c.15 0 .31.1.31.19-.02 1.82-.07 7.1-.07 10.54zM305.73 124.45a3.51 3.51 0 0 1-3.69 3.45 3.36 3.36 0 0 1-3.57-3.45 3.42 3.42 0 0 1 2.58-3.3 2.79 2.79 0 0 1-2.42-2.77 3.45 3.45 0 0 1 6.85 0 2.91 2.91 0 0 1-2.45 2.75 3.4 3.4 0 0 1 2.7 3.32zm-5.56 0c0 2.06.6 2.77 1.94 2.77s1.85-.71 1.85-2.75-.61-3-1.92-3-1.87.97-1.87 3.01zm.17-6.05c0 1.77.49 2.46 1.77 2.46s1.7-.7 1.7-2.45-.53-2.48-1.77-2.48-1.7.66-1.7 2.5z"/><path class="d" d="M14 58.62h32v72H14zM104 58.62h32v72h-32zM164 58.62h32v72h-32zM224 40.68h32v72h-32z"/><circle cx="30" cy="130.62" r="3"/><circle cx="120" cy="130.62" r="3"/><circle cx="180" cy="130.62" r="3"/><circle cx="240" cy="130.62" r="3"/><path d="M122.36 143.6h-1.85l-1.61 5.42a1.54 1.54 0 0 0-.05.39c0 .29.15.48.39.48.56 0 1.05-.48 2.11-2.07l.51.34c-.44.71-.61 1-.85 1.31a3.18 3.18 0 0 1-2.35 1.33 1.26 1.26 0 0 1-1.22-1.29 6.13 6.13 0 0 1 .32-1.61l1.27-4.28h-1.6l.24-.8h1.6l.83-2.82h1.53l-.83 2.82h1.83zM160.1 143.6h-1.85l-1.62 5.43a1.54 1.54 0 0 0-.05.39c0 .29.15.48.39.48.56 0 1.05-.48 2.11-2.07l.51.34c-.44.71-.61 1-.85 1.31a3.18 3.18 0 0 1-2.35 1.33 1.26 1.26 0 0 1-1.22-1.29 6.13 6.13 0 0 1 .32-1.61l1.27-4.28h-1.6l.24-.8h1.6l.83-2.82h1.48l-.83 2.82h1.85zm11.71 3.11v4.67h-1.18v-4.67h-4.67v-1.19h4.67v-4.64h1.19v4.67h4.67v1.19zm14.5 4.08c-2.29 0-4-2.57-4-6.07s1.73-6.15 4.11-6.15 3.91 2.75 3.91 6.2-1.64 6.02-4.02 6.02zm1.53-10.44a1.86 1.86 0 0 0-1.51-1.05 2 2 0 0 0-1.65 1.36 9 9 0 0 0-.46 3.71c0 2.77.14 3.84.61 4.64a1.86 1.86 0 0 0 1.51 1.05 2 2 0 0 0 1.65-1.34c.34-.75.46-1.87.46-4.25s-.15-3.33-.61-4.11zm5.54 10.42a1.06 1.06 0 1 1 1.07-1.07 1.06 1.06 0 0 1-1.07 1.08zm4.11-.24v-.8h1.14c1.36 0 1.51-.08 1.51-.8v-7.31c0-1-.07-1.07-1.05-1.07h-1.5v-.67a5.32 5.32 0 0 0 3.71-1.26h.61c-.08 1.21-.12 2-.12 2.86v7c0 .93 0 .93.12 1.05s.51.24 1.41.24h.93v.8zM220.1 143.6h-1.85l-1.62 5.43a1.54 1.54 0 0 0-.05.39c0 .29.15.48.39.48.56 0 1.05-.48 2.11-2.07l.51.34c-.44.71-.61 1-.85 1.31a3.18 3.18 0 0 1-2.35 1.33 1.26 1.26 0 0 1-1.22-1.29 6.13 6.13 0 0 1 .32-1.61l1.27-4.28h-1.6l.24-.8h1.6l.83-2.82h1.48l-.83 2.82h1.85zm11.71 3.11v4.67h-1.18v-4.67h-4.67v-1.19h4.67v-4.64h1.19v4.67h4.67v1.19zm14.5 4.08c-2.29 0-4-2.57-4-6.07s1.73-6.15 4.11-6.15 3.91 2.75 3.91 6.2-1.64 6.02-4.02 6.02zm1.53-10.44a1.86 1.86 0 0 0-1.51-1.05 2 2 0 0 0-1.65 1.36 9 9 0 0 0-.46 3.71c0 2.77.14 3.84.61 4.64a1.86 1.86 0 0 0 1.51 1.05 2 2 0 0 0 1.65-1.34c.34-.75.46-1.87.46-4.25s-.15-3.33-.61-4.11zm5.54 10.42a1.06 1.06 0 1 1 1.07-1.07 1.06 1.06 0 0 1-1.07 1.08zm10.68-.24h-7.67v-.48c.75-1 1.05-1.38 1.67-2.09l2.33-2.48c1.41-1.5 2-2.63 2-3.89a2.1 2.1 0 0 0-2.24-2.29c-1.27 0-2.35.88-2.35 1.75 0 .22 0 .24.66.51a1 1 0 0 1 .61 1 1 1 0 0 1-1.05 1c-.82 0-1.36-.73-1.36-1.8 0-1.8 1.67-3.2 3.82-3.2s3.82 1.39 3.82 3.31a3.85 3.85 0 0 1-.82 2.33 14.51 14.51 0 0 1-2.6 2.29 19.72 19.72 0 0 0-2.65 2.43h3.81c1.05 0 1.19-.12 1.41-1.21l.18-.83h.75z"/><path class="e" d="M97.63 179.81v-4h-3.55v-1.54h3.55v-4h1.55v4h3.55v1.54h-3.55v4zM111.04 178.88a3.06 3.06 0 0 1-1.11 1.25 2.92 2.92 0 0 1-1.59.45 2.76 2.76 0 0 1-2.23-.93 3.89 3.89 0 0 1-.79-2.6v-2.52a3.3 3.3 0 0 1 1.05-2.61 4.29 4.29 0 0 1 2.94-.93 5.61 5.61 0 0 1 1.11.12 6.44 6.44 0 0 1 1.08.32v-3.37h1.55v12.36h-1.55v-1.54zm-2.32.23a2.78 2.78 0 0 0 1.44-.4 5.17 5.17 0 0 0 1.34-1.22v-4.54a3.93 3.93 0 0 0-1-.44 4.42 4.42 0 0 0-1.16-.15 2.68 2.68 0 0 0-1.85.55 2.13 2.13 0 0 0-.6 1.66v2.49a2.23 2.23 0 0 0 .46 1.54 1.78 1.78 0 0 0 1.37.51zM119.14 180.58a2.85 2.85 0 0 1-2.17-.87 3.2 3.2 0 0 1-.83-2.29v-6.26h1.55v6a2.2 2.2 0 0 0 .45 1.51 1.77 1.77 0 0 0 1.38.5 2.81 2.81 0 0 0 1.41-.39 5.48 5.48 0 0 0 1.4-1.23v-6.34h1.55v9.27h-1.55v-1.6h-.46a2.68 2.68 0 0 1-1.07 1.23 3 3 0 0 1-1.66.47zM131.04 180.58a4.55 4.55 0 0 1-3.05-.89 3.27 3.27 0 0 1-1-2.62v-2.5a3.36 3.36 0 0 1 1-2.67 4.47 4.47 0 0 1 3-.9 4.18 4.18 0 0 1 2.76.81 3.24 3.24 0 0 1 1.07 2.37l-1.51.09a1.89 1.89 0 0 0-.63-1.42 2.66 2.66 0 0 0-1.7-.46 2.84 2.84 0 0 0-1.89.53 2.06 2.06 0 0 0-.62 1.65v2.5a2 2 0 0 0 .63 1.59 2.92 2.92 0 0 0 1.91.53 3 3 0 0 0 1.68-.39 1.45 1.45 0 0 0 .62-1.18l1.51.09a2.81 2.81 0 0 1-1.07 2.15 4.49 4.49 0 0 1-2.71.72zM140.09 176.22v4.2h-1.55v-12.36h1.55v6.82h.79l3-3.76h1.89l-3.63 4.32 3.59 5h-1.76l-3-4.2zM214.04 175.79v-1.54h8.65v1.54zM231.04 178.88a3.06 3.06 0 0 1-1.11 1.25 2.92 2.92 0 0 1-1.59.45 2.76 2.76 0 0 1-2.23-.93 3.89 3.89 0 0 1-.79-2.6v-2.52a3.3 3.3 0 0 1 1.05-2.61 4.29 4.29 0 0 1 2.94-.93 5.61 5.61 0 0 1 1.11.12 6.44 6.44 0 0 1 1.08.32v-3.37h1.55v12.36h-1.55v-1.54zm-2.32.23a2.78 2.78 0 0 0 1.44-.4 5.17 5.17 0 0 0 1.34-1.22v-4.54a3.93 3.93 0 0 0-1-.44 4.42 4.42 0 0 0-1.16-.15 2.68 2.68 0 0 0-1.85.55 2.13 2.13 0 0 0-.6 1.66v2.49a2.23 2.23 0 0 0 .46 1.54 1.78 1.78 0 0 0 1.37.51zM239.13 180.58a2.85 2.85 0 0 1-2.17-.87 3.2 3.2 0 0 1-.83-2.29v-6.26h1.55v6a2.2 2.2 0 0 0 .45 1.51 1.77 1.77 0 0 0 1.38.5 2.81 2.81 0 0 0 1.41-.39 5.48 5.48 0 0 0 1.4-1.23v-6.34h1.55v9.27h-1.55v-1.6h-.46a2.68 2.68 0 0 1-1.07 1.23 3 3 0 0 1-1.66.47zM251.03 180.58a4.55 4.55 0 0 1-3.05-.89 3.27 3.27 0 0 1-1-2.62v-2.5a3.36 3.36 0 0 1 1-2.67 4.47 4.47 0 0 1 3-.9 4.17 4.17 0 0 1 2.76.81 3.24 3.24 0 0 1 1.07 2.37l-1.51.09a1.89 1.89 0 0 0-.63-1.42 2.66 2.66 0 0 0-1.7-.46 2.84 2.84 0 0 0-1.89.53 2.06 2.06 0 0 0-.62 1.65v2.5a2 2 0 0 0 .63 1.59 2.92 2.92 0 0 0 1.91.53 3 3 0 0 0 1.68-.39 1.45 1.45 0 0 0 .62-1.18l1.51.09a2.81 2.81 0 0 1-1.07 2.15 4.48 4.48 0 0 1-2.71.72zM260.09 176.22v4.2h-1.55v-12.36h1.55v6.82h.79l3-3.76h1.89l-3.63 4.32 3.58 5h-1.76l-3-4.2z"/><path stroke="navy" stroke-dasharray="1 1" stroke-miterlimit="10" fill="none" d="M150.87 174.32h58.26"/></g></svg>