<svg xmlns="http://www.w3.org/2000/svg" width="620" height="160.58"><defs><style>.d{fill:none;stroke:#000;stroke-miterlimit:10}.e{fill:navy}</style><clipPath id="a" transform="translate(-87.52 -256.12)"><path fill="none" d="M86.53 252.8h621.99v167.23H86.53z"/></clipPath></defs><g clip-path="url(#a)"><path stroke-width="2" stroke-miterlimit="10" stroke="#000" fill="none" d="M0 110.62h612.09"/><path d="M620.01 110.61a31.81 31.81 0 0 1-8.79-3.3v6.57a31.81 31.81 0 0 1 8.79-3.3"/><path class="d" d="M0 20.62h114.79"/><path d="M120 20.61a21 21 0 0 1-5.79-2.17v4.34a21 21 0 0 1 5.79-2.17M35.85 3.81c0 .14-.19.2-.34.2s-.34-.07-.34-.22c0-1.68-.65-2.82-2.12-2.82a1.88 1.88 0 0 0-2 2c0 1.27.76 1.89 1.77 2.67 1.56 1.21 2.11 2.06 2.11 3.52a4 4 0 0 1-6.43 2.87.55.55 0 0 0-.34-.12c-.2 0-.31.22-.34.46a.16.16 0 0 1-.17.15c-.19 0-.51 0-.51-.17a22.67 22.67 0 0 0 .49-3.42c0-.14.17-.2.39-.2s.29.07.29.15c0 2.29 1.26 3.23 2.7 3.23a2.12 2.12 0 0 0 2.37-2.23c0-.88-.36-1.65-1.87-2.82a4.18 4.18 0 0 1-2-3.43A3.33 3.33 0 0 1 32.98.21a2.92 2.92 0 0 1 2 .78.3.3 0 0 0 .25.14c.15 0 .25-.15.27-.34s.12-.12.2-.12.42.07.41.15a19.25 19.25 0 0 0-.26 2.99zM38.01 11.25a1.15 1.15 0 0 0 0 .31.27.27 0 0 0 .29.31c.51 0 1.19-.73 1.6-1.84a.15.15 0 0 1 .14-.08c.1 0 .31.08.31.27-.34 1.19-1.36 2.69-2.67 2.69-.61 0-1-.39-1-1.1a4.21 4.21 0 0 1 .2-1.22l1.55-5h-.92c-.14 0-.12-.05-.12-.19 0-.34.05-.44.17-.44l1 .05.7-2.21c.05-.17.51-.27.9-.27s.56.07.56.24c-.25.7-.51 1.46-.76 2.24.49 0 1.16-.05 1.46-.05s.19.05.19.26-.08.37-.19.37h-1.65c-.71 2.21-1.41 4.44-1.76 5.66zM47.48 11.42a1.15 1.15 0 0 0 0 .31.27.27 0 0 0 .29.31c.51 0 1.19-.73 1.6-1.84a.15.15 0 0 1 .14-.08c.1 0 .31.08.31.27-.37 1.17-1.36 2.52-2.67 2.52-.61 0-.78-.44-.78-1.16a4.62 4.62 0 0 1 .05-.68 3.29 3.29 0 0 1-2.62 1.89 1.93 1.93 0 0 1-2.06-2.14c0-2.92 2.69-6.26 5.1-6.26a1.25 1.25 0 0 1 1.27.73l.17-.53c.05-.15.25-.2.49-.2s.82.17.82.49c-.93 2.33-1.76 5.05-2.11 6.37zm-.7-6.19c-1.51 0-3.62 3.48-3.62 5.95 0 .58.2 1 .83 1 1.1 0 2-1.16 2.7-2.86a10.9 10.9 0 0 0 .92-3.23c-.02-.5-.13-.86-.85-.86zM57.28 4.55a1.35 1.35 0 0 1 1.51 1.43 7.66 7.66 0 0 1-.78 3 9 9 0 0 0-.85 2.7.27.27 0 0 0 .29.31c.51 0 1.19-.73 1.6-1.84a.15.15 0 0 1 .14-.08c.12 0 .36.1.31.27-.34 1.19-1.44 2.52-2.65 2.52-.68 0-1-.27-1-1a10.07 10.07 0 0 1 .88-3.18 7.88 7.88 0 0 0 .75-2.77c0-.44-.19-.63-.61-.63-.9 0-2.36 1.43-3 3-.32.83-1.26 3.72-1.36 4.3 0 .1-.2.2-.48.2s-.82-.12-.82-.29a2.88 2.88 0 0 1 .15-.75l.85-2.79a21 21 0 0 0 .85-3.13c0-.36-.12-.46-.29-.46-.51 0-1.19.73-1.6 1.84a.15.15 0 0 1-.14.08c-.12 0-.36-.1-.31-.27a3.14 3.14 0 0 1 2.67-2.45c.61 0 .83.48.83 1.09A5.44 5.44 0 0 1 54 6.92a4.15 4.15 0 0 1 3.28-2.37zM65.92 12.88c-.61 0-.8-.44-.8-1.16a4.56 4.56 0 0 1 .05-.68 3.34 3.34 0 0 1-2.63 1.89 1.93 1.93 0 0 1-2.06-2.14c0-2.86 2.63-6.26 5-6.26a1.35 1.35 0 0 1 1.36.73L68.18.99a3.29 3.29 0 0 0-1-.12c-.08 0-.12-.1-.12-.32s0-.31.14-.31a11.83 11.83 0 0 0 2.4-.27c.22 0 .36.05.36.25a.84.84 0 0 1-.05.25C68.98 3 67 9.07 66.32 11.38a1.15 1.15 0 0 0 0 .31.27.27 0 0 0 .29.31c.51 0 1.19-.73 1.6-1.84a.15.15 0 0 1 .14-.08c.12 0 .36.1.31.27-.48 1.21-1.43 2.53-2.74 2.53zm-.46-7.67c-1.51 0-3.52 3.48-3.52 5.95 0 .58.2 1 .83 1 1.1 0 2-1.21 2.74-2.91a10.64 10.64 0 0 0 .83-3.18c0-.48-.18-.84-.86-.84zM72.26 9.03a10 10 0 0 0-.92 2.7.27.27 0 0 0 .29.31c.51 0 1.19-.73 1.6-1.84a.15.15 0 0 1 .14-.08c.12 0 .36.1.31.27-.34 1.19-1.44 2.52-2.65 2.52-.68 0-1-.27-1-1a10.72 10.72 0 0 1 1-3.18 10.6 10.6 0 0 0 .94-2.89c0-.36-.12-.46-.29-.46-.51 0-1.19.73-1.6 1.84a.15.15 0 0 1-.14.08c-.12 0-.36-.1-.31-.27a3.14 3.14 0 0 1 2.67-2.45c.71 0 1 .43 1 1.09a9.25 9.25 0 0 1-1.04 3.36zm-.2-7.77a.94.94 0 1 1 1 1 1 1 0 0 1-1-1zM81.19 4.55a1.35 1.35 0 0 1 1.51 1.43 7.66 7.66 0 0 1-.78 3 9 9 0 0 0-.85 2.7.27.27 0 0 0 .29.31c.51 0 1.19-.73 1.6-1.84a.15.15 0 0 1 .14-.08c.12 0 .36.1.31.27-.34 1.19-1.44 2.52-2.65 2.52-.68 0-1-.27-1-1a10.07 10.07 0 0 1 .88-3.18 7.88 7.88 0 0 0 .75-2.77c0-.44-.19-.63-.61-.63-.9 0-2.36 1.43-3 3-.32.83-1.26 3.72-1.36 4.3 0 .1-.2.2-.48.2s-.82-.12-.82-.29a2.88 2.88 0 0 1 .15-.75l.85-2.79a21 21 0 0 0 .85-3.13c0-.36-.12-.46-.29-.46-.51 0-1.19.73-1.6 1.84a.15.15 0 0 1-.14.08c-.12 0-.36-.1-.31-.27a3.14 3.14 0 0 1 2.67-2.45c.61 0 .83.48.83 1.09a5.44 5.44 0 0 1-.22 1.27 4.15 4.15 0 0 1 3.28-2.37zM85.16 8.46c0-1.84 1.41-3.91 3.43-3.91a1.68 1.68 0 0 1 1.53.8 2 2 0 0 1 1.55-.78.86.86 0 0 1 .94.87c0 .42-.2.71-.61.71-.61 0-.41-.7-1-.7a.82.82 0 0 0-.66.37 2.66 2.66 0 0 1 .1.83 3.7 3.7 0 0 1-3.47 3.94c-.92 0-1.36.37-1.36.94s.66.71 2.11 1c1.8.37 2.75.92 2.75 2.31 0 1.68-1.53 2.58-3.37 2.58-2.52 0-3.94-1.05-3.94-2.38 0-.9.53-1.27 1.05-1.27a.72.72 0 0 1 .61.31 1.3 1.3 0 0 0-.42 1c0 .87 1 1.68 2.69 1.68 1.44 0 2.13-.66 2.13-1.53 0-.65-.26-1-1.92-1.39-2.26-.56-2.89-.88-2.89-1.89a2 2 0 0 1 1.87-1.68 1.71 1.71 0 0 1-1.12-1.81zm3.4-3.35c-1 0-2.14 2.11-2.14 4 0 .77.25 1 .65 1 1.1 0 2.16-2.24 2.16-4.06 0-.63-.17-.93-.67-.93z"/><path class="d" d="M125.21 20.62h229.58"/><path d="M120 20.61a21 21 0 0 1 5.79 2.17v-4.34a21 21 0 0 1-5.79 2.17M360 20.61a21 21 0 0 1-5.79-2.17v4.34a21 21 0 0 1 5.79-2.17M216.98 12.03c.1 0 .14.15.14.31s-.05.32-.17.32c-.42 0-1.12-.05-2.48-.05s-2.09.05-2.5.05c-.1 0-.12-.1-.12-.31s0-.32.12-.32c1.21 0 1.56-.39 1.85-1.34l2.45-8.19c.25-.85 0-1.33-1.46-1.33-.08 0-.12-.1-.12-.29s.05-.34.15-.34c.42 0 1.24.08 2.6.08s2-.08 2.48-.08c.12 0 .14.14.14.32s-.05.31-.14.31a1.74 1.74 0 0 0-1.94 1.39l-2.43 8.07c-.26.86-.07 1.4 1.43 1.4zM225.99 4.55a1.35 1.35 0 0 1 1.49 1.43 7.66 7.66 0 0 1-.78 3 9 9 0 0 0-.85 2.7.27.27 0 0 0 .29.31c.51 0 1.19-.73 1.6-1.84a.15.15 0 0 1 .14-.08c.12 0 .36.1.31.27-.34 1.19-1.44 2.52-2.65 2.52-.68 0-1-.27-1-1a10.07 10.07 0 0 1 .88-3.18 7.88 7.88 0 0 0 .75-2.77c0-.44-.19-.63-.61-.63-.9 0-2.36 1.43-3 3-.32.83-1.26 3.72-1.36 4.3 0 .1-.2.2-.48.2s-.82-.12-.82-.29a2.88 2.88 0 0 1 .15-.75l.85-2.79a21 21 0 0 0 .85-3.13c0-.36-.12-.46-.29-.46-.51 0-1.19.73-1.6 1.84a.15.15 0 0 1-.14.08c-.12 0-.36-.1-.31-.27a3.14 3.14 0 0 1 2.67-2.45c.61 0 .83.48.83 1.09a5.44 5.44 0 0 1-.22 1.27 4.15 4.15 0 0 1 3.3-2.37zM229.56 8.74s-.05-.08-.05-.22c0-.41.15-1.21.36-1.21h3.16c.08 0 .12.08.12.24 0 .39-.29 1.19-.42 1.19zM239.81 12.88c-.61 0-.8-.44-.8-1.16a4.56 4.56 0 0 1 .05-.68 3.34 3.34 0 0 1-2.63 1.89 1.93 1.93 0 0 1-2.06-2.14c0-2.86 2.63-6.26 5-6.26a1.35 1.35 0 0 1 1.36.73l1.34-4.27a3.29 3.29 0 0 0-1-.12c-.08 0-.12-.1-.12-.32s0-.31.14-.31a11.83 11.83 0 0 0 2.4-.27c.22 0 .36.05.36.25a.84.84 0 0 1-.05.25c-.93 2.53-2.91 8.6-3.59 10.91a1.15 1.15 0 0 0 0 .31.27.27 0 0 0 .29.31c.51 0 1.19-.73 1.6-1.84a.15.15 0 0 1 .14-.08c.12 0 .36.1.31.27-.48 1.21-1.43 2.53-2.74 2.53zm-.46-7.67c-1.51 0-3.52 3.48-3.52 5.95 0 .58.2 1 .83 1 1.1 0 2-1.21 2.74-2.91a10.64 10.64 0 0 0 .83-3.18c0-.48-.19-.84-.88-.84zM245.67 12.88a1.35 1.35 0 0 1-1.51-1.43 7.65 7.65 0 0 1 .78-3 9 9 0 0 0 .85-2.7.27.27 0 0 0-.29-.31c-.51 0-1.19.73-1.6 1.84a.15.15 0 0 1-.14.08c-.12 0-.36-.1-.31-.27.34-1.19 1.44-2.52 2.65-2.52.68 0 1 .27 1 1a10.08 10.08 0 0 1-.88 3.18 7.87 7.87 0 0 0-.75 2.77c0 .44.19.63.61.63.9 0 2.36-1.43 3-3 .32-.83 1.31-3.86 1.41-4.44 0-.1.2-.2.48-.2s.82.12.82.29a2.88 2.88 0 0 1-.15.75l-.9 2.92a21 21 0 0 0-.85 3.13c0 .36.12.46.29.46.51 0 1.19-.73 1.6-1.84a.15.15 0 0 1 .14-.08c.12 0 .36.1.31.27a3.14 3.14 0 0 1-2.75 2.47c-.61 0-.83-.48-.83-1.09a5.44 5.44 0 0 1 .22-1.27 4.15 4.15 0 0 1-3.2 2.36zM259.12 6.66c-.41 0-.66-.24-.75-.71s-.2-.65-.58-.65c-1 0-3.16 3-3.16 5.66 0 1 .51 1.21 1 1.21.92 0 1.68-.66 2.4-2 .05-.08.1-.15.2-.15s.37.15.31.34c-.68 1.8-1.89 2.63-3.2 2.63a2 2 0 0 1-2.18-2.16c0-3.38 2.77-6.24 4.86-6.24 1.36 0 1.78.56 1.78 1.27a.74.74 0 0 1-.68.8zM266.58 4.55a.9.9 0 0 1 1 1 .87.87 0 0 1-.85 1 .55.55 0 0 1-.54-.58c0-.22-.1-.32-.34-.32a7.82 7.82 0 0 0-2.8 2.46c1.39.07 1.82 1.19 2 3.23.05.53.1.71.34.71s1-.58 1.36-1.85c0-.05 0-.08.12-.08s.36.12.31.31c-.49 1.82-1.6 2.53-2.4 2.53s-1.1-.51-1.1-1.89c0-1.94-.2-2.48-.68-2.48-.22 0-.42.08-.59.53-.29.78-.92 3-1 3.45 0 .1-.2.2-.48.2s-.82-.12-.82-.29a2.3 2.3 0 0 1 .15-.75l3.33-10.71a3.3 3.3 0 0 0-1-.12c-.08 0-.12-.1-.12-.32s0-.31.14-.31a11.82 11.82 0 0 0 2.4-.27c.22 0 .36.05.36.25a.83.83 0 0 1-.05.25c-.59 1.61-1.78 4.79-2.6 7.33 1.24-1.76 2.93-3.28 3.86-3.28z"/><path class="d" d="M365.21 20.62h169.58"/><path d="M360 20.61a21 21 0 0 1 5.79 2.17v-4.34a21 21 0 0 1-5.79 2.17M540 20.61a21 21 0 0 1-5.79-2.17v4.34a21 21 0 0 1 5.79-2.17M422.32 12.66c-.1 0-.12-.1-.12-.31s0-.32.12-.32c1.21 0 1.56-.39 1.85-1.34l2.45-8.19c.25-.85 0-1.33-1.46-1.33-.08 0-.12-.1-.12-.29s.05-.34.15-.34c.42 0 1.24.08 2.6.08.58 0 1.48-.07 2.48-.07 2.89 0 5.12 1.68 5.12 5s-2.06 7.16-7.8 7.16c-1.46 0-2-.08-2.77-.08-1.34-.02-2.09.03-2.5.03zm7.84-11.37a9.72 9.72 0 0 0-1.5.1c-1.14 4-2.79 8.91-2.79 9.64s.1 1 1.7 1c3.62 0 5.92-3 5.92-6.8-.01-2.35-.93-3.94-3.33-3.94zM438.37 12.88a1.35 1.35 0 0 1-1.51-1.43 7.66 7.66 0 0 1 .78-3 9 9 0 0 0 .85-2.7.27.27 0 0 0-.29-.31c-.51 0-1.19.73-1.6 1.84a.15.15 0 0 1-.14.08c-.12 0-.36-.1-.31-.27.34-1.19 1.44-2.52 2.65-2.52.68 0 1 .27 1 1a10.07 10.07 0 0 1-.88 3.18 7.87 7.87 0 0 0-.75 2.77c0 .44.19.63.61.63.9 0 2.36-1.43 3-3 .32-.83 1.31-3.86 1.41-4.44 0-.1.2-.2.48-.2s.82.12.82.29a2.87 2.87 0 0 1-.15.75l-.9 2.92a20.93 20.93 0 0 0-.85 3.13c0 .36.12.46.29.46.51 0 1.19-.73 1.6-1.84a.15.15 0 0 1 .14-.08c.12 0 .36.1.31.27a3.14 3.14 0 0 1-2.67 2.45c-.61 0-.83-.48-.83-1.09a5.42 5.42 0 0 1 .22-1.27 4.15 4.15 0 0 1-3.28 2.38zM451.82 6.66c-.41 0-.66-.24-.75-.71s-.2-.65-.58-.65c-1 0-3.16 3-3.16 5.66 0 1 .51 1.21 1 1.21.92 0 1.68-.66 2.4-2 .05-.08.1-.15.2-.15s.37.15.31.34c-.68 1.8-1.89 2.63-3.2 2.63a2 2 0 0 1-2.18-2.16c0-3.38 2.77-6.24 4.86-6.24 1.36 0 1.79.56 1.79 1.27a.74.74 0 0 1-.69.8zM459.28 4.55a.9.9 0 0 1 1 1 .87.87 0 0 1-.85 1 .55.55 0 0 1-.54-.58c0-.22-.1-.32-.34-.32a7.82 7.82 0 0 0-2.8 2.46c1.39.07 1.82 1.19 2 3.23.05.53.1.71.34.71s1-.58 1.36-1.85c0-.05 0-.08.12-.08s.36.12.31.31c-.49 1.82-1.6 2.53-2.4 2.53s-1.11-.51-1.11-1.89c0-1.94-.2-2.48-.68-2.48-.22 0-.42.08-.59.53-.29.78-.92 3-1 3.45 0 .1-.2.2-.48.2s-.82-.12-.82-.29a2.31 2.31 0 0 1 .15-.75l3.33-10.71a3.29 3.29 0 0 0-1-.12c-.08 0-.12-.1-.12-.32s0-.31.14-.31a11.81 11.81 0 0 0 2.4-.27c.22 0 .36.05.36.25a.83.83 0 0 1-.05.25c-.59 1.61-1.79 4.79-2.6 7.33 1.25-1.76 2.94-3.28 3.87-3.28zM462.6 9.18a6.88 6.88 0 0 0-.29 1.73c0 .88.37 1.27 1.09 1.27a3 3 0 0 0 2.41-1.92c.05-.14.07-.17.19-.17s.37.1.32.27a3.57 3.57 0 0 1-3.4 2.58 2.05 2.05 0 0 1-2.06-2.16c0-3.13 2.69-6.24 5.25-6.24 1.05 0 1.46.56 1.46 1.33.01 1.25-1.67 2.49-4.97 3.31zm3.3-3.91c-1 0-2.33 1.19-3.09 3.3 2.23-.63 3.62-1.67 3.62-2.77a.48.48 0 0 0-.53-.53zM473.24 12.88c-.61 0-.8-.44-.8-1.16a4.56 4.56 0 0 1 .05-.68 3.34 3.34 0 0 1-2.63 1.89 1.93 1.93 0 0 1-2.06-2.14c0-2.86 2.63-6.26 5-6.26a1.35 1.35 0 0 1 1.36.73L475.5.99a3.29 3.29 0 0 0-1-.12c-.08 0-.12-.1-.12-.32s0-.31.14-.31a11.83 11.83 0 0 0 2.4-.27c.22 0 .36.05.36.25a.83.83 0 0 1-.05.25c-.93 2.53-2.91 8.6-3.59 10.91a1.17 1.17 0 0 0 0 .31.27.27 0 0 0 .29.31c.51 0 1.19-.73 1.6-1.84a.15.15 0 0 1 .14-.08c.12 0 .36.1.31.27-.5 1.21-1.43 2.53-2.74 2.53zm-.46-7.67c-1.51 0-3.52 3.48-3.52 5.95 0 .58.2 1 .83 1 1.1 0 2-1.21 2.74-2.91a10.64 10.64 0 0 0 .83-3.18c0-.48-.18-.84-.88-.84z"/><path class="d" d="M545.21 20.62H620"/><path d="M540 20.61a21 21 0 0 1 5.79 2.17v-4.34a21 21 0 0 1-5.79 2.17M555.84 3.81c0 .14-.19.2-.34.2s-.34-.07-.34-.22c0-1.68-.65-2.82-2.12-2.82a1.88 1.88 0 0 0-2 2c0 1.27.77 1.89 1.77 2.67 1.56 1.21 2.11 2.06 2.11 3.52a4 4 0 0 1-6.43 2.87.55.55 0 0 0-.34-.12c-.2 0-.31.22-.34.46a.16.16 0 0 1-.17.15c-.19 0-.51 0-.51-.17a22.74 22.74 0 0 0 .49-3.42c0-.14.17-.2.39-.2s.29.07.29.15c0 2.29 1.26 3.23 2.7 3.23a2.12 2.12 0 0 0 2.38-2.23c0-.88-.36-1.65-1.87-2.82a4.18 4.18 0 0 1-2-3.43 3.33 3.33 0 0 1 3.47-3.42 2.92 2.92 0 0 1 2 .78.3.3 0 0 0 .25.14c.15 0 .26-.15.27-.34s.12-.12.2-.12.42.07.41.15a19.18 19.18 0 0 0-.27 2.99zM558 11.25a1.19 1.19 0 0 0 0 .31.27.27 0 0 0 .29.31c.51 0 1.19-.73 1.6-1.84a.15.15 0 0 1 .14-.08c.1 0 .31.08.31.27-.34 1.19-1.36 2.69-2.67 2.69-.61 0-1-.39-1-1.1a4.19 4.19 0 0 1 .2-1.22l1.55-5h-.92c-.14 0-.12-.05-.12-.19 0-.34.05-.44.17-.44l1 .05.7-2.21c.05-.17.51-.27.9-.27s.56.07.56.24c-.25.7-.51 1.46-.77 2.24.49 0 1.16-.05 1.46-.05s.19.05.19.26-.08.37-.19.37h-1.65c-.7 2.21-1.39 4.44-1.75 5.66zM567.48 11.42a1.18 1.18 0 0 0 0 .31.27.27 0 0 0 .29.31c.51 0 1.19-.73 1.6-1.84a.15.15 0 0 1 .14-.08c.1 0 .31.08.31.27-.37 1.17-1.36 2.52-2.67 2.52-.61 0-.78-.44-.78-1.16a4.56 4.56 0 0 1 .05-.68 3.29 3.29 0 0 1-2.62 1.89 1.93 1.93 0 0 1-2.06-2.14c0-2.92 2.69-6.26 5.1-6.26a1.25 1.25 0 0 1 1.28.73l.17-.53c.05-.15.25-.2.49-.2s.82.17.82.49c-.94 2.33-1.78 5.05-2.12 6.37zm-.7-6.19c-1.51 0-3.62 3.48-3.62 5.95 0 .58.2 1 .83 1 1.11 0 2-1.16 2.7-2.86a10.88 10.88 0 0 0 .92-3.23c-.02-.5-.13-.86-.86-.86zM577.28 4.55a1.35 1.35 0 0 1 1.51 1.43 7.65 7.65 0 0 1-.78 3 9 9 0 0 0-.85 2.7.27.27 0 0 0 .29.31c.51 0 1.19-.73 1.6-1.84a.15.15 0 0 1 .14-.08c.12 0 .36.1.31.27-.34 1.19-1.45 2.52-2.65 2.52-.68 0-1-.27-1-1a10.09 10.09 0 0 1 .88-3.18 7.87 7.87 0 0 0 .75-2.77c0-.44-.19-.63-.61-.63-.9 0-2.36 1.43-3 3-.32.83-1.26 3.72-1.36 4.3 0 .1-.2.2-.48.2s-.82-.12-.82-.29a2.87 2.87 0 0 1 .15-.75l.85-2.79a21.06 21.06 0 0 0 .85-3.13c0-.36-.12-.46-.29-.46-.51 0-1.19.73-1.6 1.84a.15.15 0 0 1-.14.08c-.12 0-.36-.1-.31-.27a3.14 3.14 0 0 1 2.67-2.45c.61 0 .83.48.83 1.09a5.47 5.47 0 0 1-.22 1.27 4.15 4.15 0 0 1 3.28-2.37zM585.91 12.88c-.61 0-.8-.44-.8-1.16a4.56 4.56 0 0 1 .05-.68 3.34 3.34 0 0 1-2.63 1.89 1.93 1.93 0 0 1-2.06-2.14c0-2.86 2.63-6.26 5-6.26a1.35 1.35 0 0 1 1.36.73l1.34-4.27a3.3 3.3 0 0 0-1-.12c-.08 0-.12-.1-.12-.32s0-.31.14-.31a11.83 11.83 0 0 0 2.4-.27c.22 0 .36.05.36.25a.83.83 0 0 1-.05.25c-.93 2.53-2.91 8.6-3.59 10.91a1.13 1.13 0 0 0 0 .31.27.27 0 0 0 .29.31c.51 0 1.19-.73 1.6-1.84a.15.15 0 0 1 .14-.08c.12 0 .36.1.31.27-.48 1.21-1.43 2.53-2.74 2.53zm-.46-7.67c-1.51 0-3.52 3.48-3.52 5.95 0 .58.2 1 .83 1 1.11 0 2-1.21 2.74-2.91a10.67 10.67 0 0 0 .83-3.18c.01-.48-.18-.84-.85-.84zM592.25 9.03a10 10 0 0 0-.92 2.7.27.27 0 0 0 .29.31c.51 0 1.19-.73 1.6-1.84a.15.15 0 0 1 .14-.08c.12 0 .36.1.31.27-.34 1.19-1.44 2.52-2.65 2.52-.68 0-1-.27-1-1a10.73 10.73 0 0 1 1-3.18 10.63 10.63 0 0 0 .93-2.89c0-.36-.12-.46-.29-.46-.51 0-1.19.73-1.6 1.84a.15.15 0 0 1-.14.08c-.12 0-.36-.1-.31-.27a3.14 3.14 0 0 1 2.67-2.45c.71 0 1 .43 1 1.09a9.25 9.25 0 0 1-1.03 3.36zm-.2-7.77a.94.94 0 1 1 1 1 1 1 0 0 1-1-1zM601.18 4.55a1.35 1.35 0 0 1 1.51 1.43 7.65 7.65 0 0 1-.78 3 9 9 0 0 0-.85 2.7.27.27 0 0 0 .29.31c.51 0 1.19-.73 1.6-1.84a.15.15 0 0 1 .14-.08c.12 0 .36.1.31.27-.34 1.19-1.45 2.52-2.65 2.52-.68 0-1-.27-1-1a10.09 10.09 0 0 1 .88-3.18 7.87 7.87 0 0 0 .75-2.77c0-.44-.19-.63-.61-.63-.9 0-2.36 1.43-3 3-.32.83-1.26 3.72-1.36 4.3 0 .1-.2.2-.48.2s-.82-.12-.82-.29a2.87 2.87 0 0 1 .15-.75l.85-2.79a21.06 21.06 0 0 0 .85-3.13c0-.36-.12-.46-.29-.46-.51 0-1.19.73-1.6 1.84a.15.15 0 0 1-.14.08c-.12 0-.36-.1-.31-.27a3.14 3.14 0 0 1 2.67-2.45c.61 0 .83.48.83 1.09a5.47 5.47 0 0 1-.22 1.27 4.15 4.15 0 0 1 3.28-2.37zM605.16 8.46c0-1.84 1.41-3.91 3.43-3.91a1.68 1.68 0 0 1 1.53.8 2 2 0 0 1 1.55-.78.86.86 0 0 1 .93.87c0 .42-.2.71-.61.71-.61 0-.41-.7-1-.7a.82.82 0 0 0-.66.37 2.67 2.67 0 0 1 .1.83 3.7 3.7 0 0 1-3.47 3.94c-.92 0-1.36.37-1.36.94s.66.71 2.11 1c1.8.37 2.75.92 2.75 2.31 0 1.68-1.53 2.58-3.37 2.58-2.52 0-3.94-1.05-3.94-2.38 0-.9.53-1.27 1.05-1.27a.73.73 0 0 1 .61.31 1.3 1.3 0 0 0-.43 1c0 .87 1 1.68 2.69 1.68 1.44 0 2.12-.66 2.12-1.53 0-.65-.25-1-1.92-1.39-2.26-.56-2.89-.88-2.89-1.89a2 2 0 0 1 1.87-1.68 1.71 1.71 0 0 1-1.09-1.81zm3.4-3.35c-1 0-2.14 2.11-2.14 4 0 .77.25 1 .65 1 1.1 0 2.16-2.24 2.16-4.06-.01-.63-.18-.93-.67-.93z"/><path class="d" d="M120 30.62v-20M360 30.62v-20M540 30.62v-20M14 38.62h32v72H14zM104 38.62h32v72h-32zM164 38.62h32v72h-32zM284 38.62h32v72h-32zM344 74.62h32v36h-32zM464 74.62h32v36h-32zM524 38.62h32v72h-32z"/><path d="M85.65 68.67h5.07c.07 0 .17.15.17.32a52.89 52.89 0 0 0-2.09 5.61 33.46 33.46 0 0 0-1.5 5.64c0 .58-.42.7-.92.7s-.82-.12-.82-.66c0-1 1.12-3.74 2.19-6.14 1-2.14 1.56-3.31 2-4-.85.05-2.6.05-4.06.05-.83 0-1.09.37-1.33 1.26 0 .05-.08.07-.14.07s-.34-.08-.34-.15a15.59 15.59 0 0 0 .53-2.52c0-.17.08-.27.19-.27a4 4 0 0 0 1.05.09zM99.37 78.16c0-.12.1-.17.29-.17s.27 0 .27.14c0 .39-.26 1.75-.26 2.24 0 .22-.07.31-.27.31h-7c-.22 0-.24-.12-.24-.27a.34.34 0 0 1 .19-.27 22.78 22.78 0 0 0 4.57-4.71 6.71 6.71 0 0 0 1.07-3.74c0-1.51-.44-2.53-2-2.53a2 2 0 0 0-1.92 2.11 1.45 1.45 0 0 0 .82 1.41.15.15 0 0 1 .08.12c0 .15-.27.54-.9.54-.92 0-1.44-.82-1.44-1.78a3.32 3.32 0 0 1 3.54-3.23c2.16 0 3.55 1.19 3.55 3.28a6.64 6.64 0 0 1-1.67 4.08 26.25 26.25 0 0 1-3.76 3.54l4-.05a1 1 0 0 0 1.08-1.02zM382.01 90.14a1.27 1.27 0 0 1-1.17-1.41c0-1.07 1.07-2.41 3.54-2.41 1.87 0 3 1.12 3 2.46s-1.21 2.52-3.11 3.3a3.3 3.3 0 0 1 3.6 3.37c0 2-1.65 3.47-4.32 3.47-1.82 0-2.94-.9-2.94-1.94a.8.8 0 0 1 .83-.82.64.64 0 0 1 .7.65 1.42 1.42 0 0 0 1.58 1.36c1.38 0 2.36-1 2.36-2.72s-.7-2.8-2.35-2.8c-1 0-1 .83-1.68.83a.42.42 0 0 1-.44-.42.82.82 0 0 1 .56-.65c1.92-.73 3.55-1.43 3.55-3.62a1.54 1.54 0 0 0-1.75-1.72 1.67 1.67 0 0 0-1.8 1.68 1.7 1.7 0 0 0 .31 1 .23.23 0 0 1 .05.14c.05.13-.14.25-.52.25zM393.48 91.21c2.13 0 3.33 1.67 3.33 3.76a3.79 3.79 0 0 1-3.64 3.94c-2.24 0-3.69-2.07-3.69-5.44 0-4.33 1.92-7.16 4.66-7.16 1.65 0 2.5 1 2.5 1.82a.69.69 0 0 1-.7.73.66.66 0 0 1-.68-.65c0-.9-.53-1.14-1.24-1.14-1.5 0-2.65 1.48-2.82 5.56a2.28 2.28 0 0 1 2.28-1.42zm-2.26 3.23c0 2.82.66 3.86 1.94 3.86 1.48 0 2-1.26 2-2.84 0-2.48-.59-3.55-2-3.55s-1.97 1.22-1.97 2.53z"/><circle cx="30" cy="110.62" r="3"/><circle cx="120" cy="110.62" r="3"/><circle cx="180" cy="110.62" r="3"/><circle cx="300" cy="110.62" r="3"/><circle cx="360" cy="110.62" r="3"/><circle cx="480" cy="110.62" r="3"/><circle cx="540" cy="110.62" r="3"/><path d="M122.37 123.6h-1.89l-1.61 5.42a1.54 1.54 0 0 0-.05.39c0 .29.15.48.39.48.56 0 1.05-.48 2.11-2.07l.51.34c-.44.71-.61 1-.85 1.31a3.18 3.18 0 0 1-2.35 1.33 1.26 1.26 0 0 1-1.22-1.29 6.13 6.13 0 0 1 .32-1.61l1.27-4.28h-1.52l.24-.8h1.6l.83-2.82h1.48l-.83 2.82h1.85zM160.1 123.6h-1.85l-1.61 5.42a1.54 1.54 0 0 0-.05.39c0 .29.15.48.39.48.56 0 1.05-.48 2.11-2.07l.51.34c-.44.71-.61 1-.85 1.31a3.18 3.18 0 0 1-2.35 1.33 1.26 1.26 0 0 1-1.22-1.29 6.13 6.13 0 0 1 .3-1.63l1.27-4.28h-1.6l.24-.8h1.6l.83-2.82h1.48l-.83 2.82h1.85zm11.71 3.11v4.67h-1.19v-4.67h-4.67v-1.19h4.67v-4.64h1.19v4.67h4.67v1.19zm14.5 4.08c-2.29 0-4-2.57-4-6.07s1.73-6.15 4.11-6.15 3.91 2.75 3.91 6.2-1.64 6.02-4.01 6.02zm1.53-10.44a1.86 1.86 0 0 0-1.51-1.05 2 2 0 0 0-1.65 1.36 9 9 0 0 0-.46 3.71c0 2.77.14 3.84.61 4.64a1.86 1.86 0 0 0 1.51 1.05 2 2 0 0 0 1.65-1.34c.34-.75.46-1.87.46-4.25s-.15-3.33-.61-4.11zm5.54 10.42a1.06 1.06 0 1 1 1.07-1.07 1.06 1.06 0 0 1-1.06 1.08zm4.11-.24v-.8h1.1c1.36 0 1.51-.08 1.51-.8v-7.31c0-1-.07-1.07-1.05-1.07h-1.5v-.67a5.32 5.32 0 0 0 3.71-1.26h.61c-.08 1.21-.12 2-.12 2.86v7c0 .93 0 .93.12 1.05s.51.24 1.41.24h.93v.8zM233.61 129.57a1.11 1.11 0 0 1 1.09-1.09 1.12 1.12 0 0 1 1.09 1.09 1.1 1.1 0 0 1-1.09 1.07 1.09 1.09 0 0 1-1.09-1.07zm5.3 0a1.11 1.11 0 0 1 1.09-1.09 1.13 1.13 0 0 1 1.09 1.09 1.12 1.12 0 0 1-1.09 1.07 1.09 1.09 0 0 1-1.09-1.07zm5.3 0a1.11 1.11 0 0 1 1.09-1.09 1.13 1.13 0 0 1 1.09 1.09 1.12 1.12 0 0 1-1.09 1.07 1.09 1.09 0 0 1-1.08-1.07zM280.1 123.6h-1.85l-1.61 5.42a1.54 1.54 0 0 0-.05.39c0 .29.15.48.39.48.56 0 1.05-.48 2.11-2.07l.51.34c-.44.71-.61 1-.85 1.31a3.18 3.18 0 0 1-2.35 1.33 1.26 1.26 0 0 1-1.22-1.29 6.13 6.13 0 0 1 .3-1.63l1.27-4.28h-1.6l.24-.8h1.6l.83-2.82h1.48l-.83 2.82h1.85zm11.71 3.11v4.67h-1.19v-4.67h-4.67v-1.19h4.67v-4.64h1.19v4.67h4.67v1.19zm14.5 4.08c-2.29 0-4-2.57-4-6.07s1.73-6.15 4.11-6.15 3.91 2.75 3.91 6.2-1.64 6.02-4.02 6.02zm1.53-10.44a1.86 1.86 0 0 0-1.51-1.05 2 2 0 0 0-1.65 1.36 9 9 0 0 0-.46 3.71c0 2.77.14 3.84.61 4.64a1.86 1.86 0 0 0 1.51 1.05 2 2 0 0 0 1.65-1.34c.34-.75.46-1.87.46-4.25s-.15-3.33-.61-4.11zm5.54 10.42a1.06 1.06 0 1 1 1.07-1.07 1.06 1.06 0 0 1-1.06 1.08zm6.82 0c-2.18 0-3.69-1.14-3.69-2.79 0-.88.49-1.5 1.21-1.5a1 1 0 0 1 1.09 1.07 1.09 1.09 0 0 1-.66 1c-.34.2-.37.22-.37.37 0 .53 1.16 1.1 2.23 1.1 1.51 0 2.38-1 2.38-2.75s-.68-2.58-1.94-2.58h-1.21c-.34 0-.53-.14-.53-.42s.19-.46.54-.46.82.05 1.05.05c1.22 0 1.87-.83 1.87-2.41s-.65-2.21-1.87-2.21c-1 0-2 .51-2 1 0 .1.05.19.22.31a1 1 0 0 1 .53.87 1 1 0 0 1-1 1 1.12 1.12 0 0 1-1.12-1.19c0-1.55 1.51-2.72 3.5-2.72s3.47 1.16 3.47 2.92a2.89 2.89 0 0 1-2.26 2.79c1.75.49 2.58 1.46 2.58 3.06.04 2.15-1.57 3.51-4.02 3.51zM340.1 123.6h-1.85l-1.61 5.42a1.54 1.54 0 0 0-.05.39c0 .29.15.48.39.48.56 0 1.05-.48 2.11-2.07l.51.34c-.44.71-.61 1-.85 1.31a3.18 3.18 0 0 1-2.35 1.33 1.26 1.26 0 0 1-1.22-1.29 6.13 6.13 0 0 1 .3-1.63l1.27-4.28h-1.6l.24-.8h1.6l.83-2.82h1.48l-.83 2.82h1.85zm11.71 3.11v4.67h-1.19v-4.67h-4.67v-1.19h4.67v-4.64h1.19v4.67h4.67v1.19zm14.5 4.08c-2.29 0-4-2.57-4-6.07s1.73-6.15 4.11-6.15 3.91 2.75 3.91 6.2-1.64 6.02-4.02 6.02zm1.53-10.44a1.86 1.86 0 0 0-1.51-1.05 2 2 0 0 0-1.65 1.36 9 9 0 0 0-.46 3.71c0 2.77.14 3.84.61 4.64a1.86 1.86 0 0 0 1.51 1.05 2 2 0 0 0 1.65-1.34c.34-.75.46-1.87.46-4.25s-.15-3.33-.61-4.11zm5.54 10.42a1.06 1.06 0 1 1 1.07-1.07 1.06 1.06 0 0 1-1.06 1.08zm9.32-3.21v1.38c0 .71 0 .8 1.36.8h.24v.8h-5v-.8h.36c1.38 0 1.36-.08 1.36-.8v-1.38h-4.74v-1l5.78-8h.73c-.08 1.27-.08 1.27-.08 3.4v4.64h2.06v1zm-1.65-6.1l-3.74 5.15h3.74z"/><path class="e" d="M97.59 159.81v-4h-3.55v-1.54h3.55v-4h1.55v4h3.55v1.54h-3.55v4zM111.04 158.88a3.06 3.06 0 0 1-1.11 1.25 2.92 2.92 0 0 1-1.59.45 2.76 2.76 0 0 1-2.23-.93 3.89 3.89 0 0 1-.79-2.6v-2.52a3.3 3.3 0 0 1 1.05-2.61 4.29 4.29 0 0 1 2.94-.93 5.61 5.61 0 0 1 1.11.12 6.44 6.44 0 0 1 1.08.32v-3.37h1.55v12.36h-1.57v-1.54zm-2.32.23a2.78 2.78 0 0 0 1.44-.4 5.17 5.17 0 0 0 1.34-1.22v-4.54a3.93 3.93 0 0 0-1-.44 4.42 4.42 0 0 0-1.16-.15 2.68 2.68 0 0 0-1.86.52 2.13 2.13 0 0 0-.6 1.66v2.49a2.23 2.23 0 0 0 .46 1.54 1.78 1.78 0 0 0 1.38.54zM119.14 160.58a2.85 2.85 0 0 1-2.17-.87 3.2 3.2 0 0 1-.83-2.29v-6.26h1.55v6a2.2 2.2 0 0 0 .45 1.51 1.77 1.77 0 0 0 1.38.5 2.81 2.81 0 0 0 1.41-.39 5.48 5.48 0 0 0 1.4-1.23v-6.34h1.55v9.27h-1.55v-1.6h-.46a2.68 2.68 0 0 1-1.07 1.23 3 3 0 0 1-1.66.47zM131.04 160.58a4.55 4.55 0 0 1-3.05-.89 3.27 3.27 0 0 1-1-2.62v-2.5a3.36 3.36 0 0 1 1-2.67 4.47 4.47 0 0 1 3-.9 4.18 4.18 0 0 1 2.76.81 3.24 3.24 0 0 1 1.07 2.37l-1.51.09a1.89 1.89 0 0 0-.63-1.42 2.66 2.66 0 0 0-1.7-.46 2.84 2.84 0 0 0-1.89.53 2.06 2.06 0 0 0-.62 1.65v2.5a2 2 0 0 0 .63 1.59 2.92 2.92 0 0 0 1.91.53 3 3 0 0 0 1.68-.39 1.45 1.45 0 0 0 .62-1.18l1.51.09a2.81 2.81 0 0 1-1.07 2.15 4.49 4.49 0 0 1-2.71.72zM140.09 156.22v4.2h-1.55v-12.36h1.55v6.82h.79l3-3.76h1.89l-3.63 4.32 3.59 5h-1.76l-3-4.2zM514.04 155.79v-1.54h8.65v1.54zM531.04 158.88a3.06 3.06 0 0 1-1.11 1.25 2.93 2.93 0 0 1-1.59.45 2.76 2.76 0 0 1-2.23-.93 3.89 3.89 0 0 1-.79-2.6v-2.52a3.3 3.3 0 0 1 1.05-2.61 4.29 4.29 0 0 1 2.94-.93 5.61 5.61 0 0 1 1.11.12 6.44 6.44 0 0 1 1.08.32v-3.37h1.54v12.36h-1.56v-1.54zm-2.32.23a2.78 2.78 0 0 0 1.44-.4 5.18 5.18 0 0 0 1.34-1.22v-4.54a3.94 3.94 0 0 0-1-.44 4.42 4.42 0 0 0-1.16-.15 2.69 2.69 0 0 0-1.86.52 2.14 2.14 0 0 0-.6 1.66v2.49a2.23 2.23 0 0 0 .46 1.54 1.78 1.78 0 0 0 1.38.54zM539.13 160.58a2.85 2.85 0 0 1-2.17-.87 3.2 3.2 0 0 1-.83-2.29v-6.26h1.54v6a2.2 2.2 0 0 0 .45 1.51 1.76 1.76 0 0 0 1.38.5 2.82 2.82 0 0 0 1.42-.39 5.5 5.5 0 0 0 1.4-1.23v-6.34h1.54v9.27h-1.54v-1.6h-.46a2.68 2.68 0 0 1-1.07 1.23 3 3 0 0 1-1.66.47zM551.03 160.58a4.55 4.55 0 0 1-3.05-.89 3.27 3.27 0 0 1-1-2.62v-2.5a3.36 3.36 0 0 1 1-2.67 4.47 4.47 0 0 1 3-.9 4.17 4.17 0 0 1 2.76.81 3.23 3.23 0 0 1 1.07 2.37l-1.51.09a1.89 1.89 0 0 0-.63-1.42 2.66 2.66 0 0 0-1.7-.46 2.84 2.84 0 0 0-1.89.53 2.06 2.06 0 0 0-.62 1.65v2.5a2 2 0 0 0 .63 1.59 2.92 2.92 0 0 0 1.91.53 3 3 0 0 0 1.68-.39 1.45 1.45 0 0 0 .62-1.18l1.51.09a2.81 2.81 0 0 1-1.03 2.17 4.48 4.48 0 0 1-2.75.7zM560.09 156.22v4.2h-1.54v-12.36h1.54v6.82h.79l3-3.76h1.89l-3.63 4.32 3.58 5h-1.76l-3-4.2z"/><path stroke="navy" stroke-dasharray="1 1" stroke-miterlimit="10" fill="none" d="M150.87 154.32h358.26"/></g></svg>