<svg xmlns="http://www.w3.org/2000/svg" xmlns:xlink="http://www.w3.org/1999/xlink" version="1.2" height="1562.76" width="478.31"><defs><symbol id="a" overflow="visible"><path d="M5.47.34c1.87 0 3.92-1.1 3.92-3.73 0-2.6-1.9-3.33-3.6-3.97-1.38-.56-2.67-1.01-2.67-2.47 0-1.15.8-1.92 2.05-1.92 1.72 0 2.69 1.27 2.69 2.9 0 .2.1.22.33.22.3 0 .36-.03.36-.21 0-.16-.05-1.72-.05-3.18 0-.07-.13-.12-.36-.12-.06 0-.14.02-.14.1-.02.27-.14.37-.33.37-.14 0-.26-.11-.8-.38a3.4 3.4 0 0 0-1.73-.37c-1.67 0-3.44 1.17-3.44 3.23 0 2.25 1.6 2.96 3.17 3.6C6.42-5 7.92-4.44 7.92-2.7c0 1.39-1.04 2.36-2.46 2.36-1.83 0-3.47-1.52-3.47-3.74 0-.12-.07-.17-.37-.17-.24 0-.31.03-.31.23 0 .49.03 2.08.03 3.68 0 .12.1.2.44.2.15 0 .23-.06.23-.14 0-.3.02-.55.25-.55.22 0 .33.2.98.61.5.33 1.07.56 2.24.56zm0 0"/></symbol><symbol id="b" overflow="visible"><path d="M1.6-6.98v5.21C1.6-.25 2.4.31 3.67.31c1.15 0 2.01-.67 2.01-1.48 0-.14-.12-.22-.28-.22-.1 0-.23.05-.25.2-.03.25-.44.49-.87.49-.64 0-1.18-.24-1.18-1.03 0-2.25.02-4.11.05-5.25l2.22.01c.12 0 .17-.06.17-.34 0-.3-.05-.46-.17-.46-.64 0-1.53.04-2.19.05.06-.53.11-1.6.11-2.05 0-.1-.08-.17-.39-.17-.1 0-.19.02-.2.11-.24 1.33-1 2.3-1.78 2.3-.08 0-.1.16-.1.34 0 .16.03.2.1.2zm0 0"/></symbol><symbol id="c" overflow="visible"><path d="M6.64.22C7.88.22 8.33-.6 8.33-.84c0-.1-.19-.27-.25-.27-.08 0-.11 0-.16.08-.14.22-.33.4-.6.4-.4 0-.55-.32-.55-.76 0-1.72.14-3.7.14-4.47 0-1.56-.7-2.23-2.88-2.23C1.7-8.1.98-7.13.98-6.52c0 .4.3.6.63.6.28 0 .62-.2.75-.52.23-.58.66-.87 1.6-.87 1.26 0 1.34.56 1.34 1.43v.9C1.67-4.08.72-2.77.72-1.48.72-.42 1.42.25 2.7.25c.92 0 1.94-.5 2.64-1.36.07.94.6 1.33 1.3 1.33zM2.45-1.9c0-.97.49-1.9 2.85-2.58v2.66c-.67.73-1.2 1.06-1.78 1.06-.61 0-1.07-.4-1.07-1.14zm0 0"/></symbol><symbol id="d" overflow="visible"><path d="M3.4-6.6v-1.18c0-.16-.15-.27-.42-.27-.54.24-1.56.44-2.07.44-.11 0-.13.14-.13.33 0 .17.05.3.19.3h.37c.41 0 .6.04.6.45v4.94c0 .7-.08.98-1.11.98C.77-.6.7-.5.7-.3c0 .18.02.33.1.33.6 0 1.07-.07 1.9-.07.77 0 1.6.07 1.99.07.12 0 .17-.16.17-.33 0-.19-.03-.3-.14-.3-1.13 0-1.3-.14-1.3-.89v-3.2c0-1.72.86-2.22 1.46-2.22.78 0 .57.67 1.21.67.46 0 .72-.36.72-.86 0-.47-.33-.98-1.25-.98-.62 0-1.65.5-2.15 1.48zm0 0"/></symbol><symbol id="N" overflow="visible"><path d="M4.69-5.6c2.23 0 3.3-1.71 3.3-3.4 0-1.66-1.07-3.31-3.63-3.31-1.67 0-2.99.64-2.99 1.65 0 .55.36.66.7.66.41 0 .65-.22.71-.56.11-.49.36-.99 1.35-.99 1.54 0 2.12 1.3 2.12 2.63 0 1.33-.53 2.6-1.81 2.6-.55 0-.9-.26-.97-.65-.06-.25-.05-.76-.44-.76-.2 0-.36.07-.36.34 0 .26.25 2.14.25 3.7 0 .2.1.24.38.24.3 0 .37-.03.37-.27 0-.58-.06-1.58-.17-2.14.23.14.58.27 1.19.27zM3.34.1c.52 0 .99-.46.99-.96 0-.55-.47-1-.99-1a1 1 0 0 0-.96 1c0 .5.43.97.96.97zm0 0"/></symbol><symbol id="V" overflow="visible"><path d="M3.3-.6c-.64 0-1.05-.21-1.05-.87 0-.33.1-.76.33-1.28.19-.52.47-1.1.75-1.83a28.71 28.71 0 0 0 4.25.02l1.06 2.6c.06.16.1.35.1.48 0 .64-.3.89-1.54.89-.08 0-.1.12-.1.32s0 .3.1.3c.4 0 1.3-.06 2.63-.06 1.36 0 2.06.06 2.48.06.11 0 .17-.14.17-.34 0-.14-.04-.28-.14-.28-.64 0-.96-.24-1.37-.88-.66-.94-4.13-9.4-4.53-10.58-.08-.23-.13-.3-.38-.3-.23 0-.33.1-.4.35-.08.48-4.07 9.6-4.35 10.1C.84-1.04.47-.6-.14-.6c-.11 0-.14.13-.14.33s.01.3.1.3c.26 0 .7-.06 1.7-.06.95 0 1.32.06 1.75.06.12 0 .17-.14.17-.34 0-.14-.03-.28-.14-.28zm2.18-9c.25.57 1.05 2.58 1.79 4.35-.44 0-1.1-.03-1.79-.03-.68 0-1.4.01-1.92.03.75-1.78 1.64-3.77 1.92-4.34zm0 0"/></symbol><symbol id="W" overflow="visible"><path d="M3.42-6.53c0-3.66.13-5.31.13-5.9 0-.15-.22-.21-.4-.21-.13 0-.92.27-2.45.27-.1 0-.1.14-.1.32 0 .2 0 .3.1.3 1.1 0 1.24.16 1.24.77v9.56c0 .53-.13.81-1.14.81-.07 0-.14.14-.14.28 0 .19.03.35.1.35.6 0 1.1-.07 1.93-.07.76 0 1.42.07 1.83.07.1 0 .14-.13.14-.36 0-.11-.04-.27-.1-.27-.9 0-1.14-.22-1.14-.8zm0 0"/></symbol><symbol id="X" overflow="visible"><path d="M3.7.31c1.17 0 2.66-.69 2.66-2.51 0-1.42-.9-2-2.7-2.7-.72-.27-1.4-.62-1.4-1.33 0-.8.57-1.2 1.2-1.2 1.07 0 1.73.84 1.92 1.98.01.1.06.12.21.12.18 0 .27-.03.27-.14 0-.39-.03-1.42-.03-2.42 0-.08-.19-.08-.38-.08-.04.13-.23.38-.34.38A.17.17 0 0 1 5-7.64a2.7 2.7 0 0 0-1.48-.45C2.09-8.1 1-7.14 1-5.8c0 1.5.98 2.06 2.42 2.57 1.02.38 1.61.75 1.61 1.53 0 .86-.45 1.31-1.39 1.31-.98 0-2.08-.54-2.28-2.25-.02-.07-.06-.07-.14-.07-.1 0-.31.01-.31.1L.92.07c0 .1.17.11.28.11.08 0 .11-.03.16-.1.12-.18.2-.24.3-.24.06 0 .09.01.2.06.44.25.95.42 1.84.42zm0 0"/></symbol><symbol id="Y" overflow="visible"><path d="M4.95.31c2.36 0 4.3-1.9 4.3-4.23a4.22 4.22 0 0 0-4.3-4.17 4.22 4.22 0 0 0-4.3 4.17A4.28 4.28 0 0 0 4.96.3zm0-7.72c1.53 0 2.46 1.36 2.46 3.49C7.4-1.66 6.48-.4 4.95-.4 3.42-.4 2.5-1.6 2.5-3.92c0-2.3.9-3.49 2.45-3.49zm0 0"/></symbol><symbol id="Z" overflow="visible"><path d="M3.42-1.4c0-4.07.05-5.87.05-6.38 0-.14-.19-.27-.42-.27-.67.25-1.63.44-2.14.44-.11 0-.13.14-.13.33 0 .17.02.3.16.3h.4c.52 0 .6.1.6.53v5.03c0 .53-.1.81-1.13.81C.75-.6.7-.5.7-.34c0 .18.01.36.1.36.58 0 1.08-.07 1.91-.07.77 0 1.42.07 1.83.07.11 0 .14-.16.14-.33 0-.19-.03-.3-.1-.3-1 0-1.15-.25-1.15-.8zm-.73-9a1 1 0 0 0 .98-1 1 1 0 1 0-1.98 0c0 .57.44 1 1 1zm0 0"/></symbol><symbol id="aa" overflow="visible"><path d="M9.98-.17c.07 0 .08-.17.08-.3 0-.22-.03-.34-.08-.34l-.54-.03c-.58-.07-.7-.2-.7-.68v-3.1c0-4.66.12-7.32.12-7.8 0-.14-.16-.22-.36-.22-.14 0-1.05.27-2.53.27-.1 0-.11.14-.11.32 0 .2 0 .3.1.3 1.07 0 1.26.17 1.26.77v3.89c-.61-.72-1.44-1-2.55-1C2.5-8.1.66-6.34.66-3.8.66-1.24 2.46.3 4.5.3 5.67.31 6.6-.22 7.19-.9L7.16.11c0 .17.07.27.26.27.06 0 .16-.04.25-.07a6.63 6.63 0 0 1 2.31-.48zM5.16-7.34c1.14 0 2.06.86 2.06 1.59 0 1.16 0 2.98-.05 3.97A2.46 2.46 0 0 1 4.98-.6c-1.3 0-2.48-.88-2.48-3.33 0-2.3 1.17-3.42 2.66-3.42zm0 0"/></symbol><symbol id="ad" overflow="visible"><path d="M3.83-.03c.64 0 1.81.1 3.26.1 3.85 0 6.2-2.07 6.2-6.16 0-3.05-2.1-6.04-6.57-6.04-1.38 0-2.19.11-2.9.11-1.35 0-2.2-.09-2.62-.09-.1 0-.15.1-.15.34 0 .2.04.3.12.3 1.31 0 1.7.44 1.7 1.31v8.2c0 1-.46 1.35-1.67 1.35-.07 0-.1.11-.1.33 0 .2 0 .3.1.3.4 0 1.3-.05 2.63-.05zm2.42-11.4c3.53 0 4.92 2.7 4.92 5.48 0 4-1.62 5.4-4.1 5.4-1.63 0-2.41-.42-2.41-1.93 0-1.3.09-8.1.09-8.77.33-.1.83-.17 1.5-.17zm0 0"/></symbol><symbol id="ae" overflow="visible"><path d="M13.4-5.67c0-1.56-1.04-2.42-2.42-2.42-1.06 0-2.25.56-2.76 1.68-.28-1.09-.95-1.68-2.08-1.68-1.1 0-2.23.59-2.72 1.59v-1.28c0-.16-.15-.27-.4-.27-.58.24-1.6.44-2.11.44-.11 0-.13.14-.13.33 0 .17.05.3.19.3h.37c.41 0 .6.04.6.45v5.1c0 .54-.13.82-1.14.82-.07 0-.14.1-.14.27 0 .18.03.36.1.36.6 0 1.11-.07 1.94-.07.77 0 1.28.07 1.7.07.1 0 .16-.07.16-.3 0-.16 0-.33-.12-.33-.83 0-1.02-.19-1.02-.77v-3.07c0-2.03 1.14-2.7 2.13-2.7.89 0 1.36.46 1.36 1.24v4.5c0 .49 0 .8-1.13.8-.1 0-.12.17-.12.28 0 .14.01.35.09.35.58 0 1.17-.07 1.9-.07.52 0 1.16.07 1.8.07.08 0 .1-.2.1-.33 0-.19-.03-.3-.1-.3-.95 0-1.07-.28-1.07-.8v-3.5c0-1.6 1.04-2.26 2.03-2.26 1.1 0 1.48.69 1.48 1.7v4.13c0 .56-.14.73-1.03.73-.06 0-.08.11-.08.27 0 .18.02.36.1.36.59 0 .95-.07 1.76-.07.8 0 1.45.07 1.84.07.11 0 .16-.16.16-.4 0-.12-.03-.23-.12-.23-.93 0-1.16-.22-1.16-.8 0-.86.05-3.06.05-4.26zm0 0"/></symbol><symbol id="af" overflow="visible"><path d="M9.22-6.22c.33 0 .72-.19.72-.76 0-.7-.52-1.11-1.33-1.11-.64 0-1.4.42-1.72 1.25A2.97 2.97 0 0 0 4.4-8.1c-1.75 0-3.08 1.21-3.08 2.98 0 1.3.63 2.24 1.61 2.67-1.04.19-1.69.92-1.69 1.7 0 1.2 1.46 1.4 2.3 1.4.66 0 1.4-.07 2.25-.07 1.45 0 1.81.55 1.81 1.49 0 1.06-.84 2.12-2.89 2.12-1.83 0-2.84-.68-2.84-1.73 0-.55.2-.99.67-1.17.05-.02.13-.07.13-.13 0-.1-.22-.26-.74-.26C1.1.9.38 1.4.38 2.5c0 .97.65 2.43 4.45 2.43 2.78 0 4.19-1.69 4.19-3.4 0-1.38-.85-2.4-3.07-2.4-1.04 0-1.73.08-2.7.08-.75 0-1.02-.16-1.02-.52s.36-.8 1.83-.8c2.36 0 3.42-.98 3.42-3 0-.42-.15-.78-.15-1.15 0-.53.39-.77.7-.77.28 0 .4.11.49.36.12.32.34.44.7.44zM4.37-7.47c.97 0 1.55.94 1.55 2.3 0 1.6-.67 2.48-1.5 2.48-.81 0-1.53-.9-1.53-2.48 0-1.36.58-2.3 1.48-2.3zm0 0"/></symbol><symbol id="ag" overflow="visible"><path d="M7.28-5.14c.3 0 .4-.1.4-.45 0-.86-.7-2.5-2.9-2.5C2.3-8.1.61-6.2.61-3.81.6-.9 2.44.3 4.64.3 6.2.31 7.2-.5 7.61-1.34a.2.2 0 0 0 .06-.13c0-.12-.31-.34-.45-.34-.03 0-.1.01-.14.1-.31.62-1.13 1.1-2.1 1.1-1.53 0-2.64-1.19-2.64-3.47 0-.4.04-.81.11-1.06zM4.61-7.38c1.01 0 1.44.65 1.44 1.24 0 .36-.07.39-.7.4l-2.8.08C2.92-6.84 3.6-7.37 4.6-7.37zm0 0"/></symbol><symbol id="ah" overflow="visible"><path d="M5.55.31c2.42 0 4.25-1.7 4.25-4.2 0-2.56-1.53-4.2-3.85-4.2-1.2 0-2.23.57-2.68 1.4 0-3.4.14-4.51.14-5.73 0-.14-.16-.22-.36-.22-.14 0-1.03.27-2.53.27-.08 0-.1.14-.1.32 0 .2.02.3.11.3 1.06 0 1.24.17 1.24.77v7.34c0 2.81-.2 3.56-.2 3.95 0 .08.24.16.38.16.16 0 .18-.05.2-.08.37-.56.57-.9.93-1.23C3.47-.34 4.47.3 5.55.3zm-.14-7.5C7.16-7.19 7.97-6 7.97-3.8c0 2.4-1.38 3.37-2.63 3.37-.93 0-2.07-.72-2.07-1.7 0-.53.01-2.66.04-3.22.03-.5.44-1.83 2.1-1.83zm0 0"/></symbol><symbol id="ai" overflow="visible"><path d="M4.67-2.02v-3.64c.31 0 .61 0 .9.02.15.05.4.31.8.83l1.74 2.25C9.45-.83 10.44 0 11.08 0c.84 0 1.78.03 2.4.03.16 0 .2-.08.2-.36 0-.23-.07-.31-.23-.31-.97 0-1.68-.6-3.6-2.8-.77-.86-1.54-1.76-2.4-2.53 2.17-.33 3.2-1.64 3.2-2.97 0-1.65-1.34-3.12-4.17-3.12-.67 0-1.68.04-2.65.04-1.36 0-2.2-.09-2.63-.09-.1 0-.15.1-.15.34 0 .2.06.3.14.3 1.31 0 1.69.44 1.69 1.31v8.2c0 1-.47 1.35-1.68 1.35-.07 0-.1.11-.1.33 0 .2 0 .3.1.3.4 0 1.3-.05 2.63-.05 1.36 0 2.04.05 2.48.05.11 0 .17-.15.17-.35 0-.14-.04-.28-.14-.28-1.3 0-1.67-.52-1.67-1.4zm1.38-9.43c1.76 0 2.48 1.15 2.48 2.67 0 1.48-.72 2.53-2.75 2.53h-1.1c0-1.67.07-3.98.12-5.14.22-.03.6-.06 1.25-.06zm0 0"/></symbol><symbol id="aj" overflow="visible"><path d="M7.19-10.17v8.75c0 .53-.11.81-1.14.81-.07 0-.13.14-.13.28 0 .19.02.35.1.35.59 0 1.12-.07 1.95-.07.76 0 1.44.07 1.84.07.1 0 .13-.13.13-.36 0-.11-.03-.27-.1-.27-.9 0-1.15-.22-1.15-.8v-5.12c0-3.66.14-5.31.14-5.9 0-.15-.22-.21-.4-.21-.13 0-.48.66-.87 1.1-.39-.62-1.15-1.02-2.23-1.02a3.29 3.29 0 0 0-3.4 3.4v1.02c0 .37-.21.53-.93.53-.1 0-.14.11-.14.31 0 .17.03.32.14.32h.94v5.5c0 .65-.2.87-.99.87-.06 0-.1.14-.1.3 0 .15.06.33.12.33.34 0 1.14-.07 1.72-.07.6 0 1.23.07 1.84.07.1 0 .11-.18.11-.36 0-.1-.01-.27-.1-.27-.9 0-1.12-.16-1.12-.87v-5.5h1.9c.12 0 .12-.13.12-.33 0-.19 0-.44-.11-.44-.66 0-1.27.02-1.9.03 0-.58.02-1.6.04-2 .06-1.55.83-2.1 2.06-2.1 1.24 0 1.66.74 1.66 1.65zm0 0"/></symbol><symbol id="ak" overflow="visible"><path d="M4.63.31c1.5 0 2.57-.69 3.14-1.84 0-.22-.29-.38-.4-.38-.04 0-.1.02-.18.11A2.41 2.41 0 0 1 5.08-.6c-1.28 0-2.6-.88-2.6-3.52 0-2.22 1.07-3.2 2.3-3.2.67 0 1.08.26 1.28.79.19.48.44.78.88.78.4 0 .73-.23.73-.7 0-.72-.56-1.64-2.72-1.64A4.29 4.29 0 0 0 .65-3.7C.64-1.1 2.68.3 4.62.3zm0 0"/></symbol><symbol id="aq" overflow="visible"><path d="M3.83-12.02c-1.36 0-2.2-.09-2.63-.09-.1 0-.15.1-.15.34 0 .2.04.3.12.3 1.31 0 1.7.44 1.7 1.31v8.2c0 1-.46 1.35-1.67 1.35-.07 0-.1.11-.1.33 0 .2 0 .3.1.3.4 0 1.3-.05 2.63-.05 1.36 0 2.12.05 2.54.05.13 0 .18-.14.18-.35 0-.14-.03-.28-.14-.28C5.09-.6 4.67-1.1 4.67-2v-3.66c.49.04.92.05 1.3.05 3.92 0 4.83-1.53 4.83-3.16 0-2-1.75-3.32-4.53-3.32-.88 0-1.99.07-2.44.07zm.86 5.77c0-1.16.03-3.4.1-5.16.18-.03.48-.04.8-.04 2.3 0 3.08.62 3.08 2.68 0 1.75-.75 2.54-2.86 2.54-.6 0-.87 0-1.12-.02zm0 0"/></symbol><symbol id="ar" overflow="visible"><path d="M4.06-.03c-.25.72-.4 1.22-.92 2.08-.6 1.01-2.05.98-2.05 2.03 0 .45.25.72.75.72.6 0 1.28-.52 1.88-2.03a110.14 110.14 0 0 1 4.06-9.2c.25-.38.53-.73 1.05-.73.08 0 .1-.23.1-.4 0-.13-.05-.22-.1-.22-.14 0-.86.05-1.46.05-.65 0-1.37-.05-1.57-.05-.05 0-.07.2-.07.36 0 .12.05.25.1.25.73 0 .86.22.86.56 0 .77-1.35 3.84-1.78 4.77A70.28 70.28 0 0 1 2.95-6.2c-.08-.25-.1-.34-.1-.53 0-.23.12-.44.8-.44.08 0 .08-.2.08-.36 0-.06-.01-.26-.07-.26-.54 0-.96.05-1.72.05C1-7.73.33-7.78.16-7.78c-.05 0-.1.2-.1.26 0 .16.05.36.13.36a.8.8 0 0 1 .34.07c.56.28 1.17 1.87 1.97 3.57.83 1.79 1.55 3.27 1.56 3.49zm0 0"/></symbol><symbol id="as" overflow="visible"><path d="M3.42-7.67c0-.61.03-1.64.05-2.05.06-1.55.83-2.03 2.06-2.03 1.83 0 .99 1.7 2.31 1.7.5 0 .82-.3.82-.7 0-.72-.4-1.81-2.99-1.81-2.2 0-3.73 1.33-3.73 3.4v1.02c0 .37-.22.56-.94.56-.1 0-.14.1-.14.3 0 .17.03.31.14.31h.94v5.49c0 .65-.2.87-.99.87-.06 0-.1.14-.1.3 0 .15.06.33.12.33.34 0 1.14-.07 1.72-.07.6 0 1.25.07 1.87.07.08 0 .1-.18.1-.36 0-.1-.02-.27-.1-.27-.9 0-1.14-.16-1.14-.87v-5.49h3.46c.14 0 .23.03.23.19v5.36c0 .53-.11.81-1.13.81-.06 0-.14.11-.14.27 0 .18.02.36.11.36.6 0 1.07-.07 1.9-.07.78 0 1.43.07 1.84.07.1 0 .14-.16.14-.33 0-.19-.03-.3-.11-.3-1 0-1.14-.25-1.14-.8 0-4.06.06-5.86.06-6.37 0-.14-.19-.27-.42-.27-.69.25-2.6.38-4.8.38zm0 0"/></symbol><symbol id="aD" overflow="visible"><path d="M5.66.31c2.32 0 4.21-1.8 4.21-4.28 0-2.33-1.56-4.12-3.67-4.12-1.26 0-2.3.45-2.84 1.32 0-.78-.19-1.26-.45-1.28a5.1 5.1 0 0 1-2.05.44c-.08 0-.14.03-.14.28 0 .17.01.35.1.35h.56c.35 0 .5.17.5.84v3.94c0 4.06-.04 4.9-.07 5.42-.01.48-.06.81-1.34.81-.08 0-.11.16-.11.34 0 .2.02.29.1.29.73 0 1.35-.04 2-.04 1.21 0 2.07.04 2.35.04.07 0 .13-.04.13-.3 0-.24-.03-.33-.13-.33-1.18 0-1.45-.25-1.45-.86V-.59c.47.46 1.25.9 2.3.9zm-.08-7.6C7.3-7.3 8.06-6 8.06-3.98c0 2.8-1.4 3.6-2.58 3.6-.84 0-2.12-.7-2.12-1.58v-2.9C3.4-6.71 4.48-7.3 5.58-7.3zm0 0"/></symbol><symbol id="aE" overflow="visible"><path d="M5.23-1.52c0-.53 0-1.56.02-2.09.8-1.3 2.33-3.3 2.63-3.6.48-.52.8-.67 1.26-.67.08 0 .1-.17.1-.26 0-.17-.02-.36-.1-.36-.6 0-.9.06-1.67.06-.64 0-1.13-.06-1.61-.06-.05 0-.08.16-.08.31 0 .16.03.31.06.31.66 0 .88.08.88.5 0 .2-.27.66-.6 1.25-.32.57-.75 1.22-1.15 1.9-.44-.64-.83-1.29-1.19-1.9-.37-.6-.76-1.14-.76-1.45 0-.37.48-.3.87-.3.03 0 .08-.15.08-.3 0-.16-.05-.32-.1-.32-.64 0-1.43.06-2.07.06-.77 0-1.28-.06-1.88-.06-.08 0-.1.19-.1.36 0 .1.02.27.1.27.6 0 .86.14 1.13.48.54.62 1.76 2.39 2.7 4.03v1.83c0 .75-.28.92-1.16.92-.03 0-.06.16-.06.33 0 .14.03.3.1.3.64 0 1.35-.07 1.98-.07.76 0 1.16.07 1.75.07.06 0 .08-.2.08-.36 0-.1-.02-.27-.08-.27-.84 0-1.13-.22-1.13-.9zm0 0"/></symbol><symbol id="aF" overflow="visible"><path d="M3.64-4.23c1.72 0 1.92.37 1.92 1.26 0 .08.11.11.27.11.2 0 .28-.03.28-.12 0-.24-.08-.77-.08-1.52 0-.98.08-1.34.08-1.48 0-.13-.1-.16-.28-.16-.22 0-.27.03-.27.19 0 .8-.2 1.2-1.9 1.2.04-.94.09-2.2.09-3.1.44-.04.78-.04 1.1-.04 1.63 0 2.23.58 2.43 1.55.02.09.13.12.24.12.17 0 .26-.08.26-.14 0-.22-.08-.86-.08-1.94 0-.15-.01-.22-.17-.22-.64 0-2.76.08-4.64.08-.77 0-1.27-.06-1.86-.06-.06 0-.08.19-.08.36 0 .1.02.27.08.27.86 0 1.13.21 1.13.9v5.44c0 .75-.29.92-1.16.92-.03 0-.06.16-.06.33 0 .14.03.3.08.3.39 0 1.09-.07 1.96-.07 1.33 0 3.94.1 4.82.1.2 0 .26-.07.26-.27.02-.69.11-2.22.11-2.45 0-.08-.08-.1-.28-.1-.17 0-.25.04-.28.18C7.39-1.2 6.89-.56 4.8-.56c-.99 0-1.16-.35-1.16-.78l.02-1.44c0-.5 0-.94-.02-1.45zm0 0"/></symbol><symbol id="aG" overflow="visible"><path d="M6.98-2.4c0-1.24-.68-2.04-2.04-2.57l-.8-.3c-.84-.34-1.48-.7-1.48-1.6 0-.68.39-1.25 1.36-1.25 1.25 0 1.86.84 1.86 1.98 0 .14.12.17.28.17.18 0 .3 0 .3-.17 0-.13-.04-1.4-.04-2.42 0-.1-.12-.13-.28-.13-.14 0-.19.03-.2.11-.03.16-.11.22-.2.22-.1 0-.15-.03-.38-.16a3.04 3.04 0 0 0-1.42-.25c-1.4 0-2.64.99-2.64 2.43 0 1.18.7 1.87 2.01 2.4l.72.28c1.13.46 1.58.99 1.58 1.77 0 .87-.52 1.44-1.53 1.44-1.3 0-2.5-.9-2.5-2.58 0-.06-.11-.11-.28-.11-.25 0-.33.06-.33.17L.98-.19c0 .14.2.17.36.17.13 0 .22-.03.22-.12 0-.17.05-.36.2-.36.15 0 .2.1.47.25.55.33 1.07.48 1.9.48 1.4 0 2.85-.89 2.85-2.62zm0 0"/></symbol><symbol id="aH" overflow="visible"><path d="M9.31-.08l.03-6.87c0-.75.36-.92 1.24-.92.03 0 .06-.16.06-.32 0-.15-.03-.31-.08-.31-.65 0-.95.06-1.6.06-.74 0-.93-.06-1.54-.06-.06 0-.08.19-.08.36 0 .1.02.27.08.27.86 0 1.13.21 1.13.9 0 1.34 0 3.42-.02 4.6a150.1 150.1 0 0 0-4.6-6.03c-.07-.1-.12-.11-.26-.11-.28 0-.47.06-1.1.06-.77 0-.87-.06-1.46-.06-.08 0-.1.19-.1.36 0 .1.02.27.1.27.84 0 1.1.21 1.1.9l-.02 5.44c0 .75-.31.92-1.19.92-.03 0-.06.16-.06.33 0 .14.03.3.08.3.65 0 .95-.07 1.57-.07.77 0 .96.07 1.55.07.08 0 .1-.2.1-.36 0-.1-.02-.27-.1-.27-.84 0-1.1-.22-1.1-.9l-.02-5.52A142.7 142.7 0 0 1 8.47-.08c.06.11.2.19.39.19.2 0 .45-.05.45-.19zm0 0"/></symbol><symbol id="aI" overflow="visible"><path d="M5.48-8.73A4.63 4.63 0 0 0 .77-4.2C.77-1.6 2.7.23 5.44.23c2.75 0 4.83-1.96 4.83-4.43a4.6 4.6 0 0 0-4.79-4.53zm-.04.64c1.72 0 3.06 1.6 3.06 3.96C8.5-1.8 7.19-.38 5.48-.38c-1.75 0-2.95-1.42-2.95-3.8 0-2.4 1.31-3.91 2.9-3.91zm0 0"/></symbol><symbol id="e" overflow="visible"><path d="M10.23 0h.18v-.97h-.2c-1 0-.98.08-.98-.56v-10.28l-.2.01-3.01.14h-.18v.97h.2c1 0 .98-.08.98.58v2.98A4.1 4.1 0 0 0 4.9-7.7C2.25-7.7.45-6.16.45-3.8.45-1.58 2 .1 4.72.1a4 4 0 0 0 2.2-.63V.1h.2zm-3.3-1.84C6.68-1.52 5.97-.7 4.88-.7c-1.8 0-1.87-1.86-1.87-3.1 0-.79.01-1.68.43-2.32.47-.67 1.2-.8 1.63-.8.8 0 1.47.47 1.84.96zm0 0"/></symbol><symbol id="f" overflow="visible"><path d="M16.19-4.33a.5.5 0 0 0-.52-.51H3.16a5.71 5.71 0 0 0 2.1-3.47v-.02s.02 0 .02-.1a.5.5 0 0 0-.5-.5.5.5 0 0 0-.51.41 4.82 4.82 0 0 1-.96 2.07 4.98 4.98 0 0 1-2.23 1.68h-.03c-.13.07-.25.2-.25.38 0 .17.12.34.25.39h.03A5 5 0 0 1 3.3-2.3c.47.58.8 1.3.96 2.07.04.23.25.4.51.4a.5.5 0 0 0 .5-.5l-.01-.1a5.54 5.54 0 0 0-2.11-3.4h12.51a.5.5 0 0 0 .52-.5zm0 0"/></symbol><symbol id="g" overflow="visible"><path d="M5.27.08l.21.03v-1H4.02v-5.69h1.95v-.97H3.9v-1.64c0-1.84 1.25-1.94 1.54-1.94-.2.22-.3.5-.3.79 0 .73.58 1.14 1.22 1.14.72 0 1.24-.44 1.24-1.14s-.6-1.57-2.12-1.57c-1.8 0-3.68.79-3.68 2.72v1.64H.53v.97H1.8v5.69H.62v.97h.2L2.96.03c.66 0 1.74 0 2.32.05zm0 0"/></symbol><symbol id="h" overflow="visible"><path d="M9.6-.5c0-.4-.33-.47-.65-.47-.89-.01-.84-.16-.84-.55V-5.1c0-1.5-1.22-2.67-3.92-2.67-1.02 0-3.24.1-3.24 1.62 0 .75.6 1.14 1.24 1.14.73 0 1.26-.43 1.26-1.14 0-.37-.17-.62-.3-.78.35-.04.82-.06.96-.06 1.08 0 1.69.6 1.69 1.9v.47C4.44-4.58.27-4.3.27-1.9.27-.23 2.48.11 3.73.11c1.18 0 1.94-.45 2.41-1 .1.44.5.89 1.9.89h.82c.4 0 .73-.06.73-.5zM5.8-2.44C5.8-.84 4.28-.69 4-.69c-.67 0-1.36-.5-1.36-1.23 0-1.63 2.19-1.94 3.16-2zm0 0"/></symbol><symbol id="q" overflow="visible"><path d="M10.4-3.81c0-2.22-1.59-3.9-4.26-3.9a4.3 4.3 0 0 0-2.31.65v-4.75l-.2.01-3.02.14H.44v.97h.18c1 0 .99-.1.99.56V0h1.12l.04-.05c.21-.26.45-.5.68-.76.3.28 1.13.92 2.47.92 2.74 0 4.47-1.6 4.47-3.92zm-2.56 0c0 .78-.03 1.7-.45 2.33-.47.67-1.19.8-1.62.8-.97 0-1.64-.79-1.85-1.07v-4.16a2.8 2.8 0 0 1 2.03-1c1.8 0 1.9 1.88 1.9 3.1zm0 0"/></symbol><symbol id="r" overflow="visible"><path d="M12.44-4.25a.5.5 0 0 0-.5-.52H7.13v-4.8a.5.5 0 0 0-.52-.5.5.5 0 0 0-.5.5v4.8H1.3c-.3 0-.52.24-.52.52s.22.53.52.53h4.8V1.1c0 .28.23.5.5.5a.5.5 0 0 0 .53-.5v-4.8h4.8c.29 0 .5-.26.5-.54zm0 0"/></symbol><symbol id="s" overflow="visible"><path d="M7.94-2.95c0-.64-.2-1.4-.86-2.13A6.12 6.12 0 0 0 5.53-6.2c1.13-.63 1.95-1.52 1.95-2.63 0-1.6-1.57-2.62-3.23-2.62C2.44-11.45 1-10.13 1-8.52c0 .3.03 1.11.78 1.93.2.2.67.5 1.11.8-.97.52-2.34 1.5-2.34 3.12C.55-.81 2.35.37 4.23.37c2.04 0 3.7-1.48 3.7-3.32zM6.39-8.83c0 .9-.58 1.63-1.51 2.2l-2-1.27c-.73-.46-.8-1-.8-1.28 0-.94 1.02-1.6 2.14-1.6 1.13 0 2.16.8 2.16 1.96zm.36 6.49c0 1.17-1.2 1.98-2.5 1.98-1.34 0-2.52-.97-2.52-2.31 0-.92.5-1.92 1.82-2.69l1.98 1.27c.47.3 1.22.78 1.22 1.75zm0 0"/></symbol><symbol id="t" overflow="visible"><path d="M7.1.14l.2.02v-.82h-.72c-1.5 0-1.4-.12-1.4-.7v-9.52c0-.21.02-.37-.13-.5-.11-.07-.28-.07-.44-.07h-.1l-.04.04c-1 1.03-2.4 1.03-2.95 1.03h-.18v.8h.18c.3 0 1.18 0 2.04-.34v8.58c0 .56.1.68-1.4.68h-.72v.82l.19-.02C2.2.08 3.69.08 4.38.08c.67 0 2.15 0 2.73.06zm0 0"/></symbol><symbol id="u" overflow="visible"><path d="M7.94-5.66c0-4.54-1.97-5.8-3.64-5.8-.99 0-1.86.34-2.63 1.12a3.7 3.7 0 0 0-1.12 2.8c0 2.12 1.51 3.88 3.56 3.88.89 0 1.53-.45 1.95-1.12C6.02-1.02 4.31-.36 3.48-.36c-.23 0-.92-.02-1.35-.37.62-.13.75-.6.75-.86 0-.57-.47-.91-.96-.91-.36 0-.95.22-.95.94C.97-.37 1.97.38 3.5.38c2.36 0 4.44-2.43 4.44-6.04zM6.04-7.2c0 1.4-.62 2.9-1.92 2.9-.23 0-.9.05-1.42-.97-.3-.59-.3-1.43-.3-2.26 0-.92 0-1.67.35-2.27.45-.8 1.03-.98 1.55-.98.65 0 1.17.5 1.47 1.25.18.5.26 1.56.26 2.33zm0 0"/></symbol><symbol id="v" overflow="visible"><path d="M4.1-3.1c2.63-2.3 3.7-3.24 3.7-4.98 0-1.95-1.58-3.37-3.77-3.37A3.26 3.26 0 0 0 .7-8.27c0 1.05.98 1.08 1.06 1.08.4 0 1.06-.28 1.06-1.04 0-.46-.31-.99-1.06-1a2.25 2.25 0 0 1 2.06-1.44c1.38 0 2.11 1.23 2.11 2.6 0 1.32-.84 2.62-1.75 3.65L.91-.82c-.2.21-.22.3-.22.7V0H7.3l.02-.13.47-2.92.01-.12h-.75l-.03.1c-.08.48-.2 1.18-.33 1.41-.18.08-1.14.1-1.48.1H2.5zm0 0"/></symbol><symbol id="w" overflow="visible"><path d="M8.66-11.4c0-.3-.36-.35-.49-.35l-2.22.05-2.26-.05c-.2 0-.55.08-.55.48 0 .29.4.32.69.32.78 0 .95 0 .95.18 0 .1 0 .11-.03.27L2.47-1.36c-.16.61-.1.7-1.35.7-.42 0-.75.07-.75.47 0 .3.38.33.46.33L3.06.08l2.28.06c.22 0 .57-.08.57-.47 0-.3-.38-.33-.74-.33-.31 0-.36 0-.7-.04-.28-.03-.24 0-.24-.14 0-.13.02-.27.05-.38l2.28-9.05c.16-.59.07-.68 1.33-.68.19 0 .4.01.58-.08.15-.1.19-.22.19-.38zm0 0"/></symbol><symbol id="F" overflow="visible"><path d="M7.98-5.52c0-1.32-.07-2.7-.68-3.96a3.3 3.3 0 0 0-3.05-1.97c-1.1 0-2.4.48-3.1 2.1A8.87 8.87 0 0 0 .5-5.53c0 1.27.06 2.8.78 4.11A3.27 3.27 0 0 0 4.23.37a3.3 3.3 0 0 0 3.11-2.04c.57-1.19.64-2.52.64-3.85zm-1.75-.2c0 1.27 0 2.4-.18 3.47-.25 1.56-1.17 2-1.82 2-.54 0-1.5-.34-1.8-1.92-.18-.99-.18-2.55-.18-3.55 0-1.06 0-2.17.13-3.06.32-1.97 1.51-2.05 1.85-2.05.46 0 1.54.24 1.83 1.86.17.9.17 2.2.17 3.25zm0 0"/></symbol><symbol id="G" overflow="visible"><path d="M13.9-7.31c0-2.4-1.46-4.44-4.23-4.44h-5.7c-.36 0-.72.05-.72.47 0 .3.4.33.73.33.22 0 .47.01.7.04.21.03.21 0 .21.13l-.06.31L2.5-1.36c-.17.64-.06.7-1.34.7-.33 0-.7.07-.7.46 0 .3.38.34.7.34h5.62c3.77 0 7.11-3.7 7.11-7.45zm-1.92-.63c0 .82-.36 3.61-1.76 5.44A4.9 4.9 0 0 1 6.48-.66H4.56c-.26 0-.25 0-.33-.03H4.2v-.03c0-.05-.02-.06.06-.37l2.4-9.32c.15-.59.07-.54.7-.54h1.8c1.47 0 2.83.78 2.83 3.01zm0 0"/></symbol><symbol id="I" overflow="visible"><path d="M5-10.64c0-.38-.28-.73-.8-.73-.6 0-1.1.53-1.1 1.03 0 .36.3.73.82.73.53 0 1.08-.47 1.08-1.03zm.16 8.16c0-.25-.32-.29-.38-.29-.31 0-.36.18-.42.4-.31 1.04-.9 1.93-1.58 1.93-.12 0-.23-.06-.23-.42 0-.4.1-.6.5-1.6L3.7-4.2c.2-.47.2-.5.38-.95.14-.31.22-.6.22-.9 0-.77-.58-1.48-1.57-1.48-1.8 0-2.4 2.54-2.4 2.68 0 .26.37.28.37.28.28 0 .35-.14.44-.4C1.6-6.5 2.27-6.88 2.7-6.88c.06 0 .25-.08.25.4 0 .33-.11.68-.19.83-.13.41-.9 2.33-1.17 3.02-.17.44-.4.98-.4 1.36C1.19-.46 1.81.2 2.76.2c1.81 0 2.4-2.53 2.4-2.67zm0 0"/></symbol><symbol id="J" overflow="visible"><path d="M5.84 4.05a.3.3 0 0 0-.07-.2h-.02v-.02c-1.7-1.28-2.9-4.66-2.9-7.36v-1.44c0-2.7 1.2-6.08 2.9-7.36v-.01h.02a.3.3 0 0 0 .07-.2c0-.1-.06-.32-.37-.32a.34.34 0 0 0-.24.08l-.01.01H5.2c-1.92 1.44-3.7 4.86-3.7 7.8v1.44c0 2.94 1.78 6.36 3.7 7.8h.02l.01.01c.02.02.1.08.24.08.31 0 .37-.22.37-.31zm0 0"/></symbol><symbol id="K" overflow="visible"><path d="M11.77-3.75a.56.56 0 0 0 .25-.73.51.51 0 0 0-.25-.27L1.89-9.42c-.33-.13-.6.03-.7.28-.1.22-.03.5.25.64l8.98 4.25L1.44 0a.5.5 0 0 0-.25.66c.1.23.39.39.7.26zm0 0"/></symbol><symbol id="L" overflow="visible"><path d="M10.31-.2l-4.14-9.86a.54.54 0 0 0-.72-.3.55.55 0 0 0-.26.3L1.05-.2a.5.5 0 0 0 .26.67c.22.1.55.05.66-.27l3.7-8.8L9.36.2a.5.5 0 0 0 .69.25c.22-.1.39-.34.26-.65zm0 0"/></symbol><symbol id="M" overflow="visible"><path d="M5.1-3.53v-1.44c0-2.94-1.77-6.36-3.7-7.8l-.02-.01c-.02-.02-.08-.08-.24-.08-.31 0-.39.22-.39.31 0 .08.05.16.1.2v.02c1.71 1.28 2.93 4.66 2.93 7.36v1.44c0 2.7-1.22 6.08-2.92 7.36v.01H.84a.31.31 0 0 0-.09.2c0 .1.08.32.4.32.15 0 .2-.06.23-.08l.01-.01h.02C3.33 2.83 5.09-.6 5.09-3.53zm0 0"/></symbol><symbol id="O" overflow="visible"><path d="M12.44-4.25a.5.5 0 0 0-.5-.52H1.3c-.3 0-.52.24-.52.52s.22.53.52.53h10.64c.28 0 .5-.25.5-.53zm0 0"/></symbol><symbol id="P" overflow="visible"><path d="M8.58-2.06c0-.33-.44-.38-.6-.38-.45 0-.51.17-.6.42-.36.79-1.29 1.27-2.24 1.27-2.06 0-2.23-1.94-2.23-2.9h4.95c.45 0 .72-.08.72-.55 0-.52-.1-1.77-.97-2.63-.64-.64-1.61-.95-2.86-.95-2.94 0-4.4 1.83-4.4 3.92C.36-1.6 2.06.11 4.99.11c2.9 0 3.6-1.88 3.6-2.17zM6.59-4.4H2.91c.03-.63.07-1.28.4-1.8A1.74 1.74 0 0 1 4.75-7c1.63 0 1.83 1.86 1.84 2.6zm0 0"/></symbol><symbol id="R" overflow="visible"><path d="M3.63-.02c0-1.14-.46-1.95-1.27-1.95-.66 0-1.06.53-1.06 1.08a1.06 1.06 0 0 0 1.6.92 4 4 0 0 1-1.1 2.69c-.2.19-.24.3-.24.39 0 .2.17.36.35.36.39 0 1.72-1.47 1.72-3.49zm0 0"/></symbol><symbol id="S" overflow="visible"><path d="M10.44.08h.2V-.9H9.47v-4.27c0-1.76-.94-2.5-2.81-2.5-1.41 0-2.27.66-2.79 1.32v-1.33l-.2.01-2.92.14H.58v.97h.19c1 0 .98-.08.98.57V-.9H.58v.97h.2L2.91.03l2.12.05h.2V-.9H4.06v-3.4a2.46 2.46 0 0 1 2.35-2.58c.34 0 .75.25.75 1.54V-.9H5.98v.97h.2L8.32.03zm0 0"/></symbol><symbol id="ab" overflow="visible"><path d="M12.44-5.88c0-.3-.22-.53-.5-.53H1.3c-.3 0-.52.24-.52.54 0 .28.22.5.52.5h10.64a.5.5 0 0 0 .5-.5zm0 3.3c0-.3-.22-.53-.5-.53H1.3c-.3 0-.52.23-.52.53 0 .28.22.5.52.5h10.64a.5.5 0 0 0 .5-.5zm0 0"/></symbol><symbol id="ac" overflow="visible"><path d="M7.86-5.94c0-1.36-.06-3.95-1.53-5.47l.3-1.06.09-.3v-.01a.5.5 0 0 0-.52-.49c-.42 0-.47.32-.56.66l-.19.6a2.9 2.9 0 0 0-1.23-.3c-1.06 0-2.2.56-2.84 1.89C.71-9.03.63-7.5.63-5.94.63-4.9.58-1.89 2.1-.52L1.7.83v.01c0 .24.2.49.52.49.43 0 .49-.31.58-.64L2.97.1c.37.16.84.27 1.26.27 2.07 0 2.83-1.7 3.13-2.49.44-1.2.5-2.6.5-3.83zM5.25-11.3L2.5-1.81c-.38-1.14-.4-2.94-.4-4.33 0-1.36 0-2.52.24-3.58.32-1.53 1.25-1.95 1.9-1.95.26 0 .59.04 1.01.36zm1.13 5.17c0 1.23 0 2.47-.2 3.6C5.85-.8 4.97-.26 4.21-.26c-.33 0-.63-.1-1.02-.4l2.77-9.54c.39 1 .4 2.67.4 4.05zm0 0"/></symbol><symbol id="al" overflow="visible"><path d="M8.52-4.77c0-1.56-.99-2.75-2.43-2.75-.84 0-1.57.5-2.15 1.08a1.7 1.7 0 0 0-1.61-1.08c-.94 0-1.28.75-1.4 1.02-.34.6-.56 1.56-.56 1.66 0 .26.38.28.38.28.28 0 .36-.13.45-.47.32-1.2.68-1.86 1.08-1.86.16 0 .36.01.36.64 0 .38-.06.53-.12.81L.59 2c-.14.6-.06.64-.75.64-.21 0-.56.06-.56.45 0 .2.16.33.4.33.48 0 .96-.06 1.43-.06.55 0 1.14.06 1.7.06.13 0 .47-.06.47-.47 0-.3-.37-.3-.58-.3-.83 0-.65-.09-.65-.17 0-.14.47-2.15.7-3.07.28.37.77.78 1.52.78 2.14 0 4.25-2.5 4.25-4.96zm-1.57-.7c0 .94-.56 2.83-.84 3.42C5.53-.9 4.75-.44 4.25-.44c-.9 0-1.17-1.17-1.17-1.33 0 0 0-.07.04-.23l.82-3.22c.1-.4.56-.84.86-1.1.58-.48 1.01-.57 1.23-.57.52 0 .92.45.92 1.42zm0 0"/></symbol><symbol id="am" overflow="visible"><path d="M3.44-4.25c0-.6-.49-1.08-1.08-1.08-.6 0-1.06.49-1.06 1.08 0 .6.47 1.1 1.06 1.1.6 0 1.08-.5 1.08-1.1zm0 0"/></symbol><symbol id="an" overflow="visible"><path d="M11.78 0l-9-4.25 9-4.25a.48.48 0 0 0 .24-.66.5.5 0 0 0-.68-.26L1.47-4.75c-.3.14-.4.48-.28.73.04.11.15.2.28.27L11.34.92c.32.13.6-.03.7-.28.1-.22.02-.5-.26-.64zm0 0"/></symbol><symbol id="ao" overflow="visible"><path d="M3.44-.9c0-.58-.49-1.07-1.08-1.07-.6 0-1.06.49-1.06 1.08a1.07 1.07 0 0 0 2.14 0zm0 0"/></symbol><symbol id="ap" overflow="visible"><path d="M7.8-3.5c0-2.03-1.4-3.81-3.4-3.81-.73 0-1.38.18-2 .65v-2.76c.33.1.83.17 1.29.17 2.19 0 3.45-1.58 3.45-1.9 0-.12-.06-.3-.34-.3h-.02c-.12.01-.2.06-.2.06a5.27 5.27 0 0 1-4.4.02h-.02a1.04 1.04 0 0 0-.25-.07h-.02c-.37 0-.34.31-.34.53v4.97c0 .27-.02.58.4.58a.4.4 0 0 0 .38-.22c.19-.26.78-1.1 2.04-1.1.72 0 1.15.68 1.27 1 .27.59.31 1.23.31 2.05 0 .58 0 1.58-.39 2.25-.39.63-.98 1.02-1.67 1.02a2.51 2.51 0 0 1-2.28-1.58h.08c.7 0 1.01-.51 1.01-.95a.98.98 0 0 0-1.01-.97c-.33 0-1 .17-1 1.02A3.24 3.24 0 0 0 3.92.37 3.86 3.86 0 0 0 7.8-3.5zm0 0"/></symbol><symbol id="av" overflow="visible"><path d="M7.58-6.31c0-.63-.61-1.2-1.58-1.2-1 0-1.7.57-2.1 1.07a1.67 1.67 0 0 0-1.62-1.08C1.34-7.52 1-6.77.86-6.5.55-5.9.33-4.94.33-4.84c0 .26.37.28.37.28.28 0 .35-.13.46-.47.28-1.2.64-1.86 1.04-1.86.16 0 .36.01.36.64 0 .31-.04.5-.26 1.36l-.97 3.76c-.05.27-.16.61-.16.74 0 .36.31.58.67.58.28 0 .64-.16.8-.56.03-.07.6-2.3.66-2.6l.54-2.12c.05-.18.55-.97.93-1.3.12-.13.57-.5 1.21-.5.14 0 .22.01.35.06-.4.17-.67.52-.67.9 0 .3.21.71.82.71.6 0 1.1-.45 1.1-1.1zm0 0"/></symbol><symbol id="aw" overflow="visible"><path d="M2.73 3.9v-16.3a.5.5 0 0 0-.5-.52.5.5 0 0 0-.51.51V3.91c0 .3.22.51.51.51a.5.5 0 0 0 .5-.51zm2.32 0v-16.3a.5.5 0 0 0-.52-.52.5.5 0 0 0-.5.51V3.91c0 .3.22.51.5.51a.5.5 0 0 0 .52-.51zm0 0"/></symbol><symbol id="i" overflow="visible"><path d="M2.34-2.36C1.17-2.19.47-1.39.47-.69c0 1.02.64 1.33 2.89 1.9 1.67.42 1.92.74 1.92 1.38 0 .88-.67 1.54-2.12 1.54-1.74 0-2.7-.82-2.7-1.68 0-.33.1-.65.45-.98a.74.74 0 0 0-.63-.31c-.51 0-1.05.37-1.05 1.28C-.77 3.75.66 4.8 3.17 4.8c1.85 0 3.38-.9 3.38-2.58 0-1.4-.96-1.95-2.75-2.3C2.34-.4 1.69-.46 1.69-1.12c0-.56.44-.94 1.36-.94 2.1 0 3.47-1.92 3.47-3.93 0-.46-.07-.64-.11-.83a.82.82 0 0 1 .67-.38c.6 0 .4.69 1.01.69.41 0 .61-.28.61-.7 0-.57-.42-.88-.93-.88-.64 0-1.16.31-1.55.78-.28-.47-.78-.8-1.53-.8-2.02 0-3.42 2.08-3.42 3.91 0 .97.34 1.53 1.07 1.83zm2.99-4.33c0 1.83-1.06 4.07-2.17 4.07-.4 0-.64-.2-.64-.94 0-1.86 1.12-3.97 2.14-3.97.5 0 .67.31.67.84zm0 0"/></symbol><symbol id="j" overflow="visible"><path d="M5.95-2.1a4.9 4.9 0 0 0-.22 1.27c0 .61.22 1.08.83 1.08C7.88.25 8.9-1 9.23-2.19c.05-.17-.18-.28-.3-.28a.17.17 0 0 0-.15.1C8.38-1.28 7.7-.55 7.18-.55c-.16 0-.27-.1-.27-.45 0-.47.48-1.97.84-3.13l.9-2.93c.1-.35.16-.55.16-.74 0-.17-.53-.3-.83-.3-.26 0-.45.12-.46.2-.11.59-1.1 3.62-1.41 4.45C5.5-1.92 4.05-.5 3.14-.5c-.42 0-.6-.19-.6-.63 0-.6.16-1.26.74-2.76.58-1.48.9-2.48.9-3.19 0-.73-.34-1.01-1.02-1.01C1.96-8.1.84-6.77.52-5.58c-.07.17.18.28.3.28.04 0 .12-.04.13-.1.4-1.1 1.1-1.82 1.6-1.82.17 0 .3.1.3.3 0 .53-.29 1.26-.87 2.7-.64 1.63-.78 2.3-.78 3.05 0 .9.57 1.42 1.52 1.42 1.2 0 2.5-1.02 3.23-2.36zm0 0"/></symbol><symbol id="k" overflow="visible"><path d="M3.8-5.73c.06-.25.22-.82.22-1.27 0-.6-.22-1.1-.85-1.1C1.87-8.1.84-6.82.52-5.63c-.07.17.18.26.3.26.04 0 .12-.03.13-.07.4-1.11 1.1-1.85 1.6-1.85.17 0 .3.11.3.47 0 .46-.5 1.97-.87 3.13L1.14-.92c-.1.36-.16.56-.16.75 0 .17.54.3.82.3.28 0 .47-.11.48-.2.1-.59 1.03-3.48 1.36-4.32.6-1.53 2.05-2.95 2.95-2.95.43 0 .61.18.61.62 0 .61-.17 1.28-.75 2.78-.58 1.47-.87 2.47-.87 3.17 0 .75.33 1.02 1 1.02 1.2 0 2.31-1.33 2.65-2.52.05-.17-.18-.26-.3-.26a.19.19 0 0 0-.15.08c-.4 1.1-1.08 1.84-1.6 1.84-.16 0-.27-.1-.27-.31 0-.52.26-1.25.84-2.7.64-1.61.78-2.3.78-3.04 0-.9-.56-1.43-1.51-1.43-1.2 0-2.5 1.01-3.22 2.36zm0 0"/></symbol><symbol id="l" overflow="visible"><path d="M2.34-.42c.22.44.61.73 1.36.73 2.33 0 4.97-3.4 4.97-6.26 0-1.32-.73-2.14-2.06-2.14-.95 0-2.19.82-2.88 2.25.35-1.08.88-2.44 1.18-3.57.12-.4-.11-.48-.47-.48-.35 0-.57.08-.66.48a10.84 10.84 0 0 1-1.84 3.47C1.3-5.06.75-4.33.52-3.86c0 .16.2.31.32.31.07 0 .11-.04.14-.1.15-.29.65-.94 1.25-1.8.41-.6.82-1.28 1.13-2.05C2.46-4.86-.02 2.6-.17 3.03c-.27.75-.53.95-1.1.95-.06 0-.12.15-.12.33 0 .17.05.3.1.3.38 0 .92-.05 1.84-.05.98 0 1.53.05 1.89.05.06 0 .14-.14.14-.31 0-.13-.03-.32-.14-.32-.83 0-1.27-.12-1.27-.56 0-.48.81-2.72 1.17-3.84zm.47-.86c0-.83.6-2.61.83-3.17.72-1.7 1.63-2.9 2.73-2.9.63 0 .83.44.83 1.02 0 2.47-2 5.96-3.51 5.96-.7 0-.88-.36-.88-.91zm0 0"/></symbol><symbol id="m" overflow="visible"><path d="M7.56-5.38c0-2.04-1.22-2.71-2.37-2.71C2.56-8.1.5-4.7.5-2.3.5-.04 1.98.3 2.9.3c2.82 0 4.66-3.53 4.66-5.68zM6.2-6.01c0 2.29-1.69 5.74-3.36 5.74-.7 0-1.02-.33-1.02-1.27 0-2.33 1.67-5.92 3.4-5.92.7 0 .98.34.98 1.45zm0 0"/></symbol><symbol id="n" overflow="visible"><path d="M5.78-7c0-.67-.6-1.1-1.66-1.1a2.26 2.26 0 0 0-2.34 2.33c0 .74.24 1.38.69 2.27.36.69.69 1.34.69 1.98 0 .82-.5 1.13-1.11 1.13-.52 0-.97-.2-.97-.9 0-.27-.11-.52-.55-.52-.42 0-.67.28-.67.7 0 .9.98 1.42 2.1 1.42 1.59 0 2.5-1.08 2.5-2.28 0-.89-.32-1.47-.74-2.36-.28-.6-.74-1.44-.74-2.08 0-.59.33-.98.91-.98.9 0 .42 1.06 1.25 1.06.38 0 .64-.23.64-.67zm0 0"/></symbol><symbol id="o" overflow="visible"><path d="M4.17-7c0-.67-.28-1.1-1-1.1C1.87-8.1.84-6.82.52-5.63c-.07.17.18.26.3.26.04 0 .12-.03.13-.07.4-1.11 1.1-1.85 1.6-1.85.17 0 .3.11.3.47 0 .6-.37 1.4-.94 2.9C1.33-2.48.95-1.48.95-.78c0 .75.33 1.02 1 1.02 1.2 0 2.32-1.33 2.66-2.52.05-.17-.19-.26-.31-.26-.05 0-.11.03-.13.08-.42 1.1-1.1 1.84-1.6 1.84-.18 0-.29-.1-.29-.31 0-.52.35-1.25.92-2.7.72-1.83.97-2.57.97-3.38zm-.23-3.44a.95.95 0 0 0 0-1.9.96.96 0 0 0-.96.95c0 .53.44.95.96.95zm0 0"/></symbol><symbol id="p" overflow="visible"><path d="M3.72-7.06c.53.04 1.25.04 1.65.04.1 0 .2-.09.2-.37 0-.2-.02-.27-.2-.27-.3 0-.96.05-1.46.07.26-.79.51-1.55.76-2.25 0-.18-.26-.24-.56-.24-.4 0-.84.1-.9.27l-.7 2.22-1.03-.07c-.12 0-.17.11-.17.46 0 .12.02.18.11.18.14 0 .63 0 .92-.04L.8-2.08c-.11.4-.2.8-.2 1.24 0 .7.35 1.09.96 1.09 1.31 0 2.33-1.48 2.67-2.69 0-.19-.2-.26-.3-.26-.06 0-.12.03-.13.08-.4 1.1-1.1 1.84-1.61 1.84-.17 0-.28-.11-.28-.31 0-.18.01-.22.03-.3.36-1.24 1.04-3.45 1.78-5.67zm0 0"/></symbol><symbol id="x" overflow="visible"><path d="M5.55-12.4c0-.2-.14-.24-.36-.24-.66.12-1.5.27-2.4.27-.12 0-.13.12-.13.3 0 .23.03.32.1.32.33 0 .76.02 1.04.13l-3 9.54c-.11.4-.2.8-.2 1.24 0 .7.35 1.09.96 1.09 1.31 0 2.33-1.48 2.67-2.69.05-.15-.18-.26-.3-.26-.06 0-.12.03-.13.08-.4 1.1-1.1 1.84-1.61 1.84-.17 0-.28-.11-.28-.31 0-.18.01-.22.03-.3a231.35 231.35 0 0 1 3.61-11zm0 0"/></symbol><symbol id="y" overflow="visible"><path d="M8.33-7.6c0-.32-.44-.5-.81-.5-.24 0-.44.05-.5.2l-.18.54c-.21-.44-.54-.73-1.26-.73C3.16-8.1.47-4.77.47-1.84.47-.54 1.2.3 2.53.3c.95 0 2.13-.84 2.63-1.89-.05.2-.07.47-.07.67 0 .72.18 1.16.79 1.16 1.3 0 2.3-1.34 2.67-2.52 0-.18-.2-.26-.3-.26-.06 0-.13.03-.14.08C7.7-1.35 7-.61 6.5-.61c-.17 0-.3-.1-.3-.31 0-.17.02-.22.04-.3a98.03 98.03 0 0 1 2.08-6.37zM6.39-6.51c0 .99-.67 2.68-.92 3.24-.7 1.7-1.6 2.86-2.7 2.86-.63 0-.83-.47-.83-1.05 0-2.45 2.1-5.94 3.62-5.94.69 0 .83.35.83.9zm0 0"/></symbol><symbol id="z" overflow="visible"><path d="M1.7-7.16c.24 0 .4.2.47.5.4 1.27.61 3.3.61 4.97 0 1.11-.06 1.83-.12 2.47a8.45 8.45 0 0 1-2.33 2.2c-.44.29-1.05.41-1.66.41-.54 0-.94.2-.94.73 0 .44.32.74.74.74 1.45 0 4.05-2.49 5.9-5.24C5.8-2.5 7.3-4.83 7.3-6.72c0-.93-.35-1.36-.96-1.36-.28 0-.57.17-.57.62 0 .69.53.72.53 1.44 0 1.6-1.13 3.3-2.36 5.17.1-.7.12-1.55.12-2.19 0-2.54-.43-5.04-1.67-5.04C1.1-8.1.47-6.83.3-5.64c-.04.17.18.26.3.26.05 0 .13-.03.14-.07.24-1.11.58-1.7.97-1.7zm0 0"/></symbol><symbol id="A" overflow="visible"><path d="M7.2-6.77c0-.76-.4-1.32-1.45-1.32C3.17-8.1.5-5 .5-1.86.5-.46 1.53.31 2.55.31a3.6 3.6 0 0 0 3.4-2.6c.05-.16-.2-.26-.33-.26-.1 0-.14.03-.18.17-.42 1.04-1.5 1.93-2.4 1.93-.73 0-1.1-.4-1.1-1.28 0-.43.1-1.1.3-1.74 3.3-.81 4.96-2.06 4.96-3.3zm-1.15-.07c0 1.09-1.4 2.14-3.61 2.76.76-2.1 2.14-3.3 3.1-3.3.41 0 .5.29.5.54zm0 0"/></symbol><symbol id="B" overflow="visible"><path d="M3.78-5.64c.08-.33.24-.92.24-1.33 0-.6-.22-1.12-.85-1.12C1.87-8.1.84-6.83.52-5.64c-.07.17.18.26.3.26.04 0 .12-.03.13-.07.4-1.11 1.1-1.85 1.6-1.85.17 0 .3.11.3.47 0 .46-.5 1.97-.87 3.13L1.14-.92c-.1.36-.16.56-.16.75 0 .17.54.3.82.3.28 0 .47-.11.48-.2.08-.5.66-2.5 1.13-3.66 1.03-2.58 1.95-3.2 2.36-3.2.2 0 .34.21.34.5 0 .34.23.46.47.46.42 0 .78-.39.78-1 0-.69-.27-1.12-.86-1.12-1.06 0-1.9 1-2.72 2.45zm0 0"/></symbol><symbol id="C" overflow="visible"><path d="M7.14-6.81c0-.72-.42-1.28-1.78-1.28C3.26-8.1.5-5.23.5-1.86.5-.23 1.67.31 2.67.31c1.31 0 2.52-.84 3.19-2.64.08-.19-.17-.34-.3-.34-.1 0-.15.08-.2.15-.72 1.38-1.49 2.05-2.4 2.05-.5 0-1.02-.23-1.02-1.22 0-2.7 2.12-5.65 3.15-5.65.38 0 .5.17.58.64.1.48.35.72.75.72.46 0 .72-.36.72-.83zm0 0"/></symbol><symbol id="D" overflow="visible"><path d="M3.31-6.14c.75-2.17 1.66-4.67 2.14-6 .03-.1.07-.19.07-.25 0-.2-.14-.25-.36-.25-.66.12-1.5.27-2.41.27-.1 0-.13.12-.13.3 0 .23.04.32.11.32.33 0 .75.02 1.02.13L.41-.93c-.1.36-.16.56-.16.75 0 .17.53.3.83.3.26 0 .45-.11.47-.2A52.8 52.8 0 0 1 2.9-4.4c.59-1.53 2.07-2.95 2.96-2.95.44 0 .63.18.63.62 0 .61-.17 1.28-.75 2.78-.58 1.47-.9 2.47-.9 3.17 0 .75.34 1.02 1 1.02 1.23 0 2.32-1.33 2.67-2.52.04-.17-.2-.26-.3-.26-.06 0-.13.03-.14.08-.4 1.1-1.1 1.84-1.6 1.84-.17 0-.3-.1-.3-.31 0-.52.27-1.25.85-2.7.66-1.61.78-2.3.78-3.04 0-.9-.54-1.43-1.5-1.43-1.1 0-2.23.8-3 1.95zm0 0"/></symbol><symbol id="E" overflow="visible"><path d="M8.55-2.27c.06-.17-.2-.26-.3-.26-.06 0-.13.03-.14.08C7.7-1.35 7-.61 6.5-.61c-.17 0-.3-.1-.3-.31 0-.17.02-.22.04-.3a261.4 261.4 0 0 1 3.6-10.92.9.9 0 0 0 .04-.25c0-.2-.12-.25-.36-.25-.64.12-1.48.27-2.39.27-.12 0-.14.12-.14.3 0 .23.03.32.13.32.32 0 .75.02 1.01.13L6.8-7.37c-.22-.44-.61-.73-1.36-.73C3.1-8.1.47-4.7.47-1.84.47-.54 1.2.3 2.53.3c.95 0 2.13-.84 2.64-1.89-.03.2-.06.47-.06.67 0 .72.19 1.16.81 1.16 1.3 0 2.25-1.34 2.63-2.52zm-2.2-4.25c0 .99-.6 2.63-.83 3.2-.72 1.7-1.64 2.9-2.75 2.9-.63 0-.83-.47-.83-1.05 0-2.45 2-5.94 3.51-5.94.7 0 .9.35.9.9zm0 0"/></symbol><symbol id="H" overflow="visible"><path d="M8.22-6.9c0-.76-.44-1.2-1.3-1.2-1.31 0-2.4 1.02-3.12 2.37.06-.25.22-.82.22-1.27 0-.6-.22-1.1-.85-1.1C1.87-8.1.84-6.82.52-5.63c-.07.17.18.26.3.26.04 0 .12-.03.13-.07.4-1.11 1.1-1.85 1.6-1.85.17 0 .3.11.3.47 0 .46-.5 1.97-.87 3.13L1.14-.92c-.1.36-.16.56-.16.75 0 .17.54.3.82.3.28 0 .47-.11.48-.2.1-.59 1.03-3.48 1.36-4.32.6-1.53 1.84-2.95 2.75-2.95.42 0 .58.18.58.62 0 .49-.4 1.86-.77 3.02L5.36-.92c-.11.36-.16.56-.16.75 0 .17.53.3.82.3.28 0 .46-.11.48-.2.1-.59 1.03-3.48 1.36-4.32.6-1.53 1.84-2.95 2.75-2.95.42 0 .58.18.58.62 0 .61-.17 1.28-.75 2.78a9.59 9.59 0 0 0-.85 3.17c0 .75.29 1.02.97 1.02 1.2 0 2.31-1.33 2.64-2.52.07-.17-.18-.26-.3-.26-.04 0-.12.03-.13.08-.41 1.1-1.1 1.84-1.6 1.84-.17 0-.3-.1-.3-.31 0-.52.29-1.25.86-2.7.64-1.61.79-2.3.79-3.04 0-.9-.54-1.43-1.49-1.43-1.2 0-2.3 1.01-3.03 2.36a4 4 0 0 0 .22-1.18zm0 0"/></symbol><symbol id="Q" overflow="visible"><path d="M5.63 0h.17v-.67h-.63c-1.14 0-1.01-.06-1.01-.4V-7.6c0-.18.01-.29-.13-.4-.12-.06-.25-.04-.4-.04h-.08l-.05.05c-.72.7-1.72.7-2.2.7h-.18v.67h.18c.26 0 .9.02 1.56-.23v5.76c0 .35.12.4-1.03.4h-.61V0h.16L3.5-.05zm0 0"/></symbol><symbol id="at" overflow="visible"><path d="M6.17-2.25l.03-.13h-.75l-.01.1c-.03.23-.16.86-.27.98a12 12 0 0 1-1.04.05H2.27a48.15 48.15 0 0 1 2.14-1.78c.9-.69 1.75-1.45 1.75-2.6 0-1.46-1.31-2.4-2.94-2.4-1.6 0-2.65 1.1-2.65 2.22 0 .67.6.78.8.78.4 0 .8-.28.8-.75 0-.17-.04-.6-.65-.7a1.72 1.72 0 0 1 1.52-.88c1.03 0 1.64.83 1.64 1.75 0 .99-.7 1.75-1.1 2.19L.73-.64c-.14.1-.15.22-.15.52V0H5.8l.03-.1zm0 0"/></symbol><symbol id="au" overflow="visible"><path d="M6.28-2.14c0-.88-.66-1.75-1.84-2.13 1.08-.5 1.48-1.32 1.48-2.01 0-1-1.17-1.75-2.58-1.75-1.4 0-2.5.69-2.5 1.7 0 .42.3.74.79.74.51 0 .78-.36.78-.72 0-.3-.16-.57-.52-.67.4-.35 1.05-.46 1.42-.46.44 0 1.11.19 1.11 1.16 0 .47-.15 1-.44 1.33-.35.4-.6.42-1.2.45l-.4.03c-.05.02-.25.08-.25.28 0 .27.3.28.48.28h.64c.78 0 1.42.54 1.42 1.77 0 1.42-.81 1.77-1.37 1.77-.42 0-1.27-.11-1.77-.63.5-.13.6-.52.6-.73 0-.41-.32-.75-.82-.75-.45 0-.84.26-.84.8C.47-.53 1.8.22 3.33.22c1.76 0 2.95-1.15 2.95-2.37zm0 0"/></symbol><symbol id="T" overflow="visible"><path d="M7.13-11.28c.43-.03.85-.06 1.25-.06 2.09 0 2.78.76 3.17 2.4.03.11.08.13.17.13.22 0 .39-.06.39-.13 0-.5-.11-2.34-.11-2.84 0-.19-.08-.33-.34-.33-.27 0-4.08.1-5.57.1-1.51 0-5.34-.1-5.62-.1-.2 0-.3.14-.3.33 0 .5-.12 2.34-.12 2.84 0 .06.26.11.42.11.08 0 .1 0 .16-.1.42-1.73 1.06-2.41 3.18-2.41.4 0 .86.03 1.42.07v9.3c0 1-.45 1.36-1.67 1.36-.08 0-.1.11-.1.33 0 .2 0 .3.1.3.42 0 1.3-.05 2.63-.05 1.36 0 2.06.05 2.48.05.11 0 .17-.14.17-.35 0-.14-.03-.28-.14-.28-1.3 0-1.67-.51-1.67-1.4 0-3.54.06-8.22.1-9.27zm0 0"/></symbol><symbol id="U" overflow="visible"><path d="M3.4-6.6v-1.18c0-.16-.15-.27-.42-.27-.54.24-1.56.44-2.07.44-.11 0-.13.14-.13.33 0 .17.05.3.19.3h.37c.41 0 .6.04.6.45v4.94c0 .7-.08.98-1.11.98C.77-.6.7-.5.7-.3c0 .18.02.33.1.33.6 0 1.07-.07 1.9-.07.77 0 1.6.07 1.99.07.12 0 .17-.16.17-.33 0-.19-.03-.3-.14-.3-1.13 0-1.3-.14-1.3-.89v-3.2c0-1.72.86-2.22 1.46-2.22.78 0 .57.67 1.21.67.46 0 .72-.36.72-.86 0-.47-.33-.98-1.25-.98-.62 0-1.65.5-2.15 1.48zm0 0"/></symbol><symbol id="ax" overflow="visible"><path d="M4.67-2.02v-3.64c.31 0 .61 0 .9.02.15.05.4.31.8.83l1.74 2.25C9.45-.83 10.44 0 11.08 0c.84 0 1.78.03 2.4.03.16 0 .2-.08.2-.36 0-.23-.07-.31-.23-.31-.97 0-1.68-.6-3.6-2.8-.77-.86-1.54-1.76-2.4-2.53 2.17-.33 3.2-1.64 3.2-2.97 0-1.65-1.34-3.12-4.17-3.12-.67 0-1.68.04-2.65.04-1.36 0-2.2-.09-2.63-.09-.1 0-.15.1-.15.34 0 .2.06.3.14.3 1.31 0 1.69.44 1.69 1.31v8.2c0 1-.47 1.35-1.68 1.35-.07 0-.1.11-.1.33 0 .2 0 .3.1.3.4 0 1.3-.05 2.63-.05 1.36 0 2.04.05 2.48.05.11 0 .17-.15.17-.35 0-.14-.04-.28-.14-.28-1.3 0-1.67-.52-1.67-1.4zm1.38-9.43c1.76 0 2.48 1.15 2.48 2.67 0 1.48-.72 2.53-2.75 2.53h-1.1c0-1.67.07-3.98.12-5.14.22-.03.6-.06 1.25-.06zm0 0"/></symbol><symbol id="ay" overflow="visible"><path d="M6.64.22C7.88.22 8.33-.6 8.33-.84c0-.1-.19-.27-.25-.27-.08 0-.11 0-.16.08-.14.22-.33.4-.6.4-.4 0-.55-.32-.55-.76 0-1.72.14-3.7.14-4.47 0-1.56-.7-2.23-2.88-2.23C1.7-8.1.98-7.13.98-6.52c0 .4.3.6.63.6.28 0 .62-.2.75-.52.23-.58.66-.87 1.6-.87 1.26 0 1.34.56 1.34 1.43v.9C1.67-4.08.72-2.77.72-1.48.72-.42 1.42.25 2.7.25c.92 0 1.94-.5 2.64-1.36.07.94.6 1.33 1.3 1.33zM2.45-1.9c0-.97.49-1.9 2.85-2.58v2.66c-.67.73-1.2 1.06-1.78 1.06-.61 0-1.07-.4-1.07-1.14zm0 0"/></symbol><symbol id="az" overflow="visible"><path d="M9.98-.17c.07 0 .08-.17.08-.3 0-.22-.03-.34-.08-.34l-.54-.03c-.58-.07-.7-.2-.7-.68v-3.1c0-4.66.12-7.32.12-7.8 0-.14-.16-.22-.36-.22-.14 0-1.05.27-2.53.27-.1 0-.11.14-.11.32 0 .2 0 .3.1.3 1.07 0 1.26.17 1.26.77v3.89c-.61-.72-1.44-1-2.55-1C2.5-8.1.66-6.34.66-3.8.66-1.24 2.46.3 4.5.3 5.67.31 6.6-.22 7.19-.9L7.16.11c0 .17.07.27.26.27.06 0 .16-.04.25-.07a6.63 6.63 0 0 1 2.31-.48zM5.16-7.34c1.14 0 2.06.86 2.06 1.59 0 1.16 0 2.98-.05 3.97A2.46 2.46 0 0 1 4.98-.6c-1.3 0-2.48-.88-2.48-3.33 0-2.3 1.17-3.42 2.66-3.42zm0 0"/></symbol><symbol id="aA" overflow="visible"><path d="M3.83-.03c.64 0 1.81.1 3.26.1 3.85 0 6.2-2.07 6.2-6.16 0-3.05-2.1-6.04-6.57-6.04-1.38 0-2.19.11-2.9.11-1.35 0-2.2-.09-2.62-.09-.1 0-.15.1-.15.34 0 .2.04.3.12.3 1.31 0 1.7.44 1.7 1.31v8.2c0 1-.46 1.35-1.67 1.35-.07 0-.1.11-.1.33 0 .2 0 .3.1.3.4 0 1.3-.05 2.63-.05zm2.42-11.4c3.53 0 4.92 2.7 4.92 5.48 0 4-1.62 5.4-4.1 5.4-1.63 0-2.41-.42-2.41-1.93 0-1.3.09-8.1.09-8.77.33-.1.83-.17 1.5-.17zm0 0"/></symbol><symbol id="aB" overflow="visible"><path d="M13.4-5.67c0-1.56-1.04-2.42-2.42-2.42-1.06 0-2.25.56-2.76 1.68-.28-1.09-.95-1.68-2.08-1.68-1.1 0-2.23.59-2.72 1.59v-1.28c0-.16-.15-.27-.4-.27-.58.24-1.6.44-2.11.44-.11 0-.13.14-.13.33 0 .17.05.3.19.3h.37c.41 0 .6.04.6.45v5.1c0 .54-.13.82-1.14.82-.07 0-.14.1-.14.27 0 .18.03.36.1.36.6 0 1.11-.07 1.94-.07.77 0 1.28.07 1.7.07.1 0 .16-.07.16-.3 0-.16 0-.33-.12-.33-.83 0-1.02-.19-1.02-.77v-3.07c0-2.03 1.14-2.7 2.13-2.7.89 0 1.36.46 1.36 1.24v4.5c0 .49 0 .8-1.13.8-.1 0-.12.17-.12.28 0 .14.01.35.09.35.58 0 1.17-.07 1.9-.07.52 0 1.16.07 1.8.07.08 0 .1-.2.1-.33 0-.19-.03-.3-.1-.3-.95 0-1.07-.28-1.07-.8v-3.5c0-1.6 1.04-2.26 2.03-2.26 1.1 0 1.48.69 1.48 1.7v4.13c0 .56-.14.73-1.03.73-.06 0-.08.11-.08.27 0 .18.02.36.1.36.59 0 .95-.07 1.76-.07.8 0 1.45.07 1.84.07.11 0 .16-.16.16-.4 0-.12-.03-.23-.12-.23-.93 0-1.16-.22-1.16-.8 0-.86.05-3.06.05-4.26zm0 0"/></symbol><symbol id="aC" overflow="visible"><path d="M9.22-6.22c.33 0 .72-.19.72-.76 0-.7-.52-1.11-1.33-1.11-.64 0-1.4.42-1.72 1.25A2.97 2.97 0 0 0 4.4-8.1c-1.75 0-3.08 1.21-3.08 2.98 0 1.3.63 2.24 1.61 2.67-1.04.19-1.69.92-1.69 1.7 0 1.2 1.46 1.4 2.3 1.4.66 0 1.4-.07 2.25-.07 1.45 0 1.81.55 1.81 1.49 0 1.06-.84 2.12-2.89 2.12-1.83 0-2.84-.68-2.84-1.73 0-.55.2-.99.67-1.17.05-.02.13-.07.13-.13 0-.1-.22-.26-.74-.26C1.1.9.38 1.4.38 2.5c0 .97.65 2.43 4.45 2.43 2.78 0 4.19-1.69 4.19-3.4 0-1.38-.85-2.4-3.07-2.4-1.04 0-1.73.08-2.7.08-.75 0-1.02-.16-1.02-.52s.36-.8 1.83-.8c2.36 0 3.42-.98 3.42-3 0-.42-.15-.78-.15-1.15 0-.53.39-.77.7-.77.28 0 .4.11.49.36.12.32.34.44.7.44zM4.37-7.47c.97 0 1.55.94 1.55 2.3 0 1.6-.67 2.48-1.5 2.48-.81 0-1.53-.9-1.53-2.48 0-1.36.58-2.3 1.48-2.3zm0 0"/></symbol></defs><g transform="translate(0 -3.33)"><use height="100%" width="100%" y="15.75" x="261.46" xlink:href="#a"/><use height="100%" width="100%" y="15.75" x="271.93" xlink:href="#b"/><use height="100%" width="100%" y="15.75" x="277.98" xlink:href="#c"/><use height="100%" width="100%" y="15.75" x="286.62" xlink:href="#d"/><use height="100%" width="100%" y="15.75" x="293.48" xlink:href="#b"/></g><use height="100%" width="100%" y="65.63" x="258.88" xlink:href="#e" transform="translate(0 -3.33)"/><use height="100%" width="100%" y="65.63" x="274.43" xlink:href="#f" transform="translate(0 -3.33)"/><use height="100%" width="100%" y="65.63" x="296.16" xlink:href="#g" transform="translate(0 -3.33)"/><path d="M280.5 16.58v24.8" fill="none" stroke="#000" stroke-miterlimit="10"/><path d="M280.5 46.58a21.02 21.02 0 0 1 2.17-5.79h-4.34a20.9 20.9 0 0 1 2.17 5.79"/><use height="100%" width="100%" y="115.78" x="218.43" xlink:href="#h" transform="translate(0 -3.33)"/><use height="100%" width="100%" y="115.78" x="233.02" xlink:href="#f" transform="translate(0 -3.33)"/><g transform="translate(0 -3.33)"><use height="100%" width="100%" y="115.78" x="254.75" xlink:href="#i"/><use height="100%" width="100%" y="115.78" x="262.47" xlink:href="#j"/><use height="100%" width="100%" y="115.78" x="272.21" xlink:href="#k"/></g><g transform="translate(0 -3.33)"><use height="100%" width="100%" y="115.78" x="286.63" xlink:href="#l"/><use height="100%" width="100%" y="115.78" x="295.78" xlink:href="#m"/><use height="100%" width="100%" y="115.78" x="303.83" xlink:href="#n"/><use height="100%" width="100%" y="115.78" x="309.43" xlink:href="#o"/><use height="100%" width="100%" y="115.78" x="314.53" xlink:href="#p"/><use height="100%" width="100%" y="115.78" x="319.66" xlink:href="#o"/><use height="100%" width="100%" y="115.78" x="324.76" xlink:href="#m"/><use height="100%" width="100%" y="115.78" x="332.82" xlink:href="#k"/></g><path d="M280.5 66.3v24.78" fill="none" stroke="#000" stroke-miterlimit="10"/><path d="M280.5 96.3a21 21 0 0 1 2.17-5.8h-4.34a20.87 20.87 0 0 1 2.17 5.8"/><use height="100%" width="100%" y="170.05" x="224.11" xlink:href="#q" transform="translate(0 -3.33)"/><use height="100%" width="100%" y="170.05" x="239.66" xlink:href="#f" transform="translate(0 -3.33)"/><use height="100%" width="100%" y="170.05" x="261.39" xlink:href="#h" transform="translate(0 -3.33)"/><use height="100%" width="100%" y="170.05" x="275.04" xlink:href="#r" transform="translate(0 -3.33)"/><g transform="translate(0 -3.33)"><use height="100%" width="100%" y="170.05" x="292.06" xlink:href="#s"/><use height="100%" width="100%" y="170.05" x="300.56" xlink:href="#t"/><use height="100%" width="100%" y="170.05" x="309.06" xlink:href="#u"/><use height="100%" width="100%" y="170.05" x="317.56" xlink:href="#v"/><use height="100%" width="100%" y="170.05" x="326.04" xlink:href="#e"/></g><path d="M280.5 121.09v24.79" fill="none" stroke="#000" stroke-miterlimit="10"/><path d="M280.5 151.09a20.97 20.97 0 0 1 2.17-5.8h-4.34a20.85 20.85 0 0 1 2.17 5.8"/><use height="100%" width="100%" y="221.93" x="240.3" xlink:href="#w" transform="translate(0 -3.33)"/><use height="100%" width="100%" y="221.93" x="253.91" xlink:href="#f" transform="translate(0 -3.33)"/><g transform="translate(0 -3.33)"><use height="100%" width="100%" y="221.93" x="275.65" xlink:href="#l"/><use height="100%" width="100%" y="221.93" x="284.79" xlink:href="#x"/><use height="100%" width="100%" y="221.93" x="289.4" xlink:href="#y"/><use height="100%" width="100%" y="221.93" x="298.46" xlink:href="#z"/><use height="100%" width="100%" y="221.93" x="306.04" xlink:href="#A"/><use height="100%" width="100%" y="221.93" x="313" xlink:href="#B"/></g><path d="M280.5 172.14v24.8" fill="none" stroke="#000" stroke-miterlimit="10"/><path d="M280.5 202.14a20.97 20.97 0 0 1 2.17-5.79h-4.34a20.85 20.85 0 0 1 2.17 5.8"/><g transform="translate(0 -3.33)"><use height="100%" width="100%" y="277.08" x="232.03" xlink:href="#l"/><use height="100%" width="100%" y="277.08" x="241.18" xlink:href="#j"/><use height="100%" width="100%" y="277.08" x="250.92" xlink:href="#k"/><use height="100%" width="100%" y="277.08" x="260.66" xlink:href="#C"/><use height="100%" width="100%" y="277.08" x="267.8" xlink:href="#D"/><use height="100%" width="100%" y="277.08" x="276.83" xlink:href="#A"/><use height="100%" width="100%" y="277.08" x="283.78" xlink:href="#E"/></g><use height="100%" width="100%" y="277.08" x="298.74" xlink:href="#f" transform="translate(0 -3.33)"/><use height="100%" width="100%" y="277.08" x="320.45" xlink:href="#F" transform="translate(0 -3.33)"/><path d="M280.5 227.3v24.78" fill="none" stroke="#000" stroke-miterlimit="10"/><path d="M280.5 257.3a21 21 0 0 1 2.17-5.8h-4.34a20.87 20.87 0 0 1 2.17 5.8"/><use height="100%" width="100%" y="331.98" x="207.22" xlink:href="#G" transform="translate(0 -3.33)"/><use height="100%" width="100%" y="331.98" x="226.07" xlink:href="#f" transform="translate(0 -3.33)"/><g transform="translate(0 -3.33)"><use height="100%" width="100%" y="331.98" x="247.81" xlink:href="#o"/><use height="100%" width="100%" y="331.98" x="252.91" xlink:href="#k"/><use height="100%" width="100%" y="331.98" x="262.65" xlink:href="#o"/><use height="100%" width="100%" y="331.98" x="267.75" xlink:href="#p"/><use height="100%" width="100%" y="331.98" x="272.88" xlink:href="#o"/><use height="100%" width="100%" y="331.98" x="277.98" xlink:href="#y"/><use height="100%" width="100%" y="331.98" x="287.05" xlink:href="#x"/></g><g transform="translate(0 -3.33)"><use height="100%" width="100%" y="331.98" x="297.6" xlink:href="#E"/><use height="100%" width="100%" y="331.98" x="306.66" xlink:href="#y"/><use height="100%" width="100%" y="331.98" x="315.72" xlink:href="#H"/><use height="100%" width="100%" y="331.98" x="329.44" xlink:href="#y"/><use height="100%" width="100%" y="331.98" x="338.5" xlink:href="#i"/><use height="100%" width="100%" y="331.98" x="346.22" xlink:href="#A"/></g><path d="M280.5 282.19v24.79" fill="none" stroke="#000" stroke-miterlimit="10"/><path d="M280.5 312.19a21.02 21.02 0 0 1 2.17-5.79h-4.34a20.9 20.9 0 0 1 2.17 5.79"/><use height="100%" width="100%" y="385.89" x="255.84" xlink:href="#I" transform="translate(0 -3.33)"/><use height="100%" width="100%" y="385.89" x="266.42" xlink:href="#f" transform="translate(0 -3.33)"/><g transform="translate(0 -3.33)"><use height="100%" width="100%" y="385.89" x="288.14" xlink:href="#t"/><use height="100%" width="100%" y="385.89" x="296.64" xlink:href="#F"/></g><path d="M280.5 337.3v24.78" fill="none" stroke="#000" stroke-miterlimit="10"/><path d="M280.5 367.3a20.97 20.97 0 0 1 2.17-5.8h-4.34a20.85 20.85 0 0 1 2.17 5.8"/><g transform="translate(0 -3.33)"><use height="100%" width="100%" y="436.76" x="214.89" xlink:href="#J"/><use height="100%" width="100%" y="436.76" x="221.49" xlink:href="#G"/></g><use height="100%" width="100%" y="436.76" x="240.34" xlink:href="#K" transform="translate(0 -3.33)"/><g transform="translate(0 -3.33)"><use height="100%" width="100%" y="436.76" x="258.27" xlink:href="#t"/><use height="100%" width="100%" y="436.76" x="266.77" xlink:href="#F"/></g><use height="100%" width="100%" y="436.76" x="279.05" xlink:href="#L" transform="translate(0 -3.33)"/><use height="100%" width="100%" y="436.76" x="294.18" xlink:href="#I" transform="translate(0 -3.33)"/><use height="100%" width="100%" y="436.76" x="304.75" xlink:href="#K" transform="translate(0 -3.33)"/><g transform="translate(0 -3.33)"><use height="100%" width="100%" y="436.76" x="322.69" xlink:href="#F"/><use height="100%" width="100%" y="436.76" x="331.19" xlink:href="#M"/></g><use height="100%" width="100%" y="436.76" x="337.81" xlink:href="#N" transform="translate(0 -3.33)"/><path d="M280.5 386.76v24.8" fill="none" stroke="#000" stroke-miterlimit="10"/><path d="M280.5 416.76a20.97 20.97 0 0 1 2.17-5.79h-4.34a20.85 20.85 0 0 1 2.17 5.8"/><use height="100%" width="100%" y="490.21" x="246.77" xlink:href="#I" transform="translate(0 -3.33)"/><use height="100%" width="100%" y="490.21" x="257.34" xlink:href="#f" transform="translate(0 -3.33)"/><use height="100%" width="100%" y="490.21" x="279.07" xlink:href="#I" transform="translate(0 -3.33)"/><use height="100%" width="100%" y="490.21" x="288.71" xlink:href="#O" transform="translate(0 -3.33)"/><use height="100%" width="100%" y="490.21" x="305.72" xlink:href="#t" transform="translate(0 -3.33)"/><path d="M280.5 441.6v24.8" fill="none" stroke="#000" stroke-miterlimit="10"/><path d="M280.5 471.6a21.02 21.02 0 0 1 2.17-5.78h-4.34a20.9 20.9 0 0 1 2.17 5.79"/><g transform="translate(0 -3.33)"><use height="100%" width="100%" y="540.89" x="189.57" xlink:href="#J"/><use height="100%" width="100%" y="540.89" x="196.16" xlink:href="#P"/></g><use height="100%" width="100%" y="545.09" x="205.12" xlink:href="#Q" transform="translate(0 -3.33)"/><use height="100%" width="100%" y="540.89" x="212.85" xlink:href="#R" transform="translate(0 -3.33)"/><g transform="translate(0 -3.33)"><use height="100%" width="100%" y="540.89" x="220.41" xlink:href="#A"/><use height="100%" width="100%" y="540.89" x="227.36" xlink:href="#k"/><use height="100%" width="100%" y="540.89" x="237.1" xlink:href="#p"/></g><use height="100%" width="100%" y="540.89" x="243" xlink:href="#R" transform="translate(0 -3.33)"/><g transform="translate(0 -3.33)"><use height="100%" width="100%" y="540.89" x="250.55" xlink:href="#S"/><use height="100%" width="100%" y="540.89" x="261.39" xlink:href="#M"/></g><use height="100%" width="100%" y="540.89" x="272.73" xlink:href="#f" transform="translate(0 -3.33)"/><g transform="translate(0 -3.33)"><use height="100%" width="100%" y="540.89" x="294.46" xlink:href="#T"/><use height="100%" width="100%" y="540.89" x="306.6" xlink:href="#U"/></g><g transform="translate(0 -3.33)"><use height="100%" width="100%" y="540.89" x="313.47" xlink:href="#J"/><use height="100%" width="100%" y="540.89" x="320.06" xlink:href="#h"/></g><use height="100%" width="100%" y="540.89" x="329.94" xlink:href="#R" transform="translate(0 -3.33)"/><g transform="translate(0 -3.33)"><use height="100%" width="100%" y="540.89" x="337.49" xlink:href="#q"/><use height="100%" width="100%" y="540.89" x="348.33" xlink:href="#R"/></g><use height="100%" width="100%" y="540.89" x="355.9" xlink:href="#w" transform="translate(0 -3.33)"/><use height="100%" width="100%" y="540.89" x="364.81" xlink:href="#M" transform="translate(0 -3.33)"/><path d="M280.5 490.9v24.79" fill="none" stroke="#000" stroke-miterlimit="10"/><path d="M280.5 520.9a20.92 20.92 0 0 1 2.17-5.8h-4.34a20.8 20.8 0 0 1 2.17 5.8"/><g transform="translate(0 -3.33)"><use height="100%" width="100%" y="595.53" x="243.81" xlink:href="#V"/><use height="100%" width="100%" y="595.53" x="255.98" xlink:href="#W"/><use height="100%" width="100%" y="595.53" x="261.22" xlink:href="#W"/></g><g transform="translate(0 -3.33)"><use height="100%" width="100%" y="595.53" x="271.13" xlink:href="#X"/><use height="100%" width="100%" y="595.53" x="278.2" xlink:href="#Y"/><use height="100%" width="100%" y="595.53" x="288.1" xlink:href="#W"/><use height="100%" width="100%" y="595.53" x="293.33" xlink:href="#Z"/><use height="100%" width="100%" y="595.53" x="298.43" xlink:href="#aa"/><use height="100%" width="100%" y="595.53" x="308.89" xlink:href="#N"/></g><path d="M280.5 545.74v24.79" fill="none" stroke="#000" stroke-miterlimit="10"/><path d="M280.5 575.74a21.02 21.02 0 0 1 2.17-5.79h-4.34a20.9 20.9 0 0 1 2.17 5.79"/><use height="100%" width="100%" y="646.8" x="242.87" xlink:href="#J" transform="translate(0 -3.33)"/><g transform="translate(0 -3.33)"><use height="100%" width="100%" y="646.8" x="249.47" xlink:href="#A"/><use height="100%" width="100%" y="646.8" x="256.42" xlink:href="#k"/><use height="100%" width="100%" y="646.8" x="266.16" xlink:href="#p"/></g><use height="100%" width="100%" y="646.8" x="276.78" xlink:href="#ab" transform="translate(0 -3.33)"/><g transform="translate(0 -3.33)"><use height="100%" width="100%" y="646.8" x="294.72" xlink:href="#ac"/><use height="100%" width="100%" y="646.8" x="303.2" xlink:href="#M"/></g><use height="100%" width="100%" y="646.8" x="309.83" xlink:href="#N" transform="translate(0 -3.33)"/><path d="M280.5 596.4v24.8" fill="none" stroke="#000" stroke-miterlimit="10"/><path d="M280.5 626.4a20.97 20.97 0 0 1 2.17-5.78h-4.34a20.85 20.85 0 0 1 2.17 5.78"/><g transform="translate(0 -3.33)"><use height="100%" width="100%" y="701.44" x="227.87" xlink:href="#ad"/><use height="100%" width="100%" y="701.44" x="241.8" xlink:href="#c"/><use height="100%" width="100%" y="701.44" x="250.43" xlink:href="#ae"/><use height="100%" width="100%" y="701.44" x="265.48" xlink:href="#c"/><use height="100%" width="100%" y="701.44" x="274.11" xlink:href="#af"/><use height="100%" width="100%" y="701.44" x="283.97" xlink:href="#ag"/><use height="100%" width="100%" y="701.44" x="292.23" xlink:href="#c"/><use height="100%" width="100%" y="701.44" x="300.87" xlink:href="#ah"/><use height="100%" width="100%" y="701.44" x="311.33" xlink:href="#W"/><use height="100%" width="100%" y="701.44" x="316.56" xlink:href="#ag"/><use height="100%" width="100%" y="701.44" x="324.82" xlink:href="#N"/></g><path d="M280.5 651.66v24.79" fill="none" stroke="#000" stroke-miterlimit="10"/><path d="M280.5 681.66a20.92 20.92 0 0 1 2.17-5.8h-4.34a20.8 20.8 0 0 1 2.17 5.8"/><g transform="translate(0 -3.33)"><use height="100%" width="100%" y="756.66" x="232.85" xlink:href="#ai"/><use height="100%" width="100%" y="756.66" x="246.01" xlink:href="#ag"/><use height="100%" width="100%" y="756.66" x="254.27" xlink:href="#aj"/><use height="100%" width="100%" y="756.66" x="264.8" xlink:href="#ag"/><use height="100%" width="100%" y="756.66" x="273.06" xlink:href="#ak"/><use height="100%" width="100%" y="756.66" x="281.2" xlink:href="#b"/><use height="100%" width="100%" y="756.66" x="287.25" xlink:href="#c"/><use height="100%" width="100%" y="756.66" x="295.89" xlink:href="#ah"/><use height="100%" width="100%" y="756.66" x="306.34" xlink:href="#W"/><use height="100%" width="100%" y="756.66" x="311.58" xlink:href="#ag"/><use height="100%" width="100%" y="756.66" x="319.84" xlink:href="#N"/></g><path d="M280.5 706.88v24.79" fill="none" stroke="#000" stroke-miterlimit="10"/><path d="M280.5 736.88a20.97 20.97 0 0 1 2.17-5.8h-4.34a20.85 20.85 0 0 1 2.17 5.8"/><use height="100%" width="100%" y="808.04" x="258.58" xlink:href="#w" transform="translate(0 -3.33)"/><use height="100%" width="100%" y="808.04" x="272.2" xlink:href="#f" transform="translate(0 -3.33)"/><use height="100%" width="100%" y="808.04" x="293.92" xlink:href="#ac" transform="translate(0 -3.33)"/><path d="M280.5 757.64v24.8" fill="none" stroke="#000" stroke-miterlimit="10"/><path d="M280.5 787.64a20.97 20.97 0 0 1 2.17-5.79h-4.34a20.85 20.85 0 0 1 2.17 5.8"/><use height="100%" width="100%" y="858.82" x="239.24" xlink:href="#al" transform="translate(0 -3.33)"/><use height="100%" width="100%" y="858.82" x="252.75" xlink:href="#f" transform="translate(0 -3.33)"/><g transform="translate(0 -3.33)"><use height="100%" width="100%" y="858.82" x="274.48" xlink:href="#O"/><use height="100%" width="100%" y="858.82" x="287.7" xlink:href="#S"/></g><use height="100%" width="100%" y="858.82" x="302.39" xlink:href="#am" transform="translate(0 -3.33)"/><use height="100%" width="100%" y="858.82" x="310.91" xlink:href="#e" transform="translate(0 -3.33)"/><path d="M280.5 809.87v24.79" fill="none" stroke="#000" stroke-miterlimit="10"/><path d="M280.5 839.87a21.02 21.02 0 0 1 2.17-5.79h-4.34a20.9 20.9 0 0 1 2.17 5.79"/><g transform="translate(0 -3.33)"><use height="100%" width="100%" y="912.73" x="243.15" xlink:href="#J"/><use height="100%" width="100%" y="912.73" x="249.75" xlink:href="#al"/></g><use height="100%" width="100%" y="912.73" x="263.26" xlink:href="#an" transform="translate(0 -3.33)"/><g transform="translate(0 -3.33)"><use height="100%" width="100%" y="912.73" x="281.2" xlink:href="#F"/><use height="100%" width="100%" y="912.73" x="289.7" xlink:href="#ao"/><use height="100%" width="100%" y="912.73" x="294.42" xlink:href="#ap"/><use height="100%" width="100%" y="912.73" x="302.92" xlink:href="#M"/></g><use height="100%" width="100%" y="912.73" x="309.55" xlink:href="#N" transform="translate(0 -3.33)"/><path d="M280.5 862.74v24.8" fill="none" stroke="#000" stroke-miterlimit="10"/><path d="M280.5 892.74a21 21 0 0 1 2.17-5.79h-4.34a20.87 20.87 0 0 1 2.17 5.8"/><use height="100%" width="100%" y="967.58" x="223.17" xlink:href="#J" transform="translate(0 -3.33)"/><g transform="translate(0 -3.33)"><use height="100%" width="100%" y="967.57" x="229.76" xlink:href="#l"/><use height="100%" width="100%" y="967.57" x="238.91" xlink:href="#j"/><use height="100%" width="100%" y="967.57" x="248.65" xlink:href="#k"/><use height="100%" width="100%" y="967.57" x="258.39" xlink:href="#C"/><use height="100%" width="100%" y="967.57" x="265.53" xlink:href="#D"/><use height="100%" width="100%" y="967.57" x="274.56" xlink:href="#A"/><use height="100%" width="100%" y="967.57" x="281.51" xlink:href="#E"/></g><use height="100%" width="100%" y="967.57" x="296.47" xlink:href="#ab" transform="translate(0 -3.33)"/><use height="100%" width="100%" y="967.57" x="314.4" xlink:href="#t" transform="translate(0 -3.33)"/><use height="100%" width="100%" y="967.58" x="322.92" xlink:href="#M" transform="translate(0 -3.33)"/><use height="100%" width="100%" y="967.57" x="329.53" xlink:href="#N" transform="translate(0 -3.33)"/><path d="M280.5 917.59v24.79" fill="none" stroke="#000" stroke-miterlimit="10"/><path d="M280.5 947.59a20.97 20.97 0 0 1 2.17-5.8h-4.34a20.85 20.85 0 0 1 2.17 5.8"/><g transform="translate(0 -3.33)"><use height="100%" width="100%" y="1022.47" x="232.03" xlink:href="#l"/><use height="100%" width="100%" y="1022.47" x="241.18" xlink:href="#j"/><use height="100%" width="100%" y="1022.47" x="250.92" xlink:href="#k"/><use height="100%" width="100%" y="1022.47" x="260.66" xlink:href="#C"/><use height="100%" width="100%" y="1022.47" x="267.8" xlink:href="#D"/><use height="100%" width="100%" y="1022.47" x="276.83" xlink:href="#A"/><use height="100%" width="100%" y="1022.47" x="283.78" xlink:href="#E"/></g><use height="100%" width="100%" y="1022.47" x="298.74" xlink:href="#f" transform="translate(0 -3.33)"/><use height="100%" width="100%" y="1022.47" x="320.45" xlink:href="#t" transform="translate(0 -3.33)"/><path d="M280.5 972.69v24.79" fill="none" stroke="#000" stroke-miterlimit="10"/><path d="M280.5 1002.69a20.92 20.92 0 0 1 2.17-5.79h-4.34a20.8 20.8 0 0 1 2.17 5.79"/><g transform="translate(0 -3.33)"><use height="100%" width="100%" y="1077.28" x="229.96" xlink:href="#aq"/><use height="100%" width="100%" y="1077.28" x="241.28" xlink:href="#d"/><use height="100%" width="100%" y="1077.28" x="248.15" xlink:href="#Z"/><use height="100%" width="100%" y="1077.28" x="253.25" xlink:href="#ae"/><use height="100%" width="100%" y="1077.28" x="268.29" xlink:href="#c"/><use height="100%" width="100%" y="1077.28" x="276.93" xlink:href="#d"/><use height="100%" width="100%" y="1077.28" x="283.79" xlink:href="#ar"/></g><g transform="translate(0 -3.33)"><use height="100%" width="100%" y="1077.28" x="297.36" xlink:href="#as"/><use height="100%" width="100%" y="1077.28" x="307.61" xlink:href="#d"/><use height="100%" width="100%" y="1077.28" x="314.48" xlink:href="#ag"/><use height="100%" width="100%" y="1077.28" x="322.74" xlink:href="#N"/></g><path d="M280.5 1027.58v24.8" fill="none" stroke="#000" stroke-miterlimit="10"/><path d="M280.5 1057.58a21.02 21.02 0 0 1 2.17-5.79h-4.34a20.9 20.9 0 0 1 2.17 5.8"/><use height="100%" width="100%" y="1132.57" x="196.99" xlink:href="#P" transform="translate(0 -3.33)"/><use height="100%" width="100%" y="1136.77" x="205.94" xlink:href="#at" transform="translate(0 -3.33)"/><use height="100%" width="100%" y="1132.57" x="218.39" xlink:href="#f" transform="translate(0 -3.33)"/><g transform="translate(0 -3.33)"><use height="100%" width="100%" y="1132.57" x="240.11" xlink:href="#T"/><use height="100%" width="100%" y="1132.57" x="252.25" xlink:href="#U"/></g><g transform="translate(0 -3.33)"><use height="100%" width="100%" y="1132.57" x="259.12" xlink:href="#J"/><use height="100%" width="100%" y="1132.57" x="265.71" xlink:href="#P"/></g><use height="100%" width="100%" y="1136.77" x="274.67" xlink:href="#Q" transform="translate(0 -3.33)"/><use height="100%" width="100%" y="1132.57" x="286.17" xlink:href="#r" transform="translate(0 -3.33)"/><g transform="translate(0 -3.33)"><use height="100%" width="100%" y="1132.57" x="303.17" xlink:href="#s"/><use height="100%" width="100%" y="1132.57" x="311.67" xlink:href="#e"/><use height="100%" width="100%" y="1132.57" x="322.52" xlink:href="#R"/></g><g transform="translate(0 -3.33)"><use height="100%" width="100%" y="1132.57" x="330.07" xlink:href="#q"/><use height="100%" width="100%" y="1132.57" x="340.91" xlink:href="#R"/></g><use height="100%" width="100%" y="1132.57" x="348.48" xlink:href="#w" transform="translate(0 -3.33)"/><use height="100%" width="100%" y="1132.57" x="357.39" xlink:href="#M" transform="translate(0 -3.33)"/><path d="M280.5 1082.58v24.8" fill="none" stroke="#000" stroke-miterlimit="10"/><path d="M280.5 1112.58a20.92 20.92 0 0 1 2.17-5.79h-4.34a20.8 20.8 0 0 1 2.17 5.8"/><g transform="translate(0 -3.33)"><use height="100%" width="100%" y="1187.21" x="243.81" xlink:href="#V"/><use height="100%" width="100%" y="1187.21" x="255.98" xlink:href="#W"/><use height="100%" width="100%" y="1187.21" x="261.22" xlink:href="#W"/></g><g transform="translate(0 -3.33)"><use height="100%" width="100%" y="1187.21" x="271.13" xlink:href="#X"/><use height="100%" width="100%" y="1187.21" x="278.2" xlink:href="#Y"/><use height="100%" width="100%" y="1187.21" x="288.1" xlink:href="#W"/><use height="100%" width="100%" y="1187.21" x="293.33" xlink:href="#Z"/><use height="100%" width="100%" y="1187.21" x="298.43" xlink:href="#aa"/><use height="100%" width="100%" y="1187.21" x="308.89" xlink:href="#N"/></g><path d="M280.5 1137.43v24.79" fill="none" stroke="#000" stroke-miterlimit="10"/><path d="M280.5 1167.43a21.02 21.02 0 0 1 2.17-5.8h-4.34a20.9 20.9 0 0 1 2.17 5.8"/><use height="100%" width="100%" y="1238.08" x="214.13" xlink:href="#P" transform="translate(0 -3.33)"/><use height="100%" width="100%" y="1242.27" x="223.09" xlink:href="#au" transform="translate(0 -3.33)"/><use height="100%" width="100%" y="1238.08" x="235.53" xlink:href="#f" transform="translate(0 -3.33)"/><g transform="translate(0 -3.33)"><use height="100%" width="100%" y="1238.08" x="257.26" xlink:href="#T"/><use height="100%" width="100%" y="1238.08" x="269.39" xlink:href="#U"/></g><g transform="translate(0 -3.33)"><use height="100%" width="100%" y="1238.08" x="276.26" xlink:href="#J"/><use height="100%" width="100%" y="1238.08" x="282.86" xlink:href="#P"/></g><use height="100%" width="100%" y="1242.27" x="291.82" xlink:href="#at" transform="translate(0 -3.33)"/><use height="100%" width="100%" y="1238.08" x="299.54" xlink:href="#R" transform="translate(0 -3.33)"/><use height="100%" width="100%" y="1238.08" x="307.09" xlink:href="#P" transform="translate(0 -3.33)"/><use height="100%" width="100%" y="1242.27" x="316.06" xlink:href="#Q" transform="translate(0 -3.33)"/><use height="100%" width="100%" y="1238.08" x="323.78" xlink:href="#R" transform="translate(0 -3.33)"/><use height="100%" width="100%" y="1238.08" x="331.33" xlink:href="#w" transform="translate(0 -3.33)"/><use height="100%" width="100%" y="1238.08" x="340.24" xlink:href="#M" transform="translate(0 -3.33)"/><path d="M280.5 1188.1v24.78" fill="none" stroke="#000" stroke-miterlimit="10"/><path d="M280.5 1218.1a20.97 20.97 0 0 1 2.17-5.8h-4.34a20.85 20.85 0 0 1 2.17 5.8"/><use height="100%" width="100%" y="1293.07" x="229.49" xlink:href="#av" transform="translate(0 -3.33)"/><use height="100%" width="100%" y="1293.07" x="242.09" xlink:href="#f" transform="translate(0 -3.33)"/><g transform="translate(0 -3.33)"><use height="100%" width="100%" y="1293.07" x="263.81" xlink:href="#aw"/><use height="100%" width="100%" y="1293.07" x="270.58" xlink:href="#P"/></g><use height="100%" width="100%" y="1297.27" x="279.55" xlink:href="#au" transform="translate(0 -3.33)"/><use height="100%" width="100%" y="1293.07" x="291.05" xlink:href="#O" transform="translate(0 -3.33)"/><use height="100%" width="100%" y="1293.07" x="308.05" xlink:href="#P" transform="translate(0 -3.33)"/><use height="100%" width="100%" y="1297.27" x="317.01" xlink:href="#Q" transform="translate(0 -3.33)"/><use height="100%" width="100%" y="1293.07" x="324.74" xlink:href="#aw" transform="translate(0 -3.33)"/><path d="M280.5 1243.02v24.8" fill="none" stroke="#000" stroke-miterlimit="10"/><path d="M280.5 1273.02a21.02 21.02 0 0 1 2.17-5.79h-4.34a20.9 20.9 0 0 1 2.17 5.8"/><g transform="translate(0 -3.33)"><use height="100%" width="100%" y="1348" x="247.44" xlink:href="#J"/><use height="100%" width="100%" y="1348" x="254.03" xlink:href="#av"/></g><use height="100%" width="100%" y="1348" x="266.63" xlink:href="#an" transform="translate(0 -3.33)"/><g transform="translate(0 -3.33)"><use height="100%" width="100%" y="1348" x="284.56" xlink:href="#G"/><use height="100%" width="100%" y="1348" x="298.64" xlink:href="#M"/></g><use height="100%" width="100%" y="1348" x="305.26" xlink:href="#N" transform="translate(0 -3.33)"/><path d="M280.5 1298.02v24.8" fill="none" stroke="#000" stroke-miterlimit="10"/><path d="M280.5 1328.02a20.92 20.92 0 0 1 2.17-5.79h-4.34a20.8 20.8 0 0 1 2.17 5.8"/><use height="100%" width="100%" y="1402.85" x="250.22" xlink:href="#J" transform="translate(0 -3.33)"/><use height="100%" width="100%" y="1402.85" x="256.81" xlink:href="#av" transform="translate(0 -3.33)"/><use height="100%" width="100%" y="1402.85" x="269.41" xlink:href="#ab" transform="translate(0 -3.33)"/><use height="100%" width="100%" y="1402.85" x="287.36" xlink:href="#F" transform="translate(0 -3.33)"/><use height="100%" width="100%" y="1402.85" x="295.87" xlink:href="#M" transform="translate(0 -3.33)"/><use height="100%" width="100%" y="1402.85" x="302.48" xlink:href="#N" transform="translate(0 -3.33)"/><path d="M280.5 1352.87v24.78" fill="none" stroke="#000" stroke-miterlimit="10"/><path d="M280.5 1382.87a21.02 21.02 0 0 1 2.17-5.8h-4.34a20.9 20.9 0 0 1 2.17 5.8"/><use height="100%" width="100%" y="1456.59" x="238.91" xlink:href="#G" transform="translate(0 -3.33)"/><use height="100%" width="100%" y="1456.59" x="257.76" xlink:href="#f" transform="translate(0 -3.33)"/><use height="100%" width="100%" y="1456.59" x="279.48" xlink:href="#G" transform="translate(0 -3.33)"/><use height="100%" width="100%" y="1456.59" x="297.4" xlink:href="#O" transform="translate(0 -3.33)"/><use height="100%" width="100%" y="1456.59" x="314.42" xlink:href="#av" transform="translate(0 -3.33)"/><path d="M280.5 1407.7v24.8" fill="none" stroke="#000" stroke-miterlimit="10"/><path d="M280.5 1437.7a21.02 21.02 0 0 1 2.17-5.78h-4.34a20.9 20.9 0 0 1 2.17 5.79"/><g transform="translate(0 -3.33)"><use height="100%" width="100%" y="1507.27" x="199.1" xlink:href="#ax"/><use height="100%" width="100%" y="1507.27" x="212.25" xlink:href="#ay"/><use height="100%" width="100%" y="1507.27" x="220.89" xlink:href="#az"/><use height="100%" width="100%" y="1507.27" x="231.35" xlink:href="#aA"/><use height="100%" width="100%" y="1507.27" x="245.27" xlink:href="#aB"/><use height="100%" width="100%" y="1507.27" x="260.31" xlink:href="#aC"/></g><g transform="translate(0 -3.33)"><use height="100%" width="100%" y="1507.27" x="270.17" xlink:href="#J"/><use height="100%" width="100%" y="1507.27" x="276.77" xlink:href="#P"/></g><use height="100%" width="100%" y="1511.46" x="285.73" xlink:href="#au" transform="translate(0 -3.33)"/><use height="100%" width="100%" y="1507.27" x="297.23" xlink:href="#r" transform="translate(0 -3.33)"/><g transform="translate(0 -3.33)"><use height="100%" width="100%" y="1507.27" x="314.23" xlink:href="#s"/><use height="100%" width="100%" y="1507.27" x="322.73" xlink:href="#e"/><use height="100%" width="100%" y="1507.27" x="333.58" xlink:href="#R"/></g><use height="100%" width="100%" y="1507.27" x="341.12" xlink:href="#G" transform="translate(0 -3.33)"/><use height="100%" width="100%" y="1507.27" x="355.27" xlink:href="#M" transform="translate(0 -3.33)"/><path d="M280.5 1457.29v24.79" fill="none" stroke="#000" stroke-miterlimit="10"/><path d="M280.5 1487.29a20.92 20.92 0 0 1 2.17-5.8h-4.34a20.8 20.8 0 0 1 2.17 5.8"/><use height="100%" width="100%" y="1561.65" x="238.18" xlink:href="#h" transform="translate(0 -3.33)"/><use height="100%" width="100%" y="1561.65" x="252.77" xlink:href="#f" transform="translate(0 -3.33)"/><use height="100%" width="100%" y="1561.65" x="274.49" xlink:href="#P" transform="translate(0 -3.33)"/><use height="100%" width="100%" y="1565.85" x="283.46" xlink:href="#au" transform="translate(0 -3.33)"/><use height="100%" width="100%" y="1561.65" x="294.96" xlink:href="#r" transform="translate(0 -3.33)"/><use height="100%" width="100%" y="1561.65" x="311.96" xlink:href="#e" transform="translate(0 -3.33)"/><path d="M280.5 1512.7v24.8" fill="none" stroke="#000" stroke-miterlimit="10"/><path d="M280.5 1542.7a21.02 21.02 0 0 1 2.17-5.78h-4.34a20.9 20.9 0 0 1 2.17 5.79"/><use height="100%" width="100%" y="754.38" x="58.18" xlink:href="#h" transform="translate(0 -3.33)"/><use height="100%" width="100%" y="754.38" x="72.77" xlink:href="#f" transform="translate(0 -3.33)"/><use height="100%" width="100%" y="754.38" x="94.49" xlink:href="#P" transform="translate(0 -3.33)"/><use height="100%" width="100%" y="758.58" x="103.46" xlink:href="#Q" transform="translate(0 -3.33)"/><use height="100%" width="100%" y="754.38" x="114.96" xlink:href="#r" transform="translate(0 -3.33)"/><use height="100%" width="100%" y="754.38" x="131.96" xlink:href="#e" transform="translate(0 -3.33)"/><use height="100%" width="100%" y="807.97" x="71.53" xlink:href="#w" transform="translate(0 -3.33)"/><use height="100%" width="100%" y="807.97" x="85.14" xlink:href="#f" transform="translate(0 -3.33)"/><g transform="translate(0 -3.33)"><use height="100%" width="100%" y="807.97" x="106.88" xlink:href="#A"/><use height="100%" width="100%" y="807.97" x="113.83" xlink:href="#k"/><use height="100%" width="100%" y="807.97" x="123.57" xlink:href="#p"/></g><path d="M100.5 759.09v24.79" fill="none" stroke="#000" stroke-miterlimit="10"/><path d="M100.5 789.09a20.92 20.92 0 0 1 2.17-5.8h-4.34a20.8 20.8 0 0 1 2.17 5.8"/><g transform="translate(0 -3.33)"><use height="100%" width="100%" y="701.44" x="46.06" xlink:href="#ad"/><use height="100%" width="100%" y="701.44" x="59.99" xlink:href="#ae"/><use height="100%" width="100%" y="701.44" x="75.03" xlink:href="#af"/></g><g transform="translate(0 -3.33)"><use height="100%" width="100%" y="701.44" x="89.57" xlink:href="#A"/><use height="100%" width="100%" y="701.44" x="96.52" xlink:href="#k"/><use height="100%" width="100%" y="701.44" x="106.26" xlink:href="#p"/></g><g transform="translate(0 -3.33)"><use height="100%" width="100%" y="701.44" x="116.84" xlink:href="#ah"/><use height="100%" width="100%" y="701.44" x="127.29" xlink:href="#ar"/></g><use height="100%" width="100%" y="701.44" x="140.86" xlink:href="#G" transform="translate(0 -3.33)"/><g transform="translate(0 -3.33)"><use height="100%" width="100%" y="436.39" x="442.02" xlink:href="#a"/><use height="100%" width="100%" y="436.39" x="452.49" xlink:href="#b"/><use height="100%" width="100%" y="436.39" x="458.54" xlink:href="#Y"/><use height="100%" width="100%" y="436.39" x="468.43" xlink:href="#aD"/></g><use height="100%" width="100%" y="1402.62" x="78.62" xlink:href="#al" transform="translate(0 -3.33)"/><use height="100%" width="100%" y="1402.62" x="92.14" xlink:href="#f" transform="translate(0 -3.33)"/><use height="100%" width="100%" y="1402.62" x="113.86" xlink:href="#t" transform="translate(0 -3.33)"/><use height="100%" width="100%" y="912.68" x="51.97" xlink:href="#e" transform="translate(0 -3.33)"/><use height="100%" width="100%" y="912.68" x="67.53" xlink:href="#f" transform="translate(0 -3.33)"/><use height="100%" width="100%" y="912.68" x="89.25" xlink:href="#e" transform="translate(0 -3.33)"/><use height="100%" width="100%" y="912.68" x="103.87" xlink:href="#r" transform="translate(0 -3.33)"/><g transform="translate(0 -3.33)"><use height="100%" width="100%" y="912.68" x="120.89" xlink:href="#v"/><use height="100%" width="100%" y="912.68" x="129.37" xlink:href="#al"/></g><use height="100%" width="100%" y="912.68" x="138.18" xlink:href="#S" transform="translate(0 -3.33)"/><use height="100%" width="100%" y="965.55" x="53.93" xlink:href="#h" transform="translate(0 -3.33)"/><use height="100%" width="100%" y="965.55" x="68.52" xlink:href="#f" transform="translate(0 -3.33)"/><use height="100%" width="100%" y="965.55" x="90.24" xlink:href="#P" transform="translate(0 -3.33)"/><use height="100%" width="100%" y="969.75" x="99.21" xlink:href="#Q" transform="translate(0 -3.33)"/><use height="100%" width="100%" y="965.55" x="110.71" xlink:href="#r" transform="translate(0 -3.33)"/><g transform="translate(0 -3.33)"><use height="100%" width="100%" y="965.55" x="127.71" xlink:href="#s"/><use height="100%" width="100%" y="965.55" x="136.21" xlink:href="#e"/></g><path d="M100.5 916.6v24.8" fill="none" stroke="#000" stroke-miterlimit="10"/><path d="M100.5 946.6a21 21 0 0 1 2.17-5.79h-4.34a20.87 20.87 0 0 1 2.17 5.8"/><use height="100%" width="100%" y="1019.21" x="44.11" xlink:href="#q" transform="translate(0 -3.33)"/><use height="100%" width="100%" y="1019.21" x="59.66" xlink:href="#f" transform="translate(0 -3.33)"/><use height="100%" width="100%" y="1019.21" x="81.39" xlink:href="#h" transform="translate(0 -3.33)"/><use height="100%" width="100%" y="1019.21" x="95.04" xlink:href="#r" transform="translate(0 -3.33)"/><g transform="translate(0 -3.33)"><use height="100%" width="100%" y="1019.21" x="112.06" xlink:href="#s"/><use height="100%" width="100%" y="1019.21" x="120.56" xlink:href="#t"/><use height="100%" width="100%" y="1019.21" x="129.06" xlink:href="#u"/><use height="100%" width="100%" y="1019.21" x="137.56" xlink:href="#v"/><use height="100%" width="100%" y="1019.21" x="146.04" xlink:href="#e"/></g><path d="M100.5 970.26v24.78" fill="none" stroke="#000" stroke-miterlimit="10"/><path d="M100.5 1000.26a21.02 21.02 0 0 1 2.17-5.8h-4.34a20.9 20.9 0 0 1 2.17 5.8"/><g transform="translate(0 -3.33)"><use height="100%" width="100%" y="1071.3" x="34.76" xlink:href="#ax"/><use height="100%" width="100%" y="1071.3" x="47.92" xlink:href="#ay"/><use height="100%" width="100%" y="1071.3" x="56.55" xlink:href="#az"/><use height="100%" width="100%" y="1071.3" x="67.01" xlink:href="#aA"/><use height="100%" width="100%" y="1071.3" x="80.93" xlink:href="#aB"/><use height="100%" width="100%" y="1071.3" x="95.98" xlink:href="#aC"/></g><g transform="translate(0 -3.33)"><use height="100%" width="100%" y="1071.3" x="105.84" xlink:href="#J"/><use height="100%" width="100%" y="1071.3" x="112.43" xlink:href="#P"/></g><use height="100%" width="100%" y="1075.5" x="121.39" xlink:href="#Q" transform="translate(0 -3.33)"/><use height="100%" width="100%" y="1071.3" x="129.12" xlink:href="#R" transform="translate(0 -3.33)"/><use height="100%" width="100%" y="1071.3" x="136.66" xlink:href="#al" transform="translate(0 -3.33)"/><use height="100%" width="100%" y="1071.3" x="145.47" xlink:href="#G" transform="translate(0 -3.33)"/><use height="100%" width="100%" y="1071.3" x="159.61" xlink:href="#M" transform="translate(0 -3.33)"/><path d="M100.5 1021.31v24.79" fill="none" stroke="#000" stroke-miterlimit="10"/><path d="M100.5 1051.31a21.02 21.02 0 0 1 2.17-5.79h-4.34a20.89 20.89 0 0 1 2.17 5.8"/><use height="100%" width="100%" y="1126.72" x="46.23" xlink:href="#G" transform="translate(0 -3.33)"/><use height="100%" width="100%" y="1126.72" x="65.08" xlink:href="#f" transform="translate(0 -3.33)"/><use height="100%" width="100%" y="1126.72" x="86.81" xlink:href="#G" transform="translate(0 -3.33)"/><g transform="translate(0 -3.33)"><use height="100%" width="100%" y="1126.72" x="103.72" xlink:href="#J"/><use height="100%" width="100%" y="1126.72" x="110.32" xlink:href="#t"/></g><use height="100%" width="100%" y="1126.72" x="122.59" xlink:href="#O" transform="translate(0 -3.33)"/><g transform="translate(0 -3.33)"><use height="100%" width="100%" y="1126.72" x="139.59" xlink:href="#al"/><use height="100%" width="100%" y="1126.72" x="148.14" xlink:href="#M"/></g><path d="M100.5 1076.74v24.79" fill="none" stroke="#000" stroke-miterlimit="10"/><path d="M100.5 1106.74a21 21 0 0 1 2.17-5.8h-4.34a20.87 20.87 0 0 1 2.17 5.8"/><path d="M224.05 694.27h-60.09" fill="none" stroke="#000" stroke-miterlimit="10"/><path d="M158.76 694.27a20.9 20.9 0 0 1 5.79 2.17v-4.34a21.02 21.02 0 0 1-5.8 2.17"/><g transform="translate(0 -3.33)"><use height="100%" width="100%" y="693.53" x="178.41" xlink:href="#aE"/><use height="100%" width="100%" y="693.53" x="187.31" xlink:href="#aF"/><use height="100%" width="100%" y="693.53" x="196.51" xlink:href="#aG"/></g><g transform="translate(0 -3.33)"><use height="100%" width="100%" y="729.44" x="284.32" xlink:href="#aH"/><use height="100%" width="100%" y="729.44" x="295.5" xlink:href="#aI"/></g><path d="M143.32 706.88l96.91 28.52" fill="none" stroke="#000" stroke-miterlimit="10"/><path d="M245.24 736.88a20.98 20.98 0 0 1-4.95-3.73l-1.23 4.18a20.7 20.7 0 0 1 6.18-.45"/><path d="M229.04 747.26h-77.2" fill="none" stroke="#000" stroke-miterlimit="10"/><path d="M146.64 747.26c1.54.29 4.05 1.16 5.79 2.17v-4.34a20.97 20.97 0 0 1-5.8 2.17"/><g transform="translate(0 -3.33)"><use height="100%" width="100%" y="763.13" x="176.73" xlink:href="#aH"/><use height="100%" width="100%" y="763.13" x="187.91" xlink:href="#aI"/></g><g transform="translate(0 -3.33)"><use height="100%" width="100%" y="780.22" x="284.32" xlink:href="#aE"/><use height="100%" width="100%" y="780.22" x="293.23" xlink:href="#aF"/><use height="100%" width="100%" y="780.22" x="302.42" xlink:href="#aG"/></g><path d="M239.34 905.17h-81.28" fill="none" stroke="#000" stroke-miterlimit="10"/><path d="M152.85 905.17c1.54.29 4.05 1.15 5.79 2.17v-4.35a20.97 20.97 0 0 1-5.8 2.18"/><g transform="translate(0 -3.33)"><use height="100%" width="100%" y="904.42" x="183.09" xlink:href="#aE"/><use height="100%" width="100%" y="904.42" x="192" xlink:href="#aF"/><use height="100%" width="100%" y="904.42" x="201.2" xlink:href="#aG"/></g><g transform="translate(0 -3.33)"><use height="100%" width="100%" y="940.15" x="284.32" xlink:href="#aH"/><use height="100%" width="100%" y="940.15" x="295.5" xlink:href="#aI"/></g><path d="M42.41 1119.16H5.71" fill="none" stroke="#000" stroke-miterlimit="10"/><path d="M.5 1119.16c1.54.29 4.05 1.15 5.79 2.17v-4.34a20.97 20.97 0 0 1-5.79 2.17"/><path d="M67.7 798.94H5.72" fill="none" stroke="#000" stroke-miterlimit="10"/><path d="M.5 798.94c1.54.28 4.05 1.15 5.79 2.16v-4.34a21.1 21.1 0 0 1-5.79 2.18"/><path d="M321 1177.76h139.5v-731" fill="none" stroke="#000" stroke-miterlimit="10"/><path d="M460.5 441.55a20.85 20.85 0 0 1-2.17 5.79h4.34a20.97 20.97 0 0 1-2.17-5.8"/><g transform="translate(0 -3.33)"><use height="100%" width="100%" y="1177.01" x="377.75" xlink:href="#aE"/><use height="100%" width="100%" y="1177.01" x="386.66" xlink:href="#aF"/><use height="100%" width="100%" y="1177.01" x="395.86" xlink:href="#aG"/></g><g transform="translate(0 -3.33)"><use height="100%" width="100%" y="1210.65" x="284.32" xlink:href="#aH"/><use height="100%" width="100%" y="1210.65" x="295.5" xlink:href="#aI"/></g><path d="M334.86 1070.08H455.3" fill="none" stroke="#000" stroke-miterlimit="10"/><path d="M460.5 1070.08a21.02 21.02 0 0 1-5.79-2.17v4.35a20.89 20.89 0 0 1 5.79-2.18"/><g transform="translate(0 -3.33)"><use height="100%" width="100%" y="1069.34" x="384.68" xlink:href="#aE"/><use height="100%" width="100%" y="1069.34" x="393.59" xlink:href="#aF"/><use height="100%" width="100%" y="1069.34" x="402.79" xlink:href="#aG"/></g><g transform="translate(0 -3.33)"><use height="100%" width="100%" y="1105.14" x="284.32" xlink:href="#aH"/><use height="100%" width="100%" y="1105.14" x="295.5" xlink:href="#aI"/></g><path d="M341.65 960.14H455.3" fill="none" stroke="#000" stroke-miterlimit="10"/><path d="M460.5 960.14a21.02 21.02 0 0 1-5.79-2.17v4.34a20.9 20.9 0 0 1 5.79-2.17"/><g transform="translate(0 -3.33)"><use height="100%" width="100%" y="959.39" x="388.07" xlink:href="#aE"/><use height="100%" width="100%" y="959.39" x="396.98" xlink:href="#aF"/><use height="100%" width="100%" y="959.39" x="406.18" xlink:href="#aG"/></g><g transform="translate(0 -3.33)"><use height="100%" width="100%" y="995.25" x="284.32" xlink:href="#aH"/><use height="100%" width="100%" y="995.25" x="295.5" xlink:href="#aI"/></g><path d="M321.95 639.03h133.34" fill="none" stroke="#000" stroke-miterlimit="10"/><path d="M460.5 639.03a20.89 20.89 0 0 1-5.79-2.17v4.34a21.02 21.02 0 0 1 5.79-2.17"/><g transform="translate(0 -3.33)"><use height="100%" width="100%" y="638.29" x="378.22" xlink:href="#aE"/><use height="100%" width="100%" y="638.29" x="387.13" xlink:href="#aF"/><use height="100%" width="100%" y="638.29" x="396.33" xlink:href="#aG"/></g><g transform="translate(0 -3.33)"><use height="100%" width="100%" y="674.22" x="284.32" xlink:href="#aH"/><use height="100%" width="100%" y="674.22" x="295.5" xlink:href="#aI"/></g><path d="M321 586.07h134.3" fill="none" stroke="#000" stroke-miterlimit="10"/><path d="M460.5 586.07a20.9 20.9 0 0 1-5.79-2.17v4.34a20.9 20.9 0 0 1 5.79-2.17"/><g transform="translate(0 -3.33)"><use height="100%" width="100%" y="585.33" x="377.75" xlink:href="#aE"/><use height="100%" width="100%" y="585.33" x="386.66" xlink:href="#aF"/><use height="100%" width="100%" y="585.33" x="395.86" xlink:href="#aG"/></g><g transform="translate(0 -3.33)"><use height="100%" width="100%" y="618.97" x="284.32" xlink:href="#aH"/><use height="100%" width="100%" y="618.97" x="295.5" xlink:href="#aI"/></g><path d="M349.93 429.19h83.06" fill="none" stroke="#000" stroke-miterlimit="10"/><path d="M438.2 429.19a20.87 20.87 0 0 1-5.79-2.18v4.35a21 21 0 0 1 5.8-2.17"/><g transform="translate(0 -3.33)"><use height="100%" width="100%" y="428.45" x="382.95" xlink:href="#aH"/><use height="100%" width="100%" y="428.45" x="394.14" xlink:href="#aI"/></g><g transform="translate(0 -3.33)"><use height="100%" width="100%" y="464.2" x="284.32" xlink:href="#aE"/><use height="100%" width="100%" y="464.2" x="293.23" xlink:href="#aF"/><use height="100%" width="100%" y="464.2" x="302.42" xlink:href="#aG"/></g><path d="M243.62 1340.44H5.72" fill="none" stroke="#000" stroke-miterlimit="10"/><path d="M.5 1340.44a21.2 21.2 0 0 1 5.79 2.18v-4.35a20.97 20.97 0 0 1-5.79 2.17"/><g transform="translate(0 -3.33)"><use height="100%" width="100%" y="1339.69" x="110.95" xlink:href="#aH"/><use height="100%" width="100%" y="1339.69" x="122.13" xlink:href="#aI"/></g><g transform="translate(0 -3.33)"><use height="100%" width="100%" y="1375.44" x="284.32" xlink:href="#aE"/><use height="100%" width="100%" y="1375.44" x="293.23" xlink:href="#aF"/><use height="100%" width="100%" y="1375.44" x="302.42" xlink:href="#aG"/></g><path d="M246.4 1395.29h-115" fill="none" stroke="#000" stroke-miterlimit="10"/><path d="M126.2 1395.29c1.54.29 4.05 1.16 5.78 2.17v-4.34a20.8 20.8 0 0 1-5.78 2.17"/><g transform="translate(0 -3.33)"><use height="100%" width="100%" y="1394.54" x="173.3" xlink:href="#aE"/><use height="100%" width="100%" y="1394.54" x="182.21" xlink:href="#aF"/><use height="100%" width="100%" y="1394.54" x="191.4" xlink:href="#aG"/></g><g transform="translate(0 -3.33)"><use height="100%" width="100%" y="1430.27" x="284.32" xlink:href="#aH"/><use height="100%" width="100%" y="1430.27" x="295.5" xlink:href="#aI"/></g><path d="M126.2 1405.25l104.02 40.36" fill="none" stroke="#000" stroke-miterlimit="10"/><path d="M235.09 1447.5a21.02 21.02 0 0 1-4.63-4.13l-1.57 4.06c2-.32 4.65-.22 6.2.07"/><path d="M234.36 1554.65H.5V429.2h205.36" fill="none" stroke="#000" stroke-miterlimit="10"/><path d="M211.07 429.19a20.9 20.9 0 0 1-5.79-2.18v4.35a21.02 21.02 0 0 1 5.79-2.17"/></svg>