<svg xmlns="http://www.w3.org/2000/svg" xmlns:xlink="http://www.w3.org/1999/xlink" version="1.2" height="171.22" width="312.2"><defs><symbol id="a" overflow="visible"><path d="M7.1.14l.2.02v-.82h-.72c-1.5 0-1.4-.12-1.4-.7v-9.52c0-.21.02-.37-.13-.5-.11-.07-.28-.07-.44-.07h-.1l-.04.04c-1 1.03-2.4 1.03-2.95 1.03h-.18v.8h.18c.3 0 1.18 0 2.04-.34v8.58c0 .56.1.68-1.4.68h-.72v.82l.19-.02C2.2.08 3.69.08 4.38.08c.67 0 2.15 0 2.73.06zm0 0"/></symbol><symbol id="m" overflow="visible"><path d="M13.13-11.8v-.01c0-.03 0-.32-.4-.32-.23 0-.3.13-.43.29l-.97 1.07a3.5 3.5 0 0 0-2.86-1.36C4.45-12.13.64-8.25.64-4.28c0 2.81 2.02 4.8 4.81 4.8A5.9 5.9 0 0 0 9.3-1.02a5.8 5.8 0 0 0 1.92-3.06c0-.23-.35-.31-.4-.31h-.02c-.22 0-.4.14-.43.3a5.47 5.47 0 0 1-1.68 2.6 4.62 4.62 0 0 1-2.96 1.2c-1.36 0-3.1-.79-3.1-3.4 0-.95.34-3.69 2.01-5.64a5.58 5.58 0 0 1 3.97-2c1.5 0 2.52 1.17 2.52 3.16 0 .67-.07.67-.07.86 0 .28.4.31.49.31.37 0 .43-.19.5-.47zm0 0"/></symbol><symbol id="p" overflow="visible"><path d="M13.28-11.4c0-.18-.12-.35-.42-.35-.48 0-.95.05-1.4.05-.55 0-1.12-.05-1.68-.05-.19 0-.55.08-.55.47 0 .23.25.33.47.33.35.04.58.14.58.45 0 .22-.23.6-.23.6L5.17-2.17l-1.1-8.42c0-.19.24-.37.98-.37.3 0 .62-.07.62-.47 0-.22-.23-.33-.44-.33-.7 0-1.42.05-2.1.05l-.94-.02-.9-.03c-.21 0-.56.08-.56.47 0 .3.38.33.65.33.85 0 .76.06.8.47L3.54 0c.06.33.16.52.55.52.4 0 .54-.2.69-.4l6.1-9.74c.83-1.32 1.44-1.29 2-1.33.49-.03.41-.46.41-.46zm0 0"/></symbol><symbol id="b" overflow="visible"><path d="M4.7-6.2c.85.08 2.08.14 2.99.14 1.14 0 2.33 0 3.2-.07v4.18c0 1-.45 1.34-1.66 1.34-.09 0-.12.11-.12.33 0 .2.02.3.12.3.41 0 1.29-.05 2.61-.05 1.36 0 2.07.05 2.49.05.12 0 .17-.13.17-.33 0-.14-.03-.3-.14-.3-1.3 0-1.66-.5-1.66-1.39 0-3.53.1-6.92.1-8.08 0-.8.34-1.39 1.65-1.39.08 0 .14-.08.14-.31 0-.19-.03-.33-.14-.33-.43 0-1.32.1-2.6.1-1.37 0-2.2-.1-2.62-.1-.1 0-.15.1-.15.34 0 .2.03.3.12.3 1.3 0 1.7.44 1.7 1.31v3.46a48.74 48.74 0 0 0-6.2-.02c.02-1.55.08-2.76.08-3.36 0-.8.33-1.39 1.64-1.39.1 0 .14-.08.14-.31 0-.19-.01-.33-.14-.33-.44 0-1.33.1-2.6.1-1.35 0-2.2-.1-2.62-.1-.1 0-.15.1-.15.34 0 .2.04.3.12.3 1.31 0 1.7.44 1.7 1.31v8.2c0 1-.46 1.35-1.67 1.35-.07 0-.1.11-.1.33 0 .2 0 .3.1.3.4 0 1.3-.05 2.63-.05 1.36 0 2.04.05 2.48.05.11 0 .17-.13.17-.33 0-.14-.04-.3-.14-.3-1.3 0-1.67-.5-1.67-1.39 0-1.5.02-2.9.03-4.2zm0 0"/></symbol><symbol id="c" overflow="visible"><path d="M7.28-5.14c.3 0 .4-.1.4-.45 0-.86-.7-2.5-2.9-2.5C2.3-8.1.61-6.2.61-3.81.6-.9 2.44.3 4.64.3 6.2.31 7.2-.5 7.61-1.34a.2.2 0 0 0 .06-.13c0-.12-.31-.34-.45-.34-.03 0-.1.01-.14.1-.31.62-1.13 1.1-2.1 1.1-1.53 0-2.64-1.19-2.64-3.47 0-.4.04-.81.11-1.06zM4.61-7.38c1.01 0 1.44.65 1.44 1.24 0 .36-.07.39-.7.4l-2.8.08C2.92-6.84 3.6-7.37 4.6-7.37zm0 0"/></symbol><symbol id="d" overflow="visible"><path d="M6.64.22C7.88.22 8.33-.6 8.33-.84c0-.1-.19-.27-.25-.27-.08 0-.11 0-.16.08-.14.22-.33.4-.6.4-.4 0-.55-.32-.55-.76 0-1.72.14-3.7.14-4.47 0-1.56-.7-2.23-2.88-2.23C1.7-8.1.98-7.13.98-6.52c0 .4.3.6.63.6.28 0 .62-.2.75-.52.23-.58.66-.87 1.6-.87 1.26 0 1.34.56 1.34 1.43v.9C1.67-4.08.72-2.77.72-1.48.72-.42 1.42.25 2.7.25c.92 0 1.94-.5 2.64-1.36.07.94.6 1.33 1.3 1.33zM2.45-1.9c0-.97.49-1.9 2.85-2.58v2.66c-.67.73-1.2 1.06-1.78 1.06-.61 0-1.07-.4-1.07-1.14zm0 0"/></symbol><symbol id="e" overflow="visible"><path d="M9.98-.17c.07 0 .08-.17.08-.3 0-.22-.03-.34-.08-.34l-.54-.03c-.58-.07-.7-.2-.7-.68v-3.1c0-4.66.12-7.32.12-7.8 0-.14-.16-.22-.36-.22-.14 0-1.05.27-2.53.27-.1 0-.11.14-.11.32 0 .2 0 .3.1.3 1.07 0 1.26.17 1.26.77v3.89c-.61-.72-1.44-1-2.55-1C2.5-8.1.66-6.34.66-3.8.66-1.24 2.46.3 4.5.3 5.67.31 6.6-.22 7.19-.9L7.16.11c0 .17.07.27.26.27.06 0 .16-.04.25-.07a6.63 6.63 0 0 1 2.31-.48zM5.16-7.34c1.14 0 2.06.86 2.06 1.59 0 1.16 0 2.98-.05 3.97A2.46 2.46 0 0 1 4.98-.6c-1.3 0-2.48-.88-2.48-3.33 0-2.3 1.17-3.42 2.66-3.42zm0 0"/></symbol><symbol id="f" overflow="visible"><path d="M4.63.31c1.5 0 2.57-.69 3.14-1.84 0-.22-.29-.38-.4-.38-.04 0-.1.02-.18.11A2.41 2.41 0 0 1 5.08-.6c-1.28 0-2.6-.88-2.6-3.52 0-2.22 1.07-3.2 2.3-3.2.67 0 1.08.26 1.28.79.19.48.44.78.88.78.4 0 .73-.23.73-.7 0-.72-.56-1.64-2.72-1.64A4.29 4.29 0 0 0 .65-3.7C.64-1.1 2.68.3 4.62.3zm0 0"/></symbol><symbol id="g" overflow="visible"><path d="M3.4-6.6v-1.18c0-.16-.15-.27-.42-.27-.54.24-1.56.44-2.07.44-.11 0-.13.14-.13.33 0 .17.05.3.19.3h.37c.41 0 .6.04.6.45v4.94c0 .7-.08.98-1.11.98C.77-.6.7-.5.7-.3c0 .18.02.33.1.33.6 0 1.07-.07 1.9-.07.77 0 1.6.07 1.99.07.12 0 .17-.16.17-.33 0-.19-.03-.3-.14-.3-1.13 0-1.3-.14-1.3-.89v-3.2c0-1.72.86-2.22 1.46-2.22.78 0 .57.67 1.21.67.46 0 .72-.36.72-.86 0-.47-.33-.98-1.25-.98-.62 0-1.65.5-2.15 1.48zm0 0"/></symbol><symbol id="h" overflow="visible"><path d="M5.55.31c2.42 0 4.25-1.7 4.25-4.2 0-2.56-1.53-4.2-3.85-4.2-1.2 0-2.23.57-2.68 1.4 0-3.4.14-4.51.14-5.73 0-.14-.16-.22-.36-.22-.14 0-1.03.27-2.53.27-.08 0-.1.14-.1.32 0 .2.02.3.11.3 1.06 0 1.24.17 1.24.77v7.34c0 2.81-.2 3.56-.2 3.95 0 .08.24.16.38.16.16 0 .18-.05.2-.08.37-.56.57-.9.93-1.23C3.47-.34 4.47.3 5.55.3zm-.14-7.5C7.16-7.19 7.97-6 7.97-3.8c0 2.4-1.38 3.37-2.63 3.37-.93 0-2.07-.72-2.07-1.7 0-.53.01-2.66.04-3.22.03-.5.44-1.83 2.1-1.83zm0 0"/></symbol><symbol id="i" overflow="visible"><path d="M3.83-.03c1.31 0 5.7.08 6.84.08.19 0 .27-.03.27-.22 0-1.56.08-2.6.08-3.19 0-.14-.05-.19-.38-.19-.2 0-.3.07-.33.24C10.16-1.5 9.45-.62 6.6-.62c-1.68 0-1.93-.46-1.93-1.25 0-.52.03-1 .03-2 0-.7 0-1.55-.02-2.27 2.3 0 2.63.58 2.63 1.73 0 .18.03.24.36.24.26 0 .32-.06.32-.24 0-.21-.07-.75-.07-2.01 0-1.5.07-1.86.07-2.03 0-.2-.06-.25-.32-.25-.32 0-.36.03-.36.23 0 1.05-.2 1.72-2.63 1.72.08-.9.14-3.3.14-4.53.6-.08 1.16-.13 2.03-.13 1.82 0 2.55.72 2.82 2.18.01.12.18.14.32.14.2 0 .36-.05.36-.18 0-.51-.12-1.46-.12-2.51 0-.24-.03-.33-.3-.33-.25 0-4.53.1-6.1.1-1.35 0-2.2-.1-2.62-.1-.1 0-.15.1-.15.34 0 .2.04.3.12.3 1.31 0 1.7.44 1.7 1.31v8.2c0 1-.46 1.35-1.67 1.35-.07 0-.1.11-.1.33 0 .2 0 .3.1.3.4 0 1.3-.05 2.63-.05zm0 0"/></symbol><symbol id="j" overflow="visible"><path d="M3.42-7.78c0-.16-.15-.27-.4-.27-.58.24-1.6.44-2.11.44-.11 0-.13.14-.13.33 0 .17.05.3.19.3h.37c.41 0 .6.04.6.45v5.1c0 .54-.08.82-1.11.82C.77-.6.7-.45.7-.3c0 .18.02.33.1.33.6 0 1.07-.07 1.9-.07.77 0 1.32.07 1.72.07.11 0 .17-.08.17-.33 0-.2 0-.3-.14-.3-.8 0-1.03-.19-1.03-.77v-2.8c0-2.52 1.4-3 2.25-3 .81 0 1.5.48 1.5 1.5v4.34c0 .56-.15.73-1.03.73-.08 0-.1.11-.1.27 0 .18.02.36.12.36.59 0 .98-.07 1.8-.07.77 0 1.45.07 1.84.07.1 0 .14-.16.14-.4 0-.12-.03-.23-.11-.23-.92 0-1.17-.22-1.17-.8 0-1.22.04-3.42.04-4.3 0-1.67-1.15-2.38-2.43-2.38-1.07 0-2.36.6-2.85 1.56zm0 0"/></symbol><symbol id="k" overflow="visible"><path d="M13.4-5.67c0-1.56-1.04-2.42-2.42-2.42-1.06 0-2.25.56-2.76 1.68-.28-1.09-.95-1.68-2.08-1.68-1.1 0-2.23.59-2.72 1.59v-1.28c0-.16-.15-.27-.4-.27-.58.24-1.6.44-2.11.44-.11 0-.13.14-.13.33 0 .17.05.3.19.3h.37c.41 0 .6.04.6.45v5.1c0 .54-.13.82-1.14.82-.07 0-.14.1-.14.27 0 .18.03.36.1.36.6 0 1.11-.07 1.94-.07.77 0 1.28.07 1.7.07.1 0 .16-.07.16-.3 0-.16 0-.33-.12-.33-.83 0-1.02-.19-1.02-.77v-3.07c0-2.03 1.14-2.7 2.13-2.7.89 0 1.36.46 1.36 1.24v4.5c0 .49 0 .8-1.13.8-.1 0-.12.17-.12.28 0 .14.01.35.09.35.58 0 1.17-.07 1.9-.07.52 0 1.16.07 1.8.07.08 0 .1-.2.1-.33 0-.19-.03-.3-.1-.3-.95 0-1.07-.28-1.07-.8v-3.5c0-1.6 1.04-2.26 2.03-2.26 1.1 0 1.48.69 1.48 1.7v4.13c0 .56-.14.73-1.03.73-.06 0-.08.11-.08.27 0 .18.02.36.1.36.59 0 .95-.07 1.76-.07.8 0 1.45.07 1.84.07.11 0 .16-.16.16-.4 0-.12-.03-.23-.12-.23-.93 0-1.16-.22-1.16-.8 0-.86.05-3.06.05-4.26zm0 0"/></symbol><symbol id="l" overflow="visible"><path d="M4.06-.03c-.25.72-.4 1.22-.92 2.08-.6 1.01-2.05.98-2.05 2.03 0 .45.25.72.75.72.6 0 1.28-.52 1.88-2.03a110.14 110.14 0 0 1 4.06-9.2c.25-.38.53-.73 1.05-.73.08 0 .1-.23.1-.4 0-.13-.05-.22-.1-.22-.14 0-.86.05-1.46.05-.65 0-1.37-.05-1.57-.05-.05 0-.07.2-.07.36 0 .12.05.25.1.25.73 0 .86.22.86.56 0 .77-1.35 3.84-1.78 4.77A70.28 70.28 0 0 1 2.95-6.2c-.08-.25-.1-.34-.1-.53 0-.23.12-.44.8-.44.08 0 .08-.2.08-.36 0-.06-.01-.26-.07-.26-.54 0-.96.05-1.72.05C1-7.73.33-7.78.16-7.78c-.05 0-.1.2-.1.26 0 .16.05.36.13.36a.8.8 0 0 1 .34.07c.56.28 1.17 1.87 1.97 3.57.83 1.79 1.55 3.27 1.56 3.49zm0 0"/></symbol><symbol id="n" overflow="visible"><path d="M11.58-7.84c0-.05-.02-.29-.38-.29s-1.22.05-1.54.05l-.8-.01c-.23-.02-.5-.04-.75-.04-.14 0-.44.07-.44.38 0 .27.33.28.55.28a3.05 3.05 0 0 0 .51.05v.03s0 .06-.06.23L8.03-4.5H4.47l.66-2.58c.1-.36 0-.39.85-.39.1 0 .25.02.38-.06.14-.06.17-.17.17-.31 0-.05-.01-.29-.39-.29-.36 0-1.25.05-1.56.05l-.8-.01c-.25-.02-.53-.04-.78-.04-.14 0-.44.07-.44.38 0 .27.35.28.56.28a3.37 3.37 0 0 0 .55.05v.03s0 .06-.04.23L2.02-.94c-.1.38.02.4-.86.4-.1 0-.23-.02-.36.04-.14.08-.19.19-.19.33s.13.3.4.3c.35 0 1.21-.05 1.54-.05h.81c.24.01.52.04.77.04.14 0 .45-.06.45-.37 0-.08-.01-.17-.14-.23-.14-.08-.3-.07-.45-.07-.19 0-.22 0-.42-.03h-.1v-.05s0-.06.05-.24l.75-2.96h3.58l-.72 2.9c-.1.37.02.38-.86.38-.1 0-.23-.01-.36.05-.14.08-.19.19-.19.33s.13.3.4.3c.35 0 1.21-.05 1.54-.05h.81c.24.01.52.04.77.04.13 0 .45-.06.45-.37 0-.08-.01-.17-.14-.23-.14-.08-.31-.07-.45-.07-.19 0-.22 0-.42-.03h-.1v-.05l.05-.24 1.53-6.16c.11-.42 0-.44.81-.44.11 0 .3.02.44-.06.14-.06.16-.19.16-.31zm0 0"/></symbol><symbol id="o" overflow="visible"><path d="M10.22-7.63c.01-.18.03-.32-.16-.4-.12-.06-.28-.05-.39-.05H3.13c-.11 0-.27-.01-.41.05-.14.08-.17.2-.17.33 0 .26.34.28.6.28.2 0 .2 0 .41.03l.1.01v.04c0 .06-.04.17-.04.23L2.05-1.09c-.13.45 0 .42-.88.42-.1 0-.23 0-.36.05-.15.07-.19.2-.19.34 0 .25.35.28.55.28h6.74c.12 0 .25.02.37-.05.14-.06.17-.14.22-.25l1.13-2.45c.06-.16.07-.22.07-.23 0-.1-.07-.29-.4-.29h-.02s-.17 0-.28.1c-.05.04-.06.08-.2.37C8.03-1.16 7.48-.67 5.67-.67h-2.2l.05-.22.76-2.97h1.16c.87 0 .89.08.89.42 0 .11-.03.31-.08.49l-.03.15v.02s-.05.25.39.25c.34 0 .39-.17.42-.35L7.7-5.4l.03-.18c0-.16-.15-.29-.4-.29-.35 0-.36.2-.42.4-.24.87-.5.95-1.43.95H4.47l.66-2.6c.1-.35 0-.3.42-.3h1.93c1.46 0 1.75.24 1.75 1.23 0 .3-.04.62-.04.68 0 .1.03.32.39.32.4 0 .4-.25.42-.4zm0 0"/></symbol></defs><use height="100%" width="100%" y="146.17" x="150.16" xlink:href="#a" transform="translate(-1.34)"/><path d="M0 150.5h310" fill="none" stroke="#000" stroke-width="2" stroke-miterlimit="10"/><g transform="translate(-1.34)"><use height="100%" width="100%" y="166.97" x="37.8" xlink:href="#b"/><use height="100%" width="100%" y="166.97" x="53.42" xlink:href="#c"/><use height="100%" width="100%" y="166.97" x="61.68" xlink:href="#d"/><use height="100%" width="100%" y="166.97" x="70.32" xlink:href="#e"/><use height="100%" width="100%" y="166.97" x="80.77" xlink:href="#f"/><use height="100%" width="100%" y="166.97" x="88.92" xlink:href="#g"/><use height="100%" width="100%" y="166.97" x="95.79" xlink:href="#d"/><use height="100%" width="100%" y="166.97" x="104.42" xlink:href="#h"/></g><g transform="translate(-1.34)"><use height="100%" width="100%" y="166.42" x="207.03" xlink:href="#i"/><use height="100%" width="100%" y="166.42" x="219.1" xlink:href="#j"/><use height="100%" width="100%" y="166.42" x="229.44" xlink:href="#c"/><use height="100%" width="100%" y="166.42" x="237.7" xlink:href="#k"/><use height="100%" width="100%" y="166.42" x="252.75" xlink:href="#l"/></g><path d="M50 145.5v-50h50v50zm150 5V.5h66v150zm-125-30H30" fill="none" stroke="#000" stroke-miterlimit="10"/><use height="100%" width="100%" y="124.4" x="3.32" xlink:href="#m" transform="translate(-1.34)"/><use height="100%" width="100%" y="128.6" x="15.48" xlink:href="#n" transform="translate(-1.34)"/><path d="M233 75.5h53" fill="none" stroke="#000" stroke-miterlimit="10"/><use height="100%" width="100%" y="79.45" x="291.16" xlink:href="#m" transform="translate(-1.34)"/><use height="100%" width="100%" y="83.65" x="303.31" xlink:href="#o" transform="translate(-1.34)"/><path d="M233 45.5h53" fill="none" stroke="#000" stroke-miterlimit="10"/><use height="100%" width="100%" y="51.12" x="291.16" xlink:href="#p" transform="translate(-1.34)"/><path d="M75 120.5l158-75" fill="none" stroke="#000" stroke-miterlimit="10" stroke-dasharray="1,.99628"/><path d="M75 120.5c17.77-16.87 79-75 151.44-75" fill="none" stroke="#000" stroke-width="1.5" stroke-miterlimit="10"/><path d="M233 45.5a26.39 26.39 0 0 1-7.29-2.73v5.46A26.53 26.53 0 0 1 233 45.5"/><path d="M105 145.5h40m-10-5.2v-9.8" fill="none" stroke="#000" stroke-miterlimit="10"/><path d="M135 145.5a20.9 20.9 0 0 1 2.17-5.79h-4.34a21.02 21.02 0 0 1 2.17 5.79"/><path d="M135 155.71v9.79" fill="none" stroke="#000" stroke-miterlimit="10"/><path d="M135 150.5a21 21 0 0 1-2.17 5.8h4.34a20.87 20.87 0 0 1-2.17-5.8m-58-30a2 2 0 1 0-4 0 2 2 0 0 0 4 0zm158-45a2 2 0 1 0-4 0 2 2 0 0 0 4 0zm0-30a2 2 0 1 0-4 0 2 2 0 0 0 4 0zm0 0"/></svg>