<svg xmlns="http://www.w3.org/2000/svg" width="412.83" height="222.62"><defs><style>.g,.h{fill:none;stroke-miterlimit:10}.g{stroke:#000}.h{stroke:gray}.i{fill:gray;opacity:.2}</style><clipPath id="a" transform="translate(-169.12 -173.07)"><path fill="none" d="M165.34 169.75h417.61v225.94H165.34z"/></clipPath></defs><g clip-path="url(#a)"><path fill="#f2e5d9" d="M12.83 172.62h400v50h-400z"/><path fill="#cfc" d="M12.83 157.62h400v15h-400z"/><path stroke-miterlimit="10" stroke="#c96" stroke-width="2" fill="none" d="M12.83 172.62h400"/><path stroke="#80ff80" stroke-miterlimit="10" fill="none" d="M12.83 157.62h400"/><path class="g" d="M12.83 167.41v-4.58"/><path d="M12.83 172.62a21 21 0 0 1 2.17-5.79h-4.34a21 21 0 0 1 2.17 5.79M12.83 157.62a21 21 0 0 1-2.17 5.79H15a21 21 0 0 1-2.17-5.79M7.17 168.78c0-.12.1-.17.29-.17s.27 0 .27.14c0 .39-.26 1.75-.26 2.24 0 .22-.07.31-.27.31h-7c-.22 0-.24-.12-.24-.27a.34.34 0 0 1 .19-.27 22.78 22.78 0 0 0 4.57-4.71 6.71 6.71 0 0 0 1.07-3.74c0-1.51-.44-2.53-2-2.53a2 2 0 0 0-1.92 2.11 1.45 1.45 0 0 0 .82 1.41.15.15 0 0 1 .08.12c0 .15-.27.54-.9.54-.92 0-1.45-.82-1.45-1.78a3.32 3.32 0 0 1 3.54-3.23c2.16 0 3.55 1.19 3.55 3.28a6.64 6.64 0 0 1-1.67 4.08 26.25 26.25 0 0 1-3.76 3.54l4-.05a1 1 0 0 0 1.09-1.02z"/><path class="i" d="M80.83 20.62h64v72h-64z"/><path class="h" d="M80.83 20.62h64v72h-64z"/><circle cx="112.83" cy="56.62" r="2"/><path d="M115.88 51.24c0 .68.14.92 1.21.92.08 0 .12.17.12.29s-.07.36-.17.36c-.66 0-1.24-.07-2.07-.07h-2.12c-.12 0-.15-.12-.15-.29s0-.32.15-.32c1 0 1.39-.2 1.39-.87v-3.03h-1.44c-.44 0-1.29 0-1.77-.07a10.56 10.56 0 0 0-1.65 3.33c0 .49.32.63 1.05.63.12 0 .14.17.14.32s-.05.31-.15.31-1.31-.05-2-.05-1.5.07-1.72.07-.15-.07-.15-.31 0-.34.12-.34c.66 0 1-.27 1.63-1.21.36-.54 6.36-9.84 6.6-10.28a.7.7 0 0 1 .58-.22c.19 0 .42.05.42.27zm-4.45-3.74h2.81c0-1.75.07-3.45.15-4.76-.62 1.07-2.25 3.52-2.98 4.76zM85.15 12.66c-.1 0-.12-.1-.12-.31s0-.32.12-.32c1.21 0 1.56-.39 1.85-1.34l2.45-8.19c.25-.85 0-1.33-1.46-1.33-.08 0-.12-.1-.12-.29s.05-.34.15-.34c.42 0 1.24.09 2.6.09.58 0 1.48-.07 2.48-.07 2.89 0 5.12 1.68 5.12 5s-2.06 7.16-7.8 7.16c-1.46 0-2-.08-2.77-.08-1.33-.03-2.09.02-2.5.02zm7.84-11.37a9.71 9.71 0 0 0-1.5.1c-1.14 4-2.79 8.91-2.79 9.64s.1 1 1.7 1c3.62 0 5.92-3 5.92-6.8 0-2.38-.94-3.94-3.33-3.94zM101.2 12.93a1.35 1.35 0 0 1-1.51-1.43 7.65 7.65 0 0 1 .78-3 9 9 0 0 0 .85-2.7.27.27 0 0 0-.29-.31c-.51 0-1.19.73-1.6 1.84a.15.15 0 0 1-.14.09c-.12 0-.36-.1-.31-.27.34-1.19 1.44-2.52 2.65-2.52.68 0 1 .27 1 1a10.08 10.08 0 0 1-.88 3.18 7.87 7.87 0 0 0-.75 2.77c0 .44.19.63.61.63.9 0 2.36-1.43 3-3 .32-.83 1.31-3.86 1.41-4.44 0-.1.2-.2.48-.2s.82.12.82.29a2.88 2.88 0 0 1-.15.75l-.9 2.92a21 21 0 0 0-.85 3.13c0 .36.12.46.29.46.51 0 1.19-.73 1.6-1.84a.15.15 0 0 1 .14-.08c.12 0 .36.1.31.27a3.14 3.14 0 0 1-2.67 2.45c-.61 0-.83-.48-.83-1.09a5.44 5.44 0 0 1 .22-1.27 4.15 4.15 0 0 1-3.28 2.37zM114.65 6.66c-.41 0-.66-.24-.75-.71s-.2-.65-.58-.65c-1 0-3.16 3-3.16 5.66 0 1 .51 1.21 1 1.21.92 0 1.68-.66 2.4-2 .05-.08.1-.15.2-.15s.37.15.31.34c-.68 1.8-1.89 2.63-3.2 2.63a2 2 0 0 1-2.18-2.16c0-3.38 2.77-6.24 4.86-6.24 1.36 0 1.78.56 1.78 1.27a.74.74 0 0 1-.68.8zM122.11 4.55a.9.9 0 0 1 1 1 .87.87 0 0 1-.85 1 .55.55 0 0 1-.54-.58c0-.22-.1-.32-.34-.32a7.82 7.82 0 0 0-2.8 2.46c1.39.07 1.82 1.19 2 3.23.05.53.1.71.34.71s1-.58 1.36-1.85c0-.05 0-.08.12-.08s.36.12.31.31c-.49 1.82-1.6 2.53-2.4 2.53s-1.1-.51-1.1-1.89c0-1.94-.2-2.48-.68-2.48-.22 0-.42.08-.59.53-.29.78-.92 3-1 3.45 0 .1-.2.2-.48.2s-.82-.12-.82-.29a2.29 2.29 0 0 1 .15-.75l3.33-10.71a3.3 3.3 0 0 0-1-.12c-.08 0-.12-.1-.12-.32s0-.31.14-.31a11.78 11.78 0 0 0 2.4-.27c.22 0 .36.05.36.26a.83.83 0 0 1-.05.25c-.59 1.61-1.78 4.79-2.6 7.33 1.24-1.77 2.92-3.29 3.86-3.29zM125.42 9.18a6.92 6.92 0 0 0-.29 1.73c0 .88.37 1.27 1.09 1.27a3 3 0 0 0 2.41-1.92c.05-.14.07-.17.19-.17s.37.1.32.27a3.57 3.57 0 0 1-3.4 2.58 2.06 2.06 0 0 1-2.06-2.16c0-3.13 2.69-6.24 5.25-6.24 1.05 0 1.46.56 1.46 1.33.01 1.25-1.67 2.49-4.97 3.31zm3.3-3.91c-1 0-2.33 1.19-3.09 3.3 2.23-.63 3.62-1.67 3.62-2.77a.48.48 0 0 0-.53-.53zM136.07 12.93c-.61 0-.8-.44-.8-1.16a4.56 4.56 0 0 1 .05-.68 3.34 3.34 0 0 1-2.64 1.84 1.93 1.93 0 0 1-2.06-2.14c0-2.86 2.63-6.26 5-6.26a1.35 1.35 0 0 1 1.36.73l1.34-4.27a3.29 3.29 0 0 0-1-.12c-.08 0-.12-.1-.12-.32s0-.31.14-.31a11.78 11.78 0 0 0 2.4-.27c.22 0 .36.05.36.26a.84.84 0 0 1-.05.25c-.93 2.53-2.91 8.6-3.59 10.91a1.16 1.16 0 0 0 0 .31.27.27 0 0 0 .29.31c.51 0 1.19-.73 1.6-1.84a.15.15 0 0 1 .14-.08c.12 0 .36.1.31.27-.47 1.2-1.43 2.57-2.73 2.57zm-.46-7.67c-1.51 0-3.52 3.48-3.52 5.95 0 .58.2 1 .83 1 1.1 0 2-1.21 2.74-2.91a10.64 10.64 0 0 0 .83-3.18c0-.53-.19-.89-.88-.89z"/><path class="i" d="M200.83 21.12h64v144h-64z"/><path class="h" d="M200.83 21.12h64v144h-64z"/><circle cx="232.83" cy="93.12" r="2"/><path d="M227.07 89.27c-.1 0-.12-.1-.12-.31s0-.32.12-.32c1.21 0 1.56-.39 1.85-1.34l2.45-8.19c.25-.85 0-1.33-1.46-1.33-.08 0-.12-.1-.12-.29s.05-.34.15-.34c.42 0 1.14.08 2.5.08.66 0 1.55-.08 2.43-.08 2.19 0 3.25.93 3.25 2.38s-1.22 2.75-3.42 3.33a2.93 2.93 0 0 1 2.62 2.86c0 1.8-1.51 3.59-5.24 3.59-1 0-1.61-.08-2.69-.08s-1.91.04-2.32.04zm5.81-6.07a7.54 7.54 0 0 0-1 .07 41.39 41.39 0 0 0-1.31 4.5c0 .53.37.85 1.67.85a3 3 0 0 0 3.16-3.18c-.02-1.19-.42-2.24-2.52-2.24zm-.82-.66h.75c2.29 0 3.48-1.31 3.48-3.13 0-1-.48-1.67-1.75-1.67a3.86 3.86 0 0 0-1.07.15zM206.88 8.79V7.24h8.65v1.55zM223.88 11.93a3.06 3.06 0 0 1-1.11 1.25 2.93 2.93 0 0 1-1.59.45 2.76 2.76 0 0 1-2.23-.93 3.89 3.89 0 0 1-.79-2.6V7.58a3.3 3.3 0 0 1 1.05-2.61 4.29 4.29 0 0 1 2.94-.93 5.61 5.61 0 0 1 1.11.12 6.48 6.48 0 0 1 1.08.32V1.11h1.54v12.32h-1.55v-1.5zm-2.32.23a2.78 2.78 0 0 0 1.44-.4 5.18 5.18 0 0 0 1.34-1.22V5.93a3.9 3.9 0 0 0-1-.44 4.42 4.42 0 0 0-1.16-.15 2.69 2.69 0 0 0-1.85.55 2.14 2.14 0 0 0-.6 1.66v2.49a2.23 2.23 0 0 0 .46 1.55 1.78 1.78 0 0 0 1.35.53zM231.96 13.58a2.85 2.85 0 0 1-2.17-.87 3.2 3.2 0 0 1-.83-2.29V4.16h1.55v6a2.2 2.2 0 0 0 .45 1.51 1.77 1.77 0 0 0 1.38.49 2.81 2.81 0 0 0 1.41-.39 5.48 5.48 0 0 0 1.4-1.23V4.2h1.55v9.27h-1.55v-1.54h-.46a2.68 2.68 0 0 1-1.07 1.23 3 3 0 0 1-1.66.42zM243.88 13.58a4.55 4.55 0 0 1-3.05-.89 3.27 3.27 0 0 1-1-2.62v-2.5a3.36 3.36 0 0 1 1-2.67 4.47 4.47 0 0 1 3-.9 4.18 4.18 0 0 1 2.76.81 3.24 3.24 0 0 1 1.07 2.37l-1.51.09a1.89 1.89 0 0 0-.63-1.42 2.65 2.65 0 0 0-1.7-.46 2.83 2.83 0 0 0-1.89.53 2.06 2.06 0 0 0-.62 1.65v2.5a2 2 0 0 0 .63 1.59 2.92 2.92 0 0 0 1.91.53 3 3 0 0 0 1.68-.39 1.45 1.45 0 0 0 .62-1.18l1.51.09a2.81 2.81 0 0 1-1.07 2.15 4.49 4.49 0 0 1-2.71.72zM252.88 9.23v4.2h-1.55V1.07h1.55v6.86h.79l3-3.76h1.89l-3.68 4.31 3.59 5h-1.76l-3-4.2z"/><path class="g" d="M112.83 56.62L227.84 91.6"/><path d="M232.83 93.12a21 21 0 0 1-4.91-3.77l-1.27 4.16a21 21 0 0 1 6.18-.39"/><path class="i" d="M270.83 28.62h64v144h-64z"/><path class="h" d="M270.83 28.62h64v144h-64z"/><circle cx="302.83" cy="100.62" r="2"/><path d="M280.42 17.25v-4h-3.54V11.7h3.55v-4h1.55v4h3.55v1.55h-3.55v4zM290.59 21.08a10 10 0 0 1-1.17-.07 7.33 7.33 0 0 1-1.25-.27l.31-1.48a5.53 5.53 0 0 0 1.07.27 7.26 7.26 0 0 0 1 .07 2.81 2.81 0 0 0 1.62-.42 1.59 1.59 0 0 0 .62-1.41V10h-4.33V8.61h5.87v9.32a2.7 2.7 0 0 1-1.07 2.36 4.48 4.48 0 0 1-2.67.79zm2.92-14.15a2.1 2.1 0 0 1-1-.19.71.71 0 0 1-.36-.7v-.11a.74.74 0 0 1 .36-.72 2.44 2.44 0 0 1 1.9 0 .74.74 0 0 1 .36.72v.11a.7.7 0 0 1-.37.7 2.11 2.11 0 0 1-.89.19zM301.96 18.02a2.85 2.85 0 0 1-2.17-.87 3.2 3.2 0 0 1-.83-2.29V8.6h1.55v6a2.2 2.2 0 0 0 .45 1.51 1.77 1.77 0 0 0 1.38.49 2.81 2.81 0 0 0 1.41-.39 5.48 5.48 0 0 0 1.4-1.23V8.64h1.55v9.27h-1.55v-1.55h-.46a2.68 2.68 0 0 1-1.07 1.23 3 3 0 0 1-1.66.43zM310.58 11.22v6.65h-1.42V8.6h1.42v1.24h.3a2.62 2.62 0 0 1 .77-1 1.62 1.62 0 0 1 1-.37 1.47 1.47 0 0 1 1 .36 1.91 1.91 0 0 1 .56 1h.34a2.52 2.52 0 0 1 .8-1 1.77 1.77 0 0 1 1.07-.37 1.42 1.42 0 0 1 1.22.63 2.85 2.85 0 0 1 .45 1.69v7.11h-1.42v-6.86a2.33 2.33 0 0 0-.19-1.05.58.58 0 0 0-.54-.36 1.21 1.21 0 0 0-.73.43 5.85 5.85 0 0 0-.89 1.19v6.65h-1.42v-6.86a2.25 2.25 0 0 0-.19-1.05.6.6 0 0 0-.55-.36 1.12 1.12 0 0 0-.72.42 6.78 6.78 0 0 0-.86 1.18zM324.34 18.02a5.65 5.65 0 0 1-1.11-.12 6.33 6.33 0 0 1-1.09-.32v3.35h-1.54V8.6h1.54v1.55h.46a3 3 0 0 1 2.71-1.7 2.75 2.75 0 0 1 2.2 1 3.83 3.83 0 0 1 .81 2.57v2.52a3.28 3.28 0 0 1-1.07 2.59 4.24 4.24 0 0 1-2.91.89zm0-1.36a2.75 2.75 0 0 0 1.88-.53 2.17 2.17 0 0 0 .58-1.68v-2.52a2.27 2.27 0 0 0-.44-1.55 1.82 1.82 0 0 0-1.48-.45 2.81 2.81 0 0 0-1.44.39 5 5 0 0 0-1.34 1.24v4.54a4 4 0 0 0 1 .44 4.35 4.35 0 0 0 1.22.12z"/><path class="g" d="M302.83 100.62V75.83"/><path d="M302.83 70.62a21 21 0 0 1-2.17 5.79H305a21 21 0 0 1-2.17-5.79M307.81 108.56c0 .12-.12.17-.25.17s-.39-.07-.39-.19v-.75c0-1.78-.8-2.55-2.21-2.55-2.89 0-5.25 4.49-5.25 8 0 1.77.6 3.16 2.4 3.16 2.07 0 3.37-1.43 4-3.35.05-.14.15-.15.27-.15s.43.08.36.27a19.74 19.74 0 0 0-.8 3.48c0 .1-.12.17-.34.17s-.29 0-.29-.15-.1-.49-.29-.49a.71.71 0 0 0-.42.15 5 5 0 0 1-2.6.85c-2.89 0-4.2-2-4.2-4.47 0-3.65 3-8.23 7.19-8.23a2.76 2.76 0 0 1 2.19.92.52.52 0 0 0 .29.17c.15 0 .32-.15.37-.41s.14-.14.27-.14.36.08.36.24a18.34 18.34 0 0 0-.66 3.3zM301.4 60.62c-.92 1.46-2 2.21-3.16 2.21a2.16 2.16 0 0 1-2.16-2.23 7.41 7.41 0 0 1 .32-1.94l.58-2a3.44 3.44 0 0 0 .17-.78c0-.34-.31-.49-1-.49h-.27l.05-.61 3.14-.25-1.16 3.93a7.11 7.11 0 0 0-.41 2.11 1.22 1.22 0 0 0 1.12 1.33c.88 0 1.84-.85 2.5-2.23a7 7 0 0 0 .75-2.53c0-.37-.07-.51-.48-1a1.13 1.13 0 0 1-.36-.78.82.82 0 0 1 .76-.85 1.21 1.21 0 0 1 1.09 1.42 10.33 10.33 0 0 1-1.48 4.69zM308.16 62.93a6.76 6.76 0 0 1-2 1.57 4.3 4.3 0 0 0-1.44 1.06 2 2 0 0 1 .58-.11 3.13 3.13 0 0 1 1.2.29 2.84 2.84 0 0 0 .8.19c.39 0 .7-.33 1-1.07l.42.14c-.37 1.12-1.12 1.83-1.93 1.83a3.37 3.37 0 0 1-1.42-.38c-.77-.37-.77-.37-.92-.37s-.11 0-.11.2c0 .35-.13.55-.36.55a.26.26 0 0 1-.29-.29 2.82 2.82 0 0 1 .86-1.52 9.84 9.84 0 0 1 2.7-2 3.7 3.7 0 0 0 .88-.71 2.44 2.44 0 0 1-.61.1 2.55 2.55 0 0 1-1.09-.24 3.47 3.47 0 0 0-.71-.17c-.3 0-.61.3-1 1l-.39-.2c.57-1.12 1.2-1.65 2-1.65a2.19 2.19 0 0 1 1 .33 2.16 2.16 0 0 0 .86.27c.17 0 .24-.06.31-.31s.15-.3.29-.3a.27.27 0 0 1 .29.27 3.47 3.47 0 0 1-.92 1.52z"/></g></svg>