<svg xmlns="http://www.w3.org/2000/svg" width="395.11" height="270.58"><defs><style>.d,.g{fill:none}.c{fill:#ccc}.d,.g{stroke:gray;stroke-miterlimit:10}.e,.f{fill:#f2f2f2}.f,.g{opacity:.7}</style><clipPath id="a" transform="translate(-116.95 -160.36)"><path fill="none" d="M112.8 157.03h404.3v273.19H112.8z"/></clipPath></defs><g clip-path="url(#a)"><path class="c" d="M38.33 232.41h95.99l-36.95 36.96h-96l36.96-36.96z"/><path class="d" d="M38.33 232.41h95.99l-36.95 36.96h-96l36.96-36.96z"/><path class="e" d="M38.33 16.41h96v216h-96z"/><path class="d" d="M38.33 16.41h96v216h-96z"/><path class="e" d="M38.33 232.41L1.37 269.37v-216l36.96-36.96v216z"/><path class="d" d="M38.33 232.41L1.37 269.37v-216l36.96-36.96v216z"/><path class="f" d="M134.32 232.41l-36.95 36.96v-216l36.95-36.96v216z"/><path class="g" d="M134.32 232.41l-36.95 36.96v-216l36.95-36.96v216z"/><path class="f" d="M38.33 16.41h95.99L97.37 53.37h-96l36.96-36.96z"/><path class="g" d="M38.33 16.41h95.99L97.37 53.37h-96l36.96-36.96z"/><path class="f" d="M1.37 53.37h96v216h-96z"/><path class="g" d="M1.37 53.37h96v216h-96z"/><path d="M79.05 3.82a1.27 1.27 0 0 1-1.17-1.41c0-1.07 1.07-2.41 3.54-2.41 1.87 0 3 1.12 3 2.46s-1.21 2.52-3.11 3.3a3.3 3.3 0 0 1 3.6 3.37c0 2-1.65 3.47-4.32 3.47-1.82 0-2.94-.9-2.94-1.94a.8.8 0 0 1 .83-.82.64.64 0 0 1 .7.65 1.42 1.42 0 0 0 1.58 1.36c1.38 0 2.36-1 2.36-2.72s-.7-2.8-2.35-2.8c-1 0-1 .83-1.68.83a.42.42 0 0 1-.44-.42.82.82 0 0 1 .56-.65c1.92-.73 3.55-1.43 3.55-3.62A1.54 1.54 0 0 0 81.05.74a1.67 1.67 0 0 0-1.8 1.68 1.7 1.7 0 0 0 .31 1 .23.23 0 0 1 .05.14c.04.14-.14.26-.56.26zM93.4 9.84c0-.12.1-.17.29-.17s.27 0 .27.14c0 .39-.26 1.75-.26 2.24 0 .22-.07.31-.27.31h-7c-.22 0-.24-.12-.24-.27a.34.34 0 0 1 .19-.27 22.78 22.78 0 0 0 4.57-4.71 6.71 6.71 0 0 0 1.07-3.74c0-1.51-.44-2.53-2-2.53a2 2 0 0 0-1.92 2.11 1.46 1.46 0 0 0 .82 1.41.15.15 0 0 1 .08.12c0 .15-.27.54-.9.54-.92 0-1.44-.82-1.44-1.78A3.32 3.32 0 0 1 90.2.01c2.16 0 3.55 1.19 3.55 3.28a6.64 6.64 0 0 1-1.67 4.08 26.27 26.27 0 0 1-3.76 3.54l4-.05a1 1 0 0 0 1.08-1.02zM140.93 118.47H146c.07 0 .17.15.17.32a52.81 52.81 0 0 0-2.09 5.61 33.46 33.46 0 0 0-1.5 5.64c0 .58-.42.7-.92.7s-.82-.12-.82-.66c0-1 1.12-3.74 2.19-6.14 1-2.14 1.56-3.31 2-4-.85.05-2.6.05-4.06.05-.83 0-1.09.37-1.33 1.26 0 .05-.08.07-.14.07s-.34-.08-.34-.15a15.57 15.57 0 0 0 .53-2.52c0-.17.08-.27.19-.27a4 4 0 0 0 1.05.09zM154.65 127.95c0-.12.1-.17.29-.17s.27 0 .27.14c0 .39-.26 1.75-.26 2.24 0 .22-.07.31-.27.31h-7c-.22 0-.24-.12-.24-.27a.34.34 0 0 1 .19-.27 22.78 22.78 0 0 0 4.57-4.71 6.71 6.71 0 0 0 1.07-3.74c0-1.51-.44-2.53-2-2.53a2 2 0 0 0-1.92 2.11 1.45 1.45 0 0 0 .82 1.41.15.15 0 0 1 .08.12c0 .15-.27.54-.9.54-.92 0-1.44-.82-1.44-1.78a3.32 3.32 0 0 1 3.54-3.23c2.16 0 3.55 1.19 3.55 3.28a6.64 6.64 0 0 1-1.67 4.08 26.25 26.25 0 0 1-3.76 3.54l4-.05a1 1 0 0 0 1.08-1.02zM1.36 24.29a1.27 1.27 0 0 1-1.17-1.41c0-1.07 1.07-2.41 3.54-2.41 1.87 0 3 1.12 3 2.46s-1.21 2.52-3.11 3.3a3.3 3.3 0 0 1 3.6 3.37c0 2-1.65 3.47-4.32 3.47-1.82 0-2.94-.9-2.94-1.94a.8.8 0 0 1 .83-.82.64.64 0 0 1 .7.65 1.42 1.42 0 0 0 1.58 1.36c1.38 0 2.36-1 2.36-2.72s-.7-2.8-2.35-2.8c-1 0-1 .83-1.68.83a.42.42 0 0 1-.44-.42.82.82 0 0 1 .56-.65c1.92-.73 3.55-1.43 3.55-3.62a1.54 1.54 0 0 0-1.75-1.72 1.67 1.67 0 0 0-1.8 1.68 1.7 1.7 0 0 0 .31 1 .23.23 0 0 1 .05.14c.04.13-.15.25-.52.25zM15.67 30.31c0-.12.1-.17.29-.17s.27 0 .27.14c0 .39-.26 1.75-.26 2.24 0 .22-.07.31-.27.31h-7c-.22 0-.24-.12-.24-.27a.34.34 0 0 1 .19-.27 22.78 22.78 0 0 0 4.57-4.71 6.71 6.71 0 0 0 1.07-3.74c0-1.51-.44-2.53-2-2.53a2 2 0 0 0-1.92 2.11 1.46 1.46 0 0 0 .82 1.41.15.15 0 0 1 .08.12c0 .15-.27.54-.9.54-.92 0-1.44-.82-1.44-1.78a3.32 3.32 0 0 1 3.54-3.23c2.16 0 3.55 1.19 3.55 3.28a6.64 6.64 0 0 1-1.67 4.08 26.27 26.27 0 0 1-3.76 3.54l4-.05a1 1 0 0 0 1.08-1.02z"/><path class="c" d="M278.33 232.41h95.99l-36.95 36.96h-96l36.96-36.96z"/><path class="d" d="M278.33 232.41h95.99l-36.95 36.96h-96l36.96-36.96z"/><path class="e" d="M278.33 124.41h96v108h-96z"/><path class="d" d="M278.33 124.41h96v108h-96z"/><path class="e" d="M278.33 232.41l-36.96 36.96v-108l36.96-36.96v108z"/><path class="d" d="M278.33 232.41l-36.96 36.96v-108l36.96-36.96v108z"/><path class="f" d="M374.32 232.41l-36.95 36.96v-108l36.95-36.96v108z"/><path class="g" d="M374.32 232.41l-36.95 36.96v-108l36.95-36.96v108z"/><path class="f" d="M278.33 124.41h95.99l-36.95 36.96h-96l36.96-36.96z"/><path class="g" d="M278.33 124.41h95.99l-36.95 36.96h-96l36.96-36.96z"/><path class="f" d="M241.37 161.37h96v108h-96z"/><path class="g" d="M241.37 161.37h96v108h-96z"/><path d="M319.05 111.82a1.27 1.27 0 0 1-1.17-1.41c0-1.07 1.07-2.41 3.54-2.41 1.87 0 3 1.12 3 2.46s-1.21 2.52-3.11 3.3a3.3 3.3 0 0 1 3.6 3.37c0 2-1.65 3.47-4.32 3.47-1.82 0-2.94-.9-2.94-1.94a.8.8 0 0 1 .83-.82.64.64 0 0 1 .7.65 1.42 1.42 0 0 0 1.58 1.36c1.38 0 2.36-1 2.36-2.72s-.7-2.8-2.35-2.8c-1 0-1 .83-1.68.83a.42.42 0 0 1-.44-.42.82.82 0 0 1 .56-.65c1.92-.73 3.55-1.43 3.55-3.62a1.54 1.54 0 0 0-1.71-1.73 1.67 1.67 0 0 0-1.8 1.68 1.7 1.7 0 0 0 .31 1 .23.23 0 0 1 .05.14c.04.14-.15.26-.56.26zM333.4 117.83c0-.12.1-.17.29-.17s.27 0 .27.14c0 .39-.26 1.75-.26 2.24 0 .22-.07.31-.27.31h-7c-.22 0-.24-.12-.24-.27a.34.34 0 0 1 .19-.27 22.78 22.78 0 0 0 4.57-4.71 6.71 6.71 0 0 0 1.07-3.74c0-1.51-.44-2.53-2-2.53a2 2 0 0 0-1.92 2.11 1.46 1.46 0 0 0 .82 1.41.15.15 0 0 1 .08.12c0 .15-.27.54-.9.54-.92 0-1.44-.82-1.44-1.78a3.32 3.32 0 0 1 3.54-3.23c2.16 0 3.55 1.19 3.55 3.28a6.64 6.64 0 0 1-1.67 4.08 26.27 26.27 0 0 1-3.76 3.54l4-.05a1 1 0 0 0 1.08-1.02zM380.33 175.93a1.27 1.27 0 0 1-1.17-1.41c0-1.07 1.07-2.41 3.54-2.41 1.87 0 3 1.12 3 2.46s-1.21 2.52-3.11 3.3a3.3 3.3 0 0 1 3.6 3.37c0 2-1.65 3.47-4.32 3.47-1.82 0-2.94-.9-2.94-1.94a.8.8 0 0 1 .83-.82.64.64 0 0 1 .7.65 1.42 1.42 0 0 0 1.58 1.36c1.38 0 2.36-1 2.36-2.72s-.7-2.8-2.35-2.8c-1 0-1 .83-1.68.83a.42.42 0 0 1-.44-.42.82.82 0 0 1 .56-.65c1.92-.73 3.55-1.43 3.55-3.62a1.54 1.54 0 0 0-1.75-1.72 1.67 1.67 0 0 0-1.8 1.68 1.7 1.7 0 0 0 .31 1 .23.23 0 0 1 .05.14c.05.14-.14.25-.52.25zM391.78 177.01c2.12 0 3.33 1.67 3.33 3.76a3.79 3.79 0 0 1-3.64 3.94c-2.24 0-3.69-2.07-3.69-5.44 0-4.33 1.92-7.16 4.66-7.16 1.65 0 2.5 1 2.5 1.82a.69.69 0 0 1-.7.73.66.66 0 0 1-.68-.65c0-.9-.53-1.14-1.24-1.14-1.5 0-2.65 1.48-2.82 5.56a2.28 2.28 0 0 1 2.28-1.42zm-2.26 3.23c0 2.82.66 3.86 1.94 3.86 1.48 0 2-1.26 2-2.84 0-2.48-.6-3.55-2-3.55s-1.95 1.22-1.95 2.53zM241.36 132.29a1.27 1.27 0 0 1-1.17-1.41c0-1.07 1.07-2.41 3.54-2.41 1.87 0 3 1.12 3 2.46s-1.21 2.52-3.11 3.3a3.3 3.3 0 0 1 3.6 3.37c0 2-1.65 3.47-4.32 3.47-1.82 0-2.94-.9-2.94-1.94a.8.8 0 0 1 .83-.82.64.64 0 0 1 .7.65 1.42 1.42 0 0 0 1.58 1.36c1.38 0 2.36-1 2.36-2.72s-.7-2.8-2.35-2.8c-1 0-1 .83-1.68.83a.42.42 0 0 1-.44-.42.82.82 0 0 1 .56-.65c1.92-.73 3.55-1.43 3.55-3.62a1.54 1.54 0 0 0-1.75-1.72 1.67 1.67 0 0 0-1.8 1.68 1.7 1.7 0 0 0 .31 1 .22.22 0 0 1 .05.14c.04.13-.15.25-.52.25zM255.67 138.31c0-.12.1-.17.29-.17s.27 0 .27.14c0 .39-.26 1.75-.26 2.24 0 .22-.07.31-.27.31h-7c-.22 0-.24-.12-.24-.27a.34.34 0 0 1 .19-.27 22.77 22.77 0 0 0 4.57-4.71 6.71 6.71 0 0 0 1.07-3.74c0-1.51-.44-2.53-2-2.53a2 2 0 0 0-1.92 2.11 1.46 1.46 0 0 0 .82 1.41.15.15 0 0 1 .08.12c0 .15-.27.54-.9.54-.92 0-1.44-.82-1.44-1.79a3.32 3.32 0 0 1 3.54-3.23c2.16 0 3.55 1.19 3.55 3.28a6.64 6.64 0 0 1-1.67 4.08 26.29 26.29 0 0 1-3.76 3.54l4-.05a1 1 0 0 0 1.08-1.01z"/></g></svg>