<svg xmlns="http://www.w3.org/2000/svg" xmlns:xlink="http://www.w3.org/1999/xlink" version="1.2" height="269.1" width="364.42"><defs><symbol id="e" overflow="visible"><path d="M7.94-2.98c0-1.32-.92-2.6-2.57-3.08 1.25-.57 2.11-1.69 2.11-2.96 0-1.45-1.57-2.43-3.3-2.43C2.37-11.45 1-10.4 1-9.05c0 .6.42 1 1.05 1 .65 0 1.03-.45 1.03-.98 0-.7-.56-.9-.96-.95.54-.61 1.47-.8 1.99-.8.6 0 1.47.3 1.47 1.75a4 4 0 0 1-.47 1.87c-.47.77-.99.79-1.38.8h-.01c-.11.02-.55.05-.63.05h-.03c-.14.01-.39.08-.39.33 0 .3.3.32.58.32H4c1.22 0 1.84 1 1.84 2.64C5.84-.75 4.7-.36 4.1-.36c-.62 0-1.73-.23-2.32-1.02a1.04 1.04 0 0 0 1.01-1.06c0-.64-.5-1.06-1.1-1.06-.52 0-1.13.3-1.13 1.1C.55-.8 2.19.38 4.15.38c2.2 0 3.79-1.59 3.79-3.35zm0 0"/></symbol><symbol id="f" overflow="visible"><path d="M4.1-3.1c2.63-2.3 3.7-3.24 3.7-4.98 0-1.95-1.58-3.37-3.77-3.37A3.26 3.26 0 0 0 .7-8.27c0 1.05.98 1.08 1.06 1.08.4 0 1.06-.28 1.06-1.04 0-.46-.31-.99-1.06-1a2.25 2.25 0 0 1 2.06-1.44c1.38 0 2.11 1.23 2.11 2.6 0 1.32-.84 2.62-1.75 3.65L.91-.82c-.2.21-.22.3-.22.7V0H7.3l.02-.13.47-2.92.01-.12h-.75l-.03.1c-.08.48-.2 1.18-.33 1.41-.18.08-1.14.1-1.48.1H2.5zm0 0"/></symbol><symbol id="g" overflow="visible"><path d="M8.42-10.97v-.1H4.11c-2.06 0-1.95-.21-2-.46l-.03-.1h-.72l-.02.11-.56 3.47-.01.16h.76L1.55-8c.04-.27.2-1.25.37-1.45.24-.05 1.35-.07 1.55-.07H6.7L4.94-7.06A11.77 11.77 0 0 0 2.83-.7c0 .14-.05 1.06.95 1.06.99 0 .94-.92.94-1.06v-.84c0-.92.06-1.86.19-2.75.07-.4.3-1.81 1.04-2.83l2.28-3.19c.14-.2.2-.32.2-.67zm0 0"/></symbol><symbol id="l" overflow="visible"><path d="M7.94-3.55c0-2.17-1.53-3.87-3.57-3.87a2.3 2.3 0 0 0-1.96 1.1c.09-3.96 2.07-4.46 2.8-4.46.35 0 .85.08 1.21.44-.36.06-.81.25-.81.87 0 .58.45.9.95.9.36 0 .96-.21.96-.93 0-1.06-.8-1.95-2.33-1.95C2.86-11.45.55-9.2.55-5.44.55-.94 2.53.38 4.27.38c2.03 0 3.67-1.7 3.67-3.93zm-1.88-.01c0 .8 0 1.64-.26 2.2-.5.95-1.2 1-1.53 1-.93 0-1.41-.92-1.52-1.17-.28-.77-.3-2.1-.3-2.4 0-1.32.58-2.85 1.9-2.85.24 0 .93-.05 1.43.95.28.6.28 1.44.28 2.27zm0 0"/></symbol><clipPath id="a"><path d="M0 220h151v52.43H0zm0 0"/></clipPath><clipPath id="b"><path d="M0 4h55v268.43H0zm0 0"/></clipPath><clipPath id="c"><path d="M85 4h66v268.43H85zm0 0"/></clipPath><clipPath id="d"><path d="M3 55h98v217.43H3zm0 0"/></clipPath><clipPath id="h"><path d="M199 220h162v52.43H199zm0 0"/></clipPath><clipPath id="i"><path d="M199 112h66v160.43h-66zm0 0"/></clipPath><clipPath id="j"><path d="M295 112h66v160.43h-66zm0 0"/></clipPath><clipPath id="k"><path d="M199 149h125v123.43H199zm0 0"/></clipPath></defs><path d="M38.16 231.64h96L97.2 268.6h-96zm0 0" fill="#cacaca"/><g clip-path="url(#a)" transform="translate(-2.45 -3.32)"><path d="M40.6 234.97h96l-36.95 36.96h-96zm0 0" fill="none" stroke="#7f7f7f" stroke-miterlimit="10"/></g><path d="M38.16 231.64h96v-216h-96zm0 0" fill="#f0f0f0" stroke="#7f7f7f" stroke-miterlimit="10"/><path d="M38.16 231.64L1.21 268.6v-216l36.95-36.96zm0 0" fill="#f0f0f0"/><g clip-path="url(#b)" transform="translate(-2.45 -3.32)"><path d="M40.6 234.97L3.66 271.93v-216l36.96-36.96zm0 0" fill="none" stroke="#7f7f7f" stroke-miterlimit="10"/></g><path d="M134.16 231.64L97.2 268.6v-216l36.96-36.96zm0 0" fill="#f0f0f0" fill-opacity=".7"/><g clip-path="url(#c)" transform="translate(-2.45 -3.32)"><path d="M136.6 234.97l-36.95 36.96v-216l36.96-36.96zm0 0" fill="none" stroke="#7f7f7f" stroke-miterlimit="10" stroke-opacity=".7"/></g><path d="M38.16 15.64h96L97.2 52.6h-96zm0 0" fill="#f0f0f0" fill-opacity=".7" stroke="#7f7f7f" stroke-miterlimit="10" stroke-opacity=".7"/><path d="M97.2 268.6h-96v-216h96zm0 0" fill="#f0f0f0" fill-opacity=".7"/><g clip-path="url(#d)" transform="translate(-2.45 -3.32)"><path d="M99.65 271.93h-96v-216h96zm0 0" fill="none" stroke="#7f7f7f" stroke-miterlimit="10" stroke-opacity=".7"/></g><g transform="translate(-2.45 -3.32)"><use height="100%" width="100%" y="14.78" x="80.12" xlink:href="#e"/><use height="100%" width="100%" y="14.78" x="88.62" xlink:href="#f"/></g><use height="100%" width="100%" y="132.6" x="140.43" xlink:href="#g" transform="translate(-2.45 -3.32)"/><use height="100%" width="100%" y="132.6" x="149.13" xlink:href="#f" transform="translate(-2.45 -3.32)"/><g transform="translate(-2.45 -3.32)"><use height="100%" width="100%" y="35.25" x="3.32" xlink:href="#e"/><use height="100%" width="100%" y="35.25" x="11.82" xlink:href="#f"/></g><path d="M248.16 231.64h96l-36.95 36.96h-96zm0 0" fill="#cacaca"/><g clip-path="url(#h)" transform="translate(-2.45 -3.32)"><path d="M250.6 234.97h96l-36.95 36.96h-96zm0 0" fill="none" stroke="#7f7f7f" stroke-miterlimit="10"/></g><path d="M248.16 231.64h96v-108h-96zm0 0" fill="#f0f0f0" stroke="#7f7f7f" stroke-miterlimit="10"/><path d="M248.16 231.64l-36.95 36.96v-108l36.95-36.96zm0 0" fill="#f0f0f0"/><g clip-path="url(#i)" transform="translate(-2.45 -3.32)"><path d="M250.6 234.97l-36.95 36.96v-108l36.96-36.96zm0 0" fill="none" stroke="#7f7f7f" stroke-miterlimit="10"/></g><path d="M344.16 231.64l-36.95 36.96v-108l36.95-36.96zm0 0" fill="#f0f0f0" fill-opacity=".7"/><g clip-path="url(#j)" transform="translate(-2.45 -3.32)"><path d="M346.6 234.97l-36.95 36.96v-108l36.96-36.96zm0 0" fill="none" stroke="#7f7f7f" stroke-miterlimit="10" stroke-opacity=".7"/></g><path d="M248.16 123.64h96L307.2 160.6h-96zm0 0" fill="#f0f0f0" fill-opacity=".7" stroke="#7f7f7f" stroke-miterlimit="10" stroke-opacity=".7"/><path d="M307.2 268.6h-96v-108h96zm0 0" fill="#f0f0f0" fill-opacity=".7"/><g clip-path="url(#k)" transform="translate(-2.45 -3.32)"><path d="M309.65 271.93h-96v-108h96zm0 0" fill="none" stroke="#7f7f7f" stroke-miterlimit="10" stroke-opacity=".7"/></g><g transform="translate(-2.45 -3.32)"><use height="100%" width="100%" y="122.78" x="290.11" xlink:href="#e"/><use height="100%" width="100%" y="122.78" x="298.61" xlink:href="#f"/></g><g transform="translate(-2.45 -3.32)"><use height="100%" width="100%" y="186.51" x="350.42" xlink:href="#e"/><use height="100%" width="100%" y="186.51" x="358.92" xlink:href="#l"/></g><g transform="translate(-2.45 -3.32)"><use height="100%" width="100%" y="143.25" x="213.32" xlink:href="#e"/><use height="100%" width="100%" y="143.25" x="221.82" xlink:href="#f"/></g></svg>