<svg xmlns="http://www.w3.org/2000/svg" width="302.54" height="300.04"><defs><style>.a,.b{fill:none;stroke:#000;stroke-miterlimit:10}.b{stroke-dasharray:1 1}.c{fill:#fff}</style></defs><path class="a" d="M90.22 16.73v194.79h194.79"/><path d="M90.22 11.52a21 21 0 0 1-2.17 5.79h4.31a21 21 0 0 1-2.17-5.79M290.22 211.52a21 21 0 0 1-5.79-2.17v4.33a21 21 0 0 1 5.79-2.17M88.6 2.35a.33.33 0 0 1-.37-.31 2.58 2.58 0 0 1 2.23-2 1.63 1.63 0 0 1 1.31.78c.27.31.44.49.73.49s.61-.2 1.12-1a.44.44 0 0 1 .41-.25s.36 0 .36.29-.41.9-2 2.43c-.61.59-1.67 1.46-1.67 1.46-.54.46-1 .87-1.78 1.61h.08a3.32 3.32 0 0 1 1.27.31 2.91 2.91 0 0 0 .92.2 2 2 0 0 0 1.87-1.27.38.38 0 0 1 .38-.41.34.34 0 0 1 .37.29c0 .48-1 2.69-2.84 2.69a1.52 1.52 0 0 1-1.22-.7c-.42-.49-.56-.58-.85-.58a1.84 1.84 0 0 0-1.29 1c-.1.19-.19.29-.42.29 0 0-.37 0-.37-.29a6.73 6.73 0 0 1 1.78-2.21l1.53-1.36c.29-.24 1.51-1.24 2.18-1.94a3.48 3.48 0 0 1-1.06-.19 3.14 3.14 0 0 0-1-.24 1.37 1.37 0 0 0-1.27.68.37.37 0 0 1-.4.23zM78.62 217.83a4.39 4.39 0 0 1-4.56-4.67c0-4 3.72-8 7.62-8a4.41 4.41 0 0 1 4.56 4.71c-.01 4.12-3.8 7.96-7.62 7.96zm3-11.93a5.2 5.2 0 0 0-4 2.57 10.55 10.55 0 0 0-1.55 5.21c0 2.24 1.19 3.48 2.65 3.48a4.88 4.88 0 0 0 3.45-2 10.22 10.22 0 0 0 2.12-5.9c0-2.52-1.51-3.36-2.72-3.36zM302.47 207.18l-1.63 6.27a4.6 4.6 0 0 1-4.15 3.57 1.77 1.77 0 0 1-2-1.61 1.11 1.11 0 0 1 1.12-1.22.75.75 0 0 1 .8.73 1.08 1.08 0 0 1-.37.8 1.07 1.07 0 0 1-.61.24 1.24 1.24 0 0 0 1 .44 2.26 2.26 0 0 0 1.72-1 5.77 5.77 0 0 0 1-2.12 2.35 2.35 0 0 1-1.43.46 2 2 0 0 1-2.24-2.07 10.47 10.47 0 0 1 1-3.48 3.2 3.2 0 0 0 .29-1.1c0-.49-.19-.41-.25-.41-.42 0-1.09.39-1.55 1.94-.08.24-.15.39-.44.39 0 0-.37 0-.37-.29s.59-2.67 2.41-2.67a1.47 1.47 0 0 1 1.59 1.43 2.94 2.94 0 0 1-.34 1.22 9.5 9.5 0 0 0-.87 3.18c0 .63.2 1.21.88 1.21a2.27 2.27 0 0 0 1.75-1.29l.76-2.94.34-1.31c.07-.31.2-.82.24-.92a.9.9 0 0 1 .76-.41.6.6 0 0 1 .66.56 1.1 1.1 0 0 1-.07.4z"/><path class="b" d="M200.23 264.02l-.01-212.14M252.72 211.52l-52.49 52.5-162.51-.01"/><path class="c" d="M90.22 211.52l36 17.16a39.85 39.85 0 0 0-13.35-50z"/><path class="a" d="M126.18 228.68c8.43-17.67 2.77-38.86-9-47"/><path d="M112.83 178.68a21 21 0 0 1 3.55 5.09l2.47-3.59a21 21 0 0 1-6-1.5M113.08 203.53h-10.64a.52.52 0 0 1-.51-.53.5.5 0 0 1 .51-.51h10.64a.5.5 0 0 1 .51.51.52.52 0 0 1-.51.53zm6.38 3.91h-.41c-.44 2.36-.51 2.82-.58 3a.89.89 0 0 1-.8.53.64.64 0 0 1-.66-.61 1.09 1.09 0 0 1 .08-.36l.87-2.75c-1.84-.48-2.91-1.68-2.91-3.23s1.22-4.08 2-4.08c.31 0 .37.2.37.29s0 .12-.17.27a6.4 6.4 0 0 0-1.38 3.31c0 1.09.85 1.92 2.5 2.26 1-3.11 2-6.32 4.62-6.32a2.12 2.12 0 0 1 2.11 2.4 5.77 5.77 0 0 1-5.64 5.29zm3.33-6.46c-1.34 0-2.67 1.44-3.2 3.52l-.32 1.68h.36c2.5 0 4.64-1.92 4.64-3.69a1.41 1.41 0 0 0-1.48-1.51z"/><path class="c" d="M90.22 211.52l-31.7 31.7a44.83 44.83 0 0 0 72.16-12.39z"/><path class="a" d="M58.52 243.22a44.84 44.84 0 0 0 43.3 11.6c12.66-3.39 23.21-12.17 26.6-19.28"/><path d="M130.68 230.83a21 21 0 0 1-4.47 4.3l3.93 1.88a21 21 0 0 1 .54-6.18M99.12 238.57a5.31 5.31 0 0 1-.63-.1c-.88 3-2.67 5.64-4.62 5.64-1.17 0-2.46-.39-2.46-2a5 5 0 0 1 .24-1.39l.31-1.21a12.32 12.32 0 0 0 .4-1.83c0-.61-.2-.63-.36-.63-.41 0-.76.65-1.07 1.85-.1.34-.17.48-.46.48 0 0-.37 0-.37-.29a6.43 6.43 0 0 1 .54-1.65 1.54 1.54 0 0 1 1.41-1 1.63 1.63 0 0 1 1.72 1.65 3.55 3.55 0 0 1-.19.9l-.2.78-.31 1.26a6.41 6.41 0 0 0-.22 1.29c0 .49.1 1.19 1.09 1.19.82 0 1.65-1.5 1.89-2a15.45 15.45 0 0 0 1.17-3.42c-1.22-.42-2.77-1.27-2.77-2.92 0-1.33 1.09-3.21 2.69-3.21 2 0 2.06 2.92 2.06 3.48a11.66 11.66 0 0 1-.32 2.45l.36.07c.2 0 .48.1.48.32a.31.31 0 0 1-.38.29zm-2.24-6c-1 0-1.9 1.53-1.9 2.58 0 1.36 1.31 2 2.16 2.29a13.54 13.54 0 0 0 .46-3c-.01-1.76-.47-1.87-.73-1.87z"/><path class="a" d="M90.22 211.52L16.9 284.83"/><path d="M13.22 288.52a21 21 0 0 1 5.63-2.56l-3.07-3.07a21 21 0 0 1-2.56 5.63M.9 295.3s-.37 0-.37-.29c0-.44 1-2.67 2.91-2.67a2.08 2.08 0 0 1 1.85 1.05 2.17 2.17 0 0 1 1.77-1.05c.61 0 1.75.25 1.75 1.21a1.08 1.08 0 0 1-1.09 1.13.73.73 0 0 1-.82-.7 1.07 1.07 0 0 1 .63-.9 1.33 1.33 0 0 0-.49-.07c-1 0-1.39 1.38-1.51 1.84l-.58 2.23a6.23 6.23 0 0 0-.29 1.43c0 .56.27 1 .76 1s1.55-.32 2.09-2a.38.38 0 0 1 .39-.29c.07 0 .37 0 .37.29 0 .44-1 2.67-2.89 2.67a2.08 2.08 0 0 1-1.87-1.05 2.18 2.18 0 0 1-1.75 1.05c-.8 0-1.77-.36-1.77-1.21a1.1 1.1 0 0 1 1.1-1.09.73.73 0 0 1 .8.7 1 1 0 0 1-.61.9 1.27 1.27 0 0 0 .49.07c.59 0 1.17-.58 1.44-1.6a23.9 23.9 0 0 0 .92-3.88c0-.9-.53-1-.75-1-.46 0-1.55.34-2.11 2a.36.36 0 0 1-.37.23z"/><path stroke-width="1.5" fill="none" stroke="#000" stroke-miterlimit="10" d="M90.22 211.52l104.07 49.66"/><path d="M200.23 264.02a26.46 26.46 0 0 1-5.42-5.62l-2.36 4.95a26.46 26.46 0 0 1 7.78.67M212.29 275.04c0-.46 0-.63-1.19-.63h-1.46l-1 4.11a1.06 1.06 0 0 0-.05.37c0 .19-.07.15.36.2a7.39 7.39 0 0 0 .85 0 1.58 1.58 0 0 1 .58 0 .33.33 0 0 1 .15.29c0 .39-.34.46-.56.46l-2.53-.05-2.24.05c-.1 0-.46-.05-.46-.34s.36-.46.68-.46c1.27 0 1.17 0 1.34-.68l2.23-9a1.29 1.29 0 0 0 .08-.39c0-.17-.19-.17-.88-.17-.29 0-.68 0-.68-.32s.34-.48.71-.48h8.33a1.06 1.06 0 0 1 .51.07c.22.1.19.27.15.53l-.34 2.94c0 .27 0 .54-.44.54s-.42-.25-.42-.32a1.85 1.85 0 0 1 0-.32 5.75 5.75 0 0 0 .05-.9c0-1.29-.31-1.73-2.26-1.73h-2.26c-.65 0-.56 0-.71.56l-1 4.15h1.31c1.33 0 1.61-.2 2-1.51.05-.22.08-.48.48-.48s.41.31.41.31a.94.94 0 0 1-.05.29l-.93 3.69c-.07.25-.08.48-.46.48a.38.38 0 0 1-.42-.34 1.74 1.74 0 0 1 .05-.19 2.82 2.82 0 0 0 .07-.73z"/><path stroke-width="2" fill="none" stroke="#000" stroke-miterlimit="10" d="M90.22 211.52l105.5-153.1"/><path d="M200.23 51.88a31.94 31.94 0 0 1-7.73 5.39l5.45 3.76a31.94 31.94 0 0 1 2.28-9.15M136.77 127.31c-.68 0-2.16 0-2.74.05h-.19v-.82h.71c1.5 0 1.41-.12 1.41-.68v-8.58a5.46 5.46 0 0 1-2.06.36h-.17v-.8h.17a4 4 0 0 0 3-1l.05-.05h.08a.77.77 0 0 1 .44.08c.15.12.12.27.12.49v9.52c0 .58-.08.7 1.41.7h.71v.82h-.19c-.59-.09-2.07-.09-2.75-.09zM217.41 36.11c-.56 0-1.17 0-2 1.33l-6.12 9.74a.71.71 0 0 1-.68.39c-.39 0-.49-.19-.54-.51l-1.34-10.49c-.05-.41 0-.46-.82-.46-.27 0-.65 0-.65-.34s.34-.46.54-.46h1.85c.68 0 1.41-.05 2.11-.05.2 0 .44.1.44.32 0 .41-.34.48-.63.48-.73 0-1 .19-1 .37l1.09 8.41 4.88-7.75a1.59 1.59 0 0 0 .24-.59c0-.31-.24-.41-.58-.44s-.48-.1-.48-.34a.48.48 0 0 1 .54-.46c.56 0 1.14.05 1.68.05s.92-.05 1.39-.05c.31 0 .42.17.42.34a.38.38 0 0 1-.34.51z"/></svg>