<svg xmlns="http://www.w3.org/2000/svg" xmlns:xlink="http://www.w3.org/1999/xlink" version="1.2" height="325.75" width="541.26"><defs><symbol id="b" overflow="visible"><path d="M4.17-11.63C1.61-11.63.52-8.77.52-5.76.52-2.73 1.6.22 4.17.22c2.56 0 3.69-2.95 3.69-5.99 0-3-1.13-5.86-3.69-5.86zm0 .54c1.64 0 2.05 2.56 2.05 5.34 0 2.8-.4 5.44-2.05 5.44-1.62 0-2.03-2.64-2.03-5.44 0-2.78.4-5.34 2.03-5.34zm0 0"/></symbol><symbol id="d" overflow="visible"><path d="M5.17-11.38c0-.07-.14-.17-.3-.17-.07 0-.14.02-.26.11-.8.63-2.45 1.52-3.33 1.85-.06.01-.1.09-.1.18 0 .24.09.38.16.38a12 12 0 001.47-.56c.17-.1.31-.14.46-.14.28 0 .3.14.3.7v7.56c0 .78-.24.9-1.74.9-.03 0-.06.15-.06.34 0 .17.03.26.06.26.23 0 1.89-.06 2.48-.06.74 0 1.85.06 2.44.06.06 0 .1-.12.1-.28 0-.2-.04-.33-.07-.33-1.44 0-1.66-.14-1.66-.89 0-3.23.05-8.22.05-9.9zm0 0"/></symbol><symbol id="f" overflow="visible"><path d="M6.19-1.42l-3.72.04A24.5 24.5 0 006-4.7c.95-1.24 1.56-2.47 1.56-3.85 0-1.97-1.31-3.07-3.34-3.07C1.95-11.63.89-9.95.89-8.6c0 .9.5 1.68 1.36 1.68.6 0 .86-.37.86-.51 0-.03-.03-.1-.08-.11-.48-.2-.78-.72-.78-1.33 0-1.05.67-1.98 1.81-1.98 1.44 0 1.86.95 1.86 2.37 0 1.24-.3 2.4-1.01 3.53A21.05 21.05 0 01.6-.52c-.13.08-.17.18-.17.27 0 .14.01.25.22.25h6.56c.19 0 .25-.08.25-.28 0-.47.25-1.75.25-2.13 0-.09-.08-.12-.27-.12-.17 0-.26.05-.26.15 0 .6-.46.96-1 .96zm0 0"/></symbol><symbol id="h" overflow="visible"><path d="M2.6-8.27a.3.3 0 00-.05-.14c-.2-.3-.3-.6-.3-.93 0-.74.52-1.58 1.7-1.58 1.07 0 1.64.5 1.64 1.6 0 2.07-1.53 2.73-3.34 3.41-.27.1-.52.38-.52.61 0 .2.15.4.41.4.63 0 .66-.79 1.6-.79 1.54 0 2.2 1.11 2.2 2.64 0 1.61-.92 2.57-2.22 2.57-.94 0-1.45-.54-1.5-1.29-.03-.4-.28-.6-.66-.6-.4 0-.78.3-.78.78C.78-.62 1.84.2 3.55.2 6.06.22 7.6-1.2 7.6-3.04c0-1.7-1.16-3.15-3.4-3.15C6-6.93 7.15-7.96 7.15-9.3c0-1.27-1.11-2.31-2.88-2.31-2.31 0-3.33 1.24-3.33 2.26 0 .72.44 1.33 1.11 1.33.36 0 .53-.11.53-.24zm0 0"/></symbol><symbol id="j" overflow="visible"><path d="M5.94-1.42v-1.81h2.03c.06 0 .12-.05.12-.43 0-.37-.03-.53-.1-.53H5.93c0-3.39.06-6.6.06-7.01 0-.16-.3-.25-.6-.25-.18 0-.34.04-.38.17-.13.33-4.47 7.26-4.66 7.51a.44.44 0 00-.11.3c0 .11.06.24.22.24H4.6v1.84c0 .66-.27.81-1.1.81-.03 0-.06.14-.06.31 0 .15.03.29.08.29.61 0 1.17-.07 1.77-.07.72 0 1.12.07 1.67.07.08 0 .1-.18.1-.33 0-.11-.02-.27-.1-.27-.8 0-1.03-.2-1.03-.84zM4.6-9.2v5H1.56c.28-.51 2.4-3.98 3.05-5zm0 0"/></symbol><symbol id="l" overflow="visible"><path d="M2.53-9.95c.58.07 1.78.1 2.56.1 1.02 0 1.55-.46 1.55-1.93 0-.11-.22-.14-.39-.14-.05 0-.08.03-.1.08-.07.5-.32.57-1 .57-1.95 0-3.03-.07-3.1-.07-.08 0-.16.01-.16.17 0 1.14-.08 3.31-.36 4.48-.1.52-.26.77-.26 1.07 0 .2.17.32.34.32s.33-.1.37-.34c.16-.81.63-1.14 1.55-1.14 1.3 0 2.02.8 2.02 2.98 0 2.7-1.05 3.36-2.13 3.36C2.48-.44 2.05-.9 2-1.89c-.02-.3-.2-.58-.6-.58-.43 0-.68.25-.68.81 0 .91.9 1.88 2.58 1.88 2.14 0 3.92-1.5 3.92-3.94 0-2.3-1.27-3.7-3.52-3.7-.64 0-1.04.12-1.39.3.14-1.04.19-1.99.22-2.83zm0 0"/></symbol><symbol id="n" overflow="visible"><path d="M2.34-5.69c.16-3.83 1.24-5.22 2.64-5.22.68 0 1.18.22 1.18 1.07 0 .4.36.6.64.6.34 0 .65-.23.65-.68 0-.77-.8-1.7-2.34-1.7C2.53-11.63.7-8.97.7-4.9.72-1.73 2.09.2 4.2.2c1.98 0 3.42-1.73 3.42-3.7 0-1.96-1.13-3.54-3.13-3.54-.9 0-1.68.33-2.14 1.34zm1.83-.68c1.28 0 1.85 1.01 1.85 3.34 0 1.5-.46 2.67-1.85 2.67-1.2 0-1.81-.97-1.81-3.62 0-1.24.56-2.4 1.81-2.4zm0 0"/></symbol><symbol id="o" overflow="visible"><path d="M5.16.31c1.75 0 3.67-1.03 3.67-3.5 0-2.44-1.78-3.12-3.4-3.73-1.29-.53-2.5-.97-2.5-2.33 0-1.1.77-1.81 1.93-1.81 1.62 0 2.53 1.19 2.53 2.72 0 .2.11.23.33.23.26 0 .33-.03.33-.2 0-.16-.05-1.63-.05-3 0-.06-.1-.11-.34-.11-.07 0-.13.01-.13.1-.01.24-.14.34-.31.34-.13 0-.25-.11-.75-.36-.42-.2-.84-.36-1.64-.36-1.56 0-3.24 1.1-3.24 3.06 0 2.1 1.52 2.77 3 3.37 1.44.58 2.85 1.1 2.85 2.72 0 1.32-.97 2.24-2.3 2.24-1.73 0-3.26-1.44-3.26-3.53 0-.11-.08-.16-.36-.16-.22 0-.3.03-.3.22 0 .45.03 1.95.03 3.47 0 .1.1.18.4.18.16 0 .24-.06.24-.14 0-.28.02-.51.22-.51s.33.19.94.58c.47.3 1 .51 2.1.51zm0 0"/></symbol><symbol id="p" overflow="visible"><path d="M5.33.28A3.92 3.92 0 009.3-3.73c0-2.2-1.47-3.88-3.46-3.88-1.2 0-2.18.42-2.67 1.24 0-.74-.19-1.18-.44-1.2-.67.3-1.39.4-1.92.4-.08 0-.14.03-.14.28 0 .16.02.31.1.31h.53c.32 0 .47.16.47.8v3.7c0 3.83-.04 4.63-.05 5.11-.02.45-.08.77-1.27.77-.08 0-.1.14-.1.3 0 .2 0 .3.1.3.68 0 1.27-.04 1.85-.04 1.15 0 1.97.03 2.23.03.06 0 .11-.03.11-.3 0-.2-.01-.3-.1-.3-1.13 0-1.37-.24-1.37-.8V-.57c.42.45 1.17.84 2.16.84zm-.08-7.14c1.6 0 2.33 1.24 2.33 3.13 0 2.62-1.31 3.37-2.4 3.37-.8 0-2-.66-2-1.48v-2.72c.02-1.75 1.04-2.3 2.07-2.3zm0 0"/></symbol><symbol id="q" overflow="visible"><path d="M6.84-4.83c.3 0 .4-.1.4-.44 0-.8-.66-2.34-2.74-2.34C2.16-7.6.58-5.84.58-3.58.58-.83 2.28.28 4.38.28c1.46 0 2.39-.75 2.8-1.55 0-.03.04-.07.04-.1 0-.13-.3-.35-.42-.35-.03 0-.1.02-.14.13-.29.56-1.07 1.01-1.97 1.01C3.25-.58 2.2-1.7 2.2-3.84c0-.38.03-.77.1-.99zm-2.5-2.1c.96 0 1.36.59 1.36 1.15 0 .34-.08.37-.67.39l-2.62.06c.34-1.12.98-1.6 1.93-1.6zm0 0"/></symbol><symbol id="r" overflow="visible"><path d="M9.4-.16c.05 0 .07-.15.07-.3 0-.18-.03-.3-.08-.3L8.87-.8c-.53-.04-.65-.18-.65-.62v-2.94c0-4.37.12-6.87.12-7.34 0-.13-.15-.2-.34-.2-.13 0-.98.26-2.4.26-.07 0-.08.12-.08.3 0 .17 0 .28.09.28 1.01 0 1.19.17 1.19.72v3.67c-.58-.69-1.36-.94-2.4-.94C2.37-7.6.63-5.97.63-3.56.63-1.17 2.3.28 4.23.28A3.3 3.3 0 006.77-.84l-.04.93c0 .18.08.27.25.27.07 0 .16-.05.24-.08a6.56 6.56 0 012.17-.44zM4.83-6.9c1.08 0 1.96.82 1.96 1.5 0 1.1 0 2.8-.05 3.72A2.3 2.3 0 014.69-.56c-1.22 0-2.33-.81-2.33-3.14 0-2.16 1.1-3.2 2.48-3.2zm0 0"/></symbol><symbol id="G" overflow="visible"><path d="M3.1-.56c-.6 0-1-.2-1-.81 0-.33.12-.72.34-1.22.17-.49.42-1.04.7-1.7a44.2 44.2 0 004 .02l.98 2.43c.07.14.1.32.1.45 0 .6-.28.83-1.44.83-.08 0-.1.1-.1.31 0 .19 0 .28.1.28.4 0 1.22-.06 2.47-.06 1.28 0 1.94.06 2.33.06.12 0 .17-.12.17-.31 0-.16-.03-.28-.14-.28-.6 0-.9-.22-1.3-.81-.6-.9-3.86-8.86-4.25-9.97-.08-.2-.12-.29-.34-.29-.24 0-.33.1-.4.33-.07.47-3.82 9.03-4.09 9.52C.8-.98.45-.56-.12-.56c-.11 0-.15.1-.15.31 0 .19.02.28.11.28.24 0 .64-.06 1.58-.06.9 0 1.25.06 1.66.06.1 0 .15-.12.15-.31 0-.16-.03-.28-.12-.28zm2.07-8.47l1.66 4.1c-.4 0-1.02-.04-1.66-.04-.65 0-1.33.02-1.81.03a94.4 94.4 0 011.81-4.1zm0 0"/></symbol><symbol id="H" overflow="visible"><path d="M3.22-1.33c0-3.83.05-5.5.05-6 0-.12-.18-.23-.41-.23-.63.22-1.52.39-2.02.39-.09 0-.1.14-.1.33 0 .15.01.26.14.26h.39c.48 0 .56.11.56.5v4.74c0 .51-.1.76-1.06.76-.07 0-.13.11-.13.27 0 .17.02.33.1.33.56 0 1.03-.07 1.8-.07.73 0 1.35.07 1.73.07.1 0 .14-.14.14-.3 0-.19-.04-.3-.11-.3-.94 0-1.08-.23-1.08-.75zm-.69-8.45c.5 0 .92-.4.92-.94a.93.93 0 00-.92-.94c-.53 0-.95.41-.95.94s.42.94.95.94zm0 0"/></symbol><symbol id="I" overflow="visible"><path d="M3.2-6.22v-1.1c0-.15-.14-.24-.39-.24a7.1 7.1 0 01-1.97.39c-.09 0-.1.14-.1.33 0 .15.04.26.17.26h.36c.37 0 .56.05.56.44v4.64c0 .67-.08.92-1.05.92-.06 0-.12.11-.12.3 0 .17.01.3.09.3.56 0 1.02-.07 1.8-.07.72 0 1.5.07 1.87.07.11 0 .16-.14.16-.3 0-.19-.03-.3-.13-.3-1.08 0-1.23-.12-1.23-.83v-3.03c0-1.6.81-2.08 1.37-2.08.74 0 .55.63 1.14.63.43 0 .7-.33.7-.8 0-.45-.34-.92-1.2-.92-.59 0-1.54.45-2.03 1.4zm0 0"/></symbol><symbol id="J" overflow="visible"><path d="M13.13-4.5c.09 0 .12-.1.12-.27s-.03-.32-.13-.32c-.62 0-1.12.1-2.1.1-.9 0-1.91-.1-2.7-.1-.1 0-.15.07-.15.32 0 .2.02.27.11.27 1.55 0 1.83.45 1.83 1.63 0 1.48-1.28 2.39-3.27 2.39-2.53 0-4.17-1.97-4.17-5.11 0-3.77 1.88-5.36 4.1-5.36 2.62 0 4 1.4 4.2 3.4 0 .14.01.22.3.22.18 0 .28-.03.28-.22 0-.14-.08-.65-.08-1.62 0-.81.08-1.53.08-1.78 0-.16-.03-.2-.28-.2-.22 0-.3.04-.3.2 0 .32-.11.47-.44.47-.1 0-.19-.04-.31-.13a5.82 5.82 0 00-3.56-1.1A5.78 5.78 0 00.75-5.77C.75-2.11 3.31.25 6.67.25c1.7 0 2.8-.53 3.75-1.3a.86.86 0 01.42-.12c.27 0 .5.14.6.25.03.03.1.05.15.05.11 0 .29-.07.29-.26-.04-.34-.05-1.18-.05-1.7 0-1.4.22-1.67 1.3-1.67zm0 0"/></symbol><symbol id="K" overflow="visible"><path d="M4.66.28A4.02 4.02 0 008.7-3.7c0-2.2-1.82-3.9-4.04-3.9C2.46-7.6.62-5.9.62-3.7S2.46.28 4.67.28zm0-7.25c1.43 0 2.3 1.27 2.3 3.27 0 2.15-.87 3.33-2.3 3.33-1.44 0-2.3-1.13-2.3-3.33 0-2.16.84-3.27 2.3-3.27zm0 0"/></symbol><symbol id="L" overflow="visible"><path d="M9.03-.36c.06-.02.11-.08.11-.28s-.03-.27-.12-.27H8.3c-.1 0-.24-.1-.24-.43 0-2.22.03-4.36.11-5.83 0-.14-.1-.2-.26-.2-.2 0-1.16.09-2.25.09-.1 0-.14.06-.14.25 0 .17.03.34.09.34.78 0 1.06.03 1.06.44v3.53c0 1.08-1.03 2.1-2.25 2.1-.86 0-1.3-.32-1.3-1.33l.05-5.42c-.31 0-1.03.09-2.48.09-.06 0-.13.05-.13.26 0 .2 0 .33.1.33.92 0 1.09.1 1.09 1.1v3.75c0 1.47.67 2.12 2.03 2.12 1.25 0 2.24-.62 2.9-1.55 0 .43.05.79.13 1.13.03.16.16.34.35.37.5-.2 1.03-.35 1.87-.59zm0 0"/></symbol><symbol id="M" overflow="visible"><path d="M3.22-7.33c0-.14-.14-.23-.4-.23-.54.2-1.48.39-1.98.39-.09 0-.1.14-.1.33 0 .15.04.26.17.26h.36c.37 0 .56.05.56.44v4.8c0 .51-.08.76-1.05.76-.06 0-.12.14-.12.3 0 .17.01.3.09.3.56 0 1.02-.07 1.8-.07.72 0 1.23.07 1.6.07.12 0 .16-.08.16-.3 0-.2 0-.3-.12-.3-.77 0-.97-.17-.97-.72v-2.62c0-2.38 1.33-2.83 2.12-2.83.75 0 1.41.45 1.41 1.4v4.08c0 .54-.14.7-.97.7-.06 0-.1.1-.1.26 0 .17.04.33.12.33.56 0 .92-.07 1.68-.07.74 0 1.36.07 1.74.07.1 0 .14-.14.14-.38 0-.1-.03-.22-.11-.22-.86 0-1.1-.2-1.1-.75 0-1.14.04-3.22.04-4.04 0-1.57-1.08-2.24-2.28-2.24-1.02 0-2.22.56-2.7 1.47zm0 0"/></symbol><symbol id="w" overflow="visible"><path d="M-.56-3.1c0 .6-.2 1-.81 1a3.2 3.2 0 01-1.22-.34c-.49-.17-1.04-.42-1.7-.7a44.2 44.2 0 00.02-4l2.43-.98c.14-.07.32-.1.45-.1.6 0 .83.28.83 1.44 0 .08.1.1.31.1.19 0 .28 0 .28-.1 0-.4-.06-1.22-.06-2.47 0-1.28.06-1.94.06-2.33 0-.12-.12-.17-.31-.17-.16 0-.28.03-.28.14 0 .6-.22.9-.81 1.3-.9.6-8.86 3.86-9.97 4.25-.2.08-.29.12-.29.34 0 .24.1.33.33.4.47.07 9.03 3.82 9.52 4.09.8.43 1.22.78 1.22 1.35 0 .11.1.15.31.15.19 0 .28-.02.28-.11 0-.24-.06-.64-.06-1.58 0-.9.06-1.25.06-1.66 0-.1-.12-.15-.31-.15-.16 0-.28.03-.28.12zm-8.47-2.07l4.1-1.66c0 .4-.04 1.02-.04 1.66 0 .65.02 1.33.03 1.81a84.27 84.27 0 01-4.1-1.81zm0 0"/></symbol><symbol id="x" overflow="visible"><path d="M.28-4.36c0-1.4-.64-2.42-1.72-2.95-.2 0-.36.26-.36.37 0 .05.02.11.1.17A2.23 2.23 0 01-.58-4.78c0 1.22-.81 2.44-3.31 2.44-2.08 0-2.98-1-2.98-2.16 0-.64.23-1.02.73-1.22.44-.17.73-.39.73-.81 0-.38-.21-.69-.67-.69-.67 0-1.53.53-1.53 2.56A4.03 4.03 0 00-3.48-.6 3.68 3.68 0 00.28-4.36zm0 0"/></symbol><symbol id="y" overflow="visible"><path d="M-4.83-6.84c0-.3-.1-.4-.44-.4-.8 0-2.34.66-2.34 2.74 0 2.34 1.77 3.92 4.03 3.92 2.75 0 3.86-1.7 3.86-3.8 0-1.46-.75-2.39-1.55-2.8-.03 0-.07-.04-.1-.04-.13 0-.35.3-.35.42 0 .03.02.1.13.14.56.29 1.01 1.07 1.01 1.97 0 1.44-1.12 2.49-3.26 2.49a4.2 4.2 0 01-.99-.1zm-2.1 2.5c0-.96.59-1.36 1.15-1.36.34 0 .37.08.39.67l.06 2.62c-1.12-.34-1.6-.98-1.6-1.93zm0 0"/></symbol><symbol id="z" overflow="visible"><path d="M-6.14-3.22c-3.44 0-5.02-.12-5.56-.12-.14 0-.2.2-.2.39 0 .12.26.86.26 2.3 0 .07.12.09.3.09.17 0 .28-.02.28-.1 0-1.04.15-1.17.72-1.17h9c.51 0 .76.11.76 1.08 0 .06.13.13.28.13.17 0 .32-.02.32-.1 0-.56-.07-1.03-.07-1.81 0-.72.07-1.35.07-1.72 0-.1-.11-.14-.33-.14-.13 0-.27.03-.27.1 0 .85-.2 1.07-.75 1.07zm0 0"/></symbol><symbol id="A" overflow="visible"><path d="M-6.22-3.2h-1.1c-.15 0-.24.14-.24.39.2.53.39 1.47.39 1.97 0 .09.14.1.33.1.15 0 .26-.04.26-.17v-.36c0-.37.05-.56.44-.56h4.64c.67 0 .92.08.92 1.05 0 .06.11.12.3.12.17 0 .3-.01.3-.09 0-.56-.07-1.02-.07-1.8 0-.72.07-1.5.07-1.87 0-.11-.14-.16-.3-.16-.19 0-.3.03-.3.13 0 1.08-.12 1.23-.83 1.23h-3.03c-1.6 0-2.08-.81-2.08-1.37 0-.74.63-.55.63-1.14 0-.43-.33-.7-.8-.7-.45 0-.92.34-.92 1.2 0 .59.45 1.54 1.4 2.03zm0 0"/></symbol><symbol id="B" overflow="visible"><path d="M.2-6.25c0-1.16-.76-1.6-1-1.6-.07 0-.25.2-.25.26s0 .09.08.14c.2.12.38.3.38.56 0 .37-.3.51-.72.51-1.61 0-3.49-.12-4.2-.12-1.47 0-2.1.64-2.1 2.7 0 2.2.9 2.88 1.49 2.88.35 0 .56-.28.56-.6 0-.26-.2-.57-.5-.7-.55-.23-.82-.6-.82-1.51 0-1.18.52-1.25 1.35-1.25h.84c.85 3.42 2.08 4.3 3.3 4.3.98 0 1.62-.66 1.62-1.87a3.3 3.3 0 00-1.28-2.48C-.15-5.1.2-5.58.2-6.25zM-1.78-2.3c-.9 0-1.78-.47-2.42-2.68h2.48c.7.62 1.02 1.1 1.02 1.67 0 .58-.38 1.01-1.08 1.01zm0 0"/></symbol><symbol id="C" overflow="visible"><path d="M-6.58-1.52h4.92c1.43 0 1.94-.75 1.94-1.92 0-1.1-.62-1.9-1.39-1.9-.12 0-.2.12-.2.26 0 .11.04.24.19.25.25.02.46.4.46.81 0 .61-.21 1.11-.96 1.11-2.13 0-3.88-.01-4.96-.04l.02-2.1c0-.12-.07-.15-.32-.15-.3 0-.43.03-.43.15 0 .6.03 1.46.04 2.07-.5-.07-1.51-.11-1.92-.11-.1 0-.17.07-.17.37 0 .1.02.17.11.19 1.25.23 2.16.95 2.16 1.69 0 .06.15.07.32.07.14 0 .2-.03.2-.07zm0 0"/></symbol><symbol id="D" overflow="visible"><path d="M-1.33-3.22c-3.83 0-5.5-.05-6-.05-.12 0-.23.18-.23.41.22.63.39 1.52.39 2.02 0 .09.14.1.33.1.15 0 .26-.01.26-.14v-.39c0-.48.11-.56.5-.56h4.74c.51 0 .76.1.76 1.06 0 .07.11.13.27.13.17 0 .33-.02.33-.1 0-.56-.07-1.03-.07-1.8 0-.73.07-1.35.07-1.73 0-.1-.14-.14-.3-.14-.19 0-.3.04-.3.11 0 .94-.23 1.08-.75 1.08zm-8.45.69c0-.5-.4-.92-.94-.92a.93.93 0 00-.94.92c0 .53.41.95.94.95s.94-.42.94-.95zm0 0"/></symbol><symbol id="E" overflow="visible"><path d="M.28-4.66A4.02 4.02 0 00-3.7-8.7c-2.2 0-3.9 1.82-3.9 4.04 0 2.2 1.7 4.04 3.9 4.04S.28-2.46.28-4.67zm-7.25 0c0-1.43 1.27-2.3 3.27-2.3 2.15 0 3.33.87 3.33 2.3 0 1.44-1.13 2.3-3.33 2.3-2.16 0-3.27-.84-3.27-2.3zm0 0"/></symbol><symbol id="F" overflow="visible"><path d="M-7.33-3.22c-.14 0-.23.14-.23.4.2.54.39 1.48.39 1.98 0 .09.14.1.33.1.15 0 .26-.04.26-.17v-.36c0-.37.05-.56.44-.56h4.8c.51 0 .76.08.76 1.05 0 .06.14.12.3.12.17 0 .3-.01.3-.09 0-.56-.07-1.02-.07-1.8 0-.72.07-1.23.07-1.6 0-.12-.08-.16-.3-.16-.2 0-.3 0-.3.12 0 .77-.17.97-.72.97h-2.62c-2.38 0-2.83-1.33-2.83-2.12 0-.75.45-1.41 1.4-1.41h4.08c.54 0 .7.14.7.97 0 .06.1.1.26.1.17 0 .33-.04.33-.12 0-.56-.07-.92-.07-1.68 0-.74.07-1.36.07-1.74 0-.1-.14-.14-.38-.14-.1 0-.22.03-.22.11 0 .86-.2 1.1-.75 1.1-1.14 0-3.22-.04-4.04-.04-1.57 0-2.24 1.08-2.24 2.28 0 1.02.56 2.22 1.47 2.7zm0 0"/></symbol><clipPath id="a"><path d="M99 17.28h2V298.6h-2zm0 0"/></clipPath><clipPath id="c"><path d="M172 17.28h2V298.6h-2zm0 0"/></clipPath><clipPath id="e"><path d="M245 17.28h2V298.6h-2zm0 0"/></clipPath><clipPath id="g"><path d="M318 17.28h2V298.6h-2zm0 0"/></clipPath><clipPath id="i"><path d="M390 17.28h3V298.6h-3zm0 0"/></clipPath><clipPath id="k"><path d="M463 17.28h2V298.6h-2zm0 0"/></clipPath><clipPath id="m"><path d="M536 17.28h2V298.6h-2zm0 0"/></clipPath><clipPath id="s"><path d="M78.59 239h480.13v2H78.59zm0 0"/></clipPath><clipPath id="t"><path d="M78.59 173h480.13v3H78.59zm0 0"/></clipPath><clipPath id="u"><path d="M78.59 108h480.13v2H78.59zm0 0"/></clipPath><clipPath id="v"><path d="M78.59 42h480.13v2H78.59zm0 0"/></clipPath></defs><g clip-path="url(#a)" transform="translate(-17.86 -16.88)"><path d="M100.41 298.6V17.28" fill="none" stroke="#b0b0b0" stroke-width=".8" stroke-linecap="square" stroke-linejoin="round" stroke-miterlimit="10"/></g><path d="M82.56 281.72v3.5" fill="none" stroke="#000" stroke-width=".8" stroke-linejoin="round" stroke-miterlimit="10"/><use height="100%" width="100%" y="317.73" x="96.23" xlink:href="#b" transform="translate(-17.86 -16.88)"/><g clip-path="url(#c)" transform="translate(-17.86 -16.88)"><path d="M173.17 298.6V17.28" fill="none" stroke="#b0b0b0" stroke-width=".8" stroke-linecap="square" stroke-linejoin="round" stroke-miterlimit="10"/></g><path d="M155.32 281.72v3.5" fill="none" stroke="#000" stroke-width=".8" stroke-linejoin="round" stroke-miterlimit="10"/><g transform="translate(-17.86 -16.88)"><use height="100%" width="100%" y="317.73" x="160.63" xlink:href="#d"/><use height="100%" width="100%" y="317.73" x="168.99" xlink:href="#b"/><use height="100%" width="100%" y="317.73" x="177.34" xlink:href="#b"/></g><g clip-path="url(#e)" transform="translate(-17.86 -16.88)"><path d="M245.93 298.6V17.28" fill="none" stroke="#b0b0b0" stroke-width=".8" stroke-linecap="square" stroke-linejoin="round" stroke-miterlimit="10"/></g><path d="M228.08 281.72v3.5" fill="none" stroke="#000" stroke-width=".8" stroke-linejoin="round" stroke-miterlimit="10"/><g transform="translate(-17.86 -16.88)"><use height="100%" width="100%" y="317.73" x="233.39" xlink:href="#f"/><use height="100%" width="100%" y="317.73" x="241.75" xlink:href="#b"/><use height="100%" width="100%" y="317.73" x="250.1" xlink:href="#b"/></g><g clip-path="url(#g)" transform="translate(-17.86 -16.88)"><path d="M318.7 298.6V17.28" fill="none" stroke="#b0b0b0" stroke-width=".8" stroke-linecap="square" stroke-linejoin="round" stroke-miterlimit="10"/></g><path d="M300.84 281.72v3.5" fill="none" stroke="#000" stroke-width=".8" stroke-linejoin="round" stroke-miterlimit="10"/><g transform="translate(-17.86 -16.88)"><use height="100%" width="100%" y="317.73" x="306.15" xlink:href="#h"/><use height="100%" width="100%" y="317.73" x="314.5" xlink:href="#b"/><use height="100%" width="100%" y="317.73" x="322.86" xlink:href="#b"/></g><g clip-path="url(#i)" transform="translate(-17.86 -16.88)"><path d="M391.45 298.6V17.28" fill="none" stroke="#b0b0b0" stroke-width=".8" stroke-linecap="square" stroke-linejoin="round" stroke-miterlimit="10"/></g><path d="M373.6 281.72v3.5" fill="none" stroke="#000" stroke-width=".8" stroke-linejoin="round" stroke-miterlimit="10"/><g transform="translate(-17.86 -16.88)"><use height="100%" width="100%" y="317.73" x="378.91" xlink:href="#j"/><use height="100%" width="100%" y="317.73" x="387.26" xlink:href="#b"/><use height="100%" width="100%" y="317.73" x="395.62" xlink:href="#b"/></g><g clip-path="url(#k)" transform="translate(-17.86 -16.88)"><path d="M464.21 298.6V17.28" fill="none" stroke="#b0b0b0" stroke-width=".8" stroke-linecap="square" stroke-linejoin="round" stroke-miterlimit="10"/></g><path d="M446.36 281.72v3.5" fill="none" stroke="#000" stroke-width=".8" stroke-linejoin="round" stroke-miterlimit="10"/><g transform="translate(-17.86 -16.88)"><use height="100%" width="100%" y="317.73" x="451.67" xlink:href="#l"/><use height="100%" width="100%" y="317.73" x="460.02" xlink:href="#b"/><use height="100%" width="100%" y="317.73" x="468.37" xlink:href="#b"/></g><g clip-path="url(#m)" transform="translate(-17.86 -16.88)"><path d="M536.97 298.6V17.28" fill="none" stroke="#b0b0b0" stroke-width=".8" stroke-linecap="square" stroke-linejoin="round" stroke-miterlimit="10"/></g><path d="M519.11 281.72v3.5" fill="none" stroke="#000" stroke-width=".8" stroke-linejoin="round" stroke-miterlimit="10"/><g transform="translate(-17.86 -16.88)"><use height="100%" width="100%" y="317.73" x="524.43" xlink:href="#n"/><use height="100%" width="100%" y="317.73" x="532.78" xlink:href="#b"/><use height="100%" width="100%" y="317.73" x="541.13" xlink:href="#b"/></g><g transform="translate(-17.86 -16.88)"><use height="100%" width="100%" y="338.24" x="295.87" xlink:href="#o"/><use height="100%" width="100%" y="338.24" x="305.73" xlink:href="#p"/><use height="100%" width="100%" y="338.24" x="315.65" xlink:href="#q"/><use height="100%" width="100%" y="338.24" x="323.43" xlink:href="#q"/><use height="100%" width="100%" y="338.24" x="331.2" xlink:href="#r"/></g><g clip-path="url(#s)" transform="translate(-17.86 -16.88)"><path d="M78.59 240.08h480.13" fill="none" stroke="#b0b0b0" stroke-width=".8" stroke-linecap="square" stroke-linejoin="round" stroke-miterlimit="10"/></g><path d="M60.73 223.2h-3.5" fill="none" stroke="#000" stroke-width=".8" stroke-linejoin="round" stroke-miterlimit="10"/><use height="100%" width="100%" y="246.15" x="63.23" xlink:href="#b" transform="translate(-17.86 -16.88)"/><g clip-path="url(#t)" transform="translate(-17.86 -16.88)"><path d="M78.59 174.45h480.13" fill="none" stroke="#b0b0b0" stroke-width=".8" stroke-linecap="square" stroke-linejoin="round" stroke-miterlimit="10"/></g><path d="M60.73 157.57h-3.5" fill="none" stroke="#000" stroke-width=".8" stroke-linejoin="round" stroke-miterlimit="10"/><g transform="translate(-17.86 -16.88)"><use height="100%" width="100%" y="180.52" x="38.15" xlink:href="#d"/><use height="100%" width="100%" y="180.52" x="46.5" xlink:href="#b"/><use height="100%" width="100%" y="180.52" x="54.86" xlink:href="#b"/><use height="100%" width="100%" y="180.52" x="63.21" xlink:href="#b"/></g><g clip-path="url(#u)" transform="translate(-17.86 -16.88)"><path d="M78.59 108.82h480.13" fill="none" stroke="#b0b0b0" stroke-width=".8" stroke-linecap="square" stroke-linejoin="round" stroke-miterlimit="10"/></g><path d="M60.73 91.94h-3.5" fill="none" stroke="#000" stroke-width=".8" stroke-linejoin="round" stroke-miterlimit="10"/><g transform="translate(-17.86 -16.88)"><use height="100%" width="100%" y="114.89" x="38.15" xlink:href="#f"/><use height="100%" width="100%" y="114.89" x="46.5" xlink:href="#b"/><use height="100%" width="100%" y="114.89" x="54.86" xlink:href="#b"/><use height="100%" width="100%" y="114.89" x="63.21" xlink:href="#b"/></g><g clip-path="url(#v)" transform="translate(-17.86 -16.88)"><path d="M78.59 43.2h480.13" fill="none" stroke="#b0b0b0" stroke-width=".8" stroke-linecap="square" stroke-linejoin="round" stroke-miterlimit="10"/></g><path d="M60.73 26.31h-3.5" fill="none" stroke="#000" stroke-width=".8" stroke-linejoin="round" stroke-miterlimit="10"/><g transform="translate(-17.86 -16.88)"><use height="100%" width="100%" y="49.26" x="38.15" xlink:href="#h"/><use height="100%" width="100%" y="49.26" x="46.5" xlink:href="#b"/><use height="100%" width="100%" y="49.26" x="54.86" xlink:href="#b"/><use height="100%" width="100%" y="49.26" x="63.21" xlink:href="#b"/></g><g transform="translate(-17.86 -16.88)"><use height="100%" width="100%" y="203.65" x="29.76" xlink:href="#w"/><use height="100%" width="100%" y="192.19" x="29.76" xlink:href="#x"/><use height="100%" width="100%" y="184.53" x="29.76" xlink:href="#x"/><use height="100%" width="100%" y="176.87" x="29.76" xlink:href="#y"/><use height="100%" width="100%" y="169.09" x="29.76" xlink:href="#z"/><use height="100%" width="100%" y="164.16" x="29.76" xlink:href="#y"/><use height="100%" width="100%" y="156.39" x="29.76" xlink:href="#A"/><use height="100%" width="100%" y="149.92" x="29.76" xlink:href="#B"/><use height="100%" width="100%" y="141.79" x="29.76" xlink:href="#C"/><use height="100%" width="100%" y="136.1" x="29.76" xlink:href="#D"/><use height="100%" width="100%" y="131.3" x="29.76" xlink:href="#E"/><use height="100%" width="100%" y="121.99" x="29.76" xlink:href="#F"/></g><path d="M82.56 13.19h19.5l1.67 15 1.68 13.09 1.74 11.97 1.82 10.95 1.9 10.02 1.88 8.86 1.97 8.18 2.03 7.55 2.12 6.97 2.1 6.24 2.19 5.81 2.33 5.57 2.4 5.16 2.47 4.8 2.7 4.7 2.69 4.23 2.9 4.13 2.92 3.74 2.83 3.3 2.99 3.18 3.13 3.03 3.41 3.02 3.64 2.9 3.86 2.8 4.07 2.67 4.37 2.6 4.66 2.49 4.87 2.36 5.31 2.3 5.68 2.23 6.04 2.12 6.7 2.1 7.12 2 7.57 1.9 8.3 1.85 8.94 1.77 9.97 1.74 10.77 1.65 11.93 1.61 13.24 1.56 14.7 1.5 17.24 1.53 17.76 1.35 20.73 1.34 24.45 1.35 26.2 1.21 30.63 1.19 35.94 1.15 42.2 1.1 8.22.2" fill="none" stroke="#b00000" stroke-width="1.5" stroke-linecap="square" stroke-linejoin="round" stroke-miterlimit="10"/><path d="M82.56 13.19l.36 26.25 72.69.1L314.08 96.8l6.33 7.82 6.33 7.53 8.22 9.4 7.5 8.22 8.22 8.66 9.09 9.2 10.11 9.79 8.66 8.05 9.03 8.09 9.45 8.19 9.9 8.27 10.11 8.17 10.48 8.18 11.06 8.36 11.79 8.63 12.07 8.55 12.66 8.7 13.54 9 14.26 9.21 14.48 9.08 1.67 1.03" fill="none" stroke="#0000b0" stroke-width="1.5" stroke-linecap="square" stroke-linejoin="round" stroke-miterlimit="10"/><path d="M60.73 281.72V.4m480.13 281.32V.4M60.73 281.72h480.13M60.73.4h480.13" fill="none" stroke="#000" stroke-width=".8" stroke-linecap="square" stroke-miterlimit="10"/><path d="M420.18 62.23h109.48c2.14 0 3.2-1.07 3.2-3.2V11.6c0-2.13-1.06-3.2-3.2-3.2H420.18c-2.13 0-3.2 1.07-3.2 3.2v47.43c0 2.13 1.07 3.2 3.2 3.2zm0 0" fill="#fff" fill-opacity=".8" stroke="#cacaca" stroke-miterlimit="10" stroke-opacity=".8"/><path d="M423.38 21.32h32" fill="none" stroke="#b00000" stroke-width="1.5" stroke-linecap="square" stroke-linejoin="round" stroke-miterlimit="10"/><g transform="translate(-17.86 -16.88)"><use height="100%" width="100%" y="43.8" x="486.04" xlink:href="#G"/><use height="100%" width="100%" y="43.8" x="497.49" xlink:href="#H"/><use height="100%" width="100%" y="43.8" x="502.29" xlink:href="#I"/></g><path d="M423.38 45.84h32" fill="none" stroke="#0000b0" stroke-width="1.5" stroke-linecap="square" stroke-linejoin="round" stroke-miterlimit="10"/><g transform="translate(-17.86 -16.88)"><use height="100%" width="100%" y="68.32" x="486.04" xlink:href="#J"/><use height="100%" width="100%" y="68.32" x="499.59" xlink:href="#I"/><use height="100%" width="100%" y="68.32" x="506.05" xlink:href="#K"/><use height="100%" width="100%" y="68.32" x="515.37" xlink:href="#L"/><use height="100%" width="100%" y="68.32" x="525.11" xlink:href="#M"/><use height="100%" width="100%" y="68.32" x="534.84" xlink:href="#r"/></g></svg>