<svg xmlns="http://www.w3.org/2000/svg" xmlns:xlink="http://www.w3.org/1999/xlink" version="1.2" height="282.96" width="331.94"><defs><symbol id="a" overflow="visible"><path d="M12.8-7.4c0-2.77-1.82-4.72-4.55-4.72-3.9 0-7.63 3.98-7.63 7.95C.63-1.33 2.54.52 5.2.52c3.83 0 7.6-3.85 7.6-7.93zm-1.94-.68c0 1.2-.45 3.85-2.13 5.9C7.93-1.13 6.56-.2 5.28-.2c-1.45 0-2.64-1.24-2.64-3.5 0-.73.23-3.22 1.53-5.17 1.16-1.75 2.78-2.56 3.97-2.56 1.2 0 2.72.83 2.72 3.34zm0 0"/></symbol><symbol id="b" overflow="visible"><path d="M4.9-3.8h3.93c.04.58.26 2.58.26 2.7 0 .38-.65.46-1.01.46-.31 0-.63.06-.63.45 0 .3.44.33.46.33.71 0 1.43-.06 2.12-.06.4 0 1.49.06 1.92.06.2 0 .53-.1.53-.48 0-.28-.42-.3-.62-.3-.97 0-.84-.02-.9-.5L9.93-11.78c-.03-.31-.04-.53-.51-.53-.44 0-.57.22-.66.37l-5.9 9.96C2.16-.86 1.57-.7.91-.64.66-.62.37-.56.37-.2c0 .14.13.33.44.33.49 0 1-.06 1.47-.06.55 0 1.14.06 1.7.06.2 0 .54-.1.54-.47 0-.23-.27-.31-.47-.31-.3-.05-.61-.13-.61-.48 0-.18.1-.35.23-.58.13-.2.14-.2 1.24-2.1zm3.85-.8H5.39l2.9-4.84zm0 0"/></symbol><symbol id="c" overflow="visible"><path d="M13.08-9.27c0-1.3-1.19-2.48-3.4-2.48h-5.7c-.35 0-.7.08-.7.48 0 .29.4.32.72.32 0 0 .36 0 .63.04.3.03.28-.03.28.13 0 .05-.02.1-.07.31L2.52-1.34c-.18.64-.07.68-1.35.68-.34 0-.65.07-.65.47 0 .3.37.33.65.33h6.06c2.88 0 4.93-2.1 4.93-3.81 0-1.11-.79-2.06-2.22-2.42 1.64-.47 3.14-1.66 3.14-3.18zm-1.99-.06c0 1.46-1.43 2.97-3.3 2.97H5.57l1.03-4.06c.16-.6.08-.53.7-.53h2.16c1.26 0 1.62.87 1.62 1.62zm-.93 5.47c0 1.67-1.52 3.2-3.33 3.2H4.52c-.25 0-.24 0-.32-.03h-.06v-.03c0-.05-.01-.06.08-.37L5.4-5.72h3.01c1.38 0 1.74 1.11 1.74 1.86zm0 0"/></symbol><symbol id="d" overflow="visible"><path d="M13.13-11.8v-.01c0-.03 0-.32-.4-.32-.23 0-.3.13-.43.29l-.97 1.07a3.5 3.5 0 00-2.86-1.36C4.45-12.13.64-8.25.64-4.28c0 2.81 2.02 4.8 4.81 4.8A5.9 5.9 0 009.3-1.02a5.8 5.8 0 001.92-3.06c0-.23-.35-.31-.4-.31h-.02c-.22 0-.4.14-.43.3a5.47 5.47 0 01-1.68 2.6 4.62 4.62 0 01-2.96 1.2c-1.36 0-3.1-.79-3.1-3.4 0-.95.34-3.69 2.01-5.64a5.58 5.58 0 013.97-2c1.5 0 2.52 1.17 2.52 3.16 0 .67-.07.67-.07.86 0 .28.4.31.49.31.37 0 .43-.19.5-.47zm0 0"/></symbol><symbol id="e" overflow="visible"><path d="M13.9-7.31c0-2.4-1.46-4.44-4.23-4.44h-5.7c-.36 0-.72.05-.72.47 0 .3.4.33.73.33.22 0 .47.01.7.04.21.03.21 0 .21.13l-.06.31L2.5-1.36c-.17.64-.06.7-1.34.7-.33 0-.7.07-.7.46 0 .3.38.34.7.34h5.62c3.77 0 7.11-3.7 7.11-7.45zm-1.92-.63c0 .82-.36 3.61-1.76 5.44A4.9 4.9 0 016.48-.66H4.56c-.26 0-.25 0-.33-.03H4.2v-.03c0-.05-.02-.06.06-.37l2.4-9.32c.15-.59.07-.54.7-.54h1.8c1.47 0 2.83.78 2.83 3.01zm0 0"/></symbol><symbol id="f" overflow="visible"><path d="M10.55 13.27a.44.44 0 00-.13-.3h-.01v-.02C7.23 10.6 4.95 3.92 4.95-1.7v-5.1c0-5.62 2.28-12.3 5.46-14.65v-.02h.01a.44.44 0 00.13-.3c0-.17-.13-.4-.49-.4a.63.63 0 00-.33.1h-.01C6.3-19.47 3.2-12.72 3.2-6.8v5.1c0 5.93 3.1 12.68 6.52 15.26h.01c.08.05.2.11.33.11.36 0 .49-.23.49-.4zm0 0"/></symbol><symbol id="g" overflow="visible"><path d="M12.44-4.25a.5.5 0 00-.5-.52H1.3c-.3 0-.52.24-.52.52s.22.53.52.53h10.64c.28 0 .5-.25.5-.53zm0 0"/></symbol><symbol id="h" overflow="visible"><path d="M7.9-8.45c0-1.05-.24-3.53-2.21-3.53C3.1-11.98.55-7.14.55-3.34.55-1.81 1 .19 2.75.19c2.63 0 5.16-4.94 5.16-8.64zM6.45-9.47c0 .8-.11 1.56-.5 3.16H2.72c.26-1.02.6-2.27 1.26-3.38.47-.83 1.1-1.67 1.7-1.67.62 0 .76.9.76 1.9zm-.72 3.99c-.19.76-.55 2.07-1.14 3.18C3.97-1.16 3.3-.44 2.75-.44 2.37-.44 2-.77 2-2.33c0-.69.1-1.56.52-3.15zm0 0"/></symbol><symbol id="j" overflow="visible"><path d="M4.1-3.1c2.63-2.3 3.7-3.24 3.7-4.98 0-1.95-1.58-3.37-3.77-3.37A3.26 3.26 0 00.7-8.27c0 1.05.98 1.08 1.06 1.08.4 0 1.06-.28 1.06-1.04 0-.46-.31-.99-1.06-1a2.25 2.25 0 012.06-1.44c1.38 0 2.11 1.23 2.11 2.6 0 1.32-.84 2.62-1.75 3.65L.91-.82c-.2.21-.22.3-.22.7V0H7.3l.02-.13.47-2.92.01-.12h-.75l-.03.1c-.08.48-.2 1.18-.33 1.41-.18.08-1.14.1-1.48.1H2.5zm0 0"/></symbol><symbol id="k" overflow="visible"><path d="M3.63-.02c0-1.14-.46-1.95-1.27-1.95-.66 0-1.06.53-1.06 1.08a1.06 1.06 0 001.6.92 4 4 0 01-1.1 2.69c-.2.19-.24.3-.24.39 0 .2.17.36.35.36.39 0 1.72-1.47 1.72-3.49zm0 0"/></symbol><symbol id="l" overflow="visible"><path d="M7.98-5.52c0-1.32-.07-2.7-.68-3.96a3.3 3.3 0 00-3.05-1.97c-1.1 0-2.4.48-3.1 2.1A8.87 8.87 0 00.5-5.53c0 1.27.06 2.8.78 4.11A3.27 3.27 0 004.23.37a3.3 3.3 0 003.11-2.04c.57-1.19.64-2.52.64-3.85zm-1.75-.2c0 1.27 0 2.4-.18 3.47-.25 1.56-1.17 2-1.82 2-.54 0-1.5-.34-1.8-1.92-.18-.99-.18-2.55-.18-3.55 0-1.06 0-2.17.13-3.06.32-1.97 1.51-2.05 1.85-2.05.46 0 1.54.24 1.83 1.86.17.9.17 2.2.17 3.25zm0 0"/></symbol><symbol id="m" overflow="visible"><path d="M8.06-1.7v-5.1c0-5.95-3.04-12.65-6.56-15.28-.02 0-.17-.1-.3-.1-.36 0-.48.24-.48.41 0 .11.03.24.14.32C4.03-19.1 6.33-12.42 6.33-6.8v5.1c0 5.62-2.3 12.3-5.47 14.65-.11.08-.14.2-.14.32 0 .17.12.4.48.4.08 0 .33-.1.33-.1 3.45-2.6 6.53-9.35 6.53-15.27zm0 0"/></symbol><symbol id="i" overflow="visible"><path d="M8.64-8.08v-.01c0-.05-.02-.29-.34-.29-.2 0-.27.1-.4.24h-.03l-.39.47a2.7 2.7 0 00-1.93-.7c-1.86 0-3.38 1.42-3.38 2.8 0 .16.05.65.42 1.12.44.5.96.62 1.77.8l1.01.27c.32.08.97.29.97 1.08 0 .9-1 1.88-2.17 1.88-.94 0-2.1-.3-2.1-1.52 0-.1 0-.36.06-.56l.01-.08c0-.23-.3-.26-.37-.26-.32 0-.4.12-.44.3L.73-.2.7-.02c0 .1.08.25.37.25.2 0 .27-.09.4-.21.12-.11.26-.3.42-.49.65.56 1.56.7 2.26.7 1.99 0 3.44-1.6 3.44-2.98 0-.53-.2-1-.5-1.28-.44-.45-.7-.52-2.22-.86l-.74-.19c-.23-.1-.7-.34-.7-.95 0-.9 1.05-1.72 2.11-1.72 1.11 0 1.7.6 1.7 1.7 0 .14-.04.4-.04.52 0 .25.3.28.4.28.35 0 .4-.19.44-.36zm0 0"/></symbol></defs><path d="M272.59 141.48c0-55.23-44.78-100-100-100-55.24 0-100 44.77-100 100s44.76 100 100 100c55.22 0 100-44.77 100-100zm0 0" fill="none" stroke="#000" stroke-miterlimit="10" stroke-dasharray="1,.99628"/><path d="M272.59 41.48v200h-200v-200zm0 0" fill="none" stroke="#000" stroke-miterlimit="10"/><use height="100%" width="100%" y="160.74" x="162.32" xlink:href="#a" transform="translate(-6.52 -3.32)"/><use height="100%" width="100%" y="50.89" x="282.93" xlink:href="#b" transform="translate(-6.52 -3.32)"/><use height="100%" width="100%" y="250.6" x="282.93" xlink:href="#c" transform="translate(-6.52 -3.32)"/><use height="100%" width="100%" y="250.6" x="63.13" xlink:href="#d" transform="translate(-6.52 -3.32)"/><use height="100%" width="100%" y="50.61" x="61.21" xlink:href="#e" transform="translate(-6.52 -3.32)"/><path d="M72.59 141.48h200m-100 100v-200" fill="none" stroke="#000" stroke-width="2" stroke-miterlimit="10"/><use height="100%" width="100%" y="149.71" x="3.32" xlink:href="#f" transform="translate(-6.52 -3.32)"/><use height="100%" width="100%" y="149.71" x="14.57" xlink:href="#g" transform="translate(-6.52 -3.32)"/><use height="100%" width="100%" y="138.21" x="29" xlink:href="#h" transform="translate(-6.52 -3.32)"/><use height="100%" width="100%" y="142.4" x="36.97" xlink:href="#i" transform="translate(-6.52 -3.32)"/><path d="M22.47 142.66h17.27v-1.04H22.47zm0 0"/><use height="100%" width="100%" y="161.37" x="33.39" xlink:href="#j" transform="translate(-6.52 -3.32)"/><use height="100%" width="100%" y="149.71" x="47.46" xlink:href="#k" transform="translate(-6.52 -3.32)"/><use height="100%" width="100%" y="149.71" x="55.01" xlink:href="#l" transform="translate(-6.52 -3.32)"/><use height="100%" width="100%" y="149.71" x="63.52" xlink:href="#m" transform="translate(-6.52 -3.32)"/><use height="100%" width="100%" y="149.71" x="283.43" xlink:href="#f" transform="translate(-6.52 -3.32)"/><use height="100%" width="100%" y="138.21" x="295.88" xlink:href="#h" transform="translate(-6.52 -3.32)"/><use height="100%" width="100%" y="142.4" x="303.85" xlink:href="#i" transform="translate(-6.52 -3.32)"/><path d="M289.35 142.66h17.27v-1.04h-17.27zm0 0"/><use height="100%" width="100%" y="161.37" x="300.27" xlink:href="#j" transform="translate(-6.52 -3.32)"/><use height="100%" width="100%" y="149.71" x="314.34" xlink:href="#k" transform="translate(-6.52 -3.32)"/><use height="100%" width="100%" y="149.71" x="321.89" xlink:href="#l" transform="translate(-6.52 -3.32)"/><use height="100%" width="100%" y="149.71" x="330.4" xlink:href="#m" transform="translate(-6.52 -3.32)"/><g transform="translate(-6.52 -3.32)"><use height="100%" width="100%" y="272.61" x="143.37" xlink:href="#f"/><use height="100%" width="100%" y="272.61" x="154.63" xlink:href="#l"/><use height="100%" width="100%" y="272.61" x="163.13" xlink:href="#k"/></g><use height="100%" width="100%" y="272.61" x="170.68" xlink:href="#g" transform="translate(-6.52 -3.32)"/><use height="100%" width="100%" y="261.11" x="185.11" xlink:href="#h" transform="translate(-6.52 -3.32)"/><use height="100%" width="100%" y="265.3" x="193.08" xlink:href="#i" transform="translate(-6.52 -3.32)"/><path d="M178.59 265.56h17.26v-1.04H178.6zm0 0"/><use height="100%" width="100%" y="284.27" x="189.5" xlink:href="#j" transform="translate(-6.52 -3.32)"/><use height="100%" width="100%" y="272.61" x="203.57" xlink:href="#m" transform="translate(-6.52 -3.32)"/><use height="100%" width="100%" y="26.81" x="149.99" xlink:href="#f" transform="translate(-6.52 -3.32)"/><g transform="translate(-6.52 -3.32)"><use height="100%" width="100%" y="26.81" x="161.24" xlink:href="#l"/><use height="100%" width="100%" y="26.81" x="169.74" xlink:href="#k"/></g><use height="100%" width="100%" y="15.3" x="178.5" xlink:href="#h" transform="translate(-6.52 -3.32)"/><use height="100%" width="100%" y="19.5" x="186.47" xlink:href="#i" transform="translate(-6.52 -3.32)"/><path d="M171.97 19.76h17.27v-1.03h-17.27zm0 0"/><use height="100%" width="100%" y="38.47" x="182.89" xlink:href="#j" transform="translate(-6.52 -3.32)"/><use height="100%" width="100%" y="26.81" x="196.96" xlink:href="#m" transform="translate(-6.52 -3.32)"/><path d="M236.78 73.18a2 2 0 10-4 0 2 2 0 004 0zm23.81-1.6a2 2 0 10-4 0 2 2 0 004 0zm-17.71-14.2a2 2 0 10-4 0 2 2 0 004 0zm1.6 16a2 2 0 10-4 0 2 2 0 004 0zm14.2 31.7a2 2 0 10-4 0 2 2 0 004 0zm-16 40.39a2 2 0 10-4 0 2 2 0 004 0zm0 0" stroke="#000" stroke-miterlimit="10"/></svg>