<svg xmlns="http://www.w3.org/2000/svg" xmlns:xlink="http://www.w3.org/1999/xlink" version="1.2" height="183.61" width="312.85"><defs><symbol id="b" overflow="visible"><path d="M13.13-11.8v-.01c0-.03 0-.32-.4-.32-.23 0-.3.13-.43.29l-.97 1.07a3.5 3.5 0 00-2.86-1.36C4.45-12.13.64-8.25.64-4.28c0 2.81 2.02 4.8 4.81 4.8A5.9 5.9 0 009.3-1.02a5.8 5.8 0 001.92-3.06c0-.23-.35-.31-.4-.31h-.02c-.22 0-.4.14-.43.3a5.47 5.47 0 01-1.68 2.6 4.62 4.62 0 01-2.96 1.2c-1.36 0-3.1-.79-3.1-3.4 0-.95.34-3.69 2.01-5.64a5.58 5.58 0 013.97-2c1.5 0 2.52 1.17 2.52 3.16 0 .67-.07.67-.07.86 0 .28.4.31.49.31.37 0 .43-.19.5-.47zm0 0"/></symbol><symbol id="c" overflow="visible"><path d="M4.9-3.8h3.93c.04.58.26 2.58.26 2.7 0 .38-.65.46-1.01.46-.31 0-.63.06-.63.45 0 .3.44.33.46.33.71 0 1.43-.06 2.12-.06.4 0 1.49.06 1.92.06.2 0 .53-.1.53-.48 0-.28-.42-.3-.62-.3-.97 0-.84-.02-.9-.5L9.93-11.78c-.03-.31-.04-.53-.51-.53-.44 0-.57.22-.66.37l-5.9 9.96C2.16-.86 1.57-.7.91-.64.66-.62.37-.56.37-.2c0 .14.13.33.44.33.49 0 1-.06 1.47-.06.55 0 1.14.06 1.7.06.2 0 .54-.1.54-.47 0-.23-.27-.31-.47-.31-.3-.05-.61-.13-.61-.48 0-.18.1-.35.23-.58.13-.2.14-.2 1.24-2.1zm3.85-.8H5.39l2.9-4.84zm0 0"/></symbol><symbol id="d" overflow="visible"><path d="M13.08-9.27c0-1.3-1.19-2.48-3.4-2.48h-5.7c-.35 0-.7.08-.7.48 0 .29.4.32.72.32 0 0 .36 0 .63.04.3.03.28-.03.28.13 0 .05-.02.1-.07.31L2.52-1.34c-.18.64-.07.68-1.35.68-.34 0-.65.07-.65.47 0 .3.37.33.65.33h6.06c2.88 0 4.93-2.1 4.93-3.81 0-1.11-.79-2.06-2.22-2.42 1.64-.47 3.14-1.66 3.14-3.18zm-1.99-.06c0 1.46-1.43 2.97-3.3 2.97H5.57l1.03-4.06c.16-.6.08-.53.7-.53h2.16c1.26 0 1.62.87 1.62 1.62zm-.93 5.47c0 1.67-1.52 3.2-3.33 3.2H4.52c-.25 0-.24 0-.32-.03h-.06v-.03c0-.05-.01-.06.08-.37L5.4-5.72h3.01c1.38 0 1.74 1.11 1.74 1.86zm0 0"/></symbol><symbol id="e" overflow="visible"><path d="M13.9-7.31c0-2.4-1.46-4.44-4.23-4.44h-5.7c-.36 0-.72.05-.72.47 0 .3.4.33.73.33.22 0 .47.01.7.04.21.03.21 0 .21.13l-.06.31L2.5-1.36c-.17.64-.06.7-1.34.7-.33 0-.7.07-.7.46 0 .3.38.34.7.34h5.62c3.77 0 7.11-3.7 7.11-7.45zm-1.92-.63c0 .82-.36 3.61-1.76 5.44A4.9 4.9 0 016.48-.66H4.56c-.26 0-.25 0-.33-.03H4.2v-.03c0-.05-.02-.06.06-.37l2.4-9.32c.15-.59.07-.54.7-.54h1.8c1.47 0 2.83.78 2.83 3.01zm0 0"/></symbol><symbol id="f" overflow="visible"><path d="M4.23-5.9c0-.38-.3-.76-.82-.76-.38 0-.66.22-.74.43L.63-1.17l-.07.14h.81l.05-.06 2.7-4.44a.7.7 0 00.11-.38zm0 0"/></symbol><clipPath id="a"><path d="M0 5h320.05v179H0zm0 0"/></clipPath><clipPath id="g"><path d="M255 5h65.05v179H255zm0 0"/></clipPath></defs><g clip-path="url(#a)" transform="translate(-3.7 -3.32)"><path d="M269.5 19.77l-259.8 150h300v-150l-300 150" fill="none" stroke="#000" stroke-miterlimit="10"/></g><use height="100%" width="100%" y="15.44" x="263.42" xlink:href="#b" transform="translate(-3.7 -3.32)"/><use height="100%" width="100%" y="185.9" x="3.32" xlink:href="#c" transform="translate(-3.7 -3.32)"/><use height="100%" width="100%" y="185.34" x="303.24" xlink:href="#d" transform="translate(-3.7 -3.32)"/><use height="100%" width="100%" y="15.82" x="302.65" xlink:href="#e" transform="translate(-3.7 -3.32)"/><path d="M265.8 16.45v150" fill="none" stroke="#000" stroke-miterlimit="10"/><use height="100%" width="100%" y="186.41" x="259.9" xlink:href="#b" transform="translate(-3.7 -3.32)"/><use height="100%" width="100%" y="180.24" x="273.3" xlink:href="#f" transform="translate(-3.7 -3.32)"/><g clip-path="url(#g)" transform="translate(-3.7 -3.32)"><path d="M309.7 169.77c0-52.65-13.88-104.4-40.2-150" fill="none" stroke="#000" stroke-miterlimit="10"/></g><path d="M306 16.45h-40.2" fill="none" stroke="#000" stroke-miterlimit="10" stroke-dasharray="1,.99628"/></svg>