<svg xmlns="http://www.w3.org/2000/svg" width="334.21" height="252.61"><defs><clipPath id="a" transform="translate(-214.66 -157.81)"><path fill="none" d="M211.1 154.49h338.26v256.93H211.1z"/></clipPath></defs><g clip-path="url(#a)"><path d="M4.23 196.65c0-.08-.15-.19-.31-.19a.43.43 0 0 0-.29.12 16.86 16.86 0 0 1-3.54 2c-.07 0-.1.1-.1.2 0 .25.08.41.17.41a14.13 14.13 0 0 0 1.56-.61 1.13 1.13 0 0 1 .48-.14c.31 0 .34.14.34.75v8c0 .83-.27 1-1.87 1 0 0-.07.17-.07.36s0 .29.07.29c.25 0 2-.07 2.65-.07s2 .07 2.58.07c.07 0 .1-.14.1-.31s0-.34-.07-.34c-1.53 0-1.77-.15-1.77-1 .02-3.46.07-8.74.07-10.54zM28.96 103.98l-4 .05a26.26 26.26 0 0 0 3.76-3.54 6.64 6.64 0 0 0 1.67-4.08c0-2.09-1.39-3.28-3.55-3.28a3.32 3.32 0 0 0-3.54 3.23c0 1 .53 1.78 1.44 1.78.63 0 .9-.39.9-.54l-.08-.12a1.46 1.46 0 0 1-.82-1.41 2 2 0 0 1 1.92-2.11c1.53 0 2 1 2 2.53a6.71 6.71 0 0 1-1.07 3.74 22.78 22.78 0 0 1-4.57 4.71.34.34 0 0 0-.19.27c0 .15 0 .27.24.27h7c.2 0 .27-.08.27-.31 0-.49.25-1.85.25-2.24 0-.1-.07-.14-.27-.14s-.29.05-.29.17a1 1 0 0 1-1.07 1.02zM93.5 28.19l-.05-.14a1.7 1.7 0 0 1-.31-1 1.67 1.67 0 0 1 1.8-1.68 1.54 1.54 0 0 1 1.75 1.72c0 2.19-1.63 2.89-3.55 3.62a.82.82 0 0 0-.56.65.42.42 0 0 0 .44.42c.66 0 .7-.83 1.68-.83 1.65 0 2.35 1.17 2.35 2.8s-1 2.72-2.36 2.72a1.42 1.42 0 0 1-1.58-1.36.64.64 0 0 0-.7-.65.8.8 0 0 0-.83.82c0 1 1.12 1.94 2.94 1.94 2.67 0 4.32-1.51 4.32-3.47a3.3 3.3 0 0 0-3.6-3.37c1.9-.78 3.11-1.87 3.11-3.3s-1.17-2.46-3-2.46c-2.46 0-3.54 1.34-3.54 2.41a1.27 1.27 0 0 0 1.17 1.41c.36-.02.52-.14.52-.25zM197.53 2.42v5.3h-3.19c.25-.53 2.49-4.23 3.19-5.3zm1.41 8.24V8.74h2.16c.07 0 .14-.05.14-.46s0-.56-.12-.56h-2.18c0-3.6.07-7 .07-7.45 0-.17-.32-.27-.65-.27s-.36.05-.41.19c-.12.34-4.74 7.72-4.95 8a.5.5 0 0 0-.1.31.23.23 0 0 0 .22.25h4.4v2c0 .7-.29.87-1.16.87 0 0-.07.15-.07.32s0 .31.08.31c.65 0 1.24-.07 1.87-.07s1.19.07 1.78.07c.07 0 .08-.19.08-.36s0-.27-.08-.27c-.83-.06-1.08-.28-1.08-.96zM297.11 26.38a26.27 26.27 0 0 0 2.72.12c1.09 0 1.65-.51 1.65-2.06 0-.12-.24-.15-.41-.15l-.1.08c-.08.53-.36.61-1.09.61-2.06 0-3.2-.08-3.28-.08s-.17 0-.17.19a26.67 26.67 0 0 1-.37 4.76 7.79 7.79 0 0 0-.29 1.12.36.36 0 0 0 .37.36.41.41 0 0 0 .39-.37c.17-.85.66-1.21 1.65-1.21 1.38 0 2.14.85 2.14 3.18 0 2.87-1.12 3.57-2.26 3.57s-1.46-.51-1.51-1.55a.61.61 0 0 0-.65-.61c-.44 0-.71.25-.71.85 0 1 1 2 2.74 2a4 4 0 0 0 4.16-4.18c0-2.45-1.34-3.94-3.74-3.94a3 3 0 0 0-1.46.32c.14-1.11.19-2.11.22-3.01zM158.34 185.4a3.52 3.52 0 0 1-1.58 3 3.61 3.61 0 0 0-1.15-.21c-.36 0-1.39 0-1.39.52s.95.41 1.24.41a4.38 4.38 0 0 0 1.26-.22 2.22 2.22 0 0 1 .79 1.89 6.1 6.1 0 0 1-.6 2.55 3.59 3.59 0 0 1-3.1 2.1 1.94 1.94 0 0 1-1.91-2.17 2.36 2.36 0 0 1 .07-.64l1.12-4.53c.57-2.25 2-4.29 3.68-4.29a1.46 1.46 0 0 1 1.57 1.59zm-2.1 3.2a2.41 2.41 0 0 1-.88.14 2.14 2.14 0 0 1-.77-.09 1.4 1.4 0 0 1 .79-.15 3.28 3.28 0 0 1 .89.1zm3-3a2.25 2.25 0 0 0-2.44-2.12c-2.22 0-3.63 2.72-4.08 4.51L150 198.78c0 .14.07.17.15.17s.21 0 .22-.1l1.2-4.82a2.23 2.23 0 0 0 2.13 1.76 4.71 4.71 0 0 0 4.78-4.49 3.37 3.37 0 0 0-.52-1.86 2.9 2.9 0 0 0-.74-.77 3.4 3.4 0 0 0 2.05-3.12zM169.72 165.75a3.52 3.52 0 0 1-1.58 3 3.61 3.61 0 0 0-1.15-.21c-.36 0-1.39 0-1.39.52s.95.41 1.24.41a4.38 4.38 0 0 0 1.26-.22 2.22 2.22 0 0 1 .79 1.89 6.1 6.1 0 0 1-.6 2.55 3.59 3.59 0 0 1-3.1 2.1 1.94 1.94 0 0 1-1.91-2.17 2.36 2.36 0 0 1 .07-.64l1.12-4.53c.57-2.25 2-4.29 3.68-4.29a1.46 1.46 0 0 1 1.57 1.59zm-2.1 3.2a2.41 2.41 0 0 1-.88.14 2.14 2.14 0 0 1-.77-.09 1.4 1.4 0 0 1 .79-.15 3.28 3.28 0 0 1 .86.1zm3-3a2.25 2.25 0 0 0-2.44-2.12c-2.22 0-3.63 2.72-4.08 4.51l-2.76 10.75c0 .14.07.17.15.17s.21 0 .22-.1l1.2-4.82a2.23 2.23 0 0 0 2.13 1.76 4.71 4.71 0 0 0 4.78-4.49 3.37 3.37 0 0 0-.52-1.86 2.9 2.9 0 0 0-.74-.77 3.4 3.4 0 0 0 2.05-3.08zM189.34 154.4a3.52 3.52 0 0 1-1.58 3 3.61 3.61 0 0 0-1.15-.21c-.36 0-1.39 0-1.39.52s.95.41 1.24.41a4.38 4.38 0 0 0 1.26-.22 2.22 2.22 0 0 1 .79 1.89 6.1 6.1 0 0 1-.6 2.55 3.59 3.59 0 0 1-3.1 2.1 1.94 1.94 0 0 1-1.91-2.17 2.36 2.36 0 0 1 .07-.64l1.12-4.53c.57-2.25 2-4.29 3.68-4.29a1.46 1.46 0 0 1 1.57 1.59zm-2.1 3.2a2.41 2.41 0 0 1-.88.14 2.14 2.14 0 0 1-.77-.09 1.4 1.4 0 0 1 .79-.15 3.28 3.28 0 0 1 .89.1zm3-3a2.25 2.25 0 0 0-2.44-2.12c-2.22 0-3.63 2.72-4.08 4.51L181 167.78c0 .14.07.17.15.17s.21 0 .22-.1l1.2-4.82a2.23 2.23 0 0 0 2.13 1.76 4.71 4.71 0 0 0 4.78-4.49 3.37 3.37 0 0 0-.52-1.86 2.9 2.9 0 0 0-.74-.77 3.4 3.4 0 0 0 2.04-3.11zM212.06 154.4a3.52 3.52 0 0 1-1.58 3 3.61 3.61 0 0 0-1.14-.21c-.36 0-1.39 0-1.39.52s.95.41 1.24.41a4.38 4.38 0 0 0 1.26-.22 2.22 2.22 0 0 1 .79 1.89 6.1 6.1 0 0 1-.6 2.55 3.59 3.59 0 0 1-3.1 2.1 1.94 1.94 0 0 1-1.91-2.17 2.36 2.36 0 0 1 .07-.64l1.12-4.53c.57-2.25 2-4.29 3.68-4.29a1.46 1.46 0 0 1 1.56 1.59zm-2.1 3.2a2.41 2.41 0 0 1-.88.14 2.14 2.14 0 0 1-.77-.09 1.4 1.4 0 0 1 .79-.15 3.28 3.28 0 0 1 .86.1zm3-3a2.25 2.25 0 0 0-2.44-2.12c-2.22 0-3.63 2.72-4.08 4.51l-2.72 10.79c0 .14.07.17.15.17s.21 0 .22-.1l1.2-4.82a2.23 2.23 0 0 0 2.13 1.76 4.71 4.71 0 0 0 4.78-4.49 3.37 3.37 0 0 0-.52-1.86 2.9 2.9 0 0 0-.74-.77 3.4 3.4 0 0 0 2.01-3.11zM196.16 202.11h.95v1h-.95zm-2 0h1v1h-1zm-2 0h1v1h-1zm-2 0h1v1h-1zm-2 0h1v1h-1zm-2 0h1v1h-1zm-2 0h1v1h-1zm-2 0h1v1h-1zm-2 0h1v1h-1zm-2 0h1v1h-1zm-2 0h1v1h-1zm-2 0h1v1h-1zm-2 0h1v1h-1zm-2 0h1v1h-1zm-2 0h1v1h-1zm-2 0h1v1h-1zm-2 0h1v1h-1zm-2 0h1v1h-1zm-2 0h1v1h-1zm-2 0h1v1h-1zm-2 0h1v1h-1zm-2 0h1v1h-1zm-2 0h1v1h-1zm-2 0h1v1h-1zm-2 0h1v1h-1zm-2 0h1v1h-1zm-2 0h1v1h-1zm-2 0h1v1h-1zm-2 0h1v1h-1zm-2 0h1v1h-1zm-2 0h1v1h-1zm-2 0h1v1h-1zm-2 0h1v1h-1zm-2 0h1v1h-1zm-2 0h1v1h-1zm-2 0h1v1h-1zm-2 0h1v1h-1zm-2 0h1v1h-1zm-2 0h1v1h-1zm-2 0h1v1h-1zm-2 0h1v1h-1zm-2 0h1v1h-1zm-2 0h1v1h-1zm-2 0h1v1h-1zm-2 0h1v1h-1zm-2 0h1v1h-1zm-2 0h1v1h-1zm-2 0h1v1h-1zm-2 0h1v1h-1zm-2 0h1v1h-1zm-2 0h1v1h-1zm-2 0h1v1h-1zm-2 0h1v1h-1zm-2 0h1v1h-1zm-2 0h1v1h-1zm-2 0h1v1h-1zm-2 0h1v1h-1zm-2 0h1v1h-1zm-2 0h1v1h-1zm-2 0h1v1h-1zm-2 0h1v1h-1zm-2 0h1v1h-1zm-2 0h1v1h-1zm-2 0h1v1h-1zm-2 0h1v1h-1zm-2 0h1v1h-1zm-2 0h1v1h-1zm-2 0h1v1h-1zm-2 0h1v1h-1zm-2 0h1v1h-1zm-2 0h1v1h-1zm-2 0h1v1h-1zm-2 0h1v1h-1zm-2 0h1v1h-1zm-2 0h1v1h-1zm-2 0h1v1h-1zm-2 0h1v1h-1zm-2 0h1v1h-1zm-2 0h1v1h-1zm-2 0h1v1h-1zm-2 0h1v1h-1zm-2 0h1v1h-1zm-2 0h1v1h-1zm-2 0h1v1h-1zm-2 0h1v1h-1zm-2 0h1v1h-1zm-2 0h1v1h-1zm-2 0h1v1h-1zm-2 0h1v1h-1zm-2 0h1v1h-1zm-2 0h1v1h-1zm-2 0h1v1h-1zm-2 0h1v1h-1zm-2 0h1v1h-1z"/><path d="M196.53 201.7l.82.47-.5.87-.82-.47zm-1.73-1l.87.5-.5.87-.87-.5zm-1.73-1l.87.5-.5.87-.87-.5zm-1.73-1l.87.5-.5.87-.87-.5zm-1.73-1l.87.5-.5.87-.87-.5zm-1.73-1l.87.5-.5.87-.87-.5zm-1.73-1l.87.5-.5.87-.87-.5zm-1.73-1l.87.5-.5.87-.87-.5zm-1.73-1l.87.5-.5.87-.87-.5zm-1.73-1l.87.5-.5.87-.87-.5zm-1.73-1l.87.5-.5.87-.87-.5zm-1.73-1l.87.5-.5.87-.87-.5zm-1.73-1l.87.5-.5.87-.87-.5zm-1.73-1l.87.5-.5.87-.87-.5zm-1.73-1l.87.5-.5.87-.87-.5zm-1.73-1l.87.5-.5.87-.87-.5zm-1.73-1l.87.5-.5.87-.87-.5zm-1.73-1l.87.5-.5.87-.87-.5zm-1.73-1l.87.5-.5.87-.87-.5zm-1.73-1l.87.5-.5.87-.87-.5zm-1.73-1l.87.5-.5.87-.87-.5zm-1.73-1l.87.5-.5.87-.87-.5zm-1.73-1l.87.5-.5.87-.87-.5zm-1.73-1l.87.5-.5.87-.87-.5zm-1.73-1l.87.5-.5.87-.87-.5zm-1.73-1l.87.5-.5.87-.87-.5zm-1.73-1l.87.5-.5.87-.87-.5zm-1.73-1l.87.5-.5.87-.87-.5zm-1.73-1l.87.5-.5.87-.87-.5zm-1.73-1l.87.5-.5.87-.87-.5zm-1.73-1l.87.5-.5.87-.87-.5zm-1.73-1l.87.5-.5.87-.87-.5zm-1.73-1l.87.5-.5.87-.87-.5zm-1.73-1l.87.5-.5.87-.87-.5zm-1.73-1l.87.5-.5.87-.87-.5zm-1.73-1l.87.5-.5.87-.87-.5zm-1.73-1l.87.5-.5.87-.87-.5zm-1.73-1l.87.5-.5.87-.87-.5zm-1.73-1l.87.5-.5.87-.87-.5zm-1.73-1l.87.5-.5.87-.87-.5zm-1.73-1l.87.5-.5.87-.87-.5zm-1.73-1l.87.5-.5.87-.87-.5zm-1.73-1l.87.5-.5.87-.87-.5zm-1.73-1l.87.5-.5.87-.87-.5zm-1.73-1l.87.5-.5.87-.87-.5zm-1.73-1l.87.5-.5.87-.87-.5zm-1.73-1l.87.5-.5.87-.87-.5zm-1.73-1l.87.5-.5.87-.87-.5zm-1.73-1l.87.5-.5.87-.87-.5zm-1.73-1l.87.5-.5.87-.87-.5zm-1.73-1l.87.5-.5.87-.87-.5zm-1.73-1l.87.5-.5.87-.87-.5zm-1.73-1l.87.5-.5.87-.87-.5zm-1.73-1l.87.5-.5.87-.87-.5zm-1.73-1l.87.5-.5.87-.87-.5zm-1.73-1l.87.5-.5.87-.87-.5zm-1.73-1l.87.5-.5.87-.87-.5zm-1.73-1l.87.5-.5.87-.87-.5zm-1.73-1l.87.5-.5.87-.87-.5zm-1.73-1l.87.5-.5.87-.87-.5zm-1.73-1l.87.5-.5.87-.87-.5zm-1.73-1l.87.5-.5.87-.87-.5zm-1.73-1l.87.5-.5.87-.87-.5zm-1.73-1l.87.5-.5.87-.87-.5zm-1.73-1l.87.5-.5.87-.87-.5zm-1.73-1l.87.5-.5.87-.87-.5zm-1.73-1l.87.5-.5.87-.87-.5zm-1.73-1l.87.5-.5.87-.87-.5zm-1.73-1l.87.5-.5.87-.87-.5zm-1.73-1l.87.5-.5.87-.87-.5zm-1.73-1l.87.5-.5.87-.87-.5zm-1.73-1l.87.5-.5.87-.87-.5zm-1.73-1l.87.5-.5.87-.87-.5zm-1.73-1l.87.5-.5.87-.87-.5zm-1.73-1l.87.5-.5.87-.87-.5zm-1.73-1l.87.5-.5.87-.87-.5zm-1.73-1l.87.5-.5.87-.87-.5zm-1.73-1l.87.5-.5.87-.87-.5zm-1.73-1l.87.5-.5.87-.87-.5zm-1.73-1l.87.5-.5.87-.87-.5zm-1.73-1l.87.5-.5.87-.87-.5zm-1.73-1l.87.5-.5.87-.87-.5zm-1.73-1l.87.5-.5.87-.87-.5zm-1.73-1l.87.5-.5.87-.87-.5zm-1.73-1l.87.5-.5.87-.87-.5zm-1.73-1l.87.5-.5.87-.87-.5zm-1.73-1l.87.5-.5.87-.87-.5zm-1.73-1l.87.5-.5.87-.87-.5zm-1.73-1l.87.5-.5.87-.87-.5zm-1.73-1l.87.5-.5.87-.87-.5zm-1.73-1l.87.5-.5.87-.87-.5zm-1.73-1l.87.5-.5.87-.87-.5zm-1.73-1l.87.5-.5.87-.87-.5zm-1.73-1l.87.5-.5.87-.87-.5z"/><path d="M197.06 201.54l.47.82-.87.5-.47-.82zm-1-1.73l.5.87-.87.5-.5-.87zm-1-1.73l.5.87-.87.5-.5-.87zm-1-1.73l.5.87-.87.5-.5-.87zm-1-1.73l.5.87-.87.5-.5-.87zm-1-1.73l.5.87-.87.5-.5-.87zm-1-1.73l.5.87-.87.5-.5-.87zm-1-1.73l.5.87-.87.5-.5-.87zm-1-1.73l.5.87-.87.5-.5-.87zm-1-1.73l.5.87-.87.5-.5-.87zm-1-1.73l.5.87-.87.5-.5-.87zm-1-1.73l.5.87-.87.5-.5-.87zm-1-1.73l.5.87-.87.5-.5-.87zm-1-1.73l.5.87-.87.5-.5-.87zm-1-1.73l.5.87-.87.5-.5-.87zm-1-1.73l.5.87-.87.5-.5-.87zm-1-1.73l.5.87-.87.5-.5-.87zm-1-1.73l.5.87-.87.5-.5-.87zm-1-1.73l.5.87-.87.5-.5-.87zm-1-1.73l.5.87-.87.5-.5-.87zm-1-1.73l.5.87-.87.5-.5-.87zm-1-1.73l.5.87-.87.5-.5-.87zm-1-1.73l.5.87-.87.5-.5-.87zm-1-1.73l.5.87-.87.5-.5-.87zm-1-1.73l.5.87-.87.5-.5-.87zm-1-1.73l.5.87-.87.5-.5-.87zm-1-1.73l.5.87-.87.5-.5-.87zm-1-1.73l.5.87-.87.5-.5-.87zm-1-1.73l.5.87-.87.5-.5-.87zm-1-1.73l.5.87-.87.5-.5-.87zm-1-1.73l.5.87-.87.5-.5-.87zm-1-1.73l.5.87-.87.5-.5-.87zm-1-1.73l.5.87-.87.5-.5-.87zm-1-1.73l.5.87-.87.5-.5-.87zm-1-1.73l.5.87-.87.5-.5-.87zm-1-1.73l.5.87-.87.5-.5-.87zm-1-1.73l.5.87-.87.5-.5-.87zm-1-1.73l.5.87-.87.5-.5-.87zm-1-1.73l.5.87-.87.5-.5-.87zm-1-1.73l.5.87-.87.5-.5-.87zm-1-1.73l.5.87-.87.5-.5-.87zm-1-1.73l.5.87-.87.5-.5-.87zm-1-1.73l.5.87-.87.5-.5-.87zm-1-1.73l.5.87-.87.5-.5-.87zm-1-1.73l.5.87-.87.5-.5-.87zm-1-1.73l.5.87-.87.5-.5-.87zm-1-1.73l.5.87-.87.5-.5-.87zm-1-1.73l.5.87-.87.5-.5-.87zm-1-1.73l.5.87-.87.5-.5-.87zm-1-1.73l.5.87-.87.5-.5-.87zm-1-1.73l.5.87-.87.5-.5-.87zm-1-1.73l.5.87-.87.5-.5-.87zm-1-1.73l.5.87-.87.5-.35-.76zm-1-1.73l.5.87-.87.5-.5-.87zm-1-1.73l.5.87-.87.5-.5-.87zm-1-1.73l.5.87-.87.5-.5-.87zm-1-1.73l.5.87-.87.5-.35-.84zm-1-1.73l.5.87-.87.5-.5-.87zm-1-1.73l.5.87-.87.5-.5-.87zm-1-1.73l.5.87-.87.5-.5-.87zm-1-1.73l.5.87-.87.5-.5-.87zm-1-1.73l.5.87-.87.5-.5-.87zm-1-1.73l.5.87-.87.5-.5-.87zm-1-1.73l.5.87-.87.5-.5-.87zm-1-1.73l.5.87-.87.5-.5-.87zm-1-1.73l.5.87-.87.5-.5-.87zm-1-1.73l.5.87-.87.5-.5-.87zm-1-1.73l.5.87-.87.5-.35-.81zm-1-1.73l.5.87-.87.5-.5-.87zm-1-1.73l.5.87-.87.5-.5-.87zm-1-1.73l.5.87-.87.5-.5-.87zm-1-1.73l.5.87-.87.5-.5-.87zm-1-1.73l.5.87-.87.5-.5-.87zm-1-1.73l.5.87-.87.5-.5-.87zm-1-1.73l.5.87-.87.5-.5-.87zm-1-1.73l.5.87-.87.5-.5-.87zm-1-1.73l.5.87-.87.5-.5-.87zm-1-1.73l.5.87-.87.5-.5-.87zm-1-1.73l.5.87-.87.5-.35-.78zm-1-1.73l.5.87-.87.5-.5-.87zm-1-1.73l.5.87-.87.5-.5-.87zm-1-1.73l.5.87-.87.5-.5-.87zm-1-1.73l.5.87-.87.5-.5-.87zm-1-1.73l.5.87-.87.5-.5-.87zm-1-1.73l.5.87-.87.5-.5-.87zm-1-1.73l.5.87-.87.5-.5-.87zm-1-1.73l.5.87-.87.5-.5-.87zm-1-1.73l.5.87-.87.5-.5-.87zm-1-1.73l.5.87-.87.5-.5-.87zm-1-1.73l.5.87-.87.5-.35-.75zm-1-1.73l.5.87-.87.5-.5-.87zm-1-1.73l.5.87-.87.5-.5-.87zm-1-1.73l.5.87-.87.5-.5-.87zm-1-1.73l.5.87-.87.5-.5-.87z"/><path d="M197.6 201.66v.95h-1v-.95zm0-2v1h-1v-1zm0-2v1h-1v-1zm0-2v1h-1v-1zm0-2v1h-1v-1zm0-2v1h-1v-1zm0-2v1h-1v-1zm0-2v1h-1v-1zm0-2v1h-1v-1zm0-2v1h-1v-1zm0-2v1h-1v-1zm0-2v1h-1v-1zm0-2v1h-1v-1zm0-2v1h-1v-1zm0-2v1h-1v-1zm0-2v1h-1v-1zm0-2v1h-1v-1zm0-2v1h-1v-1zm0-2v1h-1v-1zm0-2v1h-1v-1zm0-2v1h-1v-1zm0-2v1h-1v-1zm0-2v1h-1v-1zm0-2v1h-1v-1zm0-2v1h-1v-1zm0-2v1h-1v-1zm0-2v1h-1v-1zm0-2v1h-1v-1zm0-2v1h-1v-1zm0-2v1h-1v-1zm0-2v1h-1v-1zm0-2v1h-1v-1zm0-2v1h-1v-1zm0-2v1h-1v-1zm0-2v1h-1v-1zm0-2v1h-1v-1zm0-2v1h-1v-1zm0-2v1h-1v-1zm0-2v1h-1v-1zm0-2v1h-1v-1zm0-2v1h-1v-1zm0-2v1h-1v-1zm0-2v1h-1v-1zm0-2v1h-1v-1zm0-2v1h-1v-1zm0-2v1h-1v-1zm0-2v1h-1v-1zm0-2v1h-1v-1zm0-2v1h-1v-1zm0-2v1h-1v-1zm0-2v1h-1v-1zm0-2v1h-1v-1zm0-2v1h-1v-1zm0-2v1h-1v-1zm0-2v1h-1v-1zm0-2v1h-1v-1zm0-2v1h-1v-1zm0-2v1h-1v-1zm0-2v1h-1v-1zm0-2v1h-1v-1zm0-2v1h-1v-1zm0-2v1h-1v-1zm0-2v1h-1v-1zm0-2v1h-1v-1zm0-2v1h-1v-1zm0-2v1h-1v-1zm0-2v1h-1v-1zm0-2v1h-1v-1zm0-2v1h-1v-1zm0-2v1h-1v-1zm0-2v1h-1v-1zm0-2v1h-1v-1zm0-2v1h-1v-1zm0-2v1h-1v-1zm0-2v1h-1v-1zm0-2v1h-1v-1zm0-2v1h-1v-1zm0-2v1h-1v-1zm0-2v1h-1v-1zm0-2v1h-1v-1zm0-2v1h-1v-1zm0-2v1h-1v-1zm0-2v1h-1v-1zm0-2v1h-1v-1zm0-2v1h-1v-1zm0-2v1h-1v-1zm0-2v1h-1v-1zm0-2v1h-1v-1zm0-2v1h-1v-1zm0-2v1h-1v-1zm0-2v1h-1v-1zm0-2v1h-1v-1zm0-2v1h-1v-1zm0-2v1h-1v-1z"/><path d="M198.01 202.04l-.47.82-.87-.5.47-.82zm1-1.73l-.5.87-.87-.5.5-.87zm1-1.73l-.5.87-.87-.5.5-.87zm1-1.73l-.5.87-.87-.5.5-.87zm1-1.73l-.5.87-.87-.5.5-.87zm1-1.73l-.5.87-.87-.5.5-.87zm1-1.73l-.5.87-.87-.5.5-.87zm1-1.73l-.5.87-.87-.5.5-.87zm1-1.73l-.5.87-.87-.5.5-.87zm1-1.73l-.5.87-.87-.5.5-.87zm1-1.73l-.5.87-.87-.5.5-.87zm1-1.73l-.5.87-.87-.5.5-.87zm1-1.73l-.5.87-.87-.5.5-.87zm1-1.73l-.5.87-.87-.5.5-.87zm1-1.73l-.5.87-.87-.5.5-.87zm1-1.73l-.5.87-.87-.5.5-.87zm1-1.73l-.5.87-.87-.5.5-.87zm1-1.73l-.5.87-.87-.5.5-.87zm1-1.73l-.5.87-.87-.5.5-.87zm1-1.73l-.5.87-.87-.5.5-.87zm1-1.73l-.5.87-.87-.5.5-.87zm1-1.73l-.5.87-.87-.5.5-.87zm1-1.73l-.5.87-.87-.5.5-.87zm1-1.73l-.5.87-.87-.5.5-.87zm1-1.73l-.5.87-.87-.5.5-.87zm1-1.73l-.5.87-.87-.5.5-.87zm1-1.73l-.5.87-.87-.5.5-.87zm1-1.73l-.5.87-.87-.5.5-.87zm1-1.73l-.5.87-.87-.5.5-.87zm1-1.73l-.5.87-.87-.5.5-.87zm1-1.73l-.5.87-.87-.5.5-.87zm1-1.73l-.5.87-.87-.5.5-.87zm1-1.73l-.5.87-.87-.5.5-.87zm1-1.73l-.5.87-.87-.5.5-.87zm1-1.73l-.5.87-.87-.5.5-.87zm1-1.73l-.5.87-.87-.5.5-.87zm1-1.73l-.5.87-.87-.5.5-.87zm1-1.73l-.5.87-.87-.5.5-.87zm1-1.73l-.5.87-.87-.5.5-.87zm1-1.73l-.5.87-.87-.5.5-.87zm1-1.73l-.5.87-.87-.5.5-.87zm1-1.73l-.5.87-.87-.5.5-.87zm1-1.73l-.5.87-.87-.5.5-.87zm1-1.73l-.5.87-.87-.5.5-.87zm1-1.73l-.5.87-.87-.5.5-.87zm1-1.73l-.5.87-.87-.5.5-.87zm1-1.73l-.5.87-.87-.5.5-.87zm1-1.73l-.5.87-.87-.5.5-.87zm1-1.73l-.5.87-.87-.5.5-.87zm1-1.73l-.5.87-.87-.5.5-.87zm1-1.73l-.5.87-.87-.5.5-.87zm1-1.73l-.5.87-.87-.5.5-.87zm1-1.73l-.5.87-.87-.5.5-.87zm1-1.73l-.5.87-.87-.5.5-.87zm1-1.73l-.5.87-.87-.5.5-.87zm1-1.73l-.5.87-.87-.5.5-.87zm1-1.73l-.5.87-.87-.5.5-.87zm1-1.73l-.5.87-.87-.5.5-.87zm1-1.73l-.5.87-.87-.5.5-.87zm1-1.73l-.5.87-.87-.5.5-.87zm1-1.73l-.5.87-.87-.5.5-.87zm1-1.73l-.5.87-.87-.5.5-.87zm1-1.73l-.5.87-.87-.5.5-.87zm1-1.73l-.5.87-.87-.5.5-.87zm1-1.73l-.5.87-.87-.5.5-.87zm1-1.73l-.5.87-.87-.5.5-.87zm1-1.73l-.5.87-.87-.5.5-.87zm1-1.73l-.5.87-.87-.5.5-.87zm1-1.73l-.5.87-.87-.5.5-.87zm1-1.73l-.5.87-.87-.5.5-.87zm1-1.73l-.5.87-.87-.5.5-.87zm1-1.73l-.5.87-.87-.5.5-.87zm1-1.73l-.5.87-.87-.5.5-.87zm1-1.73l-.5.87-.87-.5.5-.87zm1-1.73l-.5.87-.87-.5.5-.87zm1-1.73l-.5.87-.87-.5.5-.87zm1-1.73l-.5.87-.87-.5.5-.87zm1-1.73l-.5.87-.87-.5.5-.87zm1-1.73l-.5.87-.87-.5.5-.87zm1-1.73l-.5.87-.87-.5.5-.87zm1-1.73l-.5.87-.87-.5.5-.87zm1-1.73l-.5.87-.87-.5.5-.87zm1-1.73l-.5.87-.87-.5.5-.87zm1-1.73l-.5.87-.87-.5.5-.87zm1-1.73l-.5.87-.87-.5.5-.87zm1-1.73l-.5.87-.87-.5.5-.87zm1-1.73l-.5.87-.87-.5.5-.87zm1-1.73l-.5.87-.87-.5.5-.87zm1-1.73l-.5.87-.87-.5.5-.87zm1-1.73l-.5.87-.87-.5.5-.87zm1-1.73l-.5.87-.87-.5.5-.87zm1-1.73l-.5.87-.87-.5.5-.87zm1-1.73l-.5.87-.87-.5.5-.87zm1-1.73l-.5.87-.87-.5.5-.87z"/><circle cx="197.1" cy="202.61" r="3"/><path d="M212.69 207.19c0-.15-.17-.24-.36-.24s-.25 0-.27.14-.22.41-.37.41l-.29-.17a2.76 2.76 0 0 0-2.19-.92c-4.2 0-7.19 4.57-7.19 8.23 0 2.43 1.31 4.47 4.2 4.47a5 5 0 0 0 2.6-.85.71.71 0 0 1 .42-.15c.19 0 .29.22.29.49s.08.15.29.15.32-.07.34-.17a19.72 19.72 0 0 1 .8-3.48c.07-.19-.2-.27-.36-.27s-.22 0-.27.15c-.68 1.92-2 3.35-4 3.35-1.8 0-2.4-1.39-2.4-3.16 0-3.47 2.36-8 5.25-8 1.41 0 2.21.76 2.21 2.55v.75c0 .26.22.19.39.19s.24-.05.25-.17a18.31 18.31 0 0 1 .66-3.3zM9.5 252.61V152.34l50.27-87.07 87.07-50.26h100.53l86.84 50.13-1 1.73-86.37-49.86h-99.47L61.23 66.74 11.5 152.88v99.73h-2z"/></g></svg>