<svg xmlns="http://www.w3.org/2000/svg" xmlns:xlink="http://www.w3.org/1999/xlink" version="1.2" height="349.79" width="255.25"><defs><symbol id="b" overflow="visible"><path d="M12.8-7.4c0-2.77-1.82-4.72-4.55-4.72-3.9 0-7.63 3.98-7.63 7.95C.63-1.33 2.54.52 5.2.52c3.83 0 7.6-3.85 7.6-7.93zm-1.94-.68c0 1.2-.45 3.85-2.13 5.9C7.93-1.13 6.56-.2 5.28-.2c-1.45 0-2.64-1.24-2.64-3.5 0-.73.23-3.22 1.53-5.17 1.16-1.75 2.78-2.56 3.97-2.56 1.2 0 2.72.83 2.72 3.34zm0 0"/></symbol><symbol id="c" overflow="visible"><path d="M18.02-11.42c0-.06-.05-.33-.41-.33-.44 0-.92.05-1.31.05-.57 0-1.2-.05-1.77-.05-.19 0-.55.08-.55.47 0 .23.27.33.49.33.34.01.8.12.8.54 0 .16-.08.29-.22.52L10.8-2.52l-.58-7.76c-.01-.35-.07-.66.99-.67.34 0 .69-.07.69-.47 0-.25-.36-.33-.49-.33-.69 0-1.4.05-2.08.05-.37 0-1.37-.05-1.78-.05-.18 0-.54.08-.54.48 0 .29.4.32.64.32.67 0 .65.04.68.3l.1 1.3L5.78-4.7 4.52-2.52l-.61-7.95c0-.17-.07-.47 1.09-.48.23 0 .58-.08.58-.47 0-.3-.44-.33-.47-.33-.7 0-1.4.05-2.08.05-.58 0-1.19-.05-1.8-.05-.15 0-.51.08-.51.47 0 .3.37.33.64.33.72 0 .66.04.7.51l.77 10.4c.01.24.01.56.48.56.4 0 .47-.24.6-.46l2.68-4.65 1.94-3.38.58 7.92c.03.32.08.57.5.57s.55-.3.6-.41l.85-1.5 4.74-8.2c.42-.77.8-1.29 1.73-1.36.19-.02.49-.1.49-.47zm0 0"/></symbol><symbol id="d" overflow="visible"><path d="M13.08-9.27c0-1.3-1.19-2.48-3.4-2.48h-5.7c-.35 0-.7.08-.7.48 0 .29.4.32.72.32 0 0 .36 0 .63.04.3.03.28-.03.28.13 0 .05-.02.1-.07.31L2.52-1.34c-.18.64-.07.68-1.35.68-.34 0-.65.07-.65.47 0 .3.37.33.65.33h6.06c2.88 0 4.93-2.1 4.93-3.81 0-1.11-.79-2.06-2.22-2.42 1.64-.47 3.14-1.66 3.14-3.18zm-1.99-.06c0 1.46-1.43 2.97-3.3 2.97H5.57l1.03-4.06c.16-.6.08-.53.7-.53h2.16c1.26 0 1.62.87 1.62 1.62zm-.93 5.47c0 1.67-1.52 3.2-3.33 3.2H4.52c-.25 0-.24 0-.32-.03h-.06v-.03c0-.05-.01-.06.08-.37L5.4-5.72h3.01c1.38 0 1.74 1.11 1.74 1.86zm0 0"/></symbol><symbol id="f" overflow="visible"><path d="M13.13-11.8v-.01c0-.03 0-.32-.4-.32-.23 0-.3.13-.43.29l-.97 1.07a3.5 3.5 0 0 0-2.86-1.36C4.45-12.13.64-8.25.64-4.28c0 2.81 2.02 4.8 4.81 4.8A5.9 5.9 0 0 0 9.3-1.02a5.8 5.8 0 0 0 1.92-3.06c0-.23-.35-.31-.4-.31h-.02c-.22 0-.4.14-.43.3a5.47 5.47 0 0 1-1.68 2.6 4.62 4.62 0 0 1-2.96 1.2c-1.36 0-3.1-.79-3.1-3.4 0-.95.34-3.69 2.01-5.64a5.58 5.58 0 0 1 3.97-2c1.5 0 2.52 1.17 2.52 3.16 0 .67-.07.67-.07.86 0 .28.4.31.49.31.37 0 .43-.19.5-.47zm0 0"/></symbol><symbol id="g" overflow="visible"><path d="M4.9-3.8h3.93c.04.58.26 2.58.26 2.7 0 .38-.65.46-1.01.46-.31 0-.63.06-.63.45 0 .3.44.33.46.33.71 0 1.43-.06 2.12-.06.4 0 1.49.06 1.92.06.2 0 .53-.1.53-.48 0-.28-.42-.3-.62-.3-.97 0-.84-.02-.9-.5L9.93-11.78c-.03-.31-.04-.53-.51-.53-.44 0-.57.22-.66.37l-5.9 9.96C2.16-.86 1.57-.7.91-.64.66-.62.37-.56.37-.2c0 .14.13.33.44.33.49 0 1-.06 1.47-.06.55 0 1.14.06 1.7.06.2 0 .54-.1.54-.47 0-.23-.27-.31-.47-.31-.3-.05-.61-.13-.61-.48 0-.18.1-.35.23-.58.13-.2.14-.2 1.24-2.1zm3.85-.8H5.39l2.9-4.84zm0 0"/></symbol><symbol id="h" overflow="visible"><path d="M10.44.08h.2V-.9H9.47v-4.27c0-1.76-.94-2.5-2.81-2.5-1.41 0-2.27.66-2.79 1.32v-1.33l-.2.01-2.92.14H.58v.97h.19c1 0 .98-.08.98.57V-.9H.58v.97h.2L2.91.03l2.12.05h.2V-.9H4.06v-3.4a2.46 2.46 0 0 1 2.35-2.58c.34 0 .75.25.75 1.54V-.9H5.98v.97h.2L8.32.03zm0 0"/></symbol><symbol id="e" overflow="visible"><path d="M4.23-5.9c0-.38-.3-.76-.82-.76-.38 0-.66.22-.74.43L.63-1.17l-.07.14h.81l.05-.06 2.7-4.44a.7.7 0 0 0 .11-.38zm0 0"/></symbol><clipPath id="a"><path d="M15 19h244.2v334.1H15zm0 0"/></clipPath></defs><g clip-path="url(#a)" transform="translate(-3.95 -3.32)"><path d="M15.63 301.8l102.6-281.9L259.2 71.2 156.59 353.1zm0 0" fill="#f0e3d7"/></g><path d="M11.69 298.49l102.6-281.91" fill="none" stroke="#ca9763" stroke-width="2" stroke-miterlimit="10"/><use height="100%" width="100%" y="318.25" x="3.32" xlink:href="#b" fill="#ca9763" transform="translate(-3.95 -3.32)"/><use height="100%" width="100%" y="15.07" x="115.19" xlink:href="#c" fill="#ca9763" transform="translate(-3.95 -3.32)"/><path d="M42.47 213.91l102.5 37.91 44.72-122.9L46.21 75.84" fill="none" stroke="#000" stroke-miterlimit="10" stroke-dasharray="1,.99628"/><use height="100%" width="100%" y="271.78" x="139.35" xlink:href="#d" transform="translate(-3.95 -3.32)"/><use height="100%" width="100%" y="265.61" x="152.68" xlink:href="#e" transform="translate(-3.95 -3.32)"/><path d="M42.47 213.91l3.56-131.5" fill="none" stroke="#000" stroke-width="1.5" stroke-miterlimit="10"/><path d="M46.2 75.85a26.24 26.24 0 0 1-2.92 7.21l5.47.15a26.3 26.3 0 0 1-2.54-7.36"/><use height="100%" width="100%" y="74.59" x="44.08" xlink:href="#f" transform="translate(-3.95 -3.32)"/><path d="M42.47 213.91l141.52-81.7" fill="none" stroke="#000" stroke-width="1.5" stroke-miterlimit="10"/><path d="M189.7 128.91c-1.88.66-5.17 1.3-7.71 1.28l2.74 4.75a26.55 26.55 0 0 1 4.96-6.03"/><use height="100%" width="100%" y="223.32" x="29.59" xlink:href="#g" transform="translate(-3.95 -3.32)"/><use height="100%" width="100%" y="128.03" x="197.71" xlink:href="#d" transform="translate(-3.95 -3.32)"/><path d="M73.21 225.28l-24.57-9.09" fill="none" stroke="#000" stroke-width="1.5" stroke-miterlimit="10"/><path d="M42.47 213.91c1.7 1.02 4.3 3.15 5.9 5.11l1.9-5.14c-2.5.44-5.84.37-7.8.03"/><use height="100%" width="100%" y="240.34" x="71.74" xlink:href="#h" transform="translate(-3.95 -3.32)"/><use height="100%" width="100%" y="93" x="96.97" xlink:href="#f" transform="translate(-3.95 -3.32)"/><use height="100%" width="100%" y="86.83" x="110.36" xlink:href="#e" transform="translate(-3.95 -3.32)"/></svg>