<svg xmlns="http://www.w3.org/2000/svg" xmlns:xlink="http://www.w3.org/1999/xlink" version="1.2" height="132.58" width="302.07"><defs><symbol id="b" overflow="visible"><path d="M13.94-4.78c.1 0 .14-.1.14-.28 0-.19-.03-.35-.14-.35-.66 0-1.19.11-2.24.11-.93 0-2.03-.1-2.86-.1-.1 0-.15.07-.15.34 0 .2.01.28.12.28 1.63 0 1.94.48 1.94 1.72 0 1.58-1.36 2.54-3.47 2.54-2.69 0-4.44-2.07-4.44-5.43 0-3.99 1.99-5.7 4.35-5.7 2.8 0 4.25 1.5 4.47 3.62 0 .15.01.25.3.25.21 0 .32-.03.32-.25 0-.13-.1-.69-.1-1.7 0-.88.1-1.64.1-1.91 0-.16-.05-.19-.31-.19-.24 0-.31.03-.31.19 0 .36-.11.5-.47.5-.11 0-.2-.03-.33-.13a6.12 6.12 0 00-3.78-1.15A6.1 6.1 0 00.8-6.14C.8-2.25 3.52.26 7.1.26a5.9 5.9 0 003.96-1.37.95.95 0 01.47-.12c.27 0 .52.14.63.25.03.03.09.04.17.04.1 0 .28-.06.28-.25-.03-.37-.05-1.28-.05-1.83 0-1.48.24-1.76 1.38-1.76zm0 0"/></symbol><symbol id="c" overflow="visible"><path d="M4.67-2.02v-3.64c.31 0 .61 0 .9.02.15.05.4.31.8.83l1.74 2.25C9.45-.83 10.44 0 11.08 0c.84 0 1.78.03 2.4.03.16 0 .2-.08.2-.36 0-.23-.07-.31-.23-.31-.97 0-1.68-.6-3.6-2.8-.77-.86-1.54-1.76-2.4-2.53 2.17-.33 3.2-1.64 3.2-2.97 0-1.65-1.34-3.12-4.17-3.12-.67 0-1.68.04-2.65.04-1.36 0-2.2-.09-2.63-.09-.1 0-.15.1-.15.34 0 .2.06.3.14.3 1.31 0 1.69.44 1.69 1.31v8.2c0 1-.47 1.35-1.68 1.35-.07 0-.1.11-.1.33 0 .2 0 .3.1.3.4 0 1.3-.05 2.63-.05 1.36 0 2.04.05 2.48.05.11 0 .17-.15.17-.35 0-.14-.04-.28-.14-.28-1.3 0-1.67-.52-1.67-1.4zm1.38-9.43c1.76 0 2.48 1.15 2.48 2.67 0 1.48-.72 2.53-2.75 2.53h-1.1c0-1.67.07-3.98.12-5.14.22-.03.6-.06 1.25-.06zm0 0"/></symbol><symbol id="d" overflow="visible"><path d="M3.83-.03c1.31 0 5.7.08 6.84.08.19 0 .27-.03.27-.22 0-1.56.08-2.6.08-3.19 0-.14-.05-.19-.38-.19-.2 0-.3.07-.33.24C10.16-1.5 9.45-.62 6.6-.62c-1.68 0-1.93-.46-1.93-1.25 0-.52.03-1 .03-2 0-.7 0-1.55-.02-2.27 2.3 0 2.63.58 2.63 1.73 0 .18.03.24.36.24.26 0 .32-.06.32-.24 0-.21-.07-.75-.07-2.01 0-1.5.07-1.86.07-2.03 0-.2-.06-.25-.32-.25-.32 0-.36.03-.36.23 0 1.05-.2 1.72-2.63 1.72.08-.9.14-3.3.14-4.53.6-.08 1.16-.13 2.03-.13 1.82 0 2.55.72 2.82 2.18.01.12.18.14.32.14.2 0 .36-.05.36-.18 0-.51-.12-1.46-.12-2.51 0-.24-.03-.33-.3-.33-.25 0-4.53.1-6.1.1-1.35 0-2.2-.1-2.62-.1-.1 0-.15.1-.15.34 0 .2.04.3.12.3 1.31 0 1.7.44 1.7 1.31v8.2c0 1-.46 1.35-1.67 1.35-.07 0-.1.11-.1.33 0 .2 0 .3.1.3.4 0 1.3-.05 2.63-.05zm0 0"/></symbol><symbol id="e" overflow="visible"><path d="M3.42-7.78c0-.16-.15-.27-.4-.27-.58.24-1.6.44-2.11.44-.11 0-.13.14-.13.33 0 .17.05.3.19.3h.37c.41 0 .6.04.6.45v5.1c0 .54-.08.82-1.11.82C.77-.6.7-.45.7-.3c0 .18.02.33.1.33.6 0 1.07-.07 1.9-.07.77 0 1.32.07 1.72.07.11 0 .17-.08.17-.33 0-.2 0-.3-.14-.3-.8 0-1.03-.19-1.03-.77v-2.8c0-2.52 1.4-3 2.25-3 .81 0 1.5.48 1.5 1.5v4.34c0 .56-.15.73-1.03.73-.08 0-.1.11-.1.27 0 .18.02.36.12.36.59 0 .98-.07 1.8-.07.77 0 1.45.07 1.84.07.1 0 .14-.16.14-.4 0-.12-.03-.23-.11-.23-.92 0-1.17-.22-1.17-.8 0-1.22.04-3.42.04-4.3 0-1.67-1.15-2.38-2.43-2.38-1.07 0-2.36.6-2.85 1.56zm0 0"/></symbol><symbol id="f" overflow="visible"><path d="M1.6-6.98v5.21C1.6-.25 2.4.31 3.67.31c1.15 0 2.01-.67 2.01-1.48 0-.14-.12-.22-.28-.22-.1 0-.23.05-.25.2-.03.25-.44.49-.87.49-.64 0-1.18-.24-1.18-1.03 0-2.25.02-4.11.05-5.25l2.22.01c.12 0 .17-.06.17-.34 0-.3-.05-.46-.17-.46-.64 0-1.53.04-2.19.05.06-.53.11-1.6.11-2.05 0-.1-.08-.17-.39-.17-.1 0-.19.02-.2.11-.24 1.33-1 2.3-1.78 2.3-.08 0-.1.16-.1.34 0 .16.03.2.1.2zm0 0"/></symbol><symbol id="g" overflow="visible"><path d="M3.42-1.4c0-4.07.05-5.87.05-6.38 0-.14-.19-.27-.42-.27-.67.25-1.63.44-2.14.44-.11 0-.13.14-.13.33 0 .17.02.3.16.3h.4c.52 0 .6.1.6.53v5.03c0 .53-.1.81-1.13.81C.75-.6.7-.5.7-.34c0 .18.01.36.1.36.58 0 1.08-.07 1.91-.07.77 0 1.42.07 1.83.07.11 0 .14-.16.14-.33 0-.19-.03-.3-.1-.3-1 0-1.15-.25-1.15-.8zm-.73-9a1 1 0 00.98-1 1 1 0 10-1.98 0c0 .57.44 1 1 1zm0 0"/></symbol><symbol id="h" overflow="visible"><path d="M4.06-.03c-.25.72-.4 1.22-.92 2.08-.6 1.01-2.05.98-2.05 2.03 0 .45.25.72.75.72.6 0 1.28-.52 1.88-2.03a110.14 110.14 0 014.06-9.2c.25-.38.53-.73 1.05-.73.08 0 .1-.23.1-.4 0-.13-.05-.22-.1-.22-.14 0-.86.05-1.46.05-.65 0-1.37-.05-1.57-.05-.05 0-.07.2-.07.36 0 .12.05.25.1.25.73 0 .86.22.86.56 0 .77-1.35 3.84-1.78 4.77A70.28 70.28 0 012.95-6.2c-.08-.25-.1-.34-.1-.53 0-.23.12-.44.8-.44.08 0 .08-.2.08-.36 0-.06-.01-.26-.07-.26-.54 0-.96.05-1.72.05C1-7.73.33-7.78.16-7.78c-.05 0-.1.2-.1.26 0 .16.05.36.13.36a.8.8 0 01.34.07c.56.28 1.17 1.87 1.97 3.57.83 1.79 1.55 3.27 1.56 3.49zm0 0"/></symbol><symbol id="i" overflow="visible"><path d="M11.56-.06c.06.1.16.17.27.17.3 0 .48-.05.48-.13 0-.51-.03-1.45-.03-2.85 0-1.91.02-5.52.05-6.93.03-1.37.64-1.67 1.64-1.67.1 0 .14-.12.14-.33 0-.22-.05-.3-.13-.3-.26 0-.96.08-2.17.08-1 0-1.6-.09-2.1-.09-.12 0-.16.13-.16.31 0 .2.06.33.14.33 1.58 0 1.8.63 1.8 1.61v6.72c-.49-.78-1.8-2.4-3.2-4.05-1.57-1.86-3.21-3.75-3.96-4.7-.08-.1-.14-.14-.28-.14l-.85.01c-.93 0-1.93-.09-2.25-.09-.06 0-.15.05-.15.33 0 .25.04.31.12.31 1.55 0 2.02.85 2.02 1.61l-.06 7.72C2.85-1.02 2.33-.61 1.22-.61c-.1 0-.11.19-.11.33s.03.3.08.3c.28 0 .89-.05 2.06-.05 1.16 0 2.2.05 2.42.05.08 0 .13-.2.13-.33 0-.19-.05-.3-.13-.3-1.22 0-1.92-.4-1.92-1.53v-7.58c1.73 1.83 7 8.45 7.81 9.66zm0 0"/></symbol><symbol id="j" overflow="visible"><path d="M4.95.31c2.36 0 4.3-1.9 4.3-4.23a4.22 4.22 0 00-4.3-4.17 4.22 4.22 0 00-4.3 4.17A4.28 4.28 0 004.96.3zm0-7.72c1.53 0 2.46 1.36 2.46 3.49C7.4-1.66 6.48-.4 4.95-.4 3.42-.4 2.5-1.6 2.5-3.92c0-2.3.9-3.49 2.45-3.49zm0 0"/></symbol><symbol id="k" overflow="visible"><path d="M4.3-4.63c0-.43-.03-.71-.17-.71H.96c-.08 0-.17.36-.17.73 0 .34.1.7.17.7h3.16c.1 0 .17-.32.17-.71zm0 0"/></symbol><symbol id="m" overflow="visible"><path d="M10.78-9.4c0 .56-.3 1.71-.92 2.34-.42.43-1.23.92-2.69.92H5.52l1.06-4.28c.1-.42.15-.47.31-.52l1-.01c1.2 0 2.9-.03 2.9 1.54zM4.25-1.1l1.1-4.38H7.2c1.34 0 1.65.8 1.65 1.4 0 .24-.14.77-.23 1.16-.13.47-.28 1.1-.28 1.45C8.33.45 10.55.52 10.8.52c1.7 0 2.26-1.86 2.26-2.1 0-.26-.31-.34-.42-.34h-.02c-.39 0-.4.26-.42.34-.42 1.25-1.14 1.46-1.34 1.46-.31 0-.45-.22-.45-.91 0-.53.07-1.38.15-1.92.03-.25.08-.58.08-.83 0-1.1-.78-1.67-1.37-1.97 1.68-.47 3.51-1.64 3.51-3.31 0-1.52-1.6-2.69-3.97-2.69H3.97c-.4 0-.7.08-.7.48 0 .29.39.32.67.32 0 0 .33 0 .6.04.3.03.29-.03.29.13l-.06.31L2.5-1.34c-.17.64-.06.68-1.34.68-.14 0-.33-.03-.47.07-.17.07-.22.21-.22.4 0 .27.37.33.45.33h.03L3.08.08l2.15.06c.22 0 .57-.1.57-.48 0-.28-.4-.32-.7-.32-.7 0-.88 0-.88-.17 0-.1.01-.15.03-.28zm0 0"/></symbol><symbol id="n" overflow="visible"><path d="M12.8-7.4c0-2.77-1.82-4.72-4.55-4.72-3.9 0-7.63 3.98-7.63 7.95C.63-1.33 2.54.52 5.2.52c3.83 0 7.6-3.85 7.6-7.93zm-1.94-.68c0 1.2-.45 3.85-2.13 5.9C7.93-1.13 6.56-.2 5.28-.2c-1.45 0-2.64-1.24-2.64-3.5 0-.73.23-3.22 1.53-5.17 1.16-1.75 2.78-2.56 3.97-2.56 1.2 0 2.72.83 2.72 3.34zm0 0"/></symbol><symbol id="o" overflow="visible"><path d="M13.08-9.27c0-1.3-1.19-2.48-3.4-2.48h-5.7c-.35 0-.7.08-.7.48 0 .29.4.32.72.32 0 0 .36 0 .63.04.3.03.28-.03.28.13 0 .05-.02.1-.07.31L2.52-1.34c-.18.64-.07.68-1.35.68-.34 0-.65.07-.65.47 0 .3.37.33.65.33h6.06c2.88 0 4.93-2.1 4.93-3.81 0-1.11-.79-2.06-2.22-2.42 1.64-.47 3.14-1.66 3.14-3.18zm-1.99-.06c0 1.46-1.43 2.97-3.3 2.97H5.57l1.03-4.06c.16-.6.08-.53.7-.53h2.16c1.26 0 1.62.87 1.62 1.62zm-.93 5.47c0 1.67-1.52 3.2-3.33 3.2H4.52c-.25 0-.24 0-.32-.03h-.06v-.03c0-.05-.01-.06.08-.37L5.4-5.72h3.01c1.38 0 1.74 1.11 1.74 1.86zm0 0"/></symbol><symbol id="p" overflow="visible"><path d="M13.13-11.8v-.01c0-.03 0-.32-.4-.32-.23 0-.3.13-.43.29l-.97 1.07a3.5 3.5 0 00-2.86-1.36C4.45-12.13.64-8.25.64-4.28c0 2.81 2.02 4.8 4.81 4.8A5.9 5.9 0 009.3-1.02a5.8 5.8 0 001.92-3.06c0-.23-.35-.31-.4-.31h-.02c-.22 0-.4.14-.43.3a5.47 5.47 0 01-1.68 2.6 4.62 4.62 0 01-2.96 1.2c-1.36 0-3.1-.79-3.1-3.4 0-.95.34-3.69 2.01-5.64a5.58 5.58 0 013.97-2c1.5 0 2.52 1.17 2.52 3.16 0 .67-.07.67-.07.86 0 .28.4.31.49.31.37 0 .43-.19.5-.47zm0 0"/></symbol><symbol id="q" overflow="visible"><path d="M4.9-3.8h3.93c.04.58.26 2.58.26 2.7 0 .38-.65.46-1.01.46-.31 0-.63.06-.63.45 0 .3.44.33.46.33.71 0 1.43-.06 2.12-.06.4 0 1.49.06 1.92.06.2 0 .53-.1.53-.48 0-.28-.42-.3-.62-.3-.97 0-.84-.02-.9-.5L9.93-11.78c-.03-.31-.04-.53-.51-.53-.44 0-.57.22-.66.37l-5.9 9.96C2.16-.86 1.57-.7.91-.64.66-.62.37-.56.37-.2c0 .14.13.33.44.33.49 0 1-.06 1.47-.06.55 0 1.14.06 1.7.06.2 0 .54-.1.54-.47 0-.23-.27-.31-.47-.31-.3-.05-.61-.13-.61-.48 0-.18.1-.35.23-.58.13-.2.14-.2 1.24-2.1zm3.85-.8H5.39l2.9-4.84zm0 0"/></symbol><clipPath id="a"><path d="M5 113h302.18v3H5zm0 0"/></clipPath><clipPath id="l"><path d="M261 14h46.18v51H261zm0 0"/></clipPath></defs><g clip-path="url(#a)" transform="translate(-4.12 -3.33)"><path d="M6.19 114.36h300" fill="none" stroke="#000" stroke-width="2" stroke-miterlimit="10"/></g><g transform="translate(-4.12 -3.33)"><use height="100%" width="100%" y="131.11" x="3.32" xlink:href="#b"/><use height="100%" width="100%" y="131.11" x="17.72" xlink:href="#c"/></g><g transform="translate(-4.12 -3.33)"><use height="100%" width="100%" y="131.11" x="35.55" xlink:href="#d"/><use height="100%" width="100%" y="131.11" x="47.62" xlink:href="#e"/><use height="100%" width="100%" y="131.11" x="57.96" xlink:href="#f"/><use height="100%" width="100%" y="131.11" x="64.01" xlink:href="#g"/><use height="100%" width="100%" y="131.11" x="69.11" xlink:href="#f"/><use height="100%" width="100%" y="131.11" x="75.16" xlink:href="#h"/></g><path d="M102.07 101.03h100v-80h-100zm0 0" fill="none" stroke="#000" stroke-miterlimit="10"/><g transform="translate(-4.12 -3.33)"><use height="100%" width="100%" y="15.75" x="95.83" xlink:href="#i"/><use height="100%" width="100%" y="15.75" x="110.48" xlink:href="#j"/><use height="100%" width="100%" y="15.75" x="120.37" xlink:href="#e"/><use height="100%" width="100%" y="15.75" x="130.71" xlink:href="#k"/><use height="100%" width="100%" y="15.75" x="135.81" xlink:href="#b"/><use height="100%" width="100%" y="15.75" x="150.21" xlink:href="#c"/></g><g transform="translate(-4.12 -3.33)"><use height="100%" width="100%" y="15.75" x="168.04" xlink:href="#d"/><use height="100%" width="100%" y="15.75" x="180.11" xlink:href="#e"/><use height="100%" width="100%" y="15.75" x="190.45" xlink:href="#f"/><use height="100%" width="100%" y="15.75" x="196.5" xlink:href="#g"/><use height="100%" width="100%" y="15.75" x="201.6" xlink:href="#f"/><use height="100%" width="100%" y="15.75" x="207.65" xlink:href="#h"/></g><path d="M157.77 107.74L281 36.6" fill="none" stroke="#000" stroke-width="1.5" stroke-miterlimit="10"/><path d="M152.07 111.03a26.76 26.76 0 017.7-1.28l-2.74-4.75a26.36 26.36 0 01-4.96 6.03"/><g clip-path="url(#l)" transform="translate(-4.12 -3.33)"><path d="M283.19 35.83l4.5 7.81" fill="none" stroke="#000" stroke-width="1.5" stroke-miterlimit="10"/></g><use height="100%" width="100%" y="130.18" x="149.73" xlink:href="#m" transform="translate(-4.12 -3.33)"/><use height="100%" width="100%" y="36.2" x="288.75" xlink:href="#n" transform="translate(-4.12 -3.33)"/><path d="M152.07 111.03l-25.98-15" fill="none" stroke="#000" stroke-miterlimit="10" stroke-dasharray="1,.99628"/><use height="100%" width="100%" y="90.4" x="123.75" xlink:href="#o" transform="translate(-4.12 -3.33)"/><path d="M125.11 95.47L45.2 49.33m82.5 42.43l-4.52 7.8" fill="none" stroke="#000" stroke-width="1.5" stroke-miterlimit="10"/><path d="M39.48 46.03c1.51 1.3 3.7 3.83 4.97 6.03l2.74-4.75c-2.54.02-5.83-.62-7.7-1.28"/><use height="100%" width="100%" y="48.32" x="30.91" xlink:href="#p" transform="translate(-4.12 -3.33)"/><use height="100%" width="100%" y="81.54" x="189.62" xlink:href="#q" transform="translate(-4.12 -3.33)"/></svg>