<svg xmlns="http://www.w3.org/2000/svg" xmlns:xlink="http://www.w3.org/1999/xlink" version="1.2" height="306.52" width="328.44"><defs><symbol id="b" overflow="visible"><path d="M4.1-3.1c2.63-2.3 3.7-3.24 3.7-4.98 0-1.95-1.58-3.37-3.77-3.37A3.26 3.26 0 0 0 .7-8.27c0 1.05.98 1.08 1.06 1.08.4 0 1.06-.28 1.06-1.04 0-.46-.31-.99-1.06-1a2.25 2.25 0 0 1 2.06-1.44c1.38 0 2.11 1.23 2.11 2.6 0 1.32-.84 2.62-1.75 3.65L.91-.82c-.2.21-.22.3-.22.7V0H7.3l.02-.13.47-2.92.01-.12h-.75l-.03.1c-.08.48-.2 1.18-.33 1.41-.18.08-1.14.1-1.48.1H2.5zm0 0"/></symbol><symbol id="d" overflow="visible"><path d="M7.9-8.45c0-1.05-.24-3.53-2.21-3.53C3.1-11.98.55-7.14.55-3.34.55-1.81 1 .19 2.75.19c2.63 0 5.16-4.94 5.16-8.64zM6.45-9.47c0 .8-.11 1.56-.5 3.16H2.72c.26-1.02.6-2.27 1.26-3.38.47-.83 1.1-1.67 1.7-1.67.62 0 .76.9.76 1.9zm-.72 3.99c-.19.76-.55 2.07-1.14 3.18C3.97-1.16 3.3-.44 2.75-.44 2.37-.44 2-.77 2-2.33c0-.69.1-1.56.52-3.15zm0 0"/></symbol><symbol id="e" overflow="visible"><path d="M8.23-6.6c0-.32-.26-.57-.67-.57-.2 0-.56.1-.75.45a1.9 1.9 0 0 0-1.53-.8c-2.1 0-4.2 2.41-4.2 4.8C1.08-1.08 2.12 0 3.5 0c.73 0 1.33-.36 1.72-.66l-.45 1.79c-.1.2-.66 1.73-2.29 1.73-.23 0-.59-.02-.96-.1a1 1 0 0 0 .46-.82c0-.31-.21-.74-.8-.74-.5 0-1.1.38-1.1 1.11 0 .8.78 1.17 2.44 1.17 2.23 0 3.5-1.35 3.78-2.39l1.87-7.36v-.03c.02-.08.06-.15.06-.3zm-1.73 1c0 .05-.05.16-.06.22l-.82 3.11c-.07.4-.45.79-.82 1.1a2.2 2.2 0 0 1-1.25.54c-.66 0-.92-.7-.92-1.37 0-.75.48-2.7.92-3.52.47-.8 1.17-1.37 1.75-1.37.9 0 1.18 1.16 1.2 1.3zm0 0"/></symbol><symbol id="g" overflow="visible"><path d="M13.08-9.27c0-1.3-1.19-2.48-3.4-2.48h-5.7c-.35 0-.7.08-.7.48 0 .29.4.32.72.32 0 0 .36 0 .63.04.3.03.28-.03.28.13 0 .05-.02.1-.07.31L2.52-1.34c-.18.64-.07.68-1.35.68-.34 0-.65.07-.65.47 0 .3.37.33.65.33h6.06c2.88 0 4.93-2.1 4.93-3.81 0-1.11-.79-2.06-2.22-2.42 1.64-.47 3.14-1.66 3.14-3.18zm-1.99-.06c0 1.46-1.43 2.97-3.3 2.97H5.57l1.03-4.06c.16-.6.08-.53.7-.53h2.16c1.26 0 1.62.87 1.62 1.62zm-.93 5.47c0 1.67-1.52 3.2-3.33 3.2H4.52c-.25 0-.24 0-.32-.03h-.06v-.03c0-.05-.01-.06.08-.37L5.4-5.72h3.01c1.38 0 1.74 1.11 1.74 1.86zm0 0"/></symbol><symbol id="h" overflow="visible"><path d="M4.9-3.8h3.93c.04.58.26 2.58.26 2.7 0 .38-.65.46-1.01.46-.31 0-.63.06-.63.45 0 .3.44.33.46.33.71 0 1.43-.06 2.12-.06.4 0 1.49.06 1.92.06.2 0 .53-.1.53-.48 0-.28-.42-.3-.62-.3-.97 0-.84-.02-.9-.5L9.93-11.78c-.03-.31-.04-.53-.51-.53-.44 0-.57.22-.66.37l-5.9 9.96C2.16-.86 1.57-.7.91-.64.66-.62.37-.56.37-.2c0 .14.13.33.44.33.49 0 1-.06 1.47-.06.55 0 1.14.06 1.7.06.2 0 .54-.1.54-.47 0-.23-.27-.31-.47-.31-.3-.05-.61-.13-.61-.48 0-.18.1-.35.23-.58.13-.2.14-.2 1.24-2.1zm3.85-.8H5.39l2.9-4.84zm0 0"/></symbol><symbol id="i" overflow="visible"><path d="M13.13-11.8v-.01c0-.03 0-.32-.4-.32-.23 0-.3.13-.43.29l-.97 1.07a3.5 3.5 0 0 0-2.86-1.36C4.45-12.13.64-8.25.64-4.28c0 2.81 2.02 4.8 4.81 4.8A5.9 5.9 0 0 0 9.3-1.02a5.8 5.8 0 0 0 1.92-3.06c0-.23-.35-.31-.4-.31h-.02c-.22 0-.4.14-.43.3a5.47 5.47 0 0 1-1.68 2.6 4.62 4.62 0 0 1-2.96 1.2c-1.36 0-3.1-.79-3.1-3.4 0-.95.34-3.69 2.01-5.64a5.58 5.58 0 0 1 3.97-2c1.5 0 2.52 1.17 2.52 3.16 0 .67-.07.67-.07.86 0 .28.4.31.49.31.37 0 .43-.19.5-.47zm0 0"/></symbol><symbol id="f" overflow="visible"><path d="M4.23-5.9c0-.38-.3-.76-.82-.76-.38 0-.66.22-.74.43L.63-1.17l-.07.14h.81l.05-.06 2.7-4.44a.7.7 0 0 0 .11-.38zm0 0"/></symbol><symbol id="j" overflow="visible"><path d="M2.38-.03c.8 0 1.3.08 2.78.08 5.73 0 7.8-3.92 7.8-7.16 0-3.3-2.23-4.98-5.12-4.98-1.01 0-1.9.07-2.48.07-1.36 0-2.19-.09-2.61-.09-.1 0-.16.1-.16.34 0 .2.05.3.13.3 1.5 0 1.72.47 1.47 1.31l-2.46 8.2C1.43-1 1.1-.6-.12-.6c-.08 0-.11.11-.11.33 0 .2.01.3.1.3.41 0 1.18-.05 2.5-.05zm8.67-7.42c0 3.8-2.3 6.8-5.9 6.8-1.62 0-1.71-.32-1.71-.96 0-.73 1.64-5.69 2.78-9.64.34-.06.8-.1 1.5-.1 2.39 0 3.33 1.55 3.33 3.9zm0 0"/></symbol><symbol id="k" overflow="visible"><path d="M5.95-2.1a4.9 4.9 0 0 0-.22 1.27c0 .61.22 1.08.83 1.08C7.88.25 8.9-1 9.23-2.19c.05-.17-.18-.28-.3-.28a.17.17 0 0 0-.15.1C8.38-1.28 7.7-.55 7.18-.55c-.16 0-.27-.1-.27-.45 0-.47.48-1.97.84-3.13l.9-2.93c.1-.35.16-.55.16-.74 0-.17-.53-.3-.83-.3-.26 0-.45.12-.46.2-.11.59-1.1 3.62-1.41 4.45C5.5-1.92 4.05-.5 3.14-.5c-.42 0-.6-.19-.6-.63 0-.6.16-1.26.74-2.76.58-1.48.9-2.48.9-3.19 0-.73-.34-1.01-1.02-1.01C1.96-8.1.84-6.77.52-5.58c-.07.17.18.28.3.28.04 0 .12-.04.13-.1.4-1.1 1.1-1.82 1.6-1.82.17 0 .3.1.3.3 0 .53-.29 1.26-.87 2.7-.64 1.63-.78 2.3-.78 3.05 0 .9.57 1.42 1.52 1.42 1.2 0 2.5-1.02 3.23-2.36zm0 0"/></symbol><symbol id="l" overflow="visible"><path d="M7.14-6.81c0-.72-.42-1.28-1.78-1.28C3.26-8.1.5-5.23.5-1.86.5-.23 1.67.31 2.67.31c1.31 0 2.52-.84 3.19-2.64.08-.19-.17-.34-.3-.34-.1 0-.15.08-.2.15-.72 1.38-1.49 2.05-2.4 2.05-.5 0-1.02-.23-1.02-1.22 0-2.7 2.12-5.65 3.15-5.65.38 0 .5.17.58.64.1.48.35.72.75.72.46 0 .72-.36.72-.83zm0 0"/></symbol><symbol id="m" overflow="visible"><path d="M2.84-4.81c.82-2.53 2-5.7 2.6-7.33a.9.9 0 0 0 .04-.25c0-.2-.12-.25-.34-.25-.66.12-1.5.27-2.4.27-.12 0-.15.12-.15.3 0 .23.05.32.13.32.33 0 .75.02 1.01.13L.41-.93c-.13.36-.16.56-.16.75 0 .17.53.3.83.3.26 0 .45-.11.47-.2.07-.48.72-2.68 1-3.46.17-.45.37-.53.6-.53.48 0 .68.54.68 2.48 0 1.38.3 1.9 1.1 1.9s1.9-.73 2.4-2.55c.04-.18-.17-.3-.31-.3-.08 0-.1.03-.11.08C6.53-1.17 5.9-.6 5.55-.6c-.25 0-.3-.2-.35-.72-.17-2.03-.6-3.16-1.98-3.22C4.32-5.93 5.64-7 6.02-7c.23 0 .34.1.34.31 0 .35.23.58.55.58.5 0 .84-.39.84-.97 0-.62-.28-1.01-1-1.01-.94 0-2.63 1.51-3.9 3.28zm0 0"/></symbol><symbol id="n" overflow="visible"><path d="M7.2-6.77c0-.76-.4-1.32-1.45-1.32C3.17-8.1.5-5 .5-1.86.5-.46 1.53.31 2.55.31a3.6 3.6 0 0 0 3.4-2.6c.05-.16-.2-.26-.33-.26-.1 0-.14.03-.18.17-.42 1.04-1.5 1.93-2.4 1.93-.73 0-1.1-.4-1.1-1.28 0-.43.1-1.1.3-1.74 3.3-.81 4.96-2.06 4.96-3.3zm-1.15-.07c0 1.09-1.4 2.14-3.61 2.76.76-2.1 2.14-3.3 3.1-3.3.41 0 .5.29.5.54zm0 0"/></symbol><symbol id="o" overflow="visible"><path d="M8.55-2.27c.06-.17-.2-.26-.3-.26-.06 0-.13.03-.14.08C7.7-1.35 7-.61 6.5-.61c-.17 0-.3-.1-.3-.31 0-.17.02-.22.04-.3a261.4 261.4 0 0 1 3.6-10.92.9.9 0 0 0 .04-.25c0-.2-.12-.25-.36-.25-.64.12-1.48.27-2.39.27-.12 0-.14.12-.14.3 0 .23.03.32.13.32.32 0 .75.02 1.01.13L6.8-7.37c-.22-.44-.61-.73-1.36-.73C3.1-8.1.47-4.7.47-1.84.47-.54 1.2.3 2.53.3c.95 0 2.13-.84 2.64-1.89-.03.2-.06.47-.06.67 0 .72.19 1.16.81 1.16 1.3 0 2.25-1.34 2.63-2.52zm-2.2-4.25c0 .99-.6 2.63-.83 3.2-.72 1.7-1.64 2.9-2.75 2.9-.63 0-.83-.47-.83-1.05 0-2.45 2-5.94 3.51-5.94.7 0 .9.35.9.9zm0 0"/></symbol><symbol id="p" overflow="visible"><path d="M1.08-4.64V-6.2h8.65v1.55zm0 0"/></symbol><symbol id="q" overflow="visible"><path d="M4.95-1.31c.5 0 .98-.14 1.42-.4.46-.28.92-.68 1.36-1.23v-4.54a3.87 3.87 0 0 0-2.18-.58c-.84 0-1.46.18-1.86.54-.4.37-.6.92-.6 1.66v2.49c0 .7.15 1.21.46 1.56.3.33.78.5 1.4.5zm2.32-.24a2.95 2.95 0 0 1-2.7 1.7c-.97 0-1.71-.3-2.24-.92a3.94 3.94 0 0 1-.78-2.6V-5.9c0-1.13.34-2 1.04-2.61a4.3 4.3 0 0 1 2.94-.92 6.03 6.03 0 0 1 2.2.42v-3.36h1.54V0H7.73v-1.55zm0 0"/></symbol><symbol id="r" overflow="visible"><path d="M4.55.16c-.9 0-1.62-.3-2.17-.88a3.19 3.19 0 0 1-.83-2.3v-6.25h1.54v5.94c0 .69.15 1.2.44 1.53.3.33.77.49 1.4.49.47 0 .94-.13 1.4-.4.46-.26.92-.67 1.4-1.23v-6.33h1.54V0H7.73v-1.55h-.46A2.7 2.7 0 0 1 6.19-.31c-.5.31-1.05.47-1.64.47zm0 0"/></symbol><symbol id="s" overflow="visible"><path d="M5.63.16c-1.36 0-2.38-.3-3.07-.9-.68-.59-1.01-1.46-1.01-2.62v-2.5c0-1.18.33-2.06 1.01-2.66.69-.6 1.7-.9 3.05-.9 1.2 0 2.11.27 2.75.81.64.54 1 1.33 1.08 2.36l-1.52.1c-.04-.64-.26-1.1-.64-1.41-.37-.32-.94-.47-1.69-.47-.84 0-1.47.18-1.89.53-.4.36-.6.9-.6 1.64v2.5c0 .72.2 1.26.62 1.61.41.34 1.05.52 1.9.52.74 0 1.3-.13 1.68-.4.38-.26.6-.66.62-1.18l1.52.1A2.86 2.86 0 0 1 8.38-.57a4.5 4.5 0 0 1-2.76.72zm0 0"/></symbol><symbol id="t" overflow="visible"><path d="M3.86-4.22V0H2.3v-12.36h1.55v6.84h.8l2.96-3.75H9.5L5.87-4.95 9.46 0H7.7L4.66-4.22zm0 0"/></symbol><clipPath id="a"><path d="M0 87h286v223.08H0zm0 0"/></clipPath><clipPath id="c"><path d="M203 273h35v37.08h-35zm0 0"/></clipPath></defs><path d="M253.77 290.75L23.96 97.91v15l229.81 192.84zm0 0" fill="#caffca"/><path d="M253.77 290.75L23.96 97.91" fill="none" stroke="#7fff7f" stroke-miterlimit="10"/><path d="M253.77 305.75L23.96 112.91v192.84zm0 0" fill="#f0e3d7"/><g clip-path="url(#a)" transform="translate(-3.4 -3.33)"><path d="M257.17 309.08L27.36 116.24" fill="none" stroke="#ca9763" stroke-width="2" stroke-miterlimit="10"/></g><path d="M23.96 107.7v-4.58" fill="none" stroke="#000" stroke-miterlimit="10"/><path d="M23.96 112.91a20.9 20.9 0 0 1 2.17-5.79H21.8a21.02 21.02 0 0 1 2.17 5.79m-.01-15a20.97 20.97 0 0 1-2.17 5.79h4.34a20.85 20.85 0 0 1-2.17-5.79"/><use height="100%" width="100%" y="114.47" x="15.06" xlink:href="#b" transform="translate(-3.4 -3.33)"/><g clip-path="url(#c)" transform="translate(-3.4 -3.33)"><path d="M223.28 287.47c-2.66 3.17-5.96 12.24-5.96 21.6" fill="none" stroke="#003000" stroke-miterlimit="10"/></g><path d="M223.25 280.13c-1.23 1-3.51 2.37-5.41 3.06l3.34 2.8a21 21 0 0 1 2.07-5.86" fill="#003000"/><use height="100%" width="100%" y="304.07" x="223.23" xlink:href="#d" transform="translate(-3.4 -3.33)"/><path d="M11.85 228.61h300" fill="none" stroke="#7f7f7f" stroke-miterlimit="10" stroke-dasharray="1,.99628"/><use height="100%" width="100%" y="233.96" x="3.32" xlink:href="#e" fill="#7f7f7f" transform="translate(-3.4 -3.33)"/><use height="100%" width="100%" y="236.61" x="319.07" xlink:href="#e" fill="#7f7f7f" transform="translate(-3.4 -3.33)"/><use height="100%" width="100%" y="230.44" x="327.6" xlink:href="#f" fill="#7f7f7f" transform="translate(-3.4 -3.33)"/><path d="M129.85 228.61v-144h64v144zm0 0" fill="#7f7f7f" fill-opacity=".2" stroke="#7f7f7f" stroke-miterlimit="10"/><path d="M163.85 156.61a2 2 0 1 0-4 0 2 2 0 0 0 4 0zm0 0"/><use height="100%" width="100%" y="155.99" x="169.07" xlink:href="#g" transform="translate(-3.4 -3.33)"/><path d="M163.85 228.61a2 2 0 1 0-4 0 2 2 0 0 0 4 0zm0 0"/><use height="100%" width="100%" y="248.59" x="150.71" xlink:href="#g" transform="translate(-3.4 -3.33)"/><use height="100%" width="100%" y="242.42" x="164.03" xlink:href="#f" transform="translate(-3.4 -3.33)"/><path d="M49.85 92.61v-72h64v72zm0 0" fill="#7f7f7f" fill-opacity=".2" stroke="#7f7f7f" stroke-miterlimit="10"/><path d="M83.85 56.61a2 2 0 1 0-4 0 2 2 0 0 0 4 0zm0 0"/><use height="100%" width="100%" y="55.99" x="78.87" xlink:href="#h" transform="translate(-3.4 -3.33)"/><path d="M83.85 228.61a2 2 0 1 0-4 0 2 2 0 0 0 4 0zm0 0"/><use height="100%" width="100%" y="248.59" x="75.98" xlink:href="#h" transform="translate(-3.4 -3.33)"/><use height="100%" width="100%" y="242.42" x="88.73" xlink:href="#f" transform="translate(-3.4 -3.33)"/><path d="M209.85 228.61v-144h64v144zm0 0" fill="#7f7f7f" fill-opacity=".2" stroke="#7f7f7f" stroke-miterlimit="10"/><path d="M243.85 156.61a2 2 0 1 0-4 0 2 2 0 0 0 4 0zm0 0"/><use height="100%" width="100%" y="155.61" x="239.17" xlink:href="#i" transform="translate(-3.4 -3.33)"/><path d="M243.85 228.61a2 2 0 1 0-4 0 2 2 0 0 0 4 0zm0 0"/><use height="100%" width="100%" y="248.59" x="235.65" xlink:href="#i" transform="translate(-3.4 -3.33)"/><use height="100%" width="100%" y="242.42" x="249.05" xlink:href="#f" transform="translate(-3.4 -3.33)"/><g transform="translate(-3.4 -3.33)"><use height="100%" width="100%" y="15.97" x="57.69" xlink:href="#j"/><use height="100%" width="100%" y="15.97" x="70.9" xlink:href="#k"/><use height="100%" width="100%" y="15.97" x="80.64" xlink:href="#l"/><use height="100%" width="100%" y="15.97" x="87.78" xlink:href="#m"/><use height="100%" width="100%" y="15.97" x="95.62" xlink:href="#n"/><use height="100%" width="100%" y="15.97" x="102.57" xlink:href="#o"/></g><g transform="translate(-3.4 -3.33)"><use height="100%" width="100%" y="80.25" x="138.2" xlink:href="#p"/><use height="100%" width="100%" y="80.25" x="149.02" xlink:href="#q"/><use height="100%" width="100%" y="80.25" x="159.84" xlink:href="#r"/><use height="100%" width="100%" y="80.25" x="170.66" xlink:href="#s"/><use height="100%" width="100%" y="80.25" x="181.48" xlink:href="#t"/></g><path d="M81.85 56.61l76.74 95.94" fill="none" stroke="#000" stroke-miterlimit="10"/><path d="M161.85 156.61a21.05 21.05 0 0 1-1.92-5.87l-3.4 2.7c1.88.73 4.13 2.15 5.32 3.17"/><path d="M161.85 156.61h74.79" fill="none" stroke="#000" stroke-miterlimit="10"/><path d="M241.85 156.61a21 21 0 0 1-5.8-2.16v4.33a21.14 21.14 0 0 1 5.8-2.17"/><path d="M81.85 56.61v172m80-72v72m80-72v72" fill="none" stroke="#7f7f7f" stroke-miterlimit="10" stroke-dasharray="1,.99628"/></svg>