<svg xmlns="http://www.w3.org/2000/svg" xmlns:xlink="http://www.w3.org/1999/xlink" version="1.2" height="180.58" width="370"><defs><symbol id="a" overflow="visible"><path d="M9.14-11.81c.02-.1-.2-.16-.4-.16-.08 0-.2.02-.2.13-.02.18-.12.32-.27.32-.11 0-.18-.03-.27-.12a2.9 2.9 0 0 0-2.03-.78c-1.83 0-3.47 1.25-3.47 3.4 0 1.68.92 2.63 1.95 3.44C5.97-4.4 6.33-3.64 6.33-2.75 6.33-1.35 5.43-.5 4-.5c-1.45 0-2.7-.92-2.7-3.22 0-.1-.1-.15-.3-.15-.22 0-.4.06-.4.2 0 .7-.29 2.65-.47 3.42 0 .14.3.17.5.17.1 0 .15-.06.17-.15.03-.24.14-.47.34-.47.1 0 .24.04.34.12.77.63 1.6.85 2.46.85C6.17.27 7.9-1.2 7.9-3.45c0-1.46-.55-2.32-2.11-3.52-1-.78-1.77-1.39-1.77-2.67 0-1.23.78-2.03 1.95-2.03 1.49 0 2.13 1.12 2.13 2.81 0 .16.2.22.34.22.16 0 .33-.06.33-.2 0-.94.27-2.49.36-2.97zm0 0"/></symbol><symbol id="b" overflow="visible"><path d="M3.72-7.06c.53.04 1.25.04 1.65.04.1 0 .2-.09.2-.37 0-.2-.02-.27-.2-.27-.3 0-.96.05-1.46.07.26-.79.51-1.55.76-2.25 0-.18-.26-.24-.56-.24-.4 0-.84.1-.9.27l-.7 2.22-1.03-.07c-.12 0-.17.11-.17.46 0 .12.02.18.11.18.14 0 .63 0 .92-.04L.8-2.08c-.11.4-.2.8-.2 1.24 0 .7.35 1.09.96 1.09 1.31 0 2.33-1.48 2.67-2.69 0-.19-.2-.26-.3-.26-.06 0-.12.03-.13.08-.4 1.1-1.1 1.84-1.61 1.84-.17 0-.28-.11-.28-.31 0-.18.01-.22.03-.3.36-1.24 1.04-3.45 1.78-5.67zm0 0"/></symbol><symbol id="c" overflow="visible"><path d="M8.33-7.6c0-.32-.44-.5-.81-.5-.24 0-.44.05-.5.2l-.18.54c-.21-.44-.54-.73-1.26-.73C3.16-8.1.47-4.77.47-1.84.47-.54 1.2.3 2.53.3c.95 0 2.13-.84 2.63-1.89-.05.2-.07.47-.07.67 0 .72.18 1.16.79 1.16 1.3 0 2.3-1.34 2.67-2.52 0-.18-.2-.26-.3-.26-.06 0-.13.03-.14.08C7.7-1.35 7-.61 6.5-.61c-.17 0-.3-.1-.3-.31 0-.17.02-.22.04-.3a98.03 98.03 0 0 1 2.08-6.37zM6.39-6.51c0 .99-.67 2.68-.92 3.24-.7 1.7-1.6 2.86-2.7 2.86-.63 0-.83-.47-.83-1.05 0-2.45 2.1-5.94 3.62-5.94.69 0 .83.35.83.9zm0 0"/></symbol><symbol id="d" overflow="visible"><path d="M3.8-5.73c.06-.25.22-.82.22-1.27 0-.6-.22-1.1-.85-1.1C1.87-8.1.84-6.82.52-5.63c-.07.17.18.26.3.26.04 0 .12-.03.13-.07.4-1.11 1.1-1.85 1.6-1.85.17 0 .3.11.3.47 0 .46-.5 1.97-.87 3.13L1.14-.92c-.1.36-.16.56-.16.75 0 .17.54.3.82.3.28 0 .47-.11.48-.2.1-.59 1.03-3.48 1.36-4.32.6-1.53 2.05-2.95 2.95-2.95.43 0 .61.18.61.62 0 .61-.17 1.28-.75 2.78-.58 1.47-.87 2.47-.87 3.17 0 .75.33 1.02 1 1.02 1.2 0 2.31-1.33 2.65-2.52.05-.17-.18-.26-.3-.26a.19.19 0 0 0-.15.08c-.4 1.1-1.08 1.84-1.6 1.84-.16 0-.27-.1-.27-.31 0-.52.26-1.25.84-2.7.64-1.61.78-2.3.78-3.04 0-.9-.56-1.43-1.51-1.43-1.2 0-2.5 1.01-3.22 2.36zm0 0"/></symbol><symbol id="e" overflow="visible"><path d="M8.55-2.27c.06-.17-.2-.26-.3-.26-.06 0-.13.03-.14.08C7.7-1.35 7-.61 6.5-.61c-.17 0-.3-.1-.3-.31 0-.17.02-.22.04-.3a261.4 261.4 0 0 1 3.6-10.92.9.9 0 0 0 .04-.25c0-.2-.12-.25-.36-.25-.64.12-1.48.27-2.39.27-.12 0-.14.12-.14.3 0 .23.03.32.13.32.32 0 .75.02 1.01.13L6.8-7.37c-.22-.44-.61-.73-1.36-.73C3.1-8.1.47-4.7.47-1.84.47-.54 1.2.3 2.53.3c.95 0 2.13-.84 2.64-1.89-.03.2-.06.47-.06.67 0 .72.19 1.16.81 1.16 1.3 0 2.25-1.34 2.63-2.52zm-2.2-4.25c0 .99-.6 2.63-.83 3.2-.72 1.7-1.64 2.9-2.75 2.9-.63 0-.83-.47-.83-1.05 0-2.45 2-5.94 3.51-5.94.7 0 .9.35.9.9zm0 0"/></symbol><symbol id="f" overflow="visible"><path d="M4.17-7c0-.67-.28-1.1-1-1.1C1.87-8.1.84-6.82.52-5.63c-.07.17.18.26.3.26.04 0 .12-.03.13-.07.4-1.11 1.1-1.85 1.6-1.85.17 0 .3.11.3.47 0 .6-.37 1.4-.94 2.9C1.33-2.48.95-1.48.95-.78c0 .75.33 1.02 1 1.02 1.2 0 2.32-1.33 2.66-2.52.05-.17-.19-.26-.31-.26-.05 0-.11.03-.13.08-.42 1.1-1.1 1.84-1.6 1.84-.18 0-.29-.1-.29-.31 0-.52.35-1.25.92-2.7.72-1.83.97-2.57.97-3.38zm-.23-3.44a.95.95 0 0 0 0-1.9.96.96 0 0 0-.96.95c0 .53.44.95.96.95zm0 0"/></symbol><symbol id="g" overflow="visible"><path d="M2.34-2.36C1.17-2.19.47-1.39.47-.69c0 1.02.64 1.33 2.89 1.9 1.67.42 1.92.74 1.92 1.38 0 .88-.67 1.54-2.12 1.54-1.74 0-2.7-.82-2.7-1.68 0-.33.1-.65.45-.98a.74.74 0 0 0-.63-.31c-.51 0-1.05.37-1.05 1.28C-.77 3.75.66 4.8 3.17 4.8c1.85 0 3.38-.9 3.38-2.58 0-1.4-.96-1.95-2.75-2.3C2.34-.4 1.69-.46 1.69-1.12c0-.56.44-.94 1.36-.94 2.1 0 3.47-1.92 3.47-3.93 0-.46-.07-.64-.11-.83a.82.82 0 0 1 .67-.38c.6 0 .4.69 1.01.69.41 0 .61-.28.61-.7 0-.57-.42-.88-.93-.88-.64 0-1.16.31-1.55.78-.28-.47-.78-.8-1.53-.8-2.02 0-3.42 2.08-3.42 3.91 0 .97.34 1.53 1.07 1.83zm2.99-4.33c0 1.83-1.06 4.07-2.17 4.07-.4 0-.64-.2-.64-.94 0-1.86 1.12-3.97 2.14-3.97.5 0 .67.31.67.84zm0 0"/></symbol><symbol id="h" overflow="visible"><path d="M3.47-2l2.44-8.08c.21-.75.62-1.39 1.93-1.39.08 0 .13-.08.13-.31 0-.19-.02-.33-.13-.33-.45 0-1.21.1-2.48.1-1.36 0-2.19-.1-2.61-.1-.1 0-.16.1-.16.34 0 .2.05.3.13.3 1.5 0 1.72.47 1.47 1.31l-2.46 8.2C1.43-1 1.1-.6-.12-.6c-.08 0-.11.11-.11.33 0 .2.01.3.1.3.41 0 1.18-.05 2.5-.05 1.36 0 2.07.05 2.49.05.12 0 .17-.13.17-.33 0-.14-.03-.3-.14-.3-1.53 0-1.67-.56-1.42-1.4zm0 0"/></symbol><symbol id="i" overflow="visible"><path d="M4.02-3.9c.12 0 .42-.8.42-1.2 0-.15-.03-.24-.13-.24H1.16c-.2 0-.36.8-.36 1.21 0 .13.01.22.04.22zm0 0"/></symbol><symbol id="j" overflow="visible"><path d="M5.95-2.1a4.9 4.9 0 0 0-.22 1.27c0 .61.22 1.08.83 1.08C7.88.25 8.9-1 9.23-2.19c.05-.17-.18-.28-.3-.28a.17.17 0 0 0-.15.1C8.38-1.28 7.7-.55 7.18-.55c-.16 0-.27-.1-.27-.45 0-.47.48-1.97.84-3.13l.9-2.93c.1-.35.16-.55.16-.74 0-.17-.53-.3-.83-.3-.26 0-.45.12-.46.2-.11.59-1.1 3.62-1.41 4.45C5.5-1.92 4.05-.5 3.14-.5c-.42 0-.6-.19-.6-.63 0-.6.16-1.26.74-2.76.58-1.48.9-2.48.9-3.19 0-.73-.34-1.01-1.02-1.01C1.96-8.1.84-6.77.52-5.58c-.07.17.18.28.3.28.04 0 .12-.04.13-.1.4-1.1 1.1-1.82 1.6-1.82.17 0 .3.1.3.3 0 .53-.29 1.26-.87 2.7-.64 1.63-.78 2.3-.78 3.05 0 .9.57 1.42 1.52 1.42 1.2 0 2.5-1.02 3.23-2.36zm0 0"/></symbol><symbol id="k" overflow="visible"><path d="M7.14-6.81c0-.72-.42-1.28-1.78-1.28C3.26-8.1.5-5.23.5-1.86.5-.23 1.67.31 2.67.31c1.31 0 2.52-.84 3.19-2.64.08-.19-.17-.34-.3-.34-.1 0-.15.08-.2.15-.72 1.38-1.49 2.05-2.4 2.05-.5 0-1.02-.23-1.02-1.22 0-2.7 2.12-5.65 3.15-5.65.38 0 .5.17.58.64.1.48.35.72.75.72.46 0 .72-.36.72-.83zm0 0"/></symbol><symbol id="l" overflow="visible"><path d="M2.84-4.81c.82-2.53 2-5.7 2.6-7.33a.9.9 0 0 0 .04-.25c0-.2-.12-.25-.34-.25-.66.12-1.5.27-2.4.27-.12 0-.15.12-.15.3 0 .23.05.32.13.32.33 0 .75.02 1.01.13L.41-.93c-.13.36-.16.56-.16.75 0 .17.53.3.83.3.26 0 .45-.11.47-.2.07-.48.72-2.68 1-3.46.17-.45.37-.53.6-.53.48 0 .68.54.68 2.48 0 1.38.3 1.9 1.1 1.9s1.9-.73 2.4-2.55c.04-.18-.17-.3-.31-.3-.08 0-.1.03-.11.08C6.53-1.17 5.9-.6 5.55-.6c-.25 0-.3-.2-.35-.72-.17-2.03-.6-3.16-1.98-3.22C4.32-5.93 5.64-7 6.02-7c.23 0 .34.1.34.31 0 .35.23.58.55.58.5 0 .84-.39.84-.97 0-.62-.28-1.01-1-1.01-.94 0-2.63 1.51-3.9 3.28zm0 0"/></symbol><symbol id="n" overflow="visible"><path d="M7.1.14l.2.02v-.82h-.72c-1.5 0-1.4-.12-1.4-.7v-9.52c0-.21.02-.37-.13-.5-.11-.07-.28-.07-.44-.07h-.1l-.04.04c-1 1.03-2.4 1.03-2.95 1.03h-.18v.8h.18c.3 0 1.18 0 2.04-.34v8.58c0 .56.1.68-1.4.68h-.72v.82l.19-.02C2.2.08 3.69.08 4.38.08c.67 0 2.15 0 2.73.06zm0 0"/></symbol><symbol id="o" overflow="visible"><path d="M7.94-2.95c0-.64-.2-1.4-.86-2.13A6.12 6.12 0 0 0 5.53-6.2c1.13-.63 1.95-1.52 1.95-2.63 0-1.6-1.57-2.62-3.23-2.62C2.44-11.45 1-10.13 1-8.52c0 .3.03 1.11.78 1.93.2.2.67.5 1.11.8-.97.52-2.34 1.5-2.34 3.12C.55-.81 2.35.37 4.23.37c2.04 0 3.7-1.48 3.7-3.32zM6.39-8.83c0 .9-.58 1.63-1.51 2.2l-2-1.27c-.73-.46-.8-1-.8-1.28 0-.94 1.02-1.6 2.14-1.6 1.13 0 2.16.8 2.16 1.96zm.36 6.49c0 1.17-1.2 1.98-2.5 1.98-1.34 0-2.52-.97-2.52-2.31 0-.92.5-1.92 1.82-2.69l1.98 1.27c.47.3 1.22.78 1.22 1.75zm0 0"/></symbol><symbol id="p" overflow="visible"><path d="M5.78-7c0-.31-.39-.33-.64-.33h-1.3c.58-2.25.66-2.6.66-2.73 0-.35-.25-.58-.64-.58-.11 0-.66.05-.83.72l-.67 2.6H.9c-.35 0-.7.04-.7.45 0 .3.35.32.65.32h1.3C.98-2.06.92-1.75.92-1.44.92-.54 1.6.2 2.66.2c1.92 0 2.87-2.5 2.87-2.66 0-.25-.3-.28-.37-.28-.29 0-.36.16-.44.3-.72 1.67-1.58 2-2.03 2-.2 0-.36-.1-.36-.64 0-.39.03-.48.1-.76l1.21-4.7H5.1c.35 0 .7-.04.7-.46zm0 0"/></symbol><symbol id="q" overflow="visible"><path d="M12.44-4.25a.5.5 0 0 0-.5-.52H7.13v-4.8a.5.5 0 0 0-.52-.5.5.5 0 0 0-.5.5v4.8H1.3c-.3 0-.52.24-.52.52s.22.53.52.53h4.8V1.1c0 .28.23.5.5.5a.5.5 0 0 0 .53-.5v-4.8h4.8c.29 0 .5-.26.5-.54zm0 0"/></symbol><symbol id="r" overflow="visible"><path d="M7.98-5.52c0-1.32-.07-2.7-.68-3.96a3.3 3.3 0 0 0-3.05-1.97c-1.1 0-2.4.48-3.1 2.1A8.87 8.87 0 0 0 .5-5.53c0 1.27.06 2.8.78 4.11A3.27 3.27 0 0 0 4.23.37a3.3 3.3 0 0 0 3.11-2.04c.57-1.19.64-2.52.64-3.85zm-1.75-.2c0 1.27 0 2.4-.18 3.47-.25 1.56-1.17 2-1.82 2-.54 0-1.5-.34-1.8-1.92-.18-.99-.18-2.55-.18-3.55 0-1.06 0-2.17.13-3.06.32-1.97 1.51-2.05 1.85-2.05.46 0 1.54.24 1.83 1.86.17.9.17 2.2.17 3.25zm0 0"/></symbol><symbol id="s" overflow="visible"><path d="M3.44-.9c0-.58-.49-1.07-1.08-1.07-.6 0-1.06.49-1.06 1.08a1.07 1.07 0 0 0 2.14 0zm0 0"/></symbol><symbol id="t" overflow="visible"><path d="M4.1-3.1c2.63-2.3 3.7-3.24 3.7-4.98 0-1.95-1.58-3.37-3.77-3.37A3.26 3.26 0 0 0 .7-8.27c0 1.05.98 1.08 1.06 1.08.4 0 1.06-.28 1.06-1.04 0-.46-.31-.99-1.06-1a2.25 2.25 0 0 1 2.06-1.44c1.38 0 2.11 1.23 2.11 2.6 0 1.32-.84 2.62-1.75 3.65L.91-.82c-.2.21-.22.3-.22.7V0H7.3l.02-.13.47-2.92.01-.12h-.75l-.03.1c-.08.48-.2 1.18-.33 1.41-.18.08-1.14.1-1.48.1H2.5zm0 0"/></symbol><symbol id="u" overflow="visible"><path d="M4.64-.63v-4.01H1.08V-6.2h3.56v-4.01H6.2v4.01h3.54v1.55H6.2v4.01zm0 0"/></symbol><symbol id="v" overflow="visible"><path d="M4.95-1.31c.5 0 .98-.14 1.42-.4.46-.28.92-.68 1.36-1.23v-4.54a3.87 3.87 0 0 0-2.18-.58c-.84 0-1.46.18-1.86.54-.4.37-.6.92-.6 1.66v2.49c0 .7.15 1.21.46 1.56.3.33.78.5 1.4.5zm2.32-.24a2.95 2.95 0 0 1-2.7 1.7c-.97 0-1.71-.3-2.24-.92a3.94 3.94 0 0 1-.78-2.6V-5.9c0-1.13.34-2 1.04-2.61a4.3 4.3 0 0 1 2.94-.92 6.03 6.03 0 0 1 2.2.42v-3.36h1.54V0H7.73v-1.55zm0 0"/></symbol><symbol id="w" overflow="visible"><path d="M4.55.16c-.9 0-1.62-.3-2.17-.88a3.19 3.19 0 0 1-.83-2.3v-6.25h1.54v5.94c0 .69.15 1.2.44 1.53.3.33.77.49 1.4.49.47 0 .94-.13 1.4-.4.46-.26.92-.67 1.4-1.23v-6.33h1.54V0H7.73v-1.55h-.46A2.7 2.7 0 0 1 6.19-.31c-.5.31-1.05.47-1.64.47zm0 0"/></symbol><symbol id="x" overflow="visible"><path d="M5.63.16c-1.36 0-2.38-.3-3.07-.9-.68-.59-1.01-1.46-1.01-2.62v-2.5c0-1.18.33-2.06 1.01-2.66.69-.6 1.7-.9 3.05-.9 1.2 0 2.11.27 2.75.81.64.54 1 1.33 1.08 2.36l-1.52.1c-.04-.64-.26-1.1-.64-1.41-.37-.32-.94-.47-1.69-.47-.84 0-1.47.18-1.89.53-.4.36-.6.9-.6 1.64v2.5c0 .72.2 1.26.62 1.61.41.34 1.05.52 1.9.52.74 0 1.3-.13 1.68-.4.38-.26.6-.66.62-1.18l1.52.1A2.86 2.86 0 0 1 8.38-.57a4.5 4.5 0 0 1-2.76.72zm0 0"/></symbol><symbol id="y" overflow="visible"><path d="M3.86-4.22V0H2.3v-12.36h1.55v6.84h.8l2.96-3.75H9.5L5.87-4.95 9.46 0H7.7L4.66-4.22zm0 0"/></symbol><symbol id="z" overflow="visible"><path d="M1.08-4.64V-6.2h8.65v1.55zm0 0"/></symbol><clipPath id="m"><path d="M245 23h127v2H245zm0 0"/></clipPath></defs><path d="M0 130.6h362.09" fill="none" stroke="#000" stroke-width="2" stroke-miterlimit="10"/><path d="M370 130.6a31.72 31.72 0 0 1-8.79-3.29v6.6a31.85 31.85 0 0 1 8.79-3.3"/><path d="M0 20.6h114.79" fill="none" stroke="#000" stroke-miterlimit="10"/><path d="M120 20.6a20.85 20.85 0 0 1-5.79-2.16v4.34a20.97 20.97 0 0 1 5.79-2.17"/><g transform="translate(-1 -3.33)"><use height="100%" width="100%" y="15.97" x="28.05" xlink:href="#a"/><use height="100%" width="100%" y="15.97" x="37.06" xlink:href="#b"/><use height="100%" width="100%" y="15.97" x="42.2" xlink:href="#c"/><use height="100%" width="100%" y="15.97" x="51.26" xlink:href="#d"/><use height="100%" width="100%" y="15.97" x="61" xlink:href="#e"/><use height="100%" width="100%" y="15.97" x="70.06" xlink:href="#f"/><use height="100%" width="100%" y="15.97" x="75.16" xlink:href="#d"/><use height="100%" width="100%" y="15.97" x="84.9" xlink:href="#g"/></g><path d="M125.21 20.6H234.8" fill="none" stroke="#000" stroke-miterlimit="10"/><path d="M120 20.6c1.54.3 4.05 1.17 5.79 2.18v-4.34A20.9 20.9 0 0 1 120 20.6m120 0a20.85 20.85 0 0 1-5.79-2.16v4.34a20.97 20.97 0 0 1 5.79-2.17"/><g transform="translate(-1 -3.33)"><use height="100%" width="100%" y="15.97" x="153.07" xlink:href="#h"/><use height="100%" width="100%" y="15.97" x="159.96" xlink:href="#d"/><use height="100%" width="100%" y="15.97" x="169.7" xlink:href="#i"/><use height="100%" width="100%" y="15.97" x="174.89" xlink:href="#e"/><use height="100%" width="100%" y="15.97" x="183.95" xlink:href="#j"/><use height="100%" width="100%" y="15.97" x="193.69" xlink:href="#k"/><use height="100%" width="100%" y="15.97" x="200.83" xlink:href="#l"/></g><g clip-path="url(#m)" transform="translate(-1 -3.33)"><path d="M246.21 23.94H371" fill="none" stroke="#000" stroke-miterlimit="10"/></g><path d="M240 20.6c1.54.3 4.05 1.17 5.79 2.18v-4.34A20.9 20.9 0 0 1 240 20.6"/><g transform="translate(-1 -3.33)"><use height="100%" width="100%" y="15.97" x="273.05" xlink:href="#a"/><use height="100%" width="100%" y="15.97" x="282.06" xlink:href="#b"/><use height="100%" width="100%" y="15.97" x="287.19" xlink:href="#c"/><use height="100%" width="100%" y="15.97" x="296.25" xlink:href="#d"/><use height="100%" width="100%" y="15.97" x="306" xlink:href="#e"/><use height="100%" width="100%" y="15.97" x="315.06" xlink:href="#f"/><use height="100%" width="100%" y="15.97" x="320.16" xlink:href="#d"/><use height="100%" width="100%" y="15.97" x="329.9" xlink:href="#g"/></g><path d="M120 30.6v-20m120 20v-20m20 102h25m-15 12.8v-7.58" fill="none" stroke="#000" stroke-miterlimit="10"/><path d="M270 130.6a20.9 20.9 0 0 1 2.17-5.78h-4.34a21.02 21.02 0 0 1 2.17 5.79m0-18.01a20.97 20.97 0 0 1-2.17 5.8h4.34a20.85 20.85 0 0 1-2.17-5.8"/><g transform="translate(-1 -3.33)"><use height="100%" width="100%" y="130.48" x="279.8" xlink:href="#n"/><use height="100%" width="100%" y="130.48" x="288.3" xlink:href="#o"/></g><path d="M14 130.6v-72h32v72zm90 0v-72h32v72zm60 0v-72h32v72zm60-17.92v-72h32v72zm0 0" fill="none" stroke="#000" stroke-miterlimit="10"/><path d="M33 130.6a3 3 0 1 0-6 .01 3 3 0 0 0 6 0zm90 0a3 3 0 1 0-6 .01 3 3 0 0 0 6 0zm60 0a3 3 0 1 0-6 .01 3 3 0 0 0 6 0zm60 0a3 3 0 1 0-6 .01 3 3 0 0 0 6 0zm0 0"/><use height="100%" width="100%" y="153.86" x="117.93" xlink:href="#p" transform="translate(-1 -3.33)"/><use height="100%" width="100%" y="153.86" x="156.68" xlink:href="#p" transform="translate(-1 -3.33)"/><use height="100%" width="100%" y="153.86" x="166.59" xlink:href="#q" transform="translate(-1 -3.33)"/><g transform="translate(-1 -3.33)"><use height="100%" width="100%" y="153.86" x="183.59" xlink:href="#r"/><use height="100%" width="100%" y="153.86" x="192.09" xlink:href="#s"/><use height="100%" width="100%" y="153.86" x="196.81" xlink:href="#n"/></g><use height="100%" width="100%" y="153.86" x="216.68" xlink:href="#p" transform="translate(-1 -3.33)"/><use height="100%" width="100%" y="153.86" x="226.59" xlink:href="#q" transform="translate(-1 -3.33)"/><g transform="translate(-1 -3.33)"><use height="100%" width="100%" y="153.86" x="243.59" xlink:href="#r"/><use height="100%" width="100%" y="153.86" x="252.09" xlink:href="#s"/><use height="100%" width="100%" y="153.86" x="256.82" xlink:href="#t"/></g><g fill="#00007f" transform="translate(-1 -3.33)"><use height="100%" width="100%" y="183.75" x="93.95" xlink:href="#u"/><use height="100%" width="100%" y="183.75" x="104.77" xlink:href="#v"/><use height="100%" width="100%" y="183.75" x="115.59" xlink:href="#w"/><use height="100%" width="100%" y="183.75" x="126.41" xlink:href="#x"/><use height="100%" width="100%" y="183.75" x="137.23" xlink:href="#y"/></g><g fill="#00007f" transform="translate(-1 -3.33)"><use height="100%" width="100%" y="183.75" x="213.95" xlink:href="#z"/><use height="100%" width="100%" y="183.75" x="224.77" xlink:href="#v"/><use height="100%" width="100%" y="183.75" x="235.59" xlink:href="#w"/><use height="100%" width="100%" y="183.75" x="246.41" xlink:href="#x"/><use height="100%" width="100%" y="183.75" x="257.23" xlink:href="#y"/></g><path d="M150.87 174.32h58.26" fill="none" stroke="#00007f" stroke-miterlimit="10" stroke-dasharray="1,.99628"/></svg>