<svg xmlns="http://www.w3.org/2000/svg" width="470" height="160.68"><defs><style>.e{fill:none;stroke:#000;stroke-miterlimit:10}.f{fill:navy}</style><clipPath id="a" transform="translate(-95.15 -215.44)"><path fill="none" d="M94.15 212.12h471.99v167.32H94.15z"/></clipPath></defs><g clip-path="url(#a)"><path stroke-width="2" stroke-miterlimit="10" stroke="#000" fill="none" d="M0 135.62h462.09"/><path d="M470 135.62a31.81 31.81 0 0 1-8.79-3.3v6.59a31.81 31.81 0 0 1 8.79-3.3"/><path stroke-dasharray="1 1" stroke="gray" stroke-miterlimit="10" fill="none" d="M0 80.62h470"/><path class="e" d="M0 20.62h114.79"/><path d="M120 20.62a21 21 0 0 1-5.79-2.17v4.34a21 21 0 0 1 5.79-2.17M35.85 3.81c0 .14-.19.2-.34.2s-.34-.07-.34-.22c0-1.68-.65-2.82-2.12-2.82a1.88 1.88 0 0 0-2 2c0 1.27.76 1.89 1.77 2.67 1.56 1.21 2.11 2.06 2.11 3.52a4 4 0 0 1-6.43 2.87.55.55 0 0 0-.34-.12c-.2 0-.31.22-.34.46a.16.16 0 0 1-.17.15c-.19 0-.51 0-.51-.17a22.68 22.68 0 0 0 .49-3.42c0-.14.17-.2.39-.2s.29.07.29.15c0 2.29 1.26 3.23 2.7 3.23a2.12 2.12 0 0 0 2.33-2.26c0-.88-.36-1.65-1.87-2.82a4.18 4.18 0 0 1-2-3.43A3.33 3.33 0 0 1 32.94.18a2.92 2.92 0 0 1 2 .78.3.3 0 0 0 .25.14c.15 0 .25-.15.27-.34s.12-.12.2-.12.42.07.41.15a19.25 19.25 0 0 0-.22 3.02zM38 11.25a1.15 1.15 0 0 0 0 .31.27.27 0 0 0 .29.31c.51 0 1.19-.73 1.6-1.84a.15.15 0 0 1 .14-.08c.1 0 .31.08.31.27-.34 1.19-1.36 2.69-2.67 2.69-.61 0-1-.39-1-1.1a4.21 4.21 0 0 1 .18-1.25l1.55-5h-.92c-.14 0-.12-.05-.12-.19 0-.34.05-.44.17-.44l1 .05.7-2.21c.05-.17.51-.27.9-.27s.56.07.56.24c-.25.7-.51 1.46-.76 2.24.49 0 1.16-.05 1.46-.05s.19.05.19.26-.08.37-.19.37h-1.65c-.68 2.24-1.38 4.47-1.74 5.69zM47.45 11.42a1.16 1.16 0 0 0 0 .31.27.27 0 0 0 .29.31c.51 0 1.19-.73 1.6-1.84a.15.15 0 0 1 .14-.08c.1 0 .31.08.31.27-.37 1.17-1.36 2.52-2.67 2.52-.61 0-.78-.44-.78-1.16a4.62 4.62 0 0 1 .05-.68 3.29 3.29 0 0 1-2.62 1.89 1.93 1.93 0 0 1-2.06-2.14c0-2.92 2.69-6.26 5.1-6.26a1.25 1.25 0 0 1 1.27.73l.17-.53c.05-.15.25-.2.49-.2s.82.17.82.49c-.9 2.33-1.71 5.05-2.11 6.37zm-.7-6.19c-1.51 0-3.62 3.48-3.62 5.95 0 .58.2 1 .83 1 1.1 0 2-1.16 2.7-2.86a10.9 10.9 0 0 0 .92-3.23c.01-.53-.13-.85-.82-.85zM57.28 4.56a1.35 1.35 0 0 1 1.51 1.43 7.66 7.66 0 0 1-.78 3 9 9 0 0 0-.85 2.7.27.27 0 0 0 .29.31c.51 0 1.19-.73 1.6-1.84a.15.15 0 0 1 .14-.08c.12 0 .36.1.31.27-.34 1.19-1.44 2.52-2.65 2.52-.68 0-1-.27-1-1a10.07 10.07 0 0 1 .88-3.18 7.88 7.88 0 0 0 .75-2.77c0-.44-.19-.63-.61-.63-.9 0-2.36 1.43-3 3-.32.83-1.26 3.72-1.36 4.3 0 .1-.2.2-.48.2s-.82-.12-.82-.29a2.88 2.88 0 0 1 .15-.75l.85-2.79a21 21 0 0 0 .85-3.13c0-.36-.12-.46-.29-.46-.51 0-1.19.73-1.6 1.84a.15.15 0 0 1-.14.08c-.12 0-.36-.1-.31-.27a3.14 3.14 0 0 1 2.67-2.45c.61 0 .83.48.83 1.09A5.44 5.44 0 0 1 54 6.93a4.15 4.15 0 0 1 3.28-2.37zM65.92 12.9c-.61 0-.8-.44-.8-1.16a4.56 4.56 0 0 1 .05-.68 3.34 3.34 0 0 1-2.63 1.89 1.93 1.93 0 0 1-2.06-2.14c0-2.86 2.63-6.26 5-6.26a1.35 1.35 0 0 1 1.36.73l1.34-4.27a3.29 3.29 0 0 0-1-.12c-.08 0-.12-.1-.12-.32s0-.31.14-.31a11.78 11.78 0 0 0 2.4-.27c.22 0 .36.05.36.26a.84.84 0 0 1-.05.25c-.93 2.53-2.91 8.6-3.59 10.91a1.16 1.16 0 0 0 0 .31.27.27 0 0 0 .29.31c.51 0 1.19-.73 1.6-1.84a.15.15 0 0 1 .14-.08c.12 0 .36.1.31.27-.48 1.18-1.43 2.52-2.74 2.52zm-.46-7.67c-1.51 0-3.52 3.48-3.52 5.95 0 .58.2 1 .83 1 1.1 0 2-1.21 2.74-2.91a10.64 10.64 0 0 0 .83-3.18c0-.53-.19-.85-.88-.85zM72.26 9.03a10 10 0 0 0-.92 2.7.27.27 0 0 0 .29.31c.51 0 1.19-.73 1.6-1.84a.15.15 0 0 1 .14-.08c.12 0 .36.1.31.27-.34 1.19-1.44 2.52-2.65 2.52-.68 0-1-.27-1-1a10.73 10.73 0 0 1 1-3.18 10.59 10.59 0 0 0 .94-2.89c0-.36-.12-.46-.29-.46-.51 0-1.19.73-1.6 1.84a.15.15 0 0 1-.14.08c-.12 0-.36-.1-.31-.27a3.14 3.14 0 0 1 2.67-2.45c.71 0 1 .43 1 1.09a9.25 9.25 0 0 1-1.04 3.36zm-.2-7.77a.94.94 0 1 1 1 1 1 1 0 0 1-1.01-1zM81.18 4.56a1.35 1.35 0 0 1 1.51 1.43 7.66 7.66 0 0 1-.78 3 9 9 0 0 0-.85 2.7.27.27 0 0 0 .29.31c.51 0 1.19-.73 1.6-1.84a.15.15 0 0 1 .14-.08c.12 0 .36.1.31.27-.34 1.19-1.44 2.52-2.65 2.52-.68 0-1-.27-1-1a10.07 10.07 0 0 1 .88-3.18 7.88 7.88 0 0 0 .75-2.77c0-.44-.19-.63-.61-.63-.9 0-2.36 1.43-3 3-.32.83-1.26 3.72-1.36 4.3 0 .1-.2.2-.48.2s-.82-.12-.82-.29a2.88 2.88 0 0 1 .15-.75l.85-2.79a21 21 0 0 0 .85-3.13c0-.36-.12-.46-.29-.46-.51 0-1.19.73-1.6 1.84a.15.15 0 0 1-.14.08c-.12 0-.36-.1-.31-.27a3.14 3.14 0 0 1 2.67-2.45c.61 0 .83.48.83 1.09a5.44 5.44 0 0 1-.22 1.27 4.15 4.15 0 0 1 3.28-2.37zM85.16 8.47c0-1.84 1.41-3.91 3.43-3.91a1.68 1.68 0 0 1 1.53.8 2 2 0 0 1 1.55-.78.86.86 0 0 1 .94.87c0 .43-.2.71-.61.71-.61 0-.41-.7-1-.7a.82.82 0 0 0-.66.37 2.66 2.66 0 0 1 .1.83 3.7 3.7 0 0 1-3.49 3.9c-.92 0-1.36.37-1.36.93s.66.71 2.11 1c1.8.37 2.75.92 2.75 2.31 0 1.68-1.53 2.58-3.37 2.58-2.52 0-3.94-1.05-3.94-2.38 0-.9.53-1.27 1.05-1.27a.72.72 0 0 1 .61.31 1.3 1.3 0 0 0-.42 1c0 .87 1 1.68 2.69 1.68 1.44 0 2.13-.66 2.13-1.53 0-.65-.26-1-1.92-1.39-2.26-.56-2.89-.88-2.89-1.89a2 2 0 0 1 1.87-1.68 1.71 1.71 0 0 1-1.1-1.76zm3.4-3.35c-1 0-2.14 2.11-2.14 4 0 .77.25 1 .65 1 1.1 0 2.16-2.24 2.16-4.06-.01-.64-.18-.94-.67-.94z"/><path class="e" d="M125.21 20.62h229.58"/><path d="M120 20.62a21 21 0 0 1 5.79 2.17v-4.34a21 21 0 0 1-5.79 2.17M360 20.62a21 21 0 0 1-5.79-2.17v4.34a21 21 0 0 1 5.79-2.17M212.32 12.66c-.1 0-.12-.1-.12-.31s0-.32.12-.32c1.21 0 1.56-.39 1.85-1.34l2.45-8.19c.25-.85 0-1.33-1.46-1.33-.08 0-.12-.1-.12-.29s.05-.34.15-.34c.42 0 1.24.09 2.6.09.58 0 1.48-.07 2.48-.07 2.89 0 5.12 1.68 5.12 5s-2.06 7.16-7.8 7.16c-1.46 0-2-.08-2.77-.08-1.32-.03-2.09.02-2.5.02zm7.84-11.37a9.71 9.71 0 0 0-1.5.1c-1.14 4-2.79 8.91-2.79 9.64s.1 1 1.7 1c3.62 0 5.92-3 5.92-6.8 0-2.37-.93-3.94-3.33-3.94zM228.37 12.9a1.35 1.35 0 0 1-1.51-1.43 7.65 7.65 0 0 1 .78-3 9 9 0 0 0 .85-2.7.27.27 0 0 0-.29-.31c-.51 0-1.19.73-1.6 1.84a.15.15 0 0 1-.14.09c-.12 0-.36-.1-.31-.27.34-1.19 1.44-2.52 2.65-2.52.68 0 1 .27 1 1a10.08 10.08 0 0 1-.88 3.18 7.87 7.87 0 0 0-.75 2.77c0 .44.19.63.61.63.9 0 2.36-1.43 3-3 .32-.83 1.31-3.86 1.41-4.44 0-.1.2-.2.48-.2s.82.12.82.29a2.88 2.88 0 0 1-.15.75l-.9 2.92a21 21 0 0 0-.85 3.13c0 .36.12.46.29.46.51 0 1.19-.73 1.6-1.84a.15.15 0 0 1 .14-.08c.12 0 .36.1.31.27a3.14 3.14 0 0 1-2.67 2.45c-.61 0-.83-.48-.83-1.09a5.44 5.44 0 0 1 .22-1.27 4.15 4.15 0 0 1-3.28 2.37zM241.85 6.66c-.41 0-.66-.24-.75-.71s-.2-.65-.58-.65c-1 0-3.16 3-3.16 5.66 0 1 .51 1.21 1 1.21.92 0 1.68-.66 2.4-2 .05-.08.1-.15.2-.15s.37.15.31.34c-.68 1.8-1.89 2.63-3.2 2.63a2 2 0 0 1-2.18-2.16c0-3.38 2.77-6.24 4.86-6.24 1.36 0 1.78.56 1.78 1.27a.74.74 0 0 1-.68.8zM249.28 4.56a.9.9 0 0 1 1 1 .87.87 0 0 1-.85 1 .55.55 0 0 1-.54-.58c0-.22-.1-.32-.34-.32a7.82 7.82 0 0 0-2.8 2.46c1.39.07 1.82 1.19 2 3.23.05.53.1.71.34.71s1-.58 1.36-1.85c0-.05 0-.08.12-.08s.36.12.31.31c-.49 1.82-1.6 2.53-2.4 2.53s-1.1-.51-1.1-1.89c0-1.94-.2-2.48-.68-2.48-.22 0-.42.08-.59.53-.29.78-.92 3-1 3.45 0 .1-.2.2-.48.2s-.82-.12-.82-.29a2.3 2.3 0 0 1 .15-.75l3.33-10.71a3.3 3.3 0 0 0-1-.12c-.08 0-.12-.1-.12-.32s0-.31.14-.31a11.78 11.78 0 0 0 2.4-.27c.22 0 .36.05.36.26a.83.83 0 0 1-.05.25c-.59 1.61-1.78 4.79-2.6 7.33 1.24-1.78 2.93-3.29 3.86-3.29zM252.6 9.18a6.9 6.9 0 0 0-.29 1.73c0 .88.37 1.27 1.09 1.27a3 3 0 0 0 2.41-1.92c.05-.14.07-.17.19-.17s.37.1.32.27a3.57 3.57 0 0 1-3.4 2.58 2.06 2.06 0 0 1-2.06-2.16c0-3.13 2.69-6.24 5.25-6.24 1.05 0 1.46.56 1.46 1.33.01 1.25-1.72 2.49-4.97 3.31zm3.3-3.91c-1 0-2.33 1.19-3.09 3.3 2.23-.63 3.62-1.67 3.62-2.77a.48.48 0 0 0-.58-.53zM263.24 12.9c-.61 0-.8-.44-.8-1.16a4.56 4.56 0 0 1 .05-.68 3.34 3.34 0 0 1-2.63 1.89 1.93 1.93 0 0 1-2.06-2.14c0-2.86 2.63-6.26 5-6.26a1.35 1.35 0 0 1 1.36.73l1.34-4.27a3.29 3.29 0 0 0-1-.12c-.08 0-.12-.1-.12-.32s0-.31.14-.31a11.78 11.78 0 0 0 2.4-.27c.22 0 .36.05.36.26a.84.84 0 0 1-.05.25c-.93 2.53-2.91 8.6-3.59 10.91a1.16 1.16 0 0 0 0 .31.27.27 0 0 0 .29.31c.51 0 1.19-.73 1.6-1.84a.15.15 0 0 1 .14-.08c.12 0 .36.1.31.27-.48 1.18-1.43 2.52-2.74 2.52zm-.46-7.67c-1.51 0-3.52 3.48-3.52 5.95 0 .58.2 1 .83 1 1.1 0 2-1.21 2.74-2.91a10.64 10.64 0 0 0 .83-3.18c0-.53-.18-.85-.88-.85z"/><path class="e" d="M365.21 20.62H470"/><path d="M360 20.62a21 21 0 0 1 5.79 2.17v-4.34a21 21 0 0 1-5.79 2.17M390.85 3.81c0 .14-.19.2-.34.2s-.34-.07-.34-.22c0-1.68-.65-2.82-2.12-2.82a1.88 1.88 0 0 0-2 2c0 1.27.76 1.89 1.77 2.67 1.56 1.21 2.11 2.06 2.11 3.52a4 4 0 0 1-6.43 2.87.55.55 0 0 0-.34-.12c-.2 0-.31.22-.34.46a.16.16 0 0 1-.17.15c-.19 0-.51 0-.51-.17a22.68 22.68 0 0 0 .49-3.42c0-.14.17-.2.39-.2s.29.07.29.15c0 2.29 1.26 3.23 2.7 3.23a2.12 2.12 0 0 0 2.33-2.26c0-.88-.36-1.65-1.87-2.82a4.18 4.18 0 0 1-2-3.43 3.33 3.33 0 0 1 3.47-3.42 2.92 2.92 0 0 1 2 .78.3.3 0 0 0 .25.14c.15 0 .25-.15.27-.34s.12-.12.2-.12.42.07.41.15a19.18 19.18 0 0 0-.22 3.02zM393 11.25a1.13 1.13 0 0 0 0 .31.27.27 0 0 0 .29.31c.51 0 1.19-.73 1.6-1.84a.15.15 0 0 1 .14-.08c.1 0 .31.08.31.27-.34 1.19-1.36 2.69-2.67 2.69-.61 0-1-.39-1-1.1a4.19 4.19 0 0 1 .18-1.25l1.55-5h-.92c-.14 0-.12-.05-.12-.19 0-.34.05-.44.17-.44l1 .05.7-2.21c.05-.17.51-.27.9-.27s.56.07.56.24c-.25.7-.51 1.46-.76 2.24.49 0 1.16-.05 1.46-.05s.19.05.19.26-.08.37-.19.37h-1.65c-.69 2.24-1.38 4.47-1.74 5.69zM402.45 11.42a1.14 1.14 0 0 0 0 .31.27.27 0 0 0 .29.31c.51 0 1.19-.73 1.6-1.84a.15.15 0 0 1 .14-.08c.1 0 .31.08.31.27-.37 1.17-1.36 2.52-2.67 2.52-.61 0-.78-.44-.78-1.16a4.69 4.69 0 0 1 .05-.68 3.29 3.29 0 0 1-2.62 1.89 1.93 1.93 0 0 1-2.06-2.14c0-2.92 2.69-6.26 5.1-6.26a1.25 1.25 0 0 1 1.28.73l.17-.53c.05-.15.25-.2.49-.2s.82.17.82.49c-.91 2.33-1.72 5.05-2.12 6.37zm-.7-6.19c-1.51 0-3.62 3.48-3.62 5.95 0 .58.2 1 .83 1 1.11 0 2-1.16 2.7-2.86a10.88 10.88 0 0 0 .92-3.23c.01-.53-.13-.85-.83-.85zM412.28 4.56a1.35 1.35 0 0 1 1.51 1.43 7.67 7.67 0 0 1-.78 3 9 9 0 0 0-.85 2.7.27.27 0 0 0 .29.31c.51 0 1.19-.73 1.6-1.84a.15.15 0 0 1 .14-.08c.12 0 .36.1.31.27-.34 1.19-1.44 2.52-2.65 2.52-.68 0-1-.27-1-1a10.07 10.07 0 0 1 .88-3.18 7.87 7.87 0 0 0 .75-2.77c0-.44-.19-.63-.61-.63-.9 0-2.36 1.43-3 3-.32.83-1.26 3.72-1.36 4.3 0 .1-.2.2-.48.2s-.82-.12-.82-.29a2.89 2.89 0 0 1 .15-.75l.85-2.79a21 21 0 0 0 .85-3.13c0-.36-.12-.46-.29-.46-.51 0-1.19.73-1.6 1.84a.15.15 0 0 1-.14.08c-.12 0-.36-.1-.31-.27a3.14 3.14 0 0 1 2.67-2.45c.61 0 .83.48.83 1.09a5.41 5.41 0 0 1-.22 1.27 4.15 4.15 0 0 1 3.28-2.37zM420.91 12.9c-.61 0-.8-.44-.8-1.16a4.56 4.56 0 0 1 .05-.68 3.34 3.34 0 0 1-2.63 1.89 1.93 1.93 0 0 1-2.06-2.14c0-2.86 2.63-6.26 5-6.26a1.35 1.35 0 0 1 1.36.73l1.34-4.27a3.3 3.3 0 0 0-1-.12c-.08 0-.12-.1-.12-.32s0-.31.14-.31a11.78 11.78 0 0 0 2.4-.27c.22 0 .36.05.36.26a.84.84 0 0 1-.05.25c-.93 2.53-2.91 8.6-3.59 10.91a1.14 1.14 0 0 0 0 .31.27.27 0 0 0 .29.31c.51 0 1.19-.73 1.6-1.84a.15.15 0 0 1 .14-.08c.12 0 .36.1.31.27-.48 1.18-1.43 2.52-2.74 2.52zm-.46-7.67c-1.51 0-3.52 3.48-3.52 5.95 0 .58.2 1 .83 1 1.11 0 2-1.21 2.74-2.91a10.64 10.64 0 0 0 .83-3.18c.01-.53-.18-.85-.88-.85zM427.25 9.03a10 10 0 0 0-.92 2.7.27.27 0 0 0 .29.31c.51 0 1.19-.73 1.6-1.84a.15.15 0 0 1 .14-.08c.12 0 .36.1.31.27-.34 1.19-1.45 2.52-2.65 2.52-.68 0-1-.27-1-1a10.73 10.73 0 0 1 1-3.18 10.6 10.6 0 0 0 .94-2.89c0-.36-.12-.46-.29-.46-.51 0-1.19.73-1.6 1.84a.15.15 0 0 1-.14.08c-.12 0-.36-.1-.31-.27a3.14 3.14 0 0 1 2.67-2.45c.71 0 1 .43 1 1.09a9.24 9.24 0 0 1-1.04 3.36zm-.2-7.77a.94.94 0 1 1 1 1 1 1 0 0 1-1-1zM436.18 4.56a1.35 1.35 0 0 1 1.51 1.43 7.67 7.67 0 0 1-.78 3 9 9 0 0 0-.85 2.7.27.27 0 0 0 .29.31c.51 0 1.19-.73 1.6-1.84a.15.15 0 0 1 .14-.08c.12 0 .36.1.31.27-.34 1.19-1.44 2.52-2.65 2.52-.68 0-1-.27-1-1a10.07 10.07 0 0 1 .88-3.18 7.87 7.87 0 0 0 .75-2.77c0-.44-.19-.63-.61-.63-.9 0-2.36 1.43-3 3-.32.83-1.26 3.72-1.36 4.3 0 .1-.2.2-.48.2s-.82-.12-.82-.29a2.89 2.89 0 0 1 .15-.75l.85-2.79a21 21 0 0 0 .85-3.13c0-.36-.12-.46-.29-.46-.51 0-1.19.73-1.6 1.84a.15.15 0 0 1-.14.08c-.12 0-.36-.1-.31-.27a3.14 3.14 0 0 1 2.67-2.45c.61 0 .83.48.83 1.09a5.41 5.41 0 0 1-.22 1.27 4.15 4.15 0 0 1 3.28-2.37zM440.16 8.47c0-1.84 1.41-3.91 3.43-3.91a1.67 1.67 0 0 1 1.53.8 2 2 0 0 1 1.55-.78.86.86 0 0 1 .94.87c0 .43-.2.71-.61.71-.61 0-.41-.7-1-.7a.82.82 0 0 0-.66.37 2.68 2.68 0 0 1 .1.83 3.7 3.7 0 0 1-3.47 3.94c-.92 0-1.36.37-1.36.93s.66.71 2.11 1c1.8.37 2.75.92 2.75 2.31 0 1.68-1.53 2.58-3.37 2.58-2.52 0-3.94-1.05-3.94-2.38 0-.9.53-1.27 1.05-1.27a.72.72 0 0 1 .61.31 1.3 1.3 0 0 0-.42 1c0 .87 1 1.68 2.69 1.68 1.45 0 2.13-.66 2.13-1.53 0-.65-.25-1-1.92-1.39-2.26-.56-2.89-.88-2.89-1.89a2 2 0 0 1 1.87-1.68 1.71 1.71 0 0 1-1.12-1.8zm3.4-3.35c-1 0-2.14 2.11-2.14 4 0 .77.25 1 .65 1 1.11 0 2.16-2.24 2.16-4.06-.01-.64-.18-.94-.67-.94z"/><path class="e" d="M120 30.62v-20M120 30.62v-20M360 30.62v-20M14 44.82h32v72H14zM104 62.82h32v36h-32zM164 62.82h32v36h-32zM284 62.82h32v36h-32zM344 44.82h32v72h-32z"/><circle cx="30" cy="80.62" r="2"/><circle cx="30" cy="135.62" r="3"/><circle cx="120" cy="80.62" r="2"/><circle cx="120" cy="135.62" r="3"/><circle cx="180" cy="80.62" r="2"/><circle cx="180" cy="135.62" r="3"/><circle cx="300" cy="80.62" r="2"/><circle cx="300" cy="135.62" r="3"/><circle cx="120" cy="80.62" r="2"/><circle cx="120" cy="135.62" r="3"/><circle cx="180" cy="80.62" r="2"/><circle cx="180" cy="135.62" r="3"/><circle cx="360" cy="80.62" r="2"/><circle cx="360" cy="135.62" r="3"/><path class="f" d="M97.59 159.9v-4h-3.55v-1.54h3.55v-4h1.55v4h3.55v1.54h-3.55v4zM111.04 158.98a3.06 3.06 0 0 1-1.11 1.25 2.92 2.92 0 0 1-1.59.45 2.76 2.76 0 0 1-2.23-.93 3.89 3.89 0 0 1-.79-2.6v-2.52a3.3 3.3 0 0 1 1.05-2.61 4.29 4.29 0 0 1 2.94-.93 5.61 5.61 0 0 1 1.11.12 6.44 6.44 0 0 1 1.08.32v-3.37h1.55v12.4h-1.55v-1.55zm-2.32.23a2.78 2.78 0 0 0 1.44-.4 5.17 5.17 0 0 0 1.34-1.22v-4.54a3.93 3.93 0 0 0-1-.44 4.42 4.42 0 0 0-1.16-.15 2.68 2.68 0 0 0-1.85.55 2.13 2.13 0 0 0-.6 1.66v2.49a2.23 2.23 0 0 0 .46 1.54 1.78 1.78 0 0 0 1.37.51zM119.13 160.68a2.85 2.85 0 0 1-2.17-.87 3.2 3.2 0 0 1-.83-2.29v-6.26h1.55v6a2.2 2.2 0 0 0 .45 1.51 1.77 1.77 0 0 0 1.38.5 2.81 2.81 0 0 0 1.41-.39 5.48 5.48 0 0 0 1.4-1.23v-6.34h1.53v9.25h-1.55v-1.55h-.45a2.68 2.68 0 0 1-1.07 1.23 3 3 0 0 1-1.65.44zM131.04 160.68a4.55 4.55 0 0 1-3.05-.89 3.27 3.27 0 0 1-1-2.62v-2.5a3.36 3.36 0 0 1 1-2.67 4.47 4.47 0 0 1 3-.9 4.18 4.18 0 0 1 2.76.81 3.24 3.24 0 0 1 1.07 2.37l-1.51.09a1.89 1.89 0 0 0-.63-1.42 2.66 2.66 0 0 0-1.7-.46 2.84 2.84 0 0 0-1.89.53 2.06 2.06 0 0 0-.62 1.65v2.5a2 2 0 0 0 .63 1.59 2.92 2.92 0 0 0 1.91.53 3 3 0 0 0 1.68-.39 1.45 1.45 0 0 0 .62-1.18l1.51.09a2.81 2.81 0 0 1-1.07 2.15 4.49 4.49 0 0 1-2.71.72zM140.09 156.32v4.24h-1.54v-12.4h1.55v6.85h.75l3-3.76h1.89l-3.64 4.31 3.59 5h-1.76l-3-4.2zM334.03 155.89v-1.54h8.65v1.54zM351.03 158.98a3.06 3.06 0 0 1-1.11 1.25 2.92 2.92 0 0 1-1.59.45 2.76 2.76 0 0 1-2.23-.93 3.89 3.89 0 0 1-.79-2.6v-2.52a3.3 3.3 0 0 1 1.05-2.61 4.29 4.29 0 0 1 2.94-.93 5.61 5.61 0 0 1 1.11.12 6.44 6.44 0 0 1 1.08.32v-3.37h1.55v12.4h-1.55v-1.55zm-2.32.23a2.78 2.78 0 0 0 1.44-.4 5.17 5.17 0 0 0 1.34-1.22v-4.54a3.93 3.93 0 0 0-1-.44 4.42 4.42 0 0 0-1.16-.15 2.68 2.68 0 0 0-1.85.55 2.13 2.13 0 0 0-.6 1.66v2.49a2.23 2.23 0 0 0 .46 1.54 1.78 1.78 0 0 0 1.38.51zM359.13 160.68a2.85 2.85 0 0 1-2.17-.87 3.2 3.2 0 0 1-.83-2.29v-6.26h1.55v6a2.2 2.2 0 0 0 .45 1.51 1.77 1.77 0 0 0 1.38.5 2.81 2.81 0 0 0 1.41-.39 5.48 5.48 0 0 0 1.4-1.23v-6.34h1.53v9.25h-1.55v-1.55h-.45a2.68 2.68 0 0 1-1.07 1.23 3 3 0 0 1-1.65.44zM371.03 160.68a4.55 4.55 0 0 1-3.05-.89 3.27 3.27 0 0 1-1-2.62v-2.5a3.36 3.36 0 0 1 1-2.67 4.47 4.47 0 0 1 3-.9 4.18 4.18 0 0 1 2.76.81 3.24 3.24 0 0 1 1.07 2.37l-1.51.09a1.89 1.89 0 0 0-.63-1.42 2.66 2.66 0 0 0-1.7-.46 2.84 2.84 0 0 0-1.89.53 2.06 2.06 0 0 0-.62 1.65v2.5a2 2 0 0 0 .63 1.59 2.92 2.92 0 0 0 1.91.53 3 3 0 0 0 1.68-.39 1.45 1.45 0 0 0 .62-1.18l1.51.09a2.81 2.81 0 0 1-1.07 2.15 4.49 4.49 0 0 1-2.71.72zM380.09 156.32v4.24h-1.55v-12.4h1.55v6.85h.76l3-3.76h1.89l-3.64 4.31 3.59 5h-1.76l-3-4.2z"/><path stroke="navy" stroke-dasharray="1 1" stroke-miterlimit="10" fill="none" d="M150.87 154.42h178.26"/></g></svg>