<svg xmlns="http://www.w3.org/2000/svg" xmlns:xlink="http://www.w3.org/1999/xlink" version="1.2" height="310.75" width="170.08"><defs><symbol id="b" overflow="visible"><path d="M7.28-5.14c.3 0 .4-.1.4-.45 0-.86-.7-2.5-2.9-2.5C2.3-8.1.61-6.2.61-3.81.6-.9 2.44.3 4.64.3 6.2.31 7.2-.5 7.61-1.34a.2.2 0 00.06-.13c0-.12-.31-.34-.45-.34-.03 0-.1.01-.14.1-.31.62-1.13 1.1-2.1 1.1-1.53 0-2.64-1.19-2.64-3.47 0-.4.04-.81.11-1.06zM4.61-7.38c1.01 0 1.44.65 1.44 1.24 0 .36-.07.39-.7.4l-2.8.08C2.92-6.84 3.6-7.37 4.6-7.37zm0 0"/></symbol><symbol id="c" overflow="visible"><path d="M9.98-.17c.07 0 .08-.17.08-.3 0-.22-.03-.34-.08-.34l-.54-.03c-.58-.07-.7-.2-.7-.68v-3.1c0-4.66.12-7.32.12-7.8 0-.14-.16-.22-.36-.22-.14 0-1.05.27-2.53.27-.1 0-.11.14-.11.32 0 .2 0 .3.1.3 1.07 0 1.26.17 1.26.77v3.89c-.61-.72-1.44-1-2.55-1C2.5-8.1.66-6.34.66-3.8.66-1.24 2.46.3 4.5.3 5.67.31 6.6-.22 7.19-.9L7.16.11c0 .17.07.27.26.27.06 0 .16-.04.25-.07a6.63 6.63 0 012.31-.48zM5.16-7.34c1.14 0 2.06.86 2.06 1.59 0 1.16 0 2.98-.05 3.97A2.46 2.46 0 014.98-.6c-1.3 0-2.48-.88-2.48-3.33 0-2.3 1.17-3.42 2.66-3.42zm0 0"/></symbol><symbol id="d" overflow="visible"><path d="M9.22-6.22c.33 0 .72-.19.72-.76 0-.7-.52-1.11-1.33-1.11-.64 0-1.4.42-1.72 1.25A2.97 2.97 0 004.4-8.1c-1.75 0-3.08 1.21-3.08 2.98 0 1.3.63 2.24 1.61 2.67-1.04.19-1.69.92-1.69 1.7 0 1.2 1.46 1.4 2.3 1.4.66 0 1.4-.07 2.25-.07 1.45 0 1.81.55 1.81 1.49 0 1.06-.84 2.12-2.89 2.12-1.83 0-2.84-.68-2.84-1.73 0-.55.2-.99.67-1.17.05-.02.13-.07.13-.13 0-.1-.22-.26-.74-.26C1.1.9.38 1.4.38 2.5c0 .97.65 2.43 4.45 2.43 2.78 0 4.19-1.69 4.19-3.4 0-1.38-.85-2.4-3.07-2.4-1.04 0-1.73.08-2.7.08-.75 0-1.02-.16-1.02-.52s.36-.8 1.83-.8c2.36 0 3.42-.98 3.42-3 0-.42-.15-.78-.15-1.15 0-.53.39-.77.7-.77.28 0 .4.11.49.36.12.32.34.44.7.44zM4.37-7.47c.97 0 1.55.94 1.55 2.3 0 1.6-.67 2.48-1.5 2.48-.81 0-1.53-.9-1.53-2.48 0-1.36.58-2.3 1.48-2.3zm0 0"/></symbol><symbol id="e" overflow="visible"><path d="M6.58-8.3c-.9 0-2.1.55-2.64 2.05v-1.7c0-.16-.1-.33-.35-.33a7.1 7.1 0 01-2.93.53c-.11 0-.13.16-.13.33 0 .15.02.3.11.3h.4c.4 0 .57.17.57.54v5.1c0 .67-.25.87-1.14.87-.1 0-.11.16-.11.3 0 .25.03.33.08.33.36 0 1.4-.07 2.4-.07 1.13 0 1.85.08 2.35.08.1 0 .14-.06.14-.31 0-.19-.03-.31-.14-.31-.99 0-1.25-.18-1.25-.94l.03-3.11c0-1.3.6-2.05 1.31-2.05.9 0 .58 1.14 1.66 1.14.65 0 .98-.6.98-1.43 0-.74-.28-1.32-1.34-1.32zm0 0"/></symbol><symbol id="h" overflow="visible"><path d="M4.9-3.8h3.93c.04.58.26 2.58.26 2.7 0 .38-.65.46-1.01.46-.31 0-.63.06-.63.45 0 .3.44.33.46.33.71 0 1.43-.06 2.12-.06.4 0 1.49.06 1.92.06.2 0 .53-.1.53-.48 0-.28-.42-.3-.62-.3-.97 0-.84-.02-.9-.5L9.93-11.78c-.03-.31-.04-.53-.51-.53-.44 0-.57.22-.66.37l-5.9 9.96C2.16-.86 1.57-.7.91-.64.66-.62.37-.56.37-.2c0 .14.13.33.44.33.49 0 1-.06 1.47-.06.55 0 1.14.06 1.7.06.2 0 .54-.1.54-.47 0-.23-.27-.31-.47-.31-.3-.05-.61-.13-.61-.48 0-.18.1-.35.23-.58.13-.2.14-.2 1.24-2.1zm3.85-.8H5.39l2.9-4.84zm0 0"/></symbol><symbol id="i" overflow="visible"><path d="M13.08-9.27c0-1.3-1.19-2.48-3.4-2.48h-5.7c-.35 0-.7.08-.7.48 0 .29.4.32.72.32 0 0 .36 0 .63.04.3.03.28-.03.28.13 0 .05-.02.1-.07.31L2.52-1.34c-.18.64-.07.68-1.35.68-.34 0-.65.07-.65.47 0 .3.37.33.65.33h6.06c2.88 0 4.93-2.1 4.93-3.81 0-1.11-.79-2.06-2.22-2.42 1.64-.47 3.14-1.66 3.14-3.18zm-1.99-.06c0 1.46-1.43 2.97-3.3 2.97H5.57l1.03-4.06c.16-.6.08-.53.7-.53h2.16c1.26 0 1.62.87 1.62 1.62zm-.93 5.47c0 1.67-1.52 3.2-3.33 3.2H4.52c-.25 0-.24 0-.32-.03h-.06v-.03c0-.05-.01-.06.08-.37L5.4-5.72h3.01c1.38 0 1.74 1.11 1.74 1.86zm0 0"/></symbol><symbol id="j" overflow="visible"><path d="M13.13-11.8v-.01c0-.03 0-.32-.4-.32-.23 0-.3.13-.43.29l-.97 1.07a3.5 3.5 0 00-2.86-1.36C4.45-12.13.64-8.25.64-4.28c0 2.81 2.02 4.8 4.81 4.8A5.9 5.9 0 009.3-1.02a5.8 5.8 0 001.92-3.06c0-.23-.35-.31-.4-.31h-.02c-.22 0-.4.14-.43.3a5.47 5.47 0 01-1.68 2.6 4.62 4.62 0 01-2.96 1.2c-1.36 0-3.1-.79-3.1-3.4 0-.95.34-3.69 2.01-5.64a5.58 5.58 0 013.97-2c1.5 0 2.52 1.17 2.52 3.16 0 .67-.07.67-.07.86 0 .28.4.31.49.31.37 0 .43-.19.5-.47zm0 0"/></symbol><clipPath id="a"><path d="M0 129h102v182.75H0zm0 0"/></clipPath><clipPath id="f"><path d="M111 64h60.08v133H111zm0 0"/></clipPath><clipPath id="g"><path d="M111 126h60.08v132H111zm0 0"/></clipPath></defs><g clip-path="url(#a)" transform="translate(-1)"><path d="M1 130.75h100v180" fill="none" stroke="#000" stroke-width="2" stroke-miterlimit="10"/></g><g transform="translate(-1)"><use height="100%" width="100%" y="147.72" x="59.84" xlink:href="#b"/><use height="100%" width="100%" y="147.72" x="68.1" xlink:href="#c"/><use height="100%" width="100%" y="147.72" x="78.56" xlink:href="#d"/><use height="100%" width="100%" y="147.72" x="88.42" xlink:href="#b"/></g><path d="M82.67 130.75V.75h57.78v130zm0 0" fill="none" stroke="#000" stroke-width="1.5" stroke-miterlimit="10"/><use height="100%" width="100%" y="61.64" x="108.69" xlink:href="#e" transform="translate(-1)"/><g clip-path="url(#f)" transform="translate(-1)"><path d="M112.55 195.75v-130h57.78v130zm0 0" fill="none" stroke="#7f0000" stroke-width="1.5" stroke-miterlimit="10" stroke-dasharray="1.49998,.99628"/></g><g clip-path="url(#g)" transform="translate(-1)"><path d="M112.55 257.14v-130h57.78v130zm0 0" fill="none" stroke="#007f00" stroke-width="1.5" stroke-miterlimit="10" stroke-dasharray="1.49998,.99628"/></g><path d="M142.45 130.75a2 2 0 10-4 0 2 2 0 004 0zm0 0" fill="#7f0000"/><use height="100%" width="100%" y="146.88" x="135.07" xlink:href="#h" fill="#7f0000" transform="translate(-1)"/><path d="M142.45 192.14a2 2 0 10-4 0 2 2 0 004 0zm0 0" fill="#007f00"/><use height="100%" width="100%" y="207.7" x="134.99" xlink:href="#i" fill="#007f00" transform="translate(-1)"/><path d="M142.45 257.14a2 2 0 10-4 0 2 2 0 004 0zm0 0"/><use height="100%" width="100%" y="273.08" x="135.37" xlink:href="#j" transform="translate(-1)"/><path d="M113.55 65.75a2 2 0 10-4 0 2 2 0 004 0zm0 0"/></svg>