<svg xmlns="http://www.w3.org/2000/svg" width="356.12" height="217.98" viewBox="0 0 356.12 217.98"><defs><style>.a,.b,.c,.d,.f{fill:none;stroke-miterlimit:10;}.a,.d,.f{stroke:#000;}.b,.c{stroke:#8b0000;}.c{stroke-dasharray:1.98 1.98;}.d{stroke-dasharray:2.01 2.01;}.e{fill:#fff;}.f{stroke-width:2px;}.g{fill:#8b0000;}</style></defs><title>explosion-contact-grenades</title><rect class="a" x="347.68" y="252.35" width="13.99" height="13.99" transform="translate(-200.95 -146.26) rotate(6.27)"/><line class="b" x1="129.77" y1="158.53" x2="129.88" y2="157.53"/><line class="c" x1="130.1" y1="155.56" x2="143.43" y2="34.27"/><line class="b" x1="143.54" y1="33.28" x2="143.65" y2="32.29"/><path d="M352.4,268.08l-.06.1c-.94,1.62-1.12,8.22,2,10s8.75-1.63,9.69-3.26l.06-.1Z" transform="translate(-231.4 -109.07)"/><path d="M365.09,273.11l5.21-9c.94-1.62.66-3.56-.63-4.3l-7-4.06c-1.28-.74-3.11,0-4,1.6l-5.21,9Z" transform="translate(-231.4 -109.07)"/><path d="M484.59,138.85l-.11.06c-1.66.86-5.36,6.33-3.7,9.53s8.26,3.32,9.92,2.45l.11-.06Z" transform="translate(-231.4 -109.07)"/><path d="M492.59,149.91l9.22-4.79c1.66-.86,2.47-2.65,1.78-4L499.85,134c-.68-1.32-2.61-1.69-4.27-.82l-9.22,4.79Z" transform="translate(-231.4 -109.07)"/><path class="a" d="M362,266l.49-.87" transform="translate(-231.4 -109.07)"/><path class="d" d="M363.5,263.4c11.36-19.18,87.14-138.28,222-145.8" transform="translate(-231.4 -109.07)"/><path class="a" d="M586.5,117.55l1,0" transform="translate(-231.4 -109.07)"/><line class="a" x1="164.22" y1="100.38" x2="98.98" y2="207.86"/><circle class="e" cx="395.51" cy="209.63" r="3.76" transform="translate(-220.31 329.89) rotate(-58.74)"/><path d="M391.86,207.42a4.26,4.26,0,1,0,5.85-1.43,4.26,4.26,0,0,0-5.85,1.43Zm6.43,3.9a3.26,3.26,0,1,1-1.1-4.48,3.26,3.26,0,0,1,1.1,4.48Z" transform="translate(-231.4 -109.07)"/><polygon points="97.52 204.66 94.38 215.43 102.49 207.67 97.52 204.66"/><path d="M385.65,211.47c0,.68.14.92,1.21.92.08,0,.12.17.12.29s-.07.36-.17.36c-.66,0-1.24-.07-2.07-.07s-1.53,0-2.12,0c-.12,0-.15-.12-.15-.29s0-.32.15-.32c1,0,1.39-.2,1.39-.87v-3.06c-.24,0-1,0-1.45,0s-1.29,0-1.77-.07a10.56,10.56,0,0,0-1.65,3.33c0,.49.32.63,1.05.63.12,0,.14.17.14.32s-.05.31-.15.31-1.31-.05-2-.05-1.5.07-1.72.07-.15-.07-.15-.31,0-.34.12-.34c.66,0,1-.27,1.63-1.21.36-.54,6.36-9.84,6.6-10.28a.7.7,0,0,1,.58-.22c.19,0,.42.05.42.27Zm-4.45-3.74c.46,0,1.1,0,1.5,0s1,0,1.31,0c0-1.75.07-3.45.15-4.76C383.55,204,381.92,206.49,381.19,207.73Z" transform="translate(-231.4 -109.07)"/><path d="M308.21,327c-.1,0-.12-.1-.12-.31s0-.32.12-.32c1.21,0,1.56-.39,1.85-1.34l2.45-8.19c.25-.85,0-1.33-1.46-1.33-.08,0-.12-.1-.12-.29s.05-.34.15-.34c.42,0,1.14.08,2.5.08.66,0,1.55-.08,2.43-.08,2.19,0,3.25.93,3.25,2.38s-1.22,2.75-3.42,3.33a2.93,2.93,0,0,1,2.62,2.86c0,1.8-1.51,3.59-5.24,3.59-1,0-1.61-.08-2.69-.08S308.62,327,308.21,327Zm5.81-6.07a7.53,7.53,0,0,0-1,.07,41.36,41.36,0,0,0-1.31,4.5c0,.53.37.85,1.67.85a3,3,0,0,0,3.16-3.18C316.53,322,316.12,320.95,314,320.95Zm-.82-.66c.2,0,.6,0,.75,0,2.29,0,3.48-1.31,3.48-3.13,0-1-.48-1.67-1.75-1.67a3.86,3.86,0,0,0-1.07.15Z" transform="translate(-231.4 -109.07)"/><line class="f" x1="0.11" y1="143.77" x2="296.33" y2="176.32"/><path class="g" d="M360.83,113.66c0,3.69-3.23,8.11-7,8.11-2.52,0-3.76-1.84-3.76-4.59,0-3.69,3.23-8.11,7-8.11C359.59,109.07,360.83,110.91,360.83,113.66Zm-1.79-1c0-2.06-.56-2.92-2-2.92-2.29,0-5.15,3.91-5.15,8.47,0,2,.78,2.86,2.09,2.86C356.26,121.09,359,117.18,359,112.69Z" transform="translate(-231.4 -109.07)"/><line class="b" x1="123.22" y1="37.57" x2="163.97" y2="26.29"/><polygon class="g" points="125.91 39.84 114.69 39.93 124.36 34.24 125.91 39.84"/><polygon class="g" points="162.84 29.61 172.51 23.92 161.29 24.02 162.84 29.61"/><line class="b" x1="149.24" y1="52.3" x2="137.96" y2="11.55"/><polygon class="g" points="151.51 49.62 151.6 60.84 145.91 51.17 151.51 49.62"/><polygon class="g" points="141.29 12.69 135.6 3.01 135.69 14.24 141.29 12.69"/><line class="b" x1="161.99" y1="42.34" x2="125.2" y2="21.51"/><polygon class="g" points="161.7 38.84 169.7 46.71 158.84 43.9 161.7 38.84"/><polygon class="g" points="128.36 19.95 117.5 17.14 125.5 25.01 128.36 19.95"/><line class="b" x1="154.02" y1="13.53" x2="133.18" y2="50.32"/><polygon class="g" points="150.51 13.82 158.38 5.82 155.57 16.69 150.51 13.82"/><polygon class="g" points="131.63 47.16 128.81 58.03 136.68 50.03 131.63 47.16"/></svg>