<svg xmlns="http://www.w3.org/2000/svg" xmlns:xlink="http://www.w3.org/1999/xlink" width="342.78" height="282.21" version="1.2"><defs><symbol overflow="visible" id="a"><path d="M13.9-7.31c0-2.4-1.46-4.44-4.23-4.44h-5.7c-.36 0-.72.05-.72.47 0 .3.4.33.73.33.22 0 .47.01.7.04.21.03.21 0 .21.13l-.06.31L2.5-1.36c-.17.64-.06.7-1.34.7-.33 0-.7.07-.7.46 0 .3.38.34.7.34h5.62c3.77 0 7.11-3.7 7.11-7.45zm-1.92-.63c0 .82-.36 3.61-1.76 5.44A4.9 4.9 0 016.48-.66H4.56c-.26 0-.25 0-.33-.03H4.2v-.03c0-.05-.02-.06.06-.37l2.4-9.32c.15-.59.07-.54.7-.54h1.8c1.47 0 2.83.78 2.83 3.01zm0 0"/></symbol><symbol overflow="visible" id="b"><path d="M4.1-3.1c2.63-2.3 3.7-3.24 3.7-4.98 0-1.95-1.58-3.37-3.77-3.37A3.26 3.26 0 00.7-8.27c0 1.05.98 1.08 1.06 1.08.4 0 1.06-.28 1.06-1.04 0-.46-.31-.99-1.06-1a2.25 2.25 0 012.06-1.44c1.38 0 2.11 1.23 2.11 2.6 0 1.32-.84 2.62-1.75 3.65L.91-.82c-.2.21-.22.3-.22.7V0H7.3l.02-.13.47-2.92.01-.12h-.75l-.03.1c-.08.48-.2 1.18-.33 1.41-.18.08-1.14.1-1.48.1H2.5zm0 0"/></symbol><symbol overflow="visible" id="c"><path d="M7.94-2.98c0-1.32-.92-2.6-2.57-3.08 1.25-.57 2.11-1.69 2.11-2.96 0-1.45-1.57-2.43-3.3-2.43C2.37-11.45 1-10.4 1-9.05c0 .6.42 1 1.05 1 .65 0 1.03-.45 1.03-.98 0-.7-.56-.9-.96-.95.54-.61 1.47-.8 1.99-.8.6 0 1.47.3 1.47 1.75a4 4 0 01-.47 1.87c-.47.77-.99.79-1.38.8h-.01c-.11.02-.55.05-.63.05h-.03c-.14.01-.39.08-.39.33 0 .3.3.32.58.32H4c1.22 0 1.84 1 1.84 2.64C5.84-.75 4.7-.36 4.1-.36c-.62 0-1.73-.23-2.32-1.02a1.04 1.04 0 001.01-1.06c0-.64-.5-1.06-1.1-1.06-.52 0-1.13.3-1.13 1.1C.55-.8 2.19.38 4.15.38c2.2 0 3.79-1.59 3.79-3.35zm0 0"/></symbol><symbol overflow="visible" id="i"><path d="M7.98-5.52c0-1.32-.07-2.7-.68-3.96a3.3 3.3 0 00-3.05-1.97c-1.1 0-2.4.48-3.1 2.1A8.87 8.87 0 00.5-5.53c0 1.27.06 2.8.78 4.11A3.27 3.27 0 004.23.37a3.3 3.3 0 003.11-2.04c.57-1.19.64-2.52.64-3.85zm-1.75-.2c0 1.27 0 2.4-.18 3.47-.25 1.56-1.17 2-1.82 2-.54 0-1.5-.34-1.8-1.92-.18-.99-.18-2.55-.18-3.55 0-1.06 0-2.17.13-3.06.32-1.97 1.51-2.05 1.85-2.05.46 0 1.54.24 1.83 1.86.17.9.17 2.2.17 3.25zm0 0"/></symbol><symbol overflow="visible" id="j"><path d="M7.58-6.31c0-.63-.61-1.2-1.58-1.2-1 0-1.7.57-2.1 1.07a1.67 1.67 0 00-1.62-1.08C1.34-7.52 1-6.77.86-6.5.55-5.9.33-4.94.33-4.84c0 .26.37.28.37.28.28 0 .35-.13.46-.47.28-1.2.64-1.86 1.04-1.86.16 0 .36.01.36.64 0 .31-.04.5-.26 1.36l-.97 3.76c-.05.27-.16.61-.16.74 0 .36.31.58.67.58.28 0 .64-.16.8-.56.03-.07.6-2.3.66-2.6l.54-2.12c.05-.18.55-.97.93-1.3.12-.13.57-.5 1.21-.5.14 0 .22.01.35.06-.4.17-.67.52-.67.9 0 .3.21.71.82.71.6 0 1.1-.45 1.1-1.1zm0 0"/></symbol><symbol overflow="visible" id="K"><path d="M10.78-9.4c0 .56-.3 1.71-.92 2.34-.42.43-1.23.92-2.69.92H5.52l1.06-4.28c.1-.42.15-.47.31-.52l1-.01c1.2 0 2.9-.03 2.9 1.54zM4.25-1.1l1.1-4.38H7.2c1.34 0 1.65.8 1.65 1.4 0 .24-.14.77-.23 1.16-.13.47-.28 1.1-.28 1.45C8.33.45 10.55.52 10.8.52c1.7 0 2.26-1.86 2.26-2.1 0-.26-.31-.34-.42-.34h-.02c-.39 0-.4.26-.42.34-.42 1.25-1.14 1.46-1.34 1.46-.31 0-.45-.22-.45-.91 0-.53.07-1.38.15-1.92.03-.25.08-.58.08-.83 0-1.1-.78-1.67-1.37-1.97 1.68-.47 3.51-1.64 3.51-3.31 0-1.52-1.6-2.69-3.97-2.69H3.97c-.4 0-.7.08-.7.48 0 .29.39.32.67.32 0 0 .33 0 .6.04.3.03.29-.03.29.13l-.06.31L2.5-1.34c-.17.64-.06.68-1.34.68-.14 0-.33-.03-.47.07-.17.07-.22.21-.22.4 0 .27.37.33.45.33h.03L3.08.08l2.15.06c.22 0 .57-.1.57-.48 0-.28-.4-.32-.7-.32-.7 0-.88 0-.88-.17 0-.1.01-.15.03-.28zm0 0"/></symbol><symbol overflow="visible" id="d"><path d="M3.83-.03c.64 0 1.81.1 3.26.1 3.85 0 6.2-2.07 6.2-6.16 0-3.05-2.1-6.04-6.57-6.04-1.38 0-2.19.11-2.9.11-1.35 0-2.2-.09-2.62-.09-.1 0-.15.1-.15.34 0 .2.04.3.12.3 1.31 0 1.7.44 1.7 1.31v8.2c0 1-.46 1.35-1.67 1.35-.07 0-.1.11-.1.33 0 .2 0 .3.1.3.4 0 1.3-.05 2.63-.05zm2.42-11.4c3.53 0 4.92 2.7 4.92 5.48 0 4-1.62 5.4-4.1 5.4-1.63 0-2.41-.42-2.41-1.93 0-1.3.09-8.1.09-8.77.33-.1.83-.17 1.5-.17zm0 0"/></symbol><symbol overflow="visible" id="e"><path d="M6.64.22C7.88.22 8.33-.6 8.33-.84c0-.1-.19-.27-.25-.27-.08 0-.11 0-.16.08-.14.22-.33.4-.6.4-.4 0-.55-.32-.55-.76 0-1.72.14-3.7.14-4.47 0-1.56-.7-2.23-2.88-2.23C1.7-8.1.98-7.13.98-6.52c0 .4.3.6.63.6.28 0 .62-.2.75-.52.23-.58.66-.87 1.6-.87 1.26 0 1.34.56 1.34 1.43v.9C1.67-4.08.72-2.77.72-1.48.72-.42 1.42.25 2.7.25c.92 0 1.94-.5 2.64-1.36.07.94.6 1.33 1.3 1.33zM2.45-1.9c0-.97.49-1.9 2.85-2.58v2.66c-.67.73-1.2 1.06-1.78 1.06-.61 0-1.07-.4-1.07-1.14zm0 0"/></symbol><symbol overflow="visible" id="f"><path d="M13.4-5.67c0-1.56-1.04-2.42-2.42-2.42-1.06 0-2.25.56-2.76 1.68-.28-1.09-.95-1.68-2.08-1.68-1.1 0-2.23.59-2.72 1.59v-1.28c0-.16-.15-.27-.4-.27-.58.24-1.6.44-2.11.44-.11 0-.13.14-.13.33 0 .17.05.3.19.3h.37c.41 0 .6.04.6.45v5.1c0 .54-.13.82-1.14.82-.07 0-.14.1-.14.27 0 .18.03.36.1.36.6 0 1.11-.07 1.94-.07.77 0 1.28.07 1.7.07.1 0 .16-.07.16-.3 0-.16 0-.33-.12-.33-.83 0-1.02-.19-1.02-.77v-3.07c0-2.03 1.14-2.7 2.13-2.7.89 0 1.36.46 1.36 1.24v4.5c0 .49 0 .8-1.13.8-.1 0-.12.17-.12.28 0 .14.01.35.09.35.58 0 1.17-.07 1.9-.07.52 0 1.16.07 1.8.07.08 0 .1-.2.1-.33 0-.19-.03-.3-.1-.3-.95 0-1.07-.28-1.07-.8v-3.5c0-1.6 1.04-2.26 2.03-2.26 1.1 0 1.48.69 1.48 1.7v4.13c0 .56-.14.73-1.03.73-.06 0-.08.11-.08.27 0 .18.02.36.1.36.59 0 .95-.07 1.76-.07.8 0 1.45.07 1.84.07.11 0 .16-.16.16-.4 0-.12-.03-.23-.12-.23-.93 0-1.16-.22-1.16-.8 0-.86.05-3.06.05-4.26zm0 0"/></symbol><symbol overflow="visible" id="g"><path d="M9.22-6.22c.33 0 .72-.19.72-.76 0-.7-.52-1.11-1.33-1.11-.64 0-1.4.42-1.72 1.25A2.97 2.97 0 004.4-8.1c-1.75 0-3.08 1.21-3.08 2.98 0 1.3.63 2.24 1.61 2.67-1.04.19-1.69.92-1.69 1.7 0 1.2 1.46 1.4 2.3 1.4.66 0 1.4-.07 2.25-.07 1.45 0 1.81.55 1.81 1.49 0 1.06-.84 2.12-2.89 2.12-1.83 0-2.84-.68-2.84-1.73 0-.55.2-.99.67-1.17.05-.02.13-.07.13-.13 0-.1-.22-.26-.74-.26C1.1.9.38 1.4.38 2.5c0 .97.65 2.43 4.45 2.43 2.78 0 4.19-1.69 4.19-3.4 0-1.38-.85-2.4-3.07-2.4-1.04 0-1.73.08-2.7.08-.75 0-1.02-.16-1.02-.52s.36-.8 1.83-.8c2.36 0 3.42-.98 3.42-3 0-.42-.15-.78-.15-1.15 0-.53.39-.77.7-.77.28 0 .4.11.49.36.12.32.34.44.7.44zM4.37-7.47c.97 0 1.55.94 1.55 2.3 0 1.6-.67 2.48-1.5 2.48-.81 0-1.53-.9-1.53-2.48 0-1.36.58-2.3 1.48-2.3zm0 0"/></symbol><symbol overflow="visible" id="h"><path d="M7.28-5.14c.3 0 .4-.1.4-.45 0-.86-.7-2.5-2.9-2.5C2.3-8.1.61-6.2.61-3.81.6-.9 2.44.3 4.64.3 6.2.31 7.2-.5 7.61-1.34a.2.2 0 00.06-.13c0-.12-.31-.34-.45-.34-.03 0-.1.01-.14.1-.31.62-1.13 1.1-2.1 1.1-1.53 0-2.64-1.19-2.64-3.47 0-.4.04-.81.11-1.06zM4.61-7.38c1.01 0 1.44.65 1.44 1.24 0 .36-.07.39-.7.4l-2.8.08C2.92-6.84 3.6-7.37 4.6-7.37zm0 0"/></symbol><symbol overflow="visible" id="q"><path d="M3.42-7.78c0-.16-.15-.27-.4-.27-.58.24-1.6.44-2.11.44-.11 0-.13.14-.13.33 0 .17.05.3.19.3h.37c.41 0 .6.04.6.45v5.1c0 .54-.08.82-1.11.82C.77-.6.7-.45.7-.3c0 .18.02.33.1.33.6 0 1.07-.07 1.9-.07.77 0 1.32.07 1.72.07.11 0 .17-.08.17-.33 0-.2 0-.3-.14-.3-.8 0-1.03-.19-1.03-.77v-2.8c0-2.52 1.4-3 2.25-3 .81 0 1.5.48 1.5 1.5v4.34c0 .56-.15.73-1.03.73-.08 0-.1.11-.1.27 0 .18.02.36.12.36.59 0 .98-.07 1.8-.07.77 0 1.45.07 1.84.07.1 0 .14-.16.14-.4 0-.12-.03-.23-.11-.23-.92 0-1.17-.22-1.17-.8 0-1.22.04-3.42.04-4.3 0-1.67-1.15-2.38-2.43-2.38-1.07 0-2.36.6-2.85 1.56zm0 0"/></symbol><symbol overflow="visible" id="r"><path d="M9.6-.38c.06-.01.1-.07.1-.3 0-.23-.03-.29-.12-.29h-.75c-.11 0-.27-.1-.27-.45 0-2.38.05-4.63.13-6.19 0-.16-.13-.23-.3-.23-.22 0-1.22.1-2.37.1-.1 0-.16.07-.16.27 0 .17.05.36.1.36.82 0 1.13.03 1.13.47v3.75C7.1-1.75 6-.66 4.7-.66c-.91 0-1.4-.34-1.4-1.42l.05-5.76c-.31 0-1.08.1-2.63.1-.07 0-.14.05-.14.29 0 .22 0 .34.11.34.99 0 1.16.11 1.16 1.16v4C1.86-.4 2.56.3 4.02.3c1.32 0 2.37-.67 3.09-1.65 0 .43.05.82.12 1.18.05.18.18.38.36.41.55-.22 1.11-.4 2-.63zm0 0"/></symbol><symbol overflow="visible" id="s"><path d="M3.42-3.02c.22-.12.58-.43.75-.59A38.9 38.9 0 006.3-1.17c.12.14.18.22.18.31 0 .13-.18.25-.62.25-.11 0-.14.14-.14.28 0 .19 0 .35.2.35.47 0 1.11-.07 1.96-.07.76 0 1.34.07 1.75.07.09 0 .14-.16.14-.36 0-.16-.05-.28-.11-.28-.2 0-.41-.04-.64-.16-.29-.14-1.83-1.36-3.8-3.72.72-.66 1.62-1.5 2.06-1.86.47-.4 1.19-.8 1.75-.8.1 0 .13-.15.13-.32 0-.11-.02-.3-.14-.3-.27 0-1.22.05-1.86.05l-1.7-.02c-.1 0-.12.1-.12.3 0 .17.02.3.13.3.56 0 .73.15.73.38 0 .2-.06.36-.33.66-.46.56-1.95 1.97-2.45 2.4v-2.82c0-3.66.13-5.31.13-5.9 0-.15-.22-.21-.4-.21-.13 0-.95.27-2.46.27-.1 0-.11.14-.11.32 0 .2.01.3.1.3 1.1 0 1.26.16 1.26.77v9.56c0 .53-.1.81-1.13.81C.75-.6.7-.47.7-.33c0 .19.01.35.1.35.58 0 1.08-.07 1.91-.07.77 0 1.27.07 1.67.07.1 0 .13-.13.13-.36 0-.11-.03-.27-.1-.27-.9 0-.98-.22-.98-.8zm0 0"/></symbol><symbol overflow="visible" id="t"><path d="M3.42-1.4c0-4.07.05-5.87.05-6.38 0-.14-.19-.27-.42-.27-.67.25-1.63.44-2.14.44-.11 0-.13.14-.13.33 0 .17.02.3.16.3h.4c.52 0 .6.1.6.53v5.03c0 .53-.1.81-1.13.81C.75-.6.7-.5.7-.34c0 .18.01.36.1.36.58 0 1.08-.07 1.91-.07.77 0 1.42.07 1.83.07.11 0 .14-.16.14-.33 0-.19-.03-.3-.1-.3-1 0-1.15-.25-1.15-.8zm-.73-9a1 1 0 00.98-1 1 1 0 10-1.98 0c0 .57.44 1 1 1zm0 0"/></symbol><symbol overflow="visible" id="F"><path d="M8.66-1.4c0-1.23.04-3.43.04-4.32 0-1.66-1.15-2.37-2.43-2.37-1.07 0-2.36.6-2.85 1.56 0-3.66.13-5.31.13-5.9 0-.15-.22-.21-.4-.21-.13 0-.95.27-2.46.27-.1 0-.11.14-.11.32 0 .2.01.3.1.3 1.1 0 1.26.16 1.26.77v9.56c0 .53-.08.81-1.11.81C.77-.6.7-.45.7-.3c0 .18.02.33.1.33.6 0 1.07-.07 1.9-.07.77 0 1.32.07 1.72.07.11 0 .17-.08.17-.33 0-.2 0-.3-.14-.3-.8 0-1.03-.19-1.03-.77v-2.8c0-2.52 1.4-3 2.25-3 .81 0 1.5.48 1.5 1.5v4.34c0 .56-.15.73-1.03.73-.08 0-.1.11-.1.27 0 .18.02.36.12.36.59 0 .98-.07 1.8-.07.77 0 1.45.07 1.84.07.1 0 .14-.16.14-.4 0-.12-.03-.23-.11-.23-.92 0-1.17-.22-1.17-.8zm0 0"/></symbol><symbol overflow="visible" id="G"><path d="M9.98-.17c.07 0 .08-.17.08-.3 0-.22-.03-.34-.08-.34l-.54-.03c-.58-.07-.7-.2-.7-.68v-3.1c0-4.66.12-7.32.12-7.8 0-.14-.16-.22-.36-.22-.14 0-1.05.27-2.53.27-.1 0-.11.14-.11.32 0 .2 0 .3.1.3 1.07 0 1.26.17 1.26.77v3.89c-.61-.72-1.44-1-2.55-1C2.5-8.1.66-6.34.66-3.8.66-1.24 2.46.3 4.5.3 5.67.31 6.6-.22 7.19-.9L7.16.11c0 .17.07.27.26.27.06 0 .16-.04.25-.07a6.63 6.63 0 012.31-.48zM5.16-7.34c1.14 0 2.06.86 2.06 1.59 0 1.16 0 2.98-.05 3.97A2.46 2.46 0 014.98-.6c-1.3 0-2.48-.88-2.48-3.33 0-2.3 1.17-3.42 2.66-3.42zm0 0"/></symbol><symbol overflow="visible" id="H"><path d="M3.7.31c1.17 0 2.66-.69 2.66-2.51 0-1.42-.9-2-2.7-2.7-.72-.27-1.4-.62-1.4-1.33 0-.8.57-1.2 1.2-1.2 1.07 0 1.73.84 1.92 1.98.01.1.06.12.21.12.18 0 .27-.03.27-.14 0-.39-.03-1.42-.03-2.42 0-.08-.19-.08-.38-.08-.04.13-.23.38-.34.38A.17.17 0 015-7.64a2.7 2.7 0 00-1.48-.45C2.09-8.1 1-7.14 1-5.8c0 1.5.98 2.06 2.42 2.57 1.02.38 1.61.75 1.61 1.53 0 .86-.45 1.31-1.39 1.31-.98 0-2.08-.54-2.28-2.25-.02-.07-.06-.07-.14-.07-.1 0-.31.01-.31.1L.92.07c0 .1.17.11.28.11.08 0 .11-.03.16-.1.12-.18.2-.24.3-.24.06 0 .09.01.2.06.44.25.95.42 1.84.42zm0 0"/></symbol><symbol overflow="visible" id="I"><path d="M4.95.31c2.36 0 4.3-1.9 4.3-4.23a4.22 4.22 0 00-4.3-4.17 4.22 4.22 0 00-4.3 4.17A4.28 4.28 0 004.96.3zm0-7.72c1.53 0 2.46 1.36 2.46 3.49C7.4-1.66 6.48-.4 4.95-.4 3.42-.4 2.5-1.6 2.5-3.92c0-2.3.9-3.49 2.45-3.49zm0 0"/></symbol><symbol overflow="visible" id="J"><path d="M1.6-6.98v5.21C1.6-.25 2.4.31 3.67.31c1.15 0 2.01-.67 2.01-1.48 0-.14-.12-.22-.28-.22-.1 0-.23.05-.25.2-.03.25-.44.49-.87.49-.64 0-1.18-.24-1.18-1.03 0-2.25.02-4.11.05-5.25l2.22.01c.12 0 .17-.06.17-.34 0-.3-.05-.46-.17-.46-.64 0-1.53.04-2.19.05.06-.53.11-1.6.11-2.05 0-.1-.08-.17-.39-.17-.1 0-.19.02-.2.11-.24 1.33-1 2.3-1.78 2.3-.08 0-.1.16-.1.34 0 .16.03.2.1.2zm0 0"/></symbol><symbol overflow="visible" id="k"><path d="M5.36-6.6c.03-.15-.08-.3-.33-.37A6.8 6.8 0 012.9-7.1c-.1-.03-.16.11-.22.3-.04.15-.03.3.11.33l.36.1c.4.11.58.2.47.6L2.25-.86c-.14.52-.3.75-1.3.48C.9-.39.8-.24.75-.1.7.06.69.2.77.22c.57.17 1.06.23 1.85.45.74.2 1.25.4 1.65.52.1.03.18-.03.25-.27.06-.2.07-.3-.07-.34-.78-.2-.95-.44-.8-1l.76-2.69c.67-2.45 2.14-2.53 2.95-2.31.78.22 1.34.84 1.06 1.84L7.28.6c-.16.55-.36.68-1.2.44-.08-.01-.14.08-.17.24-.05.17-.07.35.03.37.58.16.97.2 1.75.42.75.2 1.39.44 1.76.55.08.03.16-.13.22-.34.03-.13.03-.24-.03-.27-.89-.23-1.08-.5-.92-1.06.31-1.17.95-3.3 1.19-4.16.43-1.6-.49-2.6-1.72-2.94-1.03-.28-2.44-.03-3.16.77zm0 0"/></symbol><symbol overflow="visible" id="l"><path d="M4.7 1.6a4.26 4.26 0 005.25-2.93A4.23 4.23 0 006.92-6.5a4.22 4.22 0 00-5.25 2.9A4.27 4.27 0 004.7 1.6zm2.03-7.43c1.47.4 2 1.96 1.44 4C7.57.36 6.36 1.34 4.9.94 3.41.54 2.83-.87 3.44-3.12c.6-2.22 1.8-3.11 3.3-2.7zm0 0"/></symbol><symbol overflow="visible" id="m"><path d="M5.03-5.47l.31-1.12c.04-.16-.07-.32-.34-.38-.6.08-1.6 0-2.1-.14-.12-.03-.17.11-.23.3-.04.15-.03.3.11.33l.36.1c.4.11.58.2.47.6L2.3-1.02c-.2.68-.35.91-1.35.65C.9-.4.8-.3.75-.11.7.06.69.2.77.22c.57.17 1.06.23 1.85.45.74.2 1.52.49 1.9.58.12.05.2-.1.25-.27C4.8.8 4.8.68 4.7.66c-1.08-.3-1.2-.47-1-1.2l.86-3.08C5-5.29 5.95-5.54 6.53-5.38c.75.2.4.78 1 .95.44.12.78-.16.9-.64.13-.46-.04-1.03-.93-1.28-.6-.16-1.72.04-2.47.87zm0 0"/></symbol><symbol overflow="visible" id="n"><path d="M14.42-1.92c.42-1.5-.36-2.63-1.69-2.99a3.03 3.03 0 00-3.1.91c.01-1.14-.49-1.9-1.57-2.19a3.02 3.02 0 00-3.04.83l.34-1.23c.03-.16-.08-.32-.33-.38A6.8 6.8 0 012.9-7.1c-.1-.03-.16.11-.22.3-.04.15-.03.3.11.33l.36.1c.4.11.58.2.47.6L2.25-.86c-.14.52-.34.75-1.33.47-.06-.02-.14.06-.19.23C.7.02.66.2.73.22c.58.15 1.1.23 1.9.45.73.2 1.21.4 1.6.5.11.03.2-.01.25-.23.04-.16.08-.33-.04-.36-.8-.22-.94-.44-.78-1l.8-2.97C5.03-5.34 6.3-5.7 7.24-5.44c.86.24 1.2.82.99 1.57L7.03.46c-.12.47-.22.76-1.3.47-.09-.03-.17.14-.18.25-.05.12-.08.33 0 .34.56.16 1.14.25 1.84.44.5.14 1.11.37 1.72.55.08.01.14-.18.17-.29.05-.18.05-.3-.01-.32-.91-.25-.96-.55-.82-1.05l.93-3.38c.42-1.54 1.59-1.9 2.54-1.65 1.08.3 1.27 1.06 1 2.03l-1.1 3.98c-.15.55-.34.68-1.2.44-.06-.01-.1.1-.14.25-.04.17-.07.35 0 .36.58.16.94.19 1.72.4.77.23 1.4.46 1.77.55.1.04.19-.1.25-.32.03-.13.03-.25-.06-.27-.9-.25-1.07-.52-.91-1.08.22-.83.86-2.94 1.17-4.1zm0 0"/></symbol><symbol overflow="visible" id="o"><path d="M6.34 1.97c1.2.33 1.85-.34 1.91-.58.03-.1-.1-.3-.16-.31-.07-.02-.1-.03-.18.01-.2.2-.41.32-.68.24-.39-.11-.45-.46-.32-.88C7.36-1.2 8-3.08 8.2-3.83c.41-1.5-.07-2.34-2.18-2.92-2.25-.6-3.19.14-3.36.73-.1.38.13.66.44.74.28.08.67-.03.87-.3.38-.5.86-.67 1.79-.42 1.2.33 1.12.9.9 1.73l-.25.86c-3.73-.09-5 .93-5.34 2.16C.8-.22 1.3.61 2.55.95c.89.24 1.98.05 2.9-.6-.18.92.2 1.45.9 1.62zM2.86-1.17c.25-.92.97-1.7 3.44-1.74L5.6-.34c-.87.51-1.43.72-2 .56-.6-.17-.94-.66-.74-1.4zm0 0"/></symbol><symbol overflow="visible" id="p"><path d="M5.03-5.4C6-8.91 6.56-10.47 6.7-11.04c.05-.14-.15-.26-.33-.3-.12-.04-.93 0-2.42-.4-.08-.03-.14.1-.18.3-.05.17-.07.28.01.3 1.06.3 1.16.48 1 1.07L2.25-.86c-.14.52-.34.75-1.33.47-.06-.02-.15.1-.19.25C.67.03.66.2.73.22c.58.15 1.08.22 1.88.45.73.19 1.36.44 1.75.53.1.03.16-.07.22-.3.03-.1.03-.28-.02-.3C3.7.39 3.52.1 3.67-.44zm0 0"/></symbol><symbol overflow="visible" id="u"><path d="M7.6-3.83c.09-.12.03-.31-.16-.47-.6-.18-1.5-.67-1.9-1-.09-.08-.18.03-.3.17-.12.15-.16.27-.05.35l.28.25c.31.25.44.4.19.72L2.4.14c-.35.4-.58.58-1.38-.08C.98.02.83.11.75.22.62.36.55.47.59.52c.47.39.9.64 1.54 1.17.57.48.95.87 1.26 1.14.1.06.2.04.36-.14.13-.16.19-.24.08-.33-.63-.52-.69-.8-.31-1.25L5.3-1.05c1.6-1.95 3-1.42 3.64-.87.62.51.86 1.31.2 2.1L6.4 3.54c-.36.42-.58.45-1.26-.1-.05-.04-.16 0-.25.13-.13.14-.2.31-.15.36.46.4.82.6 1.44 1.11.61.49 1.08.97 1.38 1.22.08.05.22-.05.36-.23.07-.1.12-.2.07-.24-.71-.6-.76-.92-.4-1.36.78-.95 2.2-2.62 2.78-3.31 1.05-1.27.6-2.56-.38-3.38-.82-.67-2.21-1.03-3.18-.6zm0 0"/></symbol><symbol overflow="visible" id="v"><path d="M3.63 3.4a4.3 4.3 0 006.01-.56 4.22 4.22 0 00-.67-5.93A4.21 4.21 0 003-2.61a4.27 4.27 0 00.63 6zm4.9-5.96c1.17.97 1.03 2.6-.31 4.23-1.45 1.75-2.97 2.16-4.14 1.19-1.19-.98-1.13-2.5.36-4.3 1.45-1.76 2.89-2.1 4.1-1.12zm0 0"/></symbol><symbol overflow="visible" id="w"><path d="M6.83-2.94l.75-.89c.1-.12.04-.33-.17-.5a6.36 6.36 0 01-1.86-.97c-.1-.08-.2.03-.32.17-.1.15-.15.27-.04.35l.28.25c.31.25.44.4.19.72L2.52 0c-.46.55-.7.72-1.49.06C.98.02.86.06.75.22.62.36.55.47.59.52c.47.39.9.64 1.54 1.17C2.7 2.17 3.3 2.75 3.6 3c.1.08.23-.02.34-.14.11-.16.17-.27.08-.33-.86-.72-.9-.94-.44-1.51l2.04-2.47c1.09-1.33 2.09-1.18 2.54-.8.6.5 0 .9.5 1.3.35.28.8.17 1.11-.2.3-.37.36-.98-.34-1.57a2.78 2.78 0 00-2.61-.22zm0 0"/></symbol><symbol overflow="visible" id="x"><path d="M13.95 4.14c.99-1.2.74-2.53-.32-3.4-.83-.68-2.1-1-3.2-.46.46-1.03.32-1.9-.55-2.62-.85-.7-2.1-.97-3.11-.5l.82-.99c.1-.12.04-.31-.15-.47-.6-.18-1.5-.67-1.9-1-.09-.08-.18.03-.3.17-.12.15-.16.27-.05.35l.28.25c.31.25.44.4.19.72L2.4.14c-.34.4-.6.56-1.4-.1C.95 0 .83.03.72.15.59.3.52.46.58.5c.45.38.9.66 1.54 1.19.58.48.94.86 1.25 1.12.08.06.18.06.32-.12.1-.13.22-.25.12-.33-.64-.53-.67-.8-.3-1.25l1.96-2.38c1.3-1.56 2.6-1.35 3.36-.73.69.56.75 1.23.25 1.83L6.22 3.3c-.3.36-.5.61-1.36-.1-.08-.07-.22.04-.3.13-.08.11-.2.29-.14.33.46.36.96.7 1.5 1.16.42.33.86.8 1.36 1.2.06.05.22-.1.3-.2.1-.16.15-.25.1-.28-.73-.61-.65-.9-.32-1.3l2.23-2.7c1.02-1.25 2.24-1.1 3-.47.86.72.7 1.48.05 2.26l-2.6 3.2c-.37.41-.59.46-1.27-.1-.05-.05-.13.03-.22.15-.13.14-.24.29-.18.33.47.4.79.56 1.41 1.08.63.52 1.08.97 1.4 1.22.07.08.21-.02.35-.2.08-.1.14-.2.06-.25-.7-.6-.75-.91-.39-1.35l2.75-3.28zm0 0"/></symbol><symbol overflow="visible" id="y"><path d="M4.98 4.4c.96.77 1.82.44 1.97.24.07-.06.03-.33-.01-.36-.07-.06-.08-.08-.17-.05-.25.1-.52.11-.72-.06-.32-.25-.22-.6.06-.95C7.2 1.89 8.56.45 9.05-.13c1-1.21.89-2.17-.8-3.56-1.8-1.48-2.95-1.19-3.34-.72-.25.3-.16.64.1.85.2.19.6.25.91.1.53-.3 1.06-.26 1.8.33.97.8.67 1.3.1 1.97l-.55.7C3.89-2.09 2.33-1.7 1.5-.7c-.67.81-.56 1.78.44 2.6.7.57 1.8.86 2.89.62-.55.78-.4 1.42.15 1.86zM3.1.1c.61-.74 1.58-1.16 3.85-.18l-1.7 2.05c-1 .14-1.6.06-2.05-.31-.47-.4-.6-.97-.1-1.55zm0 0"/></symbol><symbol overflow="visible" id="z"><path d="M6.8-2.88c2.3-2.8 3.47-4.01 3.83-4.46.1-.11-.04-.3-.18-.41-.1-.08-.87-.38-2.04-1.34-.08-.07-.18.03-.3.17-.13.14-.17.25-.1.31.85.69.87.9.47 1.36L2.41.15C2.06.54 1.8.68 1 .02.95 0 .8.06.7.17.6.31.52.45.58.5c.45.38.89.66 1.53 1.17.6.49 1.05.96 1.36 1.22.08.06.19-.02.34-.2.06-.08.14-.22.1-.25-.7-.58-.74-.9-.38-1.35zm0 0"/></symbol><symbol overflow="visible" id="A"><path d="M7.58 4.42c.78-.95 2.2-2.62 2.78-3.31 1.05-1.27.6-2.56-.38-3.38-.82-.67-2.21-1.03-3.18-.6 2.3-2.82 3.47-4.02 3.83-4.47.1-.11-.04-.3-.18-.41-.1-.08-.89-.4-2.06-1.36-.08-.06-.16.05-.28.19-.13.14-.19.23-.11.3.84.68.88.9.48 1.37L2.41.15c-.35.4-.58.57-1.38-.09C.98.02.83.11.75.22.62.36.55.47.59.52c.47.39.9.64 1.54 1.17.57.48.95.87 1.26 1.14.1.06.2.04.36-.14.13-.16.19-.24.08-.33-.63-.52-.69-.8-.31-1.25L5.3-1.05c1.6-1.95 3-1.42 3.64-.87.62.51.86 1.31.2 2.1L6.4 3.54c-.36.42-.58.45-1.26-.1-.05-.04-.16 0-.25.13-.13.14-.2.31-.15.36.46.4.82.6 1.44 1.11.61.49 1.08.97 1.38 1.22.08.05.22-.05.36-.23.07-.1.12-.2.07-.24-.71-.6-.76-.92-.4-1.36zm0 0"/></symbol><symbol overflow="visible" id="B"><path d="M8.9.66c.2.18.37.18.6-.08.55-.67 1.03-2.4-.67-3.78-1.92-1.6-4.42-1.2-5.94.65C1.03-.3 1.67 1.78 3.37 3.2c1.2.98 2.49.98 3.36.62.04-.01.1-.03.13-.08.08-.09-.02-.46-.13-.54-.03-.03-.09-.05-.18 0-.64.26-1.57.12-2.32-.49-1.17-.98-1.28-2.6.18-4.36.25-.32.53-.6.75-.75zm-.65-3.41c.78.64.7 1.4.33 1.86-.24.27-.3.25-.81-.14l-2.2-1.7c1.02-.7 1.9-.66 2.68-.02zm0 0"/></symbol><symbol overflow="visible" id="C"><path d="M7.81 6.22c.05.05.17-.1.25-.19.14-.17.2-.28.16-.31l-.4-.38c-.4-.42-.4-.6-.1-.96l1.97-2.4c2.97-3.6 4.75-5.57 5.04-5.95.1-.1.02-.25-.14-.37-.1-.1-.98-.47-2.12-1.41-.08-.06-.17.03-.3.17-.12.14-.19.24-.1.31.82.68.87.93.5 1.38L10.08-.87c-.01-.96-.48-1.7-1.34-2.41-1.67-1.38-4.22-1.19-5.84.76C1.28-.53 1.69 1.8 3.27 3.1c.9.75 1.98.94 2.85.77l-.65.77c-.11.14-.13.26.03.39a7.07 7.07 0 012.31 1.2zm.85-8.61c.87.72 1.04 1.98.57 2.55-.73.89-1.89 2.3-2.57 3.03-.63.23-1.55.25-2.44-.47-1-.83-1.34-2.27.22-4.16 1.45-1.76 3.06-1.9 4.22-.95zm0 0"/></symbol><symbol overflow="visible" id="D"><path d="M2.66 2.6c.9.73 2.48 1.15 3.65-.26.9-1.09.57-2.12-.37-3.8-.4-.67-.69-1.35-.22-1.92.5-.6 1.19-.56 1.67-.15.83.67.8 1.73.24 2.75-.07.06-.04.12.07.23.14.11.22.13.28.05l1.54-1.9c.04-.05-.1-.18-.25-.29-.11.06-.41.14-.5.08l-.05-.1c-.17-.5-.4-.92-.86-1.3-1.11-.91-2.55-.87-3.42.18-.96 1.16-.53 2.22.25 3.52.54.95.76 1.6.28 2.22-.55.65-1.2.7-1.92.1C2.28 1.4 1.8.29 2.72-1.16c.03-.06 0-.1-.06-.14-.07-.06-.25-.19-.3-.11L.67.64C.62.72.73.81.81.9c.06.05.11.05.19.02.2-.05.31-.04.4.01.04.05.04.06.1.19.17.45.47.9 1.16 1.48zm0 0"/></symbol><symbol overflow="visible" id="E"><path d="M5.69-4.38L2.37-.33c-.96 1.17-.71 2.1.25 2.9.9.74 1.99.77 2.5.14.08-.1.05-.25-.07-.36a.26.26 0 00-.33 0c-.19.2-.64.1-.97-.17-.5-.42-.77-.92-.25-1.54C4.92-1.11 6.13-2.54 6.86-3.4l1.72 1.42c.1.08.15.06.34-.16.19-.23.25-.39.16-.46-.5-.41-1.2-.94-1.72-1.35.39-.37 1.1-1.19 1.37-1.51.08-.1.05-.2-.18-.38-.1-.08-.14-.1-.22-.06-1.03.89-2.25 1.16-2.85.66-.06-.05-.17.06-.3.2-.09.12-.09.17-.04.22zm0 0"/></symbol></defs><path d="M286.14 266.12v-210" fill="none" stroke="#cacaca" stroke-miterlimit="10" stroke-dasharray="1,.99628"/><use height="100%" width="100%" xlink:href="#a" x="17.61" y="205.25" transform="translate(-4.37 -3.32)"/><g transform="translate(-4.37 -3.32)"><use height="100%" width="100%" xlink:href="#b" x="9.12" y="135.25"/><use height="100%" width="100%" xlink:href="#a" x="17.6" y="135.25"/></g><g transform="translate(-4.37 -3.32)"><use height="100%" width="100%" xlink:href="#c" x="9.1" y="65.13"/><use height="100%" width="100%" xlink:href="#a" x="17.6" y="65.13"/></g><path d="M31.13 27.68v238.44h293.44" fill="none" stroke="#000" stroke-width="1.5" stroke-miterlimit="10"/><path d="M31.13 21.12a26.24 26.24 0 01-2.73 7.3h5.47a26.36 26.36 0 01-2.74-7.3m300 245a26.44 26.44 0 01-7.29-2.73v5.47a26.58 26.58 0 017.3-2.74"/><g transform="translate(-4.37 -3.32)"><use height="100%" width="100%" xlink:href="#d" x="3.32" y="15.44"/><use height="100%" width="100%" xlink:href="#e" x="17.24" y="15.44"/><use height="100%" width="100%" xlink:href="#f" x="25.88" y="15.44"/><use height="100%" width="100%" xlink:href="#e" x="40.92" y="15.44"/><use height="100%" width="100%" xlink:href="#g" x="49.56" y="15.44"/><use height="100%" width="100%" xlink:href="#h" x="59.42" y="15.44"/></g><use height="100%" width="100%" xlink:href="#i" x="22.93" y="284.97" transform="translate(-4.37 -3.32)"/><use height="100%" width="100%" xlink:href="#j" x="339.57" y="273.1" transform="translate(-4.37 -3.32)"/><path d="M31.13 196.12l255 70" fill="none" stroke="#00007f" stroke-miterlimit="10"/><g fill="#00007f" transform="translate(-4.37 -3.32)"><use height="100%" width="100%" xlink:href="#k" x="66.7" y="225.08"/><use height="100%" width="100%" xlink:href="#l" x="76.67" y="227.82"/><use height="100%" width="100%" xlink:href="#m" x="86.21" y="230.44"/><use height="100%" width="100%" xlink:href="#n" x="92.83" y="232.25"/><use height="100%" width="100%" xlink:href="#o" x="107.34" y="236.24"/><use height="100%" width="100%" xlink:href="#p" x="115.67" y="238.52"/></g><path d="M31.13 196.12h255" fill="none" stroke="#7f0000" stroke-miterlimit="10"/><g fill="#7f0000" transform="translate(-4.37 -3.32)"><use height="100%" width="100%" xlink:href="#q" x="71.2" y="190.69"/><use height="100%" width="100%" xlink:href="#r" x="81.53" y="190.69"/><use height="100%" width="100%" xlink:href="#s" x="91.89" y="190.69"/><use height="100%" width="100%" xlink:href="#t" x="101.68" y="190.69"/><use height="100%" width="100%" xlink:href="#q" x="106.78" y="190.69"/><use height="100%" width="100%" xlink:href="#g" x="117.11" y="190.69"/></g><path d="M31.13 56.12l255 210" fill="none" stroke="#00007f" stroke-miterlimit="10"/><g fill="#00007f" transform="translate(-4.37 -3.32)"><use height="100%" width="100%" xlink:href="#u" x="72.99" y="84.88"/><use height="100%" width="100%" xlink:href="#v" x="80.97" y="91.45"/><use height="100%" width="100%" xlink:href="#w" x="88.61" y="97.74"/><use height="100%" width="100%" xlink:href="#x" x="93.91" y="102.11"/><use height="100%" width="100%" xlink:href="#y" x="105.52" y="111.67"/><use height="100%" width="100%" xlink:href="#z" x="112.19" y="117.16"/></g><g fill="#00007f" transform="translate(-4.37 -3.32)"><use height="100%" width="100%" xlink:href="#A" x="119.84" y="123.46"/><use height="100%" width="100%" xlink:href="#B" x="127.82" y="130.03"/><use height="100%" width="100%" xlink:href="#y" x="134.19" y="135.28"/><use height="100%" width="100%" xlink:href="#C" x="140.86" y="140.77"/><use height="100%" width="100%" xlink:href="#D" x="148.93" y="147.42"/><use height="100%" width="100%" xlink:href="#A" x="154.39" y="151.91"/><use height="100%" width="100%" xlink:href="#v" x="162.37" y="158.48"/><use height="100%" width="100%" xlink:href="#E" x="170" y="164.77"/></g><path d="M31.13 56.12h255" fill="none" stroke="#7f0000" stroke-miterlimit="10"/><g fill="#7f0000" transform="translate(-4.37 -3.32)"><use height="100%" width="100%" xlink:href="#q" x="71.2" y="50.69"/><use height="100%" width="100%" xlink:href="#r" x="81.53" y="50.69"/><use height="100%" width="100%" xlink:href="#s" x="91.89" y="50.69"/><use height="100%" width="100%" xlink:href="#t" x="101.68" y="50.69"/><use height="100%" width="100%" xlink:href="#q" x="106.78" y="50.69"/><use height="100%" width="100%" xlink:href="#g" x="117.11" y="50.69"/></g><g fill="#7f0000" transform="translate(-4.37 -3.32)"><use height="100%" width="100%" xlink:href="#F" x="131.65" y="50.69"/><use height="100%" width="100%" xlink:href="#h" x="141.98" y="50.69"/><use height="100%" width="100%" xlink:href="#e" x="150.25" y="50.69"/><use height="100%" width="100%" xlink:href="#G" x="158.88" y="50.69"/><use height="100%" width="100%" xlink:href="#H" x="169.34" y="50.69"/><use height="100%" width="100%" xlink:href="#F" x="176.41" y="50.69"/><use height="100%" width="100%" xlink:href="#I" x="186.75" y="50.69"/><use height="100%" width="100%" xlink:href="#J" x="196.64" y="50.69"/></g><use height="100%" width="100%" xlink:href="#K" x="284.05" y="285.01" transform="translate(-4.37 -3.32)"/></svg>