<svg xmlns="http://www.w3.org/2000/svg" xmlns:xlink="http://www.w3.org/1999/xlink" version="1.2" height="174.69" width="200"><defs><symbol id="a" overflow="visible"><path d="M3.83-.03c1.31 0 5.7.08 6.84.08.19 0 .27-.03.27-.22 0-1.56.08-2.6.08-3.19 0-.14-.05-.19-.38-.19-.2 0-.3.07-.33.24C10.16-1.5 9.45-.62 6.6-.62c-1.68 0-1.93-.46-1.93-1.25 0-.52.03-1 .03-2 0-.7 0-1.55-.02-2.27 2.3 0 2.63.58 2.63 1.73 0 .18.03.24.36.24.26 0 .32-.06.32-.24 0-.21-.07-.75-.07-2.01 0-1.5.07-1.86.07-2.03 0-.2-.06-.25-.32-.25-.32 0-.36.03-.36.23 0 1.05-.2 1.72-2.63 1.72.08-.9.14-3.3.14-4.53.6-.08 1.16-.13 2.03-.13 1.82 0 2.55.72 2.82 2.18.01.12.18.14.32.14.2 0 .36-.05.36-.18 0-.51-.12-1.46-.12-2.51 0-.24-.03-.33-.3-.33-.25 0-4.53.1-6.1.1-1.35 0-2.2-.1-2.62-.1-.1 0-.15.1-.15.34 0 .2.04.3.12.3 1.31 0 1.7.44 1.7 1.31v8.2c0 1-.46 1.35-1.67 1.35-.07 0-.1.11-.1.33 0 .2 0 .3.1.3.4 0 1.3-.05 2.63-.05zm0 0"/></symbol><symbol id="b" overflow="visible"><path d="M3.42-7.78c0-.16-.15-.27-.4-.27-.58.24-1.6.44-2.11.44-.11 0-.13.14-.13.33 0 .17.05.3.19.3h.37c.41 0 .6.04.6.45v5.1c0 .54-.08.82-1.11.82C.77-.6.7-.45.7-.3c0 .18.02.33.1.33.6 0 1.07-.07 1.9-.07.77 0 1.32.07 1.72.07.11 0 .17-.08.17-.33 0-.2 0-.3-.14-.3-.8 0-1.03-.19-1.03-.77v-2.8c0-2.52 1.4-3 2.25-3 .81 0 1.5.48 1.5 1.5v4.34c0 .56-.15.73-1.03.73-.08 0-.1.11-.1.27 0 .18.02.36.12.36.59 0 .98-.07 1.8-.07.77 0 1.45.07 1.84.07.1 0 .14-.16.14-.4 0-.12-.03-.23-.11-.23-.92 0-1.17-.22-1.17-.8 0-1.22.04-3.42.04-4.3 0-1.67-1.15-2.38-2.43-2.38-1.07 0-2.36.6-2.85 1.56zm0 0"/></symbol><symbol id="c" overflow="visible"><path d="M1.6-6.98v5.21C1.6-.25 2.4.31 3.67.31c1.15 0 2.01-.67 2.01-1.48 0-.14-.12-.22-.28-.22-.1 0-.23.05-.25.2-.03.25-.44.49-.87.49-.64 0-1.18-.24-1.18-1.03 0-2.25.02-4.11.05-5.25l2.22.01c.12 0 .17-.06.17-.34 0-.3-.05-.46-.17-.46-.64 0-1.53.04-2.19.05.06-.53.11-1.6.11-2.05 0-.1-.08-.17-.39-.17-.1 0-.19.02-.2.11-.24 1.33-1 2.3-1.78 2.3-.08 0-.1.16-.1.34 0 .16.03.2.1.2zm0 0"/></symbol><symbol id="d" overflow="visible"><path d="M3.42-1.4c0-4.07.05-5.87.05-6.38 0-.14-.19-.27-.42-.27-.67.25-1.63.44-2.14.44-.11 0-.13.14-.13.33 0 .17.02.3.16.3h.4c.52 0 .6.1.6.53v5.03c0 .53-.1.81-1.13.81C.75-.6.7-.5.7-.34c0 .18.01.36.1.36.58 0 1.08-.07 1.91-.07.77 0 1.42.07 1.83.07.11 0 .14-.16.14-.33 0-.19-.03-.3-.1-.3-1 0-1.15-.25-1.15-.8zm-.73-9a1 1 0 0 0 .98-1 1 1 0 1 0-1.98 0c0 .57.44 1 1 1zm0 0"/></symbol><symbol id="e" overflow="visible"><path d="M4.06-.03c-.25.72-.4 1.22-.92 2.08-.6 1.01-2.05.98-2.05 2.03 0 .45.25.72.75.72.6 0 1.28-.52 1.88-2.03a110.14 110.14 0 0 1 4.06-9.2c.25-.38.53-.73 1.05-.73.08 0 .1-.23.1-.4 0-.13-.05-.22-.1-.22-.14 0-.86.05-1.46.05-.65 0-1.37-.05-1.57-.05-.05 0-.07.2-.07.36 0 .12.05.25.1.25.73 0 .86.22.86.56 0 .77-1.35 3.84-1.78 4.77A70.28 70.28 0 0 1 2.95-6.2c-.08-.25-.1-.34-.1-.53 0-.23.12-.44.8-.44.08 0 .08-.2.08-.36 0-.06-.01-.26-.07-.26-.54 0-.96.05-1.72.05C1-7.73.33-7.78.16-7.78c-.05 0-.1.2-.1.26 0 .16.05.36.13.36a.8.8 0 0 1 .34.07c.56.28 1.17 1.87 1.97 3.57.83 1.79 1.55 3.27 1.56 3.49zm0 0"/></symbol><symbol id="i" overflow="visible"><path d="M9.72-11.14c.08-.05.06-.14-.03-.3-.1-.17-.2-.3-.28-.25-.58.33-1 .7-1.91 1.24-.81.47-1.8.9-2.53 1.32-.08.05-.08.16.05.38.09.17.15.23.23.19 1.42-.83 1.94-.56 2.56.51.8 1.38.08 2.9-1.75 3.96-2.33 1.34-4.89.4-6.58-2.5-2-3.47-1.12-5.94.93-7.11 2.42-1.4 4.45-.85 5.7.89.08.14.14.19.37.04.18-.09.25-.18.16-.36-.08-.12-.44-.56-.94-1.43-.43-.77-.75-1.47-.87-1.7-.08-.15-.11-.15-.36 0-.2.12-.25.17-.17.3.17.32.15.5-.16.68a.47.47 0 0 1-.34.06 6.28 6.28 0 0 0-3.9.88 6.15 6.15 0 0 0-2.3 8.62c1.96 3.38 5.59 4.19 8.68 2.4 1.58-.9 2.3-2 2.78-3.18a.8.8 0 0 1 .33-.36c.23-.12.53-.14.69-.1.03.02.1 0 .15-.02.1-.07.22-.2.13-.38A21.8 21.8 0 0 1 9.4-8.9c-.75-1.3-.68-1.67.3-2.23zm0 0"/></symbol><symbol id="j" overflow="visible"><path d="M5.9-3.14c1.04-.61 1.04-1.55.91-1.78-.04-.06-.28-.11-.34-.08s-.1.05-.11.13c0 .26-.06.51-.31.65-.35.2-.64 0-.86-.37-.88-1.5-1.74-3.29-2.13-3.96-.78-1.36-1.7-1.57-3.6-.48-2.04 1.17-2.16 2.36-1.87 2.89.2.34.55.36.85.19a.89.89 0 0 0 .4-.83c-.09-.63.11-1.06.94-1.55 1.1-.62 1.44-.19 1.88.58l.43.77C-.59-4.38-.77-2.77-.1-1.64c.53.92 1.49 1.14 2.58.51a3.67 3.67 0 0 0 1.62-2.5c.54.77 1.18.85 1.8.49zm-4.71.28C.7-3.69.67-4.75 2.36-6.55l1.33 2.32c-.2.98-.49 1.51-1 1.8-.53.32-1.13.23-1.5-.43zm0 0"/></symbol><symbol id="k" overflow="visible"><path d="M8.14-5.13c.06-.06.08-.12-.05-.32-.1-.2-.17-.24-.26-.2l-.66.38c-.08.05-.26.04-.45-.28a115.84 115.84 0 0 1-2.99-5.42c-.07-.14-.21-.14-.35-.05-.2.11-1.04.7-2.04 1.29-.07.04-.09.14.02.3.08.16.2.3.26.27.7-.4.99-.53 1.2-.17l1.9 3.28c.56.99.16 2.47-.97 3.13-.8.45-1.38.4-1.9-.53C1.3-4.35.01-6.67-1-8.5c-.28.17-.9.64-2.23 1.42-.07.03-.1.11.01.31.11.18.17.3.27.25.86-.5 1.06-.48 1.58.43l2 3.48c.78 1.34 1.75 1.6 3 .88A3.78 3.78 0 0 0 5.5-4.72c.22.38.47.69.72.95.1.15.33.24.51.18.36-.46.77-.9 1.41-1.54zm0 0"/></symbol><symbol id="l" overflow="visible"><path d="M3.38-1.6c1.01-.57 1.95-1.92 1.03-3.5-.7-1.23-1.77-1.28-3.68-.98-.76.11-1.51.17-1.89-.45-.4-.7-.1-1.33.46-1.66.92-.53 1.9-.12 2.64.77.06.06.12.1.26.01.14-.09.2-.18.16-.28-.2-.34-.75-1.22-1.25-2.08-.05-.07-.2.02-.38.11.05.14-.01.44-.1.49-.04.01-.07.04-.11.04-.52-.01-.99.05-1.5.35-1.25.72-1.74 2.08-1.05 3.26.75 1.3 1.89 1.27 3.39 1.04 1.08-.2 1.78-.18 2.17.5.44.75.25 1.37-.56 1.84-.86.48-2.06.56-3.11-.8-.05-.08-.08-.04-.14-.01-.1.04-.28.17-.24.23L.83-.4c.05.1.2.02.3-.03.06-.04.07-.1.07-.18.03-.2.08-.32.16-.36.05-.04.08-.04.2-.04a3.5 3.5 0 0 0 1.81-.57zm0 0"/></symbol><symbol id="m" overflow="visible"><path d="M4.97-2.52A4.07 4.07 0 0 0 6.55-8.3c-1.28-2.22-3.42-2.86-5.42-1.7A3.01 3.01 0 0 0-.52-7.44c-1.71-2.95-2.14-4-2.76-5.06-.06-.1-.25-.1-.42 0-.11.06-.74.73-2.05 1.5-.08.03-.03.16.06.33.1.15.17.25.25.2.94-.53 1.17-.45 1.47.05l3.69 6.39c1.4 2.44 1.6 3.19 1.8 3.51.03.08.3.04.4-.03.14-.08.13-.15.13-.17.04-.69.08-1.1.2-1.56.6.25 1.8.31 2.72-.24zM1.1-8.94C2.62-9.8 3.92-9.2 5-7.3c1.2 2.07.49 3.63-.59 4.25-.81.47-2.17.42-2.65-.43C1.5-3.94.45-5.81.19-6.31c-.22-.46-.52-1.8.92-2.63zm0 0"/></symbol><symbol id="n" overflow="visible"><path d="M3.75-8.1c.28-.15.3-.3.13-.6-.44-.75-1.86-1.82-3.77-.7-2.17 1.24-2.69 3.71-1.49 5.8C.1-1.05 2.27-.94 4.2-2.05c1.36-.78 1.8-1.97 1.75-2.9 0-.06 0-.13-.02-.15-.06-.12-.44-.16-.54-.1-.05.04-.1.08-.08.2.03.67-.42 1.5-1.27 1.98-1.34.78-2.89.3-4.03-1.69-.2-.34-.38-.72-.44-.95zM.31-8.71c.9-.5 1.56-.15 1.86.36.19.31.16.36-.4.7L-.61-6.19c-.28-1.23.05-2.01.92-2.53zm0 0"/></symbol><symbol id="o" overflow="visible"><path d="M8.81-11.64c-.78-1.38-2.12-1.56-3.31-.88a3.1 3.1 0 0 0-1.58 2.85c-.78-.81-1.65-.99-2.64-.42A3.07 3.07 0 0 0-.28-7.34l-.66-1.13c-.06-.12-.26-.14-.48-.01a7.57 7.57 0 0 1-1.61 1.42c-.1.06-.03.18.06.36.08.14.19.23.31.15l.32-.18c.36-.2.54-.25.75.09L.95-2.22c.28.49.33.78-.56 1.3-.05.03-.06.14.02.3.09.15.18.3.25.26.51-.3.95-.62 1.67-1.03.67-.4 1.12-.58 1.47-.78.1-.06.14-.16.01-.36-.08-.13-.15-.28-.25-.22-.73.42-.98.36-1.28-.14L.73-5.58C-.28-7.33.38-8.5 1.23-9c.79-.44 1.43-.27 1.82.42l2.25 3.9c.25.43.4.7-.58 1.26-.08.04-.03.22.03.31.06.13.17.28.25.25.5-.3 1-.66 1.6-1.02.5-.26 1.04-.51 1.62-.84.06-.05-.02-.22-.08-.33-.1-.17-.17-.25-.22-.22-.83.47-1.08.3-1.34-.17L4.83-8.47c-.81-1.39-.25-2.47.62-2.97.96-.54 1.63-.14 2.14.74l2.07 3.6c.28.47.25.68-.52 1.13-.06.03-.03.13.05.27.1.15.19.3.25.26.51-.3.81-.53 1.53-.95.69-.4 1.26-.66 1.6-.86.1-.05.07-.2-.05-.4-.07-.12-.14-.2-.2-.16-.8.47-1.12.39-1.41-.13-.43-.73-1.49-2.67-2.1-3.7zm0 0"/></symbol><symbol id="r" overflow="visible"><path d="M7.94-2.95c0-.64-.2-1.4-.86-2.13A6.12 6.12 0 0 0 5.53-6.2c1.13-.63 1.95-1.52 1.95-2.63 0-1.6-1.57-2.62-3.23-2.62C2.44-11.45 1-10.13 1-8.52c0 .3.03 1.11.78 1.93.2.2.67.5 1.11.8-.97.52-2.34 1.5-2.34 3.12C.55-.81 2.35.37 4.23.37c2.04 0 3.7-1.48 3.7-3.32zM6.39-8.83c0 .9-.58 1.63-1.51 2.2l-2-1.27c-.73-.46-.8-1-.8-1.28 0-.94 1.02-1.6 2.14-1.6 1.13 0 2.16.8 2.16 1.96zm.36 6.49c0 1.17-1.2 1.98-2.5 1.98-1.34 0-2.52-.97-2.52-2.31 0-.92.5-1.92 1.82-2.69l1.98 1.27c.47.3 1.22.78 1.22 1.75zm0 0"/></symbol><clipPath id="f"><path d="M0 133h202v3H0zm0 0"/></clipPath><clipPath id="g"><path d="M105 73h97v80h-97zm0 0"/></clipPath><clipPath id="h"><path d="M166 69h36v51h-36zm0 0"/></clipPath><clipPath id="p"><path d="M81 125h52v53.27H81zm0 0"/></clipPath><clipPath id="q"><path d="M56 137h55v41.27H56zm0 0"/></clipPath></defs><path d="M95 131V21h10v110zm0 0" fill="none" stroke="#000" stroke-miterlimit="10"/><g transform="translate(-1 -3.32)"><use height="100%" width="100%" y="15.71" x="76.75" xlink:href="#a"/><use height="100%" width="100%" y="15.71" x="88.82" xlink:href="#b"/><use height="100%" width="100%" y="15.71" x="99.15" xlink:href="#c"/><use height="100%" width="100%" y="15.71" x="105.21" xlink:href="#d"/><use height="100%" width="100%" y="15.71" x="110.31" xlink:href="#c"/><use height="100%" width="100%" y="15.71" x="116.36" xlink:href="#e"/></g><g clip-path="url(#f)" transform="translate(-1 -3.32)"><path d="M1 134.32h200" fill="none" stroke="#000" stroke-width="2" stroke-miterlimit="10"/></g><g clip-path="url(#g)" transform="translate(-1 -3.32)"><path d="M189.3 94.9l-62.6 36.14" fill="none" stroke="#000" stroke-width="1.5" stroke-miterlimit="10"/></g><g clip-path="url(#h)" transform="translate(-1 -3.32)"><path d="M187.37 90.8l4.52 7.8" fill="none" stroke="#000" stroke-width="1.5" stroke-miterlimit="10"/></g><path d="M120 131a26.65 26.65 0 0 1 7.7-1.28l-2.74-4.75A26.32 26.32 0 0 1 120 131"/><g transform="translate(-1 -3.32)"><use height="100%" width="100%" y="96.66" x="141" xlink:href="#i"/><use height="100%" width="100%" y="89.44" x="153.51" xlink:href="#j"/><use height="100%" width="100%" y="85.11" x="161.02" xlink:href="#k"/><use height="100%" width="100%" y="79.91" x="170.01" xlink:href="#l"/><use height="100%" width="100%" y="76.37" x="176.15" xlink:href="#l"/></g><g transform="translate(-1 -3.32)"><use height="100%" width="100%" y="107.11" x="152.99" xlink:href="#m"/><use height="100%" width="100%" y="101.87" x="162.07" xlink:href="#n"/><use height="100%" width="100%" y="97.73" x="169.25" xlink:href="#j"/><use height="100%" width="100%" y="93.4" x="176.75" xlink:href="#o"/></g><path d="M120 131l-34.64-20" fill="none" stroke="#000" stroke-miterlimit="10" stroke-dasharray="1,.99628"/><path d="M84.38 110.44l-62.6-36.15m65.18 32.43l-4.5 7.81" fill="none" stroke="#000" stroke-width="1.5" stroke-miterlimit="10"/><path d="M16.08 71c1.5 1.3 3.7 3.83 4.96 6.03l2.74-4.75c-2.54.01-5.83-.62-7.7-1.28"/><path d="M80.34 119.7l-20.06 34.74" fill="none" stroke="#000" stroke-miterlimit="10"/><g clip-path="url(#p)" transform="translate(-1 -3.32)"><path d="M118 139.54l-22.08 38.23" fill="none" stroke="#000" stroke-miterlimit="10"/></g><g clip-path="url(#q)" transform="translate(-1 -3.32)"><path d="M70.82 151.7l25.59 14.76" fill="none" stroke="#000" stroke-miterlimit="10"/></g><path d="M65.3 145.76a21 21 0 0 1 3.94 4.78l2.17-3.77a20.9 20.9 0 0 1-6.11-1.01m34.64 20a21.08 21.08 0 0 1-3.94-4.8l-2.18 3.78c2.02-.01 4.63.5 6.12 1.02"/><use height="100%" width="100%" y="172.24" x="73.42" xlink:href="#r" transform="translate(-1 -3.32)"/></svg>