<svg xmlns="http://www.w3.org/2000/svg" xmlns:xlink="http://www.w3.org/1999/xlink" version="1.2" height="320.83" width="332.11"><defs><symbol id="a" overflow="visible"><path d="M5.78-7c0-.31-.39-.33-.64-.33h-1.3c.58-2.25.66-2.6.66-2.73 0-.35-.25-.58-.64-.58-.11 0-.66.05-.83.72l-.67 2.6H.9c-.35 0-.7.04-.7.45 0 .3.35.32.65.32h1.3C.98-2.06.92-1.75.92-1.44.92-.54 1.6.2 2.66.2c1.92 0 2.87-2.5 2.87-2.66 0-.25-.3-.28-.37-.28-.29 0-.36.16-.44.3-.72 1.67-1.58 2-2.03 2-.2 0-.36-.1-.36-.64 0-.39.03-.48.1-.76l1.21-4.7H5.1c.35 0 .7-.04.7-.46zm0 0"/></symbol><symbol id="b" overflow="visible"><path d="M7.98-5.52c0-1.32-.07-2.7-.68-3.96a3.3 3.3 0 00-3.05-1.97c-1.1 0-2.4.48-3.1 2.1A8.87 8.87 0 00.5-5.53c0 1.27.06 2.8.78 4.11A3.27 3.27 0 004.23.37a3.3 3.3 0 003.11-2.04c.57-1.19.64-2.52.64-3.85zm-1.75-.2c0 1.27 0 2.4-.18 3.47-.25 1.56-1.17 2-1.82 2-.54 0-1.5-.34-1.8-1.92-.18-.99-.18-2.55-.18-3.55 0-1.06 0-2.17.13-3.06.32-1.97 1.51-2.05 1.85-2.05.46 0 1.54.24 1.83 1.86.17.9.17 2.2.17 3.25zm0 0"/></symbol><symbol id="e" overflow="visible"><path d="M7.1.14l.2.02v-.82h-.72c-1.5 0-1.4-.12-1.4-.7v-9.52c0-.21.02-.37-.13-.5-.11-.07-.28-.07-.44-.07h-.1l-.04.04c-1 1.03-2.4 1.03-2.95 1.03h-.18v.8h.18c.3 0 1.18 0 2.04-.34v8.58c0 .56.1.68-1.4.68h-.72v.82l.19-.02C2.2.08 3.69.08 4.38.08c.67 0 2.15 0 2.73.06zm0 0"/></symbol><symbol id="f" overflow="visible"><path d="M4.1-3.1c2.63-2.3 3.7-3.24 3.7-4.98 0-1.95-1.58-3.37-3.77-3.37A3.26 3.26 0 00.7-8.27c0 1.05.98 1.08 1.06 1.08.4 0 1.06-.28 1.06-1.04 0-.46-.31-.99-1.06-1a2.25 2.25 0 012.06-1.44c1.38 0 2.11 1.23 2.11 2.6 0 1.32-.84 2.62-1.75 3.65L.91-.82c-.2.21-.22.3-.22.7V0H7.3l.02-.13.47-2.92.01-.12h-.75l-.03.1c-.08.48-.2 1.18-.33 1.41-.18.08-1.14.1-1.48.1H2.5zm0 0"/></symbol><symbol id="g" overflow="visible"><path d="M7.8-3.5c0-2.03-1.4-3.81-3.4-3.81-.73 0-1.38.18-2 .65v-2.76c.33.1.83.17 1.29.17 2.19 0 3.45-1.58 3.45-1.9 0-.12-.06-.3-.34-.3h-.02c-.12.01-.2.06-.2.06a5.27 5.27 0 01-4.4.02h-.02a1.04 1.04 0 00-.25-.07h-.02c-.37 0-.34.31-.34.53v4.97c0 .27-.02.58.4.58a.4.4 0 00.38-.22c.19-.26.78-1.1 2.04-1.1.72 0 1.15.68 1.27 1 .27.59.31 1.23.31 2.05 0 .58 0 1.58-.39 2.25-.39.63-.98 1.02-1.67 1.02a2.51 2.51 0 01-2.28-1.58h.08c.7 0 1.01-.51 1.01-.95a.98.98 0 00-1.01-.97c-.33 0-1 .17-1 1.02A3.24 3.24 0 003.92.37 3.86 3.86 0 007.8-3.5zm0 0"/></symbol><symbol id="h" overflow="visible"><path d="M7.94-3.55c0-2.17-1.53-3.87-3.57-3.87a2.3 2.3 0 00-1.96 1.1c.09-3.96 2.07-4.46 2.8-4.46.35 0 .85.08 1.21.44-.36.06-.81.25-.81.87 0 .58.45.9.95.9.36 0 .96-.21.96-.93 0-1.06-.8-1.95-2.33-1.95C2.86-11.45.55-9.2.55-5.44.55-.94 2.53.38 4.27.38c2.03 0 3.67-1.7 3.67-3.93zm-1.88-.01c0 .8 0 1.64-.26 2.2-.5.95-1.2 1-1.53 1-.93 0-1.41-.92-1.52-1.17-.28-.77-.3-2.1-.3-2.4 0-1.32.58-2.85 1.9-2.85.24 0 .93-.05 1.43.95.28.6.28 1.44.28 2.27zm0 0"/></symbol><symbol id="i" overflow="visible"><path d="M8.42-10.97v-.1H4.11c-2.06 0-1.95-.21-2-.46l-.03-.1h-.72l-.02.11-.56 3.47-.01.16h.76L1.55-8c.04-.27.2-1.25.37-1.45.24-.05 1.35-.07 1.55-.07H6.7L4.94-7.06A11.77 11.77 0 002.83-.7c0 .14-.05 1.06.95 1.06.99 0 .94-.92.94-1.06v-.84c0-.92.06-1.86.19-2.75.07-.4.3-1.81 1.04-2.83l2.28-3.19c.14-.2.2-.32.2-.67zm0 0"/></symbol><symbol id="j" overflow="visible"><path d="M7.94-2.95c0-.64-.2-1.4-.86-2.13A6.12 6.12 0 005.53-6.2c1.13-.63 1.95-1.52 1.95-2.63 0-1.6-1.57-2.62-3.23-2.62C2.44-11.45 1-10.13 1-8.52c0 .3.03 1.11.78 1.93.2.2.67.5 1.11.8-.97.52-2.34 1.5-2.34 3.12C.55-.81 2.35.37 4.23.37c2.04 0 3.7-1.48 3.7-3.32zM6.39-8.83c0 .9-.58 1.63-1.51 2.2l-2-1.27c-.73-.46-.8-1-.8-1.28 0-.94 1.02-1.6 2.14-1.6 1.13 0 2.16.8 2.16 1.96zm.36 6.49c0 1.17-1.2 1.98-2.5 1.98-1.34 0-2.52-.97-2.52-2.31 0-.92.5-1.92 1.82-2.69l1.98 1.27c.47.3 1.22.78 1.22 1.75zm0 0"/></symbol><symbol id="p" overflow="visible"><path d="M10.78-9.4c0 .56-.3 1.71-.92 2.34-.42.43-1.23.92-2.69.92H5.52l1.06-4.28c.1-.42.15-.47.31-.52l1-.01c1.2 0 2.9-.03 2.9 1.54zM4.25-1.1l1.1-4.38H7.2c1.34 0 1.65.8 1.65 1.4 0 .24-.14.77-.23 1.16-.13.47-.28 1.1-.28 1.45C8.33.45 10.55.52 10.8.52c1.7 0 2.26-1.86 2.26-2.1 0-.26-.31-.34-.42-.34h-.02c-.39 0-.4.26-.42.34-.42 1.25-1.14 1.46-1.34 1.46-.31 0-.45-.22-.45-.91 0-.53.07-1.38.15-1.92.03-.25.08-.58.08-.83 0-1.1-.78-1.67-1.37-1.97 1.68-.47 3.51-1.64 3.51-3.31 0-1.52-1.6-2.69-3.97-2.69H3.97c-.4 0-.7.08-.7.48 0 .29.39.32.67.32 0 0 .33 0 .6.04.3.03.29-.03.29.13l-.06.31L2.5-1.34c-.17.64-.06.68-1.34.68-.14 0-.33-.03-.47.07-.17.07-.22.21-.22.4 0 .27.37.33.45.33h.03L3.08.08l2.15.06c.22 0 .57-.1.57-.48 0-.28-.4-.32-.7-.32-.7 0-.88 0-.88-.17 0-.1.01-.15.03-.28zm0 0"/></symbol><symbol id="c" overflow="visible"><path d="M5.63 0h.17v-.67h-.63c-1.14 0-1.01-.06-1.01-.4V-7.6c0-.18.01-.29-.13-.4-.12-.06-.25-.04-.4-.04h-.08l-.05.05c-.72.7-1.72.7-2.2.7h-.18v.67h.18c.26 0 .9.02 1.56-.23v5.76c0 .35.12.4-1.03.4h-.61V0h.16L3.5-.05zm0 0"/></symbol><symbol id="d" overflow="visible"><path d="M6.17-2.25l.03-.13h-.75l-.01.1c-.03.23-.16.86-.27.98a12 12 0 01-1.04.05H2.27a48.15 48.15 0 012.14-1.78c.9-.69 1.75-1.45 1.75-2.6 0-1.46-1.31-2.4-2.94-2.4-1.6 0-2.65 1.1-2.65 2.22 0 .67.6.78.8.78.4 0 .8-.28.8-.75 0-.17-.04-.6-.65-.7a1.72 1.72 0 011.52-.88c1.03 0 1.64.83 1.64 1.75 0 .99-.7 1.75-1.1 2.19L.73-.64c-.14.1-.15.22-.15.52V0H5.8l.03-.1zm0 0"/></symbol><symbol id="k" overflow="visible"><path d="M5.47.34c1.87 0 3.92-1.1 3.92-3.73 0-2.6-1.9-3.33-3.6-3.97-1.38-.56-2.67-1.01-2.67-2.47 0-1.15.8-1.92 2.05-1.92 1.72 0 2.69 1.27 2.69 2.9 0 .2.1.22.33.22.3 0 .36-.03.36-.21 0-.16-.05-1.72-.05-3.18 0-.07-.13-.12-.36-.12-.06 0-.14.02-.14.1-.02.27-.14.37-.33.37-.14 0-.26-.11-.8-.38a3.4 3.4 0 00-1.73-.37c-1.67 0-3.44 1.17-3.44 3.23 0 2.25 1.6 2.96 3.17 3.6C6.42-5 7.92-4.44 7.92-2.7c0 1.39-1.04 2.36-2.46 2.36-1.83 0-3.47-1.52-3.47-3.74 0-.12-.07-.17-.37-.17-.24 0-.31.03-.31.23 0 .49.03 2.08.03 3.68 0 .12.1.2.44.2.15 0 .23-.06.23-.14 0-.3.02-.55.25-.55.22 0 .33.2.98.61.5.33 1.07.56 2.24.56zm0 0"/></symbol><symbol id="l" overflow="visible"><path d="M8.66-1.4c0-1.23.04-3.43.04-4.32 0-1.66-1.15-2.37-2.43-2.37-1.07 0-2.36.6-2.85 1.56 0-3.66.13-5.31.13-5.9 0-.15-.22-.21-.4-.21-.13 0-.95.27-2.46.27-.1 0-.11.14-.11.32 0 .2.01.3.1.3 1.1 0 1.26.16 1.26.77v9.56c0 .53-.08.81-1.11.81C.77-.6.7-.45.7-.3c0 .18.02.33.1.33.6 0 1.07-.07 1.9-.07.77 0 1.32.07 1.72.07.11 0 .17-.08.17-.33 0-.2 0-.3-.14-.3-.8 0-1.03-.19-1.03-.77v-2.8c0-2.52 1.4-3 2.25-3 .81 0 1.5.48 1.5 1.5v4.34c0 .56-.15.73-1.03.73-.08 0-.1.11-.1.27 0 .18.02.36.12.36.59 0 .98-.07 1.8-.07.77 0 1.45.07 1.84.07.1 0 .14-.16.14-.4 0-.12-.03-.23-.11-.23-.92 0-1.17-.22-1.17-.8zm0 0"/></symbol><symbol id="m" overflow="visible"><path d="M7.28-5.14c.3 0 .4-.1.4-.45 0-.86-.7-2.5-2.9-2.5C2.3-8.1.61-6.2.61-3.81.6-.9 2.44.3 4.64.3 6.2.31 7.2-.5 7.61-1.34a.2.2 0 00.06-.13c0-.12-.31-.34-.45-.34-.03 0-.1.01-.14.1-.31.62-1.13 1.1-2.1 1.1-1.53 0-2.64-1.19-2.64-3.47 0-.4.04-.81.11-1.06zM4.61-7.38c1.01 0 1.44.65 1.44 1.24 0 .36-.07.39-.7.4l-2.8.08C2.92-6.84 3.6-7.37 4.6-7.37zm0 0"/></symbol><symbol id="n" overflow="visible"><path d="M3.42-6.53c0-3.66.13-5.31.13-5.9 0-.15-.22-.21-.4-.21-.13 0-.92.27-2.45.27-.1 0-.1.14-.1.32 0 .2 0 .3.1.3 1.1 0 1.24.16 1.24.77v9.56c0 .53-.13.81-1.14.81-.07 0-.14.14-.14.28 0 .19.03.35.1.35.6 0 1.1-.07 1.93-.07.76 0 1.42.07 1.83.07.1 0 .14-.13.14-.36 0-.11-.04-.27-.1-.27-.9 0-1.14-.22-1.14-.8zm0 0"/></symbol><symbol id="o" overflow="visible"><path d="M3.7.31c1.17 0 2.66-.69 2.66-2.51 0-1.42-.9-2-2.7-2.7-.72-.27-1.4-.62-1.4-1.33 0-.8.57-1.2 1.2-1.2 1.07 0 1.73.84 1.92 1.98.01.1.06.12.21.12.18 0 .27-.03.27-.14 0-.39-.03-1.42-.03-2.42 0-.08-.19-.08-.38-.08-.04.13-.23.38-.34.38A.17.17 0 015-7.64a2.7 2.7 0 00-1.48-.45C2.09-8.1 1-7.14 1-5.8c0 1.5.98 2.06 2.42 2.57 1.02.38 1.61.75 1.61 1.53 0 .86-.45 1.31-1.39 1.31-.98 0-2.08-.54-2.28-2.25-.02-.07-.06-.07-.14-.07-.1 0-.31.01-.31.1L.92.07c0 .1.17.11.28.11.08 0 .11-.03.16-.1.12-.18.2-.24.3-.24.06 0 .09.01.2.06.44.25.95.42 1.84.42zm0 0"/></symbol></defs><path d="M22.01 290.4H314.1" fill="none" stroke="#000" stroke-width="2" stroke-miterlimit="10"/><path d="M322.01 290.4a31.9 31.9 0 01-8.8-3.29v6.6a31.91 31.91 0 018.8-3.3"/><use height="100%" width="100%" y="298.95" x="330.95" xlink:href="#a" transform="translate(-4.62 -3.32)"/><path d="M22.01 296.4v-6" fill="none" stroke="#000" stroke-miterlimit="10"/><use height="100%" width="100%" y="315" x="22.38" xlink:href="#b" transform="translate(-4.62 -3.32)"/><path d="M72.01 296.4v-6" fill="none" stroke="#000" stroke-miterlimit="10"/><use height="100%" width="100%" y="311.59" x="73.24" xlink:href="#c" transform="translate(-4.62 -3.32)"/><path d="M68.62 311.24h6.77v-1.04h-6.77zm0 0"/><use height="100%" width="100%" y="324.15" x="73.24" xlink:href="#d" transform="translate(-4.62 -3.32)"/><path d="M122.01 296.4v-6" fill="none" stroke="#000" stroke-miterlimit="10"/><use height="100%" width="100%" y="315" x="122.38" xlink:href="#e" transform="translate(-4.62 -3.32)"/><path d="M172.01 296.4v-6" fill="none" stroke="#000" stroke-miterlimit="10"/><use height="100%" width="100%" y="318.29" x="167.79" xlink:href="#e" transform="translate(-4.62 -3.32)"/><use height="100%" width="100%" y="311.59" x="177.49" xlink:href="#c" transform="translate(-4.62 -3.32)"/><path d="M172.87 311.24h6.77v-1.04h-6.77zm0 0"/><use height="100%" width="100%" y="324.15" x="177.49" xlink:href="#d" transform="translate(-4.62 -3.32)"/><path d="M222.01 296.4v-6" fill="none" stroke="#000" stroke-miterlimit="10"/><use height="100%" width="100%" y="315" x="222.38" xlink:href="#f" transform="translate(-4.62 -3.32)"/><path d="M272.01 296.4v-6" fill="none" stroke="#000" stroke-miterlimit="10"/><use height="100%" width="100%" y="318.29" x="267.8" xlink:href="#f" transform="translate(-4.62 -3.32)"/><use height="100%" width="100%" y="311.59" x="277.48" xlink:href="#c" transform="translate(-4.62 -3.32)"/><path d="M272.86 311.24h6.78v-1.04h-6.78zm0 0"/><use height="100%" width="100%" y="324.15" x="277.48" xlink:href="#d" transform="translate(-4.62 -3.32)"/><path d="M22.01 288.41v-40h100v40" fill="#cacaff" stroke="#00007f" stroke-miterlimit="10"/><path d="M124.01 288.41v-40h48v40m2 0v-40h48v40m2 0v-40h48v40" fill="#ffcaca" stroke="#7f0000" stroke-miterlimit="10"/><path d="M22.01 138.58v82.09H314.1" fill="none" stroke="#000" stroke-width="2" stroke-miterlimit="10"/><path d="M22.01 130.67a31.97 31.97 0 01-3.3 8.79h6.6a31.83 31.83 0 01-3.3-8.8m300 90.01a31.79 31.79 0 01-8.8-3.3v6.6a31.91 31.91 0 018.8-3.3"/><use height="100%" width="100%" y="229.21" x="330.95" xlink:href="#a" transform="translate(-4.62 -3.32)"/><path d="M22.01 210.67h150v-20h50v-20h50v-20h50m-250 76v-6m50 6v-6m50 6v-6m50 6v-6m50 6v-6m-256-10h6" fill="none" stroke="#000" stroke-miterlimit="10"/><use height="100%" width="100%" y="219.53" x="8.31" xlink:href="#g" transform="translate(-4.62 -3.32)"/><path d="M16.01 190.67h6" fill="none" stroke="#000" stroke-miterlimit="10"/><use height="100%" width="100%" y="199.53" x="8.31" xlink:href="#h" transform="translate(-4.62 -3.32)"/><path d="M24.01 190.67h146" fill="none" stroke="#7f7f7f" stroke-miterlimit="10" stroke-dasharray="1,.99628"/><path d="M16.01 170.67h6" fill="none" stroke="#000" stroke-miterlimit="10"/><use height="100%" width="100%" y="179.61" x="8.32" xlink:href="#i" transform="translate(-4.62 -3.32)"/><path d="M24.01 170.67h196" fill="none" stroke="#7f7f7f" stroke-miterlimit="10" stroke-dasharray="1,.99628"/><path d="M16.01 150.67h6" fill="none" stroke="#000" stroke-miterlimit="10"/><use height="100%" width="100%" y="159.53" x="8.31" xlink:href="#j" transform="translate(-4.62 -3.32)"/><path d="M24.01 150.67h246" fill="none" stroke="#7f7f7f" stroke-miterlimit="10" stroke-dasharray="1,.99628"/><path d="M22.01 28.99v82.09H314.1" fill="none" stroke="#000" stroke-width="2" stroke-miterlimit="10"/><path d="M22.01 21.08a31.97 31.97 0 01-3.3 8.79h6.6a31.83 31.83 0 01-3.3-8.8m300 90.01a31.91 31.91 0 01-8.8-3.3v6.6a31.79 31.79 0 018.8-3.3"/><g transform="translate(-4.62 -3.32)"><use height="100%" width="100%" y="19.74" x="3.32" xlink:href="#k"/><use height="100%" width="100%" y="19.74" x="13.79" xlink:href="#l"/><use height="100%" width="100%" y="19.74" x="24.13" xlink:href="#m"/><use height="100%" width="100%" y="19.74" x="32.39" xlink:href="#n"/><use height="100%" width="100%" y="19.74" x="37.63" xlink:href="#n"/><use height="100%" width="100%" y="19.74" x="42.86" xlink:href="#o"/></g><use height="100%" width="100%" y="119.62" x="330.95" xlink:href="#a" transform="translate(-4.62 -3.32)"/><path d="M22.01 101.08h102v-20h50v-20h50v-20h98m-250 76v-6m50 6v-6m50 6v-6m50 6v-6m50 6v-6m-256-10h6" fill="none" stroke="#000" stroke-miterlimit="10"/><use height="100%" width="100%" y="109.94" x="8.31" xlink:href="#g" transform="translate(-4.62 -3.32)"/><path d="M16.01 81.08h6" fill="none" stroke="#000" stroke-miterlimit="10"/><use height="100%" width="100%" y="89.94" x="8.31" xlink:href="#h" transform="translate(-4.62 -3.32)"/><path d="M24.01 81.08h98" fill="none" stroke="#7f7f7f" stroke-miterlimit="10" stroke-dasharray="1,.99628"/><path d="M16.01 61.08h6" fill="none" stroke="#000" stroke-miterlimit="10"/><use height="100%" width="100%" y="70.02" x="8.32" xlink:href="#i" transform="translate(-4.62 -3.32)"/><path d="M24.01 61.08h148" fill="none" stroke="#7f7f7f" stroke-miterlimit="10" stroke-dasharray="1,.99628"/><path d="M16.01 41.08h6" fill="none" stroke="#000" stroke-miterlimit="10"/><use height="100%" width="100%" y="49.94" x="8.31" xlink:href="#j" transform="translate(-4.62 -3.32)"/><path d="M24.01 41.08h198" fill="none" stroke="#7f7f7f" stroke-miterlimit="10" stroke-dasharray="1,.99628"/><path d="M124.01 16.08v56.44" fill="none" stroke="#000" stroke-width="1.5" stroke-miterlimit="10"/><path d="M124.01 79.08c.36-1.95 1.46-5.1 2.73-7.3h-5.46a26.53 26.53 0 012.73 7.3"/><path d="M174.01 16.08v36.44" fill="none" stroke="#000" stroke-width="1.5" stroke-miterlimit="10"/><path d="M174.01 59.08c.36-1.95 1.46-5.1 2.73-7.3h-5.46a26.53 26.53 0 012.73 7.3"/><path d="M224.01 16.08v16.44" fill="none" stroke="#000" stroke-width="1.5" stroke-miterlimit="10"/><path d="M224.01 39.08c.36-1.95 1.46-5.1 2.73-7.3h-5.46a26.53 26.53 0 012.73 7.3"/><use height="100%" width="100%" y="15.07" x="120.17" xlink:href="#p" transform="translate(-4.62 -3.32)"/><use height="100%" width="100%" y="15.07" x="170.17" xlink:href="#p" transform="translate(-4.62 -3.32)"/><use height="100%" width="100%" y="15.07" x="220.17" xlink:href="#p" transform="translate(-4.62 -3.32)"/></svg>