<svg xmlns="http://www.w3.org/2000/svg" xmlns:xlink="http://www.w3.org/1999/xlink" width="362.78" height="270.88" version="1.2"><defs><symbol overflow="visible" id="a"><path d="M3.03-8.23c-.05.1-.06.26-.06.26h-.02s-.04.31.44.31c.34 0 .42-.25.42-.25v-.01c.64-2 1.47-3.03 3.97-3.03h2.42L.86-.53l-.02.01v.05s-.06.24-.06.31c0 .27.36.3.63.3h7.4c.16 0 .33.02.49-.08.17-.08.18-.2.23-.37l1.22-3.77c.02-.06.08-.17.08-.28 0-.1-.08-.31-.44-.31-.37 0-.39.22-.5.53-.75 2.3-1.53 3.42-4.25 3.42H3.1l9.33-10.42.02-.02v-.03c.03-.06.08-.15.08-.26 0-.27-.33-.3-.66-.3H4.6c-.19 0-.36-.02-.52.08-.17.08-.18.22-.23.39zm0 0"/></symbol><symbol overflow="visible" id="b"><path d="M3.06.08L4.14.1l1.11.03c.22 0 .56-.1.56-.48 0-.28-.4-.32-.7-.32-.69 0-.88 0-.88-.17 0-.1.02-.15.04-.28l1.17-4.53h4.68L9.04-1.13c-.15.49-.3.47-1.34.47-.33 0-.61.08-.61.47 0 .27.34.33.42.33h.03L9.67.08l1.1.03c.36 0 .71.03 1.09.03.23 0 .56-.1.56-.48 0-.28-.4-.32-.69-.32-.7 0-.89 0-.89-.17 0-.1.02-.15.04-.28l2.26-9.17c.16-.6.06-.67 1.22-.67.48 0 .78-.07.78-.47 0-.28-.33-.33-.44-.33l-2.15.05-2.18-.05c-.24 0-.53.1-.53.48 0 .29.38.32.66.32 0 0 .34 0 .6.04.3.03.3-.03.3.13 0 .05-.03.1-.07.31l-.99 4.03h-4.7l.99-3.84c.15-.6.07-.67 1.21-.67.47 0 .8-.07.8-.47 0-.28-.36-.33-.47-.33l-2.19.05-2.2-.05c-.25 0-.55.1-.55.48 0 .29.41.32.7.32 0 0 .37 0 .65.04.3.03.28-.03.28.13l-.06.31-2.33 9.13c-.17.64-.08.68-1.35.68-.14 0-.32-.03-.48.07-.17.07-.19.21-.19.4 0 .27.36.33.44.33h.03zm0 0"/></symbol><symbol overflow="visible" id="c"><path d="M12.8-7.4c0-2.77-1.82-4.72-4.55-4.72-3.9 0-7.63 3.98-7.63 7.95C.63-1.33 2.54.52 5.2.52c3.83 0 7.6-3.85 7.6-7.93zm-1.94-.68c0 1.2-.45 3.85-2.13 5.9C7.93-1.13 6.56-.2 5.28-.2c-1.45 0-2.64-1.24-2.64-3.5 0-.73.23-3.22 1.53-5.17 1.16-1.75 2.78-2.56 3.97-2.56 1.2 0 2.72.83 2.72 3.34zm0 0"/></symbol><symbol overflow="visible" id="d"><path d="M13.13-11.8v-.01c0-.03 0-.32-.4-.32-.23 0-.3.13-.43.29l-.97 1.07a3.5 3.5 0 00-2.86-1.36C4.45-12.13.64-8.25.64-4.28c0 2.81 2.02 4.8 4.81 4.8A5.9 5.9 0 009.3-1.02a5.8 5.8 0 001.92-3.06c0-.23-.35-.31-.4-.31h-.02c-.22 0-.4.14-.43.3a5.47 5.47 0 01-1.68 2.6 4.62 4.62 0 01-2.96 1.2c-1.36 0-3.1-.79-3.1-3.4 0-.95.34-3.69 2.01-5.64a5.58 5.58 0 013.97-2c1.5 0 2.52 1.17 2.52 3.16 0 .67-.07.67-.07.86 0 .28.4.31.49.31.37 0 .43-.19.5-.47zm0 0"/></symbol><symbol overflow="visible" id="e"><path d="M13.28-11.4c0-.18-.12-.35-.42-.35-.48 0-.95.05-1.4.05-.55 0-1.12-.05-1.68-.05-.19 0-.55.08-.55.47 0 .23.25.33.47.33.35.04.58.14.58.45 0 .22-.23.6-.23.6L5.17-2.17l-1.1-8.42c0-.19.24-.37.98-.37.3 0 .62-.07.62-.47 0-.22-.23-.33-.44-.33-.7 0-1.42.05-2.1.05l-.94-.02-.9-.03c-.21 0-.56.08-.56.47 0 .3.38.33.65.33.85 0 .76.06.8.47L3.54 0c.06.33.16.52.55.52.4 0 .54-.2.69-.4l6.1-9.74c.83-1.32 1.44-1.29 2-1.33.49-.03.41-.46.41-.46zm0 0"/></symbol><symbol overflow="visible" id="k"><path d="M2.92-4.25c0-.6-.47-1.08-1.06-1.08-.6 0-1.08.49-1.08 1.08 0 .6.49 1.1 1.08 1.1.6 0 1.06-.5 1.06-1.1zm4.75 0a1.07 1.07 0 10-2.14 0c0 .6.47 1.1 1.06 1.1.6 0 1.08-.5 1.08-1.1zm4.74 0c0-.6-.47-1.08-1.07-1.08a1.1 1.1 0 000 2.18c.6 0 1.07-.5 1.07-1.1zm0 0"/></symbol><symbol overflow="visible" id="f"><path d="M5.63 0h.17v-.67h-.63c-1.14 0-1.01-.06-1.01-.4V-7.6c0-.18.01-.29-.13-.4-.12-.06-.25-.04-.4-.04h-.08l-.05.05c-.72.7-1.72.7-2.2.7h-.18v.67h.18c.26 0 .9.02 1.56-.23v5.76c0 .35.12.4-1.03.4h-.61V0h.16L3.5-.05zm0 0"/></symbol><symbol overflow="visible" id="g"><path d="M4.23-5.9c0-.38-.3-.76-.82-.76-.38 0-.66.22-.74.43L.63-1.17l-.07.14h.81l.05-.06 2.7-4.44a.7.7 0 00.11-.38zm0 0"/></symbol><symbol overflow="visible" id="h"><path d="M4.23-5.9c0-.38-.3-.76-.82-.76-.38 0-.66.22-.74.43L.63-1.17l-.07.14h.81l.05-.06 2.7-4.44a.7.7 0 00.11-.38zm2.85 0c0-.38-.3-.76-.81-.76-.4 0-.66.22-.74.43L3.48-1.17l-.06.14h.81l.05-.06 2.7-4.44a.7.7 0 00.1-.38zm0 0"/></symbol><symbol overflow="visible" id="i"><path d="M6.17-2.25l.03-.13h-.75l-.01.1c-.03.23-.16.86-.27.98a12 12 0 01-1.04.05H2.27a48.15 48.15 0 012.14-1.78c.9-.69 1.75-1.45 1.75-2.6 0-1.46-1.31-2.4-2.94-2.4-1.6 0-2.65 1.1-2.65 2.22 0 .67.6.78.8.78.4 0 .8-.28.8-.75 0-.17-.04-.6-.65-.7a1.72 1.72 0 011.52-.88c1.03 0 1.64.83 1.64 1.75 0 .99-.7 1.75-1.1 2.19L.73-.64c-.14.1-.15.22-.15.52V0H5.8l.03-.1zm0 0"/></symbol><symbol overflow="visible" id="j"><path d="M6.28-2.14c0-.88-.66-1.75-1.84-2.13 1.08-.5 1.48-1.32 1.48-2.01 0-1-1.17-1.75-2.58-1.75-1.4 0-2.5.69-2.5 1.7 0 .42.3.74.79.74.51 0 .78-.36.78-.72 0-.3-.16-.57-.52-.67.4-.35 1.05-.46 1.42-.46.44 0 1.11.19 1.11 1.16 0 .47-.15 1-.44 1.33-.35.4-.6.42-1.2.45l-.4.03c-.05.02-.25.08-.25.28 0 .27.3.28.48.28h.64c.78 0 1.42.54 1.42 1.77 0 1.42-.81 1.77-1.37 1.77-.42 0-1.27-.11-1.77-.63.5-.13.6-.52.6-.73 0-.41-.32-.75-.82-.75-.45 0-.84.26-.84.8C.47-.53 1.8.22 3.33.22c1.76 0 2.95-1.15 2.95-2.37zm0 0"/></symbol><symbol overflow="visible" id="l"><path d="M-.05-5.16c-.34-.48-1-.6-1.5-.26-.48.34-.6 1-.25 1.48.35.49 1.02.64 1.5.3.5-.34.6-1.03.25-1.52zm3.9-2.73a1.08 1.08 0 00-1.5-.25c-.5.34-.6 1-.26 1.48.35.49 1.02.64 1.5.3.49-.34.6-1.05.25-1.53zm3.87-2.7a1.06 1.06 0 10-1.75 1.21 1.1 1.1 0 001.51.3 1.1 1.1 0 00.24-1.51zm0 0"/></symbol></defs><path d="M16.17 249.44V20h327.66v229.44zm0 0" fill="none" stroke="#000" stroke-miterlimit="10"/><use height="100%" width="100%" xlink:href="#a" x="4.68" y="29.13" transform="translate(-3.95 -3.32)"/><use height="100%" width="100%" xlink:href="#b" x="351.59" y="258.56" transform="translate(-3.95 -3.32)"/><path d="M16.17 249.44L343.83 20" fill="none" stroke="#000" stroke-miterlimit="10"/><use height="100%" width="100%" xlink:href="#c" x="3.32" y="258.56" transform="translate(-3.95 -3.32)"/><use height="100%" width="100%" xlink:href="#d" x="351.59" y="29.13" transform="translate(-3.95 -3.32)"/><path d="M16.17 249.44L85.63 20m84.94 121.32v108.12" fill="none" stroke="#000" stroke-miterlimit="10"/><use height="100%" width="100%" xlink:href="#e" x="80.76" y="15.3" transform="translate(-3.95 -3.32)"/><use height="100%" width="100%" xlink:href="#f" x="90.66" y="19.5" transform="translate(-3.95 -3.32)"/><use height="100%" width="100%" xlink:href="#e" x="178.33" y="161.28" transform="translate(-3.95 -3.32)"/><use height="100%" width="100%" xlink:href="#g" x="191.86" y="155.12" transform="translate(-3.95 -3.32)"/><use height="100%" width="100%" xlink:href="#f" x="188.23" y="165.88" transform="translate(-3.95 -3.32)"/><use height="100%" width="100%" xlink:href="#e" x="163.42" y="269.4" transform="translate(-3.95 -3.32)"/><use height="100%" width="100%" xlink:href="#h" x="176.95" y="263.23" transform="translate(-3.95 -3.32)"/><use height="100%" width="100%" xlink:href="#f" x="173.31" y="273.99" transform="translate(-3.95 -3.32)"/><path d="M85.63 20l84.94 121.32m1 108.12a1 1 0 10-2 0 1 1 0 002 0zm-1-108.12V20M16.17 249.44L170.57 20m56.99 81.42v148.02" fill="none" stroke="#000" stroke-miterlimit="10"/><use height="100%" width="100%" xlink:href="#e" x="165.7" y="15.3" transform="translate(-3.95 -3.32)"/><use height="100%" width="100%" xlink:href="#i" x="175.6" y="19.5" transform="translate(-3.95 -3.32)"/><use height="100%" width="100%" xlink:href="#e" x="235.32" y="121.38" transform="translate(-3.95 -3.32)"/><use height="100%" width="100%" xlink:href="#g" x="248.85" y="115.21" transform="translate(-3.95 -3.32)"/><use height="100%" width="100%" xlink:href="#i" x="245.22" y="125.95" transform="translate(-3.95 -3.32)"/><use height="100%" width="100%" xlink:href="#e" x="220.41" y="269.4" transform="translate(-3.95 -3.32)"/><use height="100%" width="100%" xlink:href="#h" x="233.94" y="263.23" transform="translate(-3.95 -3.32)"/><use height="100%" width="100%" xlink:href="#i" x="230.3" y="273.96" transform="translate(-3.95 -3.32)"/><path d="M170.57 20l56.99 81.42m1 148.02a1 1 0 10-2 0 1 1 0 002 0zm-1-148.02V20M16.17 249.44L227.56 20m38.24 54.64v174.8" fill="none" stroke="#000" stroke-miterlimit="10"/><use height="100%" width="100%" xlink:href="#e" x="222.69" y="15.07" transform="translate(-3.95 -3.32)"/><use height="100%" width="100%" xlink:href="#j" x="232.59" y="19.27" transform="translate(-3.95 -3.32)"/><use height="100%" width="100%" xlink:href="#e" x="273.56" y="94.6" transform="translate(-3.95 -3.32)"/><use height="100%" width="100%" xlink:href="#g" x="287.1" y="88.43" transform="translate(-3.95 -3.32)"/><use height="100%" width="100%" xlink:href="#j" x="283.46" y="99.17" transform="translate(-3.95 -3.32)"/><use height="100%" width="100%" xlink:href="#e" x="258.65" y="269.4" transform="translate(-3.95 -3.32)"/><use height="100%" width="100%" xlink:href="#h" x="272.18" y="263.23" transform="translate(-3.95 -3.32)"/><use height="100%" width="100%" xlink:href="#j" x="268.55" y="273.96" transform="translate(-3.95 -3.32)"/><path d="M227.56 20l38.24 54.64m1 174.8a1 1 0 10-2 0 1 1 0 002 0zm-1-174.8V20" fill="none" stroke="#000" stroke-miterlimit="10"/><use height="100%" width="100%" xlink:href="#k" x="263.15" y="14.5" transform="translate(-3.95 -3.32)"/><use height="100%" width="100%" xlink:href="#l" x="313.62" y="67.03" transform="translate(-3.95 -3.32)"/><use height="100%" width="100%" xlink:href="#k" x="288.81" y="268.89" transform="translate(-3.95 -3.32)"/><path d="M265.8 20l25.66 36.68m1 192.76a1 1 0 10-2 0 1 1 0 002 0zm-1-192.76V20m0 0l17.22 24.62m1 204.82a1 1 0 10-2 0 1 1 0 002 0zm-1-204.82V20m0 0l11.55 16.53m1 212.91a1 1 0 10-2 0 1 1 0 002 0zm-1-212.91V20m0 0l7.75 11.1m1 218.34a1 1 0 10-2 0 1 1 0 002 0zm-1-218.34V20m0 0l5.2 7.46m1 221.98a1 1 0 10-2 0 1 1 0 002 0zm-1-221.98V20m0 0l3.5 5.02m1 224.42a1 1 0 10-2 0 1 1 0 002 0zm-1-224.42V20m0 0l2.33 3.37m1 226.07a1 1 0 10-2 0 1 1 0 002 0zm-1-226.07V20m0 0l1.58 2.28" fill="none" stroke="#000" stroke-miterlimit="10"/><path d="M341.59 249.44a1 1 0 10-2 0 1 1 0 002 0zm-1-227.16V20m0 0l1.05 1.54" fill="none" stroke="#000" stroke-miterlimit="10"/><path d="M342.64 249.44a1 1 0 10-2 0 1 1 0 002 0zm-1-227.9V20m0 0l.7 1.04" fill="none" stroke="#000" stroke-miterlimit="10"/><path d="M343.35 249.44a1 1 0 10-2 0 1 1 0 002 0zm-1-228.4V20m0 0l.47.71" fill="none" stroke="#000" stroke-miterlimit="10"/><path d="M343.82 249.44a1 1 0 10-2 0 1 1 0 002 0zm-1-228.73v-.7m0-.01l.32.49" fill="none" stroke="#000" stroke-miterlimit="10"/><path d="M344.14 249.44a1 1 0 10-2 0 1 1 0 002 0zm-1-228.95V20m0 0l.21.34" fill="none" stroke="#000" stroke-miterlimit="10"/><path d="M344.35 249.44a1 1 0 10-2 0 1 1 0 002 0zm-1-229.1V20m0 0l.15.24" fill="none" stroke="#000" stroke-miterlimit="10"/><path d="M344.5 249.44a1 1 0 10-2 0 1 1 0 002 0zm-1-229.2V20m0 0l.1.17" fill="none" stroke="#000" stroke-miterlimit="10"/><path d="M344.6 249.44a1 1 0 10-2 0 1 1 0 002 0zm-1-229.27V20m0 0l.06.12" fill="none" stroke="#000" stroke-miterlimit="10"/><path d="M344.66 249.44a1 1 0 10-2 0 1 1 0 002 0zm-1-229.32V20m0 0l.04.1" fill="none" stroke="#000" stroke-miterlimit="10"/><path d="M344.7 249.44a1 1 0 10-2 0 1 1 0 002 0zm-1-229.34V20" fill="none" stroke="#000" stroke-miterlimit="10"/></svg>