<svg xmlns="http://www.w3.org/2000/svg" xmlns:xlink="http://www.w3.org/1999/xlink" version="1.2" height="287.34" width="420.39"><defs><symbol id="a" overflow="visible"><path d="M8.81-6.34c0-.54-.44-1.18-1.34-1.18-.56 0-1.42.2-2.67 1.52-.49.52-1 1.02-1.53 1.33l1.7-6.78v-.02s.03-.33-.38-.33c-.4 0-1.62.14-2.04.17h-.02c-.15.02-.44.1-.44.47 0 .32.32.33.55.33.8 0 .63.16.63.16l-.05.31L.82-.8c-.05.22-.05.28-.05.4 0 .45.43.59.65.59.33 0 .63-.19.74-.4.1-.2.71-2.77.89-3.52.62.07 1.72.34 1.72 1.25 0 .12 0 .15-.07.3v.02c-.03.2-.06.41-.06.6 0 1 .72 1.75 1.74 1.75.6 0 1.1-.33 1.5-.96.43-.75.62-1.7.62-1.7v-.01c0-.25-.31-.29-.38-.29-.3 0-.35.2-.4.41C7.36-1.14 6.97-.44 6.4-.44c-.18 0-.38-.08-.38-.65 0-.27.08-.64.14-.9.06-.28.06-.35.06-.53 0-1.04-.98-1.56-2.3-1.78.43-.3.9-.75 1.23-1.08.82-.87 1.57-1.51 2.3-1.51h.07l.03.01c.03 0 .05.04.1.04a.98.98 0 00-.77.92c0 .3.22.7.81.7A1.1 1.1 0 008.8-6.34zm0 0"/></symbol><symbol id="b" overflow="visible"><path d="M2.72-5.44c.3-.68 1.15-.68 1.28-.68.3 0 .6.1 1 .25.52.18.77.25 1.06.26A25 25 0 013.9-3.67h-.02L2.34-2.31C1.17-1.21.56-.31.56-.11c0 .28.38.3.38.3.23 0 .33-.11.42-.3.39-.6.87-.98 1.3-.98.28 0 .42.09.84.57.3.36.63.7 1.22.7 1.87 0 2.84-2.2 2.84-2.68 0-.13-.1-.28-.37-.28-.3 0-.36.22-.4.3A2.05 2.05 0 014.9-1.2c-.29 0-.55-.1-.91-.2-.58-.23-.9-.32-1.28-.32h-.08c.75-.75 1.23-1.16 1.78-1.6 0 0 1.05-.88 1.67-1.48C7.7-6.33 8.11-7.1 8.11-7.22c0-.28-.36-.3-.36-.3-.2 0-.33.11-.4.25-.52.83-.83 1.04-1.13 1.04-.28 0-.45-.2-.74-.5-.3-.38-.64-.79-1.3-.79-1.45 0-2.23 1.68-2.23 2.05 0 .1.1.3.38.3.3 0 .36-.19.39-.27zm0 0"/></symbol><symbol id="c" overflow="visible"><path d="M7.98-5.52c0-1.32-.07-2.7-.68-3.96a3.3 3.3 0 00-3.05-1.97c-1.1 0-2.4.48-3.1 2.1A8.87 8.87 0 00.5-5.53c0 1.27.06 2.8.78 4.11A3.27 3.27 0 004.23.37a3.3 3.3 0 003.11-2.04c.57-1.19.64-2.52.64-3.85zm-1.75-.2c0 1.27 0 2.4-.18 3.47-.25 1.56-1.17 2-1.82 2-.54 0-1.5-.34-1.8-1.92-.18-.99-.18-2.55-.18-3.55 0-1.06 0-2.17.13-3.06.32-1.97 1.51-2.05 1.85-2.05.46 0 1.54.24 1.83 1.86.17.9.17 2.2.17 3.25zm0 0"/></symbol><symbol id="d" overflow="visible"><path d="M7.1.14l.2.02v-.82h-.72c-1.5 0-1.4-.12-1.4-.7v-9.52c0-.21.02-.37-.13-.5-.11-.07-.28-.07-.44-.07h-.1l-.04.04c-1 1.03-2.4 1.03-2.95 1.03h-.18v.8h.18c.3 0 1.18 0 2.04-.34v8.58c0 .56.1.68-1.4.68h-.72v.82l.19-.02C2.2.08 3.69.08 4.38.08c.67 0 2.15 0 2.73.06zm0 0"/></symbol><symbol id="e" overflow="visible"><path d="M4.1-3.1c2.63-2.3 3.7-3.24 3.7-4.98 0-1.95-1.58-3.37-3.77-3.37A3.26 3.26 0 00.7-8.27c0 1.05.98 1.08 1.06 1.08.4 0 1.06-.28 1.06-1.04 0-.46-.31-.99-1.06-1a2.25 2.25 0 012.06-1.44c1.38 0 2.11 1.23 2.11 2.6 0 1.32-.84 2.62-1.75 3.65L.91-.82c-.2.21-.22.3-.22.7V0H7.3l.02-.13.47-2.92.01-.12h-.75l-.03.1c-.08.48-.2 1.18-.33 1.41-.18.08-1.14.1-1.48.1H2.5zm0 0"/></symbol><symbol id="f" overflow="visible"><path d="M7.94-2.98c0-1.32-.92-2.6-2.57-3.08 1.25-.57 2.11-1.69 2.11-2.96 0-1.45-1.57-2.43-3.3-2.43C2.37-11.45 1-10.4 1-9.05c0 .6.42 1 1.05 1 .65 0 1.03-.45 1.03-.98 0-.7-.56-.9-.96-.95.54-.61 1.47-.8 1.99-.8.6 0 1.47.3 1.47 1.75a4 4 0 01-.47 1.87c-.47.77-.99.79-1.38.8h-.01c-.11.02-.55.05-.63.05h-.03c-.14.01-.39.08-.39.33 0 .3.3.32.58.32H4c1.22 0 1.84 1 1.84 2.64C5.84-.75 4.7-.36 4.1-.36c-.62 0-1.73-.23-2.32-1.02a1.04 1.04 0 001.01-1.06c0-.64-.5-1.06-1.1-1.06-.52 0-1.13.3-1.13 1.1C.55-.8 2.19.38 4.15.38c2.2 0 3.79-1.59 3.79-3.35zm0 0"/></symbol><symbol id="g" overflow="visible"><path d="M8-2.66h.17v-.78H6.48v-7.51c0-.3-.03-.57-.45-.57-.19 0-.34.07-.48.29L.33-3.36l-.02.03v.67h4.52v1.33c0 .56.08.67-1.13.67h-.53v.8l.19-.02C4.05.07 4.94.07 5.64.07c.72 0 1.63 0 2.3.07l.18.01v-.8H7.6c-1.2 0-1.1-.1-1.1-.67v-1.33zm-3.06-.78H1.22l3.72-5.6zm0 0"/></symbol><symbol id="h" overflow="visible"><path d="M7.8-3.5c0-2.03-1.4-3.81-3.4-3.81-.73 0-1.38.18-2 .65v-2.76c.33.1.83.17 1.29.17 2.19 0 3.45-1.58 3.45-1.9 0-.12-.06-.3-.34-.3h-.02c-.12.01-.2.06-.2.06a5.27 5.27 0 01-4.4.02h-.02a1.04 1.04 0 00-.25-.07h-.02c-.37 0-.34.31-.34.53v4.97c0 .27-.02.58.4.58a.4.4 0 00.38-.22c.19-.26.78-1.1 2.04-1.1.72 0 1.15.68 1.27 1 .27.59.31 1.23.31 2.05 0 .58 0 1.58-.39 2.25-.39.63-.98 1.02-1.67 1.02a2.51 2.51 0 01-2.28-1.58h.08c.7 0 1.01-.51 1.01-.95a.98.98 0 00-1.01-.97c-.33 0-1 .17-1 1.02A3.24 3.24 0 003.92.37 3.86 3.86 0 007.8-3.5zm0 0"/></symbol><symbol id="i" overflow="visible"><path d="M7.94-3.55c0-2.17-1.53-3.87-3.57-3.87a2.3 2.3 0 00-1.96 1.1c.09-3.96 2.07-4.46 2.8-4.46.35 0 .85.08 1.21.44-.36.06-.81.25-.81.87 0 .58.45.9.95.9.36 0 .96-.21.96-.93 0-1.06-.8-1.95-2.33-1.95C2.86-11.45.55-9.2.55-5.44.55-.94 2.53.38 4.27.38c2.03 0 3.67-1.7 3.67-3.93zm-1.88-.01c0 .8 0 1.64-.26 2.2-.5.95-1.2 1-1.53 1-.93 0-1.41-.92-1.52-1.17-.28-.77-.3-2.1-.3-2.4 0-1.32.58-2.85 1.9-2.85.24 0 .93-.05 1.43.95.28.6.28 1.44.28 2.27zm0 0"/></symbol><symbol id="j" overflow="visible"><path d="M8.42-10.97v-.1H4.11c-2.06 0-1.95-.21-2-.46l-.03-.1h-.72l-.02.11-.56 3.47-.01.16h.76L1.55-8c.04-.27.2-1.25.37-1.45.24-.05 1.35-.07 1.55-.07H6.7L4.94-7.06A11.77 11.77 0 002.83-.7c0 .14-.05 1.06.95 1.06.99 0 .94-.92.94-1.06v-.84c0-.92.06-1.86.19-2.75.07-.4.3-1.81 1.04-2.83l2.28-3.19c.14-.2.2-.32.2-.67zm0 0"/></symbol><symbol id="k" overflow="visible"><path d="M7.94-2.95c0-.64-.2-1.4-.86-2.13A6.12 6.12 0 005.53-6.2c1.13-.63 1.95-1.52 1.95-2.63 0-1.6-1.57-2.62-3.23-2.62C2.44-11.45 1-10.13 1-8.52c0 .3.03 1.11.78 1.93.2.2.67.5 1.11.8-.97.52-2.34 1.5-2.34 3.12C.55-.81 2.35.37 4.23.37c2.04 0 3.7-1.48 3.7-3.32zM6.39-8.83c0 .9-.58 1.63-1.51 2.2l-2-1.27c-.73-.46-.8-1-.8-1.28 0-.94 1.02-1.6 2.14-1.6 1.13 0 2.16.8 2.16 1.96zm.36 6.49c0 1.17-1.2 1.98-2.5 1.98-1.34 0-2.52-.97-2.52-2.31 0-.92.5-1.92 1.82-2.69l1.98 1.27c.47.3 1.22.78 1.22 1.75zm0 0"/></symbol><symbol id="l" overflow="visible"><path d="M7.94-5.66c0-4.54-1.97-5.8-3.64-5.8-.99 0-1.86.34-2.63 1.12a3.7 3.7 0 00-1.12 2.8c0 2.12 1.51 3.88 3.56 3.88.89 0 1.53-.45 1.95-1.12C6.02-1.02 4.31-.36 3.48-.36c-.23 0-.92-.02-1.35-.37.62-.13.75-.6.75-.86 0-.57-.47-.91-.96-.91-.36 0-.95.22-.95.94C.97-.37 1.97.38 3.5.38c2.36 0 4.44-2.43 4.44-6.04zM6.04-7.2c0 1.4-.62 2.9-1.92 2.9-.23 0-.9.05-1.42-.97-.3-.59-.3-1.43-.3-2.26 0-.92 0-1.67.35-2.27.45-.8 1.03-.98 1.55-.98.65 0 1.17.5 1.47 1.25.18.5.26 1.56.26 2.33zm0 0"/></symbol><symbol id="m" overflow="visible"><path d="M12.44-4.25a.5.5 0 00-.5-.52H1.3c-.3 0-.52.24-.52.52s.22.53.52.53h10.64c.28 0 .5-.25.5-.53zm0 0"/></symbol></defs><path d="M27.76 271.52v-240m40 240v-240m40 240v-240m40 240v-240m40 240v-240m40 240v-240m40 240v-240m40 240v-240m40 240v-240m40 240v-240m-360 240h360m-360-40h360m-360-40h360m-360-40h360m-360-40h360m-360-40h360m-360-40h360" fill="none" stroke="#cacaca" stroke-miterlimit="10"/><path d="M27.76 231.52h374.8" fill="none" stroke="#000" stroke-miterlimit="10"/><path d="M407.76 231.52a21.02 21.02 0 01-5.78-2.17v4.34a20.9 20.9 0 015.78-2.17"/><use height="100%" width="100%" y="240.65" x="415.68" xlink:href="#a" transform="translate(-4.1 -3.32)"/><path d="M27.76 271.52V16.73" fill="none" stroke="#000" stroke-miterlimit="10"/><path d="M27.76 11.52a20.9 20.9 0 01-2.17 5.8h4.35a20.9 20.9 0 01-2.18-5.8"/><use height="100%" width="100%" y="10.83" x="27.91" xlink:href="#b" transform="translate(-4.1 -3.32)"/><path d="M27.76 234.52v-6m40 6v-6m40 6v-6m40 6v-6m40 6v-6m40 6v-6m40 6v-6m40 6v-6m40 6v-6m40 6v-6" fill="none" stroke="#000" stroke-miterlimit="10"/><use height="100%" width="100%" y="290.12" x="27.62" xlink:href="#c" transform="translate(-4.1 -3.32)"/><use height="100%" width="100%" y="290.12" x="67.62" xlink:href="#d" transform="translate(-4.1 -3.32)"/><use height="100%" width="100%" y="290.12" x="107.63" xlink:href="#e" transform="translate(-4.1 -3.32)"/><use height="100%" width="100%" y="290.12" x="147.62" xlink:href="#f" transform="translate(-4.1 -3.32)"/><use height="100%" width="100%" y="290.17" x="187.62" xlink:href="#g" transform="translate(-4.1 -3.32)"/><use height="100%" width="100%" y="290.12" x="227.62" xlink:href="#h" transform="translate(-4.1 -3.32)"/><use height="100%" width="100%" y="290.12" x="267.61" xlink:href="#i" transform="translate(-4.1 -3.32)"/><use height="100%" width="100%" y="290.29" x="307.62" xlink:href="#j" transform="translate(-4.1 -3.32)"/><use height="100%" width="100%" y="290.12" x="347.61" xlink:href="#k" transform="translate(-4.1 -3.32)"/><use height="100%" width="100%" y="290.12" x="387.61" xlink:href="#l" transform="translate(-4.1 -3.32)"/><path d="M24.76 271.52h6m-6-20h6m-6-20h6m-6-20h6m-6-20h6m-6-20h6m-6-20h6m-6-20h6m-6-20h6m-6-20h6m-6-20h6m-6-20h6m-6-20h6" fill="none" stroke="#000" stroke-miterlimit="10"/><g transform="translate(-4.1 -3.32)"><use height="100%" width="100%" y="280.52" x="3.32" xlink:href="#m"/><use height="100%" width="100%" y="280.52" x="16.55" xlink:href="#g"/></g><use height="100%" width="100%" y="240.38" x="16.55" xlink:href="#c" transform="translate(-4.1 -3.32)"/><use height="100%" width="100%" y="200.53" x="16.55" xlink:href="#g" transform="translate(-4.1 -3.32)"/><use height="100%" width="100%" y="160.38" x="16.55" xlink:href="#k" transform="translate(-4.1 -3.32)"/><g transform="translate(-4.1 -3.32)"><use height="100%" width="100%" y="120.49" x="8.06" xlink:href="#d"/><use height="100%" width="100%" y="120.49" x="16.56" xlink:href="#e"/></g><g transform="translate(-4.1 -3.32)"><use height="100%" width="100%" y="80.38" x="8.05" xlink:href="#d"/><use height="100%" width="100%" y="80.38" x="16.55" xlink:href="#i"/></g><g transform="translate(-4.1 -3.32)"><use height="100%" width="100%" y="40.38" x="8.06" xlink:href="#e"/><use height="100%" width="100%" y="40.38" x="16.55" xlink:href="#c"/></g><path d="M31.76 231.52a4 4 0 10-8 0 4 4 0 008 0zm0 0" fill="#00f"/><path d="M29.76 231.52a2 2 0 10-4 0 2 2 0 004 0zm0 0" fill="red"/><path d="M71.76 51.92a4 4 0 10-8 0 4 4 0 008 0zm0 0" fill="#00f"/><path d="M69.76 243.01a2 2 0 10-4 0 2 2 0 004 0zm0 0" fill="red"/><path d="M111.76 53.12a4 4 0 10-8 0 4 4 0 008 0zm0 0" fill="#00f"/><path d="M109.76 254.9a2 2 0 10-4 0 2 2 0 004 0zm0 0" fill="red"/><path d="M151.76 55.12a4 4 0 10-8 0 4 4 0 008 0zm0 0" fill="#00f"/><path d="M149.76 229.92a2 2 0 10-4 0 2 2 0 004 0zm0 0" fill="red"/><path d="M191.76 57.92a4 4 0 10-8 0 4 4 0 008 0zm0 0" fill="#00f"/><path d="M189.76 205.33a2 2 0 10-4 0 2 2 0 004 0zm0 0" fill="red"/><path d="M231.76 61.52a4 4 0 10-7.99 0 4 4 0 008 0zm0 0" fill="#00f"/><path d="M229.76 181.15a2 2 0 10-4 0 2 2 0 004 0zm0 0" fill="red"/><path d="M271.76 65.92a4 4 0 10-8 0 4 4 0 008 0zm0 0" fill="#00f"/><path d="M269.76 157.36a2 2 0 10-4 0 2 2 0 004 0zm0 0" fill="red"/><path d="M311.76 71.12a4 4 0 10-8 0 4 4 0 008 0zm0 0" fill="#00f"/><path d="M309.76 133.97a2 2 0 10-4 0 2 2 0 004 0zm0 0" fill="red"/><path d="M351.76 77.12a4 4 0 10-8 0 4 4 0 008 0zm0 0" fill="#00f"/><path d="M349.76 110.98a2 2 0 10-4 0 2 2 0 004 0zm0 0" fill="red"/><path d="M391.76 83.92a4 4 0 10-8 0 4 4 0 008 0zm0 0" fill="#00f"/><path d="M389.76 88.4a2 2 0 10-4-.01 2 2 0 004 0zm0 0" fill="red"/></svg>