<svg version="1" xmlns="http://www.w3.org/2000/svg" width="970.667" height="970.667" viewBox="0 0 728.000000 728.000000"><path d="M194.6 169.6c-1.4 1.5-3.1 4.5-3.7 6.8-.5 2.2-1.9 6.3-2.9 9.1-2.8 7.7-24.5 60-29.5 71-.8 1.6-4.8 11.1-9.1 21-4.2 9.9-8.6 20.2-9.9 23-1.2 2.7-4.1 9.5-6.5 15-2.3 5.5-5.3 12.5-6.7 15.5-1.4 3-4.9 10.9-7.8 17.5-7 16.2-22.6 51.4-26.5 59.9-1.7 3.9-3.8 8.6-4.7 10.5-.9 2-3.1 6.9-4.9 10.9-1.9 4-3.4 7.5-3.4 7.8 0 .4-1.4 3.4-12.9 27.7-7.4 15.7-15.1 27-24 35.1-1.9 1.7-3.9 3.6-4.6 4.3-1.8 1.8-13.6 8.7-17.3 10.3-4.9 2-6.2 3.7-6.2 8.3 0 9.1-.1 9 11.4 8.3 5.6-.4 12.4-.9 15.1-1.1 6.3-.6 39-.7 43-.1 4.4.6 21.1 1.9 27.3 2.1 5.9.1 7-.7 7.6-5.5.7-6.1-1-8.7-6.2-9.9-2.6-.5-6.3-1.6-8.2-2.5-5-2-12.6-9-15.8-14.4-5-8.6-3.2-23.3 5.9-47.7 4-10.5 12-30.3 16-39.2 1.1-2.3 1.9-4.4 1.9-4.7 0-.3 1.1-2.9 2.4-5.8 1.3-2.9 4.5-10.5 7.1-16.8 8-19.3 42.7-100.3 50-116.5 1.2-2.8 4.4-9.8 7-15.8 2.6-5.9 4.9-10.6 5-10.5.2.2 5.8 13.6 12.5 29.8 6.7 16.2 13.2 32 14.5 35 1.3 3 9 21.5 17 41 8.1 19.5 15.4 37.1 16.2 39 .8 1.9 2 4.6 2.5 6 .6 1.4 1.4 3.4 1.9 4.5 4.2 10 8.6 21.4 13.4 34 3.1 8.2 5.9 15.7 6.2 16.5.3.8.7 1.7.8 2 .1.3.7 1.8 1.4 3.5.6 1.6 1.7 4.3 2.3 6 .6 1.6 2.9 7.1 5 12.1 8 19.2 3.6 30.8-15.1 39.5-6 2.9-19.5 6.9-23.1 6.9-4.3 0-7.3 6.6-4.9 11.1.9 1.7 2.4 1.7 42.4.4 34-1.2 61.9-.8 89 1.1 18 1.3 19.5 1.2 20.6-.8.6-1 .9-3.7.7-6-.3-4-.4-4.2-4.8-5.3-13.5-3.4-26.5-13.6-36.4-28.5-7.3-10.9-24.1-47.1-53.6-115.5-6.1-14.3-12.3-28.4-13.6-31.3-1.3-2.9-2.4-5.5-2.4-5.8 0-.3-.9-2.4-1.9-4.7-1-2.3-3.8-8.7-6.1-14.2s-4.8-11.4-5.5-13c-.8-1.7-2.6-5.9-4-9.5-1.5-3.6-3.3-7.9-4-9.5-.7-1.7-5-12-9.5-23s-8.8-21.4-9.5-23c-4.6-10.5-23.6-59-25-63.9-1-3.3-2.8-7-4.1-8.3-3.2-3.2-8.3-3.1-11.8.3zM457.5 176.2c-1.1 2.8-1.3 10.3-.2 11.4.2.2 4.3.6 9.1.9 30.2 1.8 43.5 13.5 44.5 39.2l.2 6.3-3.3.1c-1.8 0-4.6.2-6.3.4-1.6.2-5.5.7-8.5 1-3 .3-9.1 1.2-13.5 2s-9.1 1.6-10.5 1.9c-20 3.5-46 13.8-62.1 24.7-16.2 10.9-28.3 24.8-35.9 41.3-6.7 14.7-8.5 23.6-8.5 43.1 0 17.2.7 22.4 4.6 34.5 11.4 35.3 44.1 61.3 92.9 73.5 4 1 21.9 4.5 25 4.9 1.9.2 6 .7 9 1.1 5.1.7 9.8 1.1 15.9 1.4l2.3.1-.5 11.7c-.9 20.4-5.9 30.4-18.4 37-6 3.2-16.2 5.9-26.1 6.9-6.9.8-8.2 1.7-8.2 5.9 0 6.7-.8 6.5 19.8 5.7 24.3-.8 99.7-.8 117.9.1 12.9.6 14.3.5 15.2-1.1 1.1-2 .7-8-.5-9.2-.5-.4-4.3-1-8.5-1.3-29.3-2.1-39.1-12.6-40.5-42.7l-.7-13 3.4-.1c1.9 0 4.3-.2 5.4-.4 1.1-.2 4.5-.6 7.5-.9 9.1-.9 14-1.7 24-3.8 5.2-1.1 10.5-2.1 11.8-2.4 6.5-1.3 27.5-8.9 36.5-13.3 31.2-15 51.5-37.8 58.8-65.9 4.1-15.7 4.4-39.3.8-53.7-10.9-42.7-46.3-70.9-105-83.8-10.8-2.4-14-3-24.9-4.3-2.5-.3-5.8-.7-7.5-.9-1.6-.2-4.1-.4-5.4-.4-2.3-.1-2.4-.3-1.8-6.4 2.5-25.8 16.3-37.6 45.7-38.8 5.9-.3 7-1.3 7-6.6 0-8.3 1.2-8-25.2-7.5-55.1 1.2-121.5.5-131.1-1.3-2.4-.5-3-.1-4.2 2.7zm53.6 115.6c.1 25.1.3 71.5.4 103 .1 31.5 0 57.4-.4 57.6-.3.2-3.1 0-6.1-.5-3-.5-7.1-1.1-9-1.4-17-2.7-37.5-12.4-48.7-23.2-14.2-13.7-23.1-34.5-25.8-60.2-1.2-11.6-.6-37 1-43.1.2-.8.7-3.4 1-5.8.3-2.3 1.7-7.6 3.1-11.8 10.4-32.1 33.7-51.1 71.3-58.2 5.1-1 10.1-1.8 11.2-1.9 1.9-.2 1.9.9 2 45.5zM581 250c19.9 5 37.8 15 49.4 27.5 12.4 13.4 20.5 31.9 23.3 53.5 1 7.3 1 29.8 0 38-4.9 40-26.6 66.7-63.5 78.2-5.2 1.6-25 5.8-27.4 5.8-.6 0-.5-14 .8-113 .3-28.9.7-61.6.8-72.8l.1-20.3 4 .5c2.2.2 7.8 1.4 12.5 2.6z"/></svg>