<svg xmlns="http://www.w3.org/2000/svg" width="344.29" height="163.33" viewBox="0 0 344.29 163.33"><defs><clipPath id="a" clipPathUnits="userSpaceOnUse"><path d="M-43-88.27h258.2v122.5H-43Z"/></clipPath></defs><path d="M44.04-87.36c-.96 0-2.04.84-2.27 2.52-.73 3.6-29.4 68.88-31.33 72C6.72-6.96 4.08-5.3-.12-3.36c-.48.24-.6.72-.6 1.32C-.71-.48-.6.23.13.23c1.56 0 6.96-.6 10.69-.6 5.27 0 9.23.73 12.6.73.7 0 .95-.84.95-1.8s-.24-1.68-1.32-1.8c-3.23-.36-6.71-3.48-6.71-6.72 0-5.04 3.6-12.48 7.79-22.68C30-46.68 38.64-66.72 39.96-69.24L55.2-32.52c3.6 8.64 6.24 16.44 7.44 18.84.6 1.2.84 2.52.84 3.48 0 5.52-8.15 7.08-11.04 7.56-.36.12-.48.72-.48 1.44s.12 1.32.48 1.32c3.6 0 12.48-.48 17.89-.48 10.07 0 15.71.72 17.87.72.36 0 .6-.84.6-1.56s-.12-1.32-.36-1.32c-3.36-.6-6.96-2.88-9.84-7.32-4.44-6.97-29.52-66.84-32.27-75-.13-1.56-1.1-2.52-2.29-2.52m122.88 43.68c0-17.4-15.12-26.04-35.52-27.6.36-7.92 3.96-10.92 12.36-10.92.24 0 .48-.84.48-1.68s-.24-1.68-.48-1.68c-6.6 0-12.96.36-18.73.36-6.83 0-12.94-.13-18.83-.6-.36 0-.72.96-.72 2.03 0 .73.12 1.44.48 1.44 9.6 0 12.6 3.49 12.6 10.1v.94C97.93-69.96 82.8-61.33 82.8-43.68c0 17.76 15.23 26.28 36 27.6v2.64c0 8.52-4.56 10.2-12.23 10.92-.25 0-.48.6-.48 1.44 0 .72.23 1.31.48 1.31 6.46-.35 12.46-.47 17.87-.47 6.24 0 12 0 17.88.47.36 0 .6-.6.6-1.3 0-.74-.12-1.45-.35-1.45-8.65-.36-11.77-2.52-11.77-11.29v-2.27c20.77-1.44 36.12-9.96 36.12-27.6M118.8-18.72c-13.2-1.32-21.96-7.68-21.96-24.96 0-16.68 8.64-23.28 21.73-24.72 0 9.36.23 32.88.23 49.68m12.6-49.57c12.72 1.8 21.72 9.13 21.72 24.61 0 16.8-9.24 23.52-22.32 24.96zm0 0" aria-label="ΛΦ" clip-path="url(#a)" style="fill:#333;fill-opacity:1;fill-rule:nonzero;stroke:none" transform="translate(57.35 139.67)scale(1.33333)"/></svg>